<?xml version="1.0" encoding="utf-8"?>
<!-- Generator: Adobe Illustrator 16.0.0, SVG Export Plug-In . SVG Version: 6.00 Build 0)  -->
<!DOCTYPE svg PUBLIC "-//W3C//DTD SVG 1.1//EN" "http://www.w3.org/Graphics/SVG/1.1/DTD/svg11.dtd">
<svg version="1.1" id="Layer_1" xmlns="http://www.w3.org/2000/svg" xmlns:xlink="http://www.w3.org/1999/xlink" x="0px" y="0px"
	 width="18.177px" height="20px" viewBox="0 0 18.177 20" enable-background="new 0 0 18.177 20" xml:space="preserve">
<path fill="#808080" d="M17.786,15.784c-0.371-0.953-1.146-1.492-2.436-1.697c-0.339-0.054-0.693-0.088-1.037-0.121
	c-0.837-0.08-1.703-0.164-2.447-0.537c-0.579-0.291-0.658-0.785-0.759-1.418l-0.022-0.131c-0.07-0.406-0.155-0.91,0.158-1.141
	c0.985-0.727,1.511-1.775,1.933-2.801l0.067-0.161c0.347-0.827,0.992-2.368,0.238-3.091c-0.036-0.034-0.095-0.07-0.164-0.112
	c-0.055-0.033-0.157-0.095-0.17-0.101c-0.023-0.248-0.062-0.51-0.121-0.828c-0.111-0.594-0.31-1.156-0.592-1.674
	c-0.502-0.922-1.41-1.57-2.555-1.828C8.266-0.22,6.69,0.116,5.661,1.041c-0.439,0.396-0.787,0.941-1.093,1.72
	c-0.177,0.447-0.282,0.92-0.362,1.322C4.2,4.116,4.195,4.163,4.191,4.214c-0.007,0.071-0.023,0.26-0.064,0.281
	C3.991,4.569,3.888,4.65,3.782,4.769C3.426,5.163,3.365,5.814,3.6,6.704c0.176,0.664,0.572,1.278,0.955,1.873
	c0.148,0.229,0.288,0.445,0.414,0.664c0.427,0.734,1.022,1.257,1.546,1.67c0.171,0.135,0.259,0.495,0.235,0.965
	c-0.035,0.695-0.294,1.387-0.589,1.575c-0.034,0.021-0.058,0.052-0.071,0.086c-0.515,0.127-1.045,0.228-1.558,0.325
	c-0.544,0.104-1.106,0.209-1.653,0.347c-0.849,0.214-1.494,0.513-2.087,1.339c-0.756,1.051-0.996,2.68-0.611,4.148
	c0.032,0.124,0.144,0.21,0.277,0.215C2.161,19.976,3.875,20,5.588,20c2.537,0,5.071-0.053,7.554-0.104
	c1.555-0.032,3.163-0.066,4.743-0.086c0.156-0.002,0.283-0.131,0.284-0.285c0.001-0.148,0.002-0.299,0.004-0.448
	C18.183,17.974,18.195,16.833,17.786,15.784 M0.696,19.3c0.009,0.012,0.015,0.023,0.025,0.034c-0.007,0-0.014,0-0.021,0
	C0.698,19.322,0.699,19.312,0.696,19.3 M12.682,19.334c-0.18-0.138-0.414-0.264-0.527-0.346c-0.437-0.319-0.862-0.665-1.292-0.993
	c-0.02-0.015-0.046,0.01-0.04,0.031c0.056,0.195,0.214,0.292,0.362,0.424c0.274,0.244,0.548,0.484,0.838,0.709
	c0.081,0.064,0.165,0.124,0.25,0.184c-0.212,0.004-0.424,0.008-0.636,0.012c-0.201-0.153-0.403-0.305-0.604-0.457
	c-0.26-0.196-0.59-0.362-0.778-0.635c-0.045-0.065-0.145-0.01-0.107,0.063c0.151,0.284,0.392,0.467,0.646,0.656
	c0.158,0.117,0.306,0.255,0.462,0.38c-0.195,0.003-0.389,0.008-0.585,0.011c-0.202-0.16-0.41-0.318-0.623-0.456
	c-0.256-0.167-0.518-0.389-0.796-0.515c-0.031-0.014-0.077,0.01-0.064,0.05c0.087,0.25,0.396,0.421,0.603,0.562
	c0.161,0.109,0.314,0.242,0.474,0.367c-0.158,0.002-0.316,0.004-0.474,0.006c-0.493-0.321-0.966-0.765-1.518-0.947
	c-0.047-0.016-0.09,0.053-0.05,0.086c0.35,0.287,0.729,0.611,1.128,0.865c-0.232,0.004-0.466,0.006-0.699,0.009
	c-0.211-0.166-0.419-0.335-0.629-0.503c-0.18-0.145-0.398-0.358-0.638-0.372c-0.035-0.001-0.057,0.04-0.039,0.069
	c0.127,0.211,0.403,0.363,0.59,0.522c0.113,0.095,0.226,0.192,0.34,0.288c-0.168,0.002-0.334,0.004-0.502,0.006
	c-0.18-0.16-0.44-0.264-0.641-0.391c-0.242-0.152-0.435-0.354-0.665-0.519c-0.034-0.024-0.07,0.015-0.063,0.048
	c0.052,0.25,0.3,0.422,0.493,0.566c0.127,0.094,0.279,0.205,0.437,0.301c-0.198,0.001-0.396,0-0.593,0.002
	C6.594,19.3,6.417,19.2,6.283,19.091C6.063,18.91,5.851,18.708,5.6,18.57c-0.045-0.024-0.109,0.028-0.075,0.075
	c0.185,0.256,0.428,0.466,0.667,0.669c0.037,0.03,0.077,0.065,0.117,0.101c-0.157,0.001-0.313-0.001-0.47-0.001
	c-0.108-0.114-0.233-0.216-0.356-0.307c-0.219-0.161-0.447-0.321-0.682-0.457c-0.069-0.041-0.173,0.045-0.118,0.118
	c0.211,0.275,0.544,0.429,0.815,0.645c-0.224,0-0.447,0-0.671-0.001c-0.109-0.078-0.217-0.155-0.324-0.235
	c-0.211-0.156-0.413-0.336-0.637-0.474c-0.041-0.024-0.081,0.017-0.075,0.058c0.042,0.234,0.359,0.433,0.53,0.569
	c0.035,0.027,0.071,0.054,0.107,0.081c-0.184-0.002-0.368,0-0.552-0.002c-0.084-0.059-0.165-0.119-0.244-0.182
	c-0.156-0.123-0.343-0.293-0.553-0.285c-0.055,0.003-0.082,0.066-0.044,0.107c0.122,0.133,0.283,0.238,0.432,0.35
	c-0.122-0.002-0.243-0.006-0.364-0.008c-0.057-0.041-0.115-0.077-0.167-0.11c-0.173-0.112-0.357-0.233-0.551-0.306
	c-0.054-0.02-0.103,0.05-0.074,0.096c0.09,0.135,0.226,0.223,0.36,0.309c-0.124-0.002-0.248-0.005-0.373-0.008
	c-0.009-0.008-0.02-0.017-0.029-0.023c-0.126-0.11-0.292-0.248-0.468-0.246c-0.058,0-0.085,0.07-0.046,0.111
	c0.051,0.055,0.111,0.103,0.171,0.148c-0.083-0.002-0.167-0.003-0.251-0.005c-0.002-0.002-0.004-0.003-0.006-0.005
	c-0.146-0.082-0.292-0.154-0.419-0.266c-0.029-0.025-0.076-0.009-0.077,0.032c-0.004,0.095,0.042,0.167,0.103,0.228
	c-0.082-0.002-0.164-0.002-0.245-0.006c-0.104-0.074-0.226-0.16-0.349-0.172c-0.206-1.166,0.008-2.388,0.61-3.313
	c0.518-0.797,1.297-0.98,2.199-1.191l0.043-0.011c0.991-0.233,1.818-0.447,2.641-0.881c0.052,0.028,0.116,0.03,0.174-0.001
	c0.416-0.223,0.685-0.795,0.798-1.701l0.017-0.132c0.047-0.339,0.111-0.804-0.038-1.105c-0.083-0.168-0.261-0.296-0.419-0.407
	c-0.053-0.039-0.104-0.076-0.147-0.111C5.853,9.734,5.424,8.999,4.971,8.22L4.76,7.861C4.515,7.449,4.263,7.022,4.113,6.56
	c-0.177-0.545-0.23-1.422,0.344-1.611c0.076-0.025,0.17-0.093,0.186-0.199c0.136-0.93,0.384-2.113,1.11-3.023
	C6.379,0.94,7.356,0.56,8.739,0.56h0.047c0.832,0.005,2.001,0.214,2.856,1.18c0.123,0.141,0.227,0.295,0.321,0.456
	c0.013,0.056,0.043,0.106,0.084,0.147c0.065,0.123,0.122,0.25,0.174,0.379c-0.022-0.008-0.043-0.022-0.065-0.025
	c-0.031-0.004-0.066,0.02-0.055,0.055c0.03,0.09,0.103,0.143,0.173,0.202c0.013,0.011,0.028,0.024,0.041,0.036
	c0.021,0.064,0.044,0.126,0.062,0.191c-0.003,0-0.007-0.002-0.011-0.002c-0.037,0.008-0.055,0.056-0.035,0.086
	c0.022,0.037,0.057,0.058,0.088,0.082c0.021,0.082,0.042,0.164,0.059,0.244c-0.043-0.011-0.086-0.016-0.129-0.004
	c-0.022,0.008-0.036,0.035-0.022,0.057c0.046,0.07,0.12,0.125,0.194,0.178c0.013,0.068,0.025,0.136,0.035,0.202
	c-0.073-0.043-0.155-0.076-0.219-0.028c-0.018,0.014-0.024,0.028-0.021,0.051c0.015,0.096,0.149,0.153,0.218,0.213
	c0.021,0.02,0.042,0.041,0.064,0.063c0.006,0.058,0.011,0.108,0.017,0.163c-0.034-0.008-0.067-0.018-0.101-0.016
	c-0.041,0.002-0.062,0.049-0.033,0.08c0.05,0.053,0.11,0.098,0.167,0.145c0.023,0.097,0.078,0.172,0.174,0.204
	c0.179,0.06,0.301,0.167,0.375,0.327c0.028,0.062,0.045,0.133,0.058,0.205c-0.002,0-0.004-0.002-0.006-0.004
	c-0.163-0.123-0.348-0.274-0.553-0.315c-0.048-0.009-0.074,0.041-0.045,0.077c0.124,0.16,0.31,0.283,0.466,0.41
	c0.05,0.041,0.105,0.09,0.159,0.135c-0.002,0.063-0.011,0.126-0.019,0.189c-0.033-0.02-0.067-0.041-0.099-0.06
	c-0.13-0.071-0.292-0.19-0.439-0.218c-0.036-0.006-0.077,0.023-0.063,0.063c0.043,0.123,0.186,0.198,0.287,0.269
	c0.093,0.063,0.186,0.123,0.275,0.188c-0.023,0.111-0.05,0.222-0.082,0.333c-0.037-0.025-0.074-0.051-0.109-0.076
	c-0.143-0.103-0.313-0.221-0.495-0.228c-0.055-0.002-0.078,0.067-0.043,0.104c0.106,0.113,0.252,0.193,0.377,0.285
	c0.064,0.049,0.129,0.104,0.196,0.157c-0.034,0.103-0.068,0.199-0.103,0.292c-0.09-0.074-0.188-0.141-0.253-0.188
	c-0.027-0.019-0.482-0.262-0.445-0.104c0.012,0.051,0.079,0.084,0.115,0.115c0.085,0.072,0.179,0.134,0.264,0.203
	c0.08,0.064,0.156,0.135,0.229,0.207l0,0c-0.031,0.08-0.062,0.154-0.088,0.218L12.73,7.611c-0.058-0.056-0.118-0.112-0.172-0.161
	c-0.095-0.089-0.278-0.27-0.422-0.229c-0.014,0.006-0.024,0.021-0.019,0.035c0.018,0.061,0.065,0.092,0.109,0.135
	c0.078,0.074,0.15,0.158,0.222,0.238c0.058,0.064,0.118,0.144,0.181,0.219c-0.044,0.105-0.089,0.211-0.135,0.316
	c-0.038-0.027-0.076-0.057-0.111-0.083c-0.119-0.087-0.245-0.173-0.388-0.212c-0.063-0.018-0.113,0.064-0.064,0.11
	c0.103,0.094,0.217,0.177,0.325,0.266c0.049,0.04,0.098,0.081,0.145,0.123c-0.042,0.089-0.092,0.173-0.136,0.261
	c-0.022-0.015-0.043-0.029-0.064-0.045c-0.106-0.07-0.219-0.148-0.343-0.187c-0.051-0.017-0.099,0.045-0.07,0.091
	c0.087,0.141,0.241,0.236,0.375,0.335c-0.054,0.099-0.111,0.194-0.17,0.288c-0.032-0.023-0.066-0.051-0.091-0.071
	c-0.084-0.071-0.192-0.169-0.305-0.186c-0.076-0.011-0.123,0.063-0.073,0.125c0.071,0.088,0.169,0.161,0.252,0.239
	c0.026,0.023,0.056,0.055,0.084,0.084c-0.05,0.072-0.097,0.148-0.151,0.217c-0.031-0.03-0.062-0.061-0.089-0.086
	c-0.085-0.08-0.236-0.221-0.364-0.164c-0.034,0.015-0.038,0.061-0.023,0.089c0.044,0.087,0.164,0.161,0.231,0.231
	c0.033,0.035,0.062,0.076,0.091,0.116c-0.043,0.05-0.094,0.093-0.139,0.14c-0.006-0.006-0.014-0.014-0.021-0.02
	c-0.079-0.079-0.206-0.222-0.33-0.205c-0.029,0.003-0.052,0.025-0.044,0.057c0.029,0.11,0.158,0.209,0.231,0.291
	c0.006,0.008,0.013,0.016,0.018,0.022c-0.055,0.052-0.101,0.113-0.16,0.161c-0.02-0.016-0.039-0.033-0.059-0.047
	c-0.042-0.028-0.207-0.092-0.206,0.016c0.001,0.066,0.075,0.111,0.116,0.153h0.001c-0.053,0.044-0.103,0.085-0.146,0.124
	c-0.058-0.042-0.12-0.075-0.183-0.069c-0.034,0.003-0.064,0.04-0.042,0.073c0.028,0.045,0.069,0.079,0.107,0.115
	c-0.052,0.062-0.091,0.127-0.121,0.203c-0.13-0.086-0.292-0.162-0.385-0.076c-0.021,0.019-0.016,0.048,0,0.068
	c0.04,0.051,0.115,0.075,0.169,0.107c0.055,0.031,0.11,0.064,0.163,0.1c-0.015,0.092-0.025,0.195-0.026,0.324
	c-0.008,0.75,0.05,1.688,0.577,2.287c0.462,0.527,1.232,0.7,1.982,0.832c0.401,0.07,0.811,0.116,1.208,0.159
	c0.441,0.048,0.899,0.098,1.341,0.184c0.556,0.108,0.956,0.354,1.247,0.688c-0.204-0.17-0.421-0.344-0.668-0.428
	c-0.042-0.014-0.065,0.041-0.04,0.069c0.213,0.25,0.505,0.449,0.752,0.665c0.108,0.094,0.219,0.196,0.333,0.292
	c0.067,0.149,0.122,0.306,0.167,0.468c-0.168-0.123-0.348-0.236-0.489-0.354c-0.302-0.252-0.617-0.617-0.982-0.774
	c-0.047-0.02-0.101,0.023-0.073,0.073c0.192,0.344,0.593,0.615,0.89,0.865c0.206,0.174,0.475,0.457,0.748,0.613
	c0.024,0.131,0.043,0.265,0.058,0.4c-0.232-0.173-0.473-0.333-0.711-0.498c-0.488-0.338-0.911-0.746-1.446-1.018
	c-0.053-0.026-0.108,0.041-0.063,0.085c0.664,0.688,1.521,1.136,2.249,1.743c0.014,0.205,0.022,0.414,0.026,0.621
	c-0.923-0.668-1.808-1.397-2.748-2.039c-0.039-0.026-0.094,0.027-0.066,0.065c0.346,0.466,0.833,0.802,1.298,1.142
	c0.504,0.369,1.006,0.758,1.519,1.115c0,0.18-0.001,0.357-0.003,0.531c-0.053-0.034-0.109-0.068-0.156-0.105
	c-0.358-0.271-0.686-0.57-1.013-0.879c-0.588-0.556-1.348-1.084-2.046-1.49c-0.018-0.01-0.039,0.011-0.029,0.029
	c0.447,0.762,1.435,1.176,2.064,1.77c0.184,0.174,0.588,0.615,0.973,0.89c-0.147,0.002-0.294,0.005-0.441,0.007
	c-0.218-0.166-0.421-0.384-0.605-0.554c-0.728-0.671-1.545-1.192-2.348-1.769c-0.046-0.034-0.114,0.033-0.08,0.08
	c0.53,0.72,1.446,1.08,2.09,1.692c0.126,0.12,0.326,0.351,0.545,0.558c-0.144,0.002-0.288,0.006-0.432,0.008
	c-0.482-0.317-0.975-0.608-1.424-0.977c-0.476-0.388-0.953-0.804-1.495-1.097c-0.051-0.028-0.105,0.039-0.063,0.081
	c0.775,0.771,1.676,1.398,2.585,2c-0.297,0.005-0.594,0.01-0.892,0.016c-0.458-0.314-0.887-0.646-1.309-1.02
	c-0.322-0.285-0.714-0.686-1.173-0.678c-0.033,0-0.045,0.045-0.017,0.063c0.772,0.482,1.419,1.113,2.15,1.641
	c-0.222,0.006-0.444,0.008-0.666,0.014c-0.482-0.262-0.926-0.582-1.328-0.954c-0.207-0.192-0.466-0.485-0.762-0.525
	c-0.058-0.009-0.106,0.071-0.044,0.103c0.278,0.136,0.537,0.484,0.761,0.695c0.277,0.262,0.597,0.489,0.928,0.689
	C13.146,19.325,12.914,19.329,12.682,19.334"/>
<path fill="#808080" d="M9.783,10.712c-0.034-0.025-0.098-0.004-0.08,0.047c0.057,0.166,0.23,0.346,0.392,0.41
	c0.066,0.028,0.128-0.063,0.091-0.119c-0.041-0.063-0.098-0.1-0.158-0.146C9.944,10.843,9.865,10.775,9.783,10.712"/>
<path fill="#808080" d="M9.367,10.87c-0.045-0.029-0.09,0.02-0.083,0.063c0.025,0.146,0.172,0.286,0.291,0.364
	c0.072,0.049,0.172-0.049,0.121-0.123C9.616,11.061,9.485,10.946,9.367,10.87"/>
<path fill="#808080" d="M9.072,11.031c-0.064-0.04-0.122,0.036-0.095,0.095c0.017,0.037,0.035,0.071,0.053,0.106
	c0.052,0.103,0.215,0.007,0.153-0.089C9.151,11.095,9.122,11.062,9.072,11.031"/>
</svg>
