<svg id="Layer_1" data-name="Layer 1" xmlns="http://www.w3.org/2000/svg" viewBox="0 0 32.97 33.03" width="18" height="18"><defs><style>.cls-1{fill:#424242;}</style></defs><title>comment-icon</title><path class="cls-1" d="M31.2,7.87h0a33.05,33.05,0,0,0-5.62-6.16A7.93,7.93,0,0,0,21.76.06a3.11,3.11,0,0,0-1.27,0,3,3,0,0,1-.75,0,16,16,0,0,0-2.6.07c-.56,0-1.13.09-1.69.09s-1.09,0-1.63-.06a16.92,16.92,0,0,0-2.57,0,10.39,10.39,0,0,0-7,4C.1,9.22-1.1,15.09,1,19.85c1.57,3.5,5.57,5.38,11.9,5.62A10.77,10.77,0,0,1,12.07,29a5.4,5.4,0,0,1-.75,1.13,4.47,4.47,0,0,0-1.08,2l-.15.88.86-.2c3.42-.81,7-1.81,9.41-4.3a6.45,6.45,0,0,0,.91-1.36,4,4,0,0,1,.87-1.23,4,4,0,0,1,.71-.09,5.17,5.17,0,0,0,.65-.06,11.34,11.34,0,0,0,2.75-1,13.1,13.1,0,0,0,6.38-8.44A10.29,10.29,0,0,0,31.2,7.87ZM25.84,22.24A17.69,17.69,0,0,1,23,23.37l-.55.16-.55-.09-.23,0a1.71,1.71,0,0,0-.76,0s-1.52.41-1.85.9a1.24,1.24,0,0,0-.12.88.3.3,0,0,0,0,.14h0a3.2,3.2,0,0,1-.58,1.13,9.22,9.22,0,0,1-4,3,2.58,2.58,0,0,1,.08-.26,17.56,17.56,0,0,0,.9-4A2.31,2.31,0,0,0,15,23.44a1.5,1.5,0,0,0-1.11-.38h-.26a9.68,9.68,0,0,1-2.28,0C5.87,22.44,3,20.32,2.53,16.61A13.12,13.12,0,0,1,6.59,4.88c3-2.57,7.39-2.46,11.28-2.37l2.13,0a1.17,1.17,0,0,1,.42.16A1.87,1.87,0,0,0,21.3,3a1.63,1.63,0,0,0,.8-.21l.16-.07a3.26,3.26,0,0,1,1.64.82l.28.21a30.3,30.3,0,0,1,2.37,1.94l.23.21a6.86,6.86,0,0,1,1,1c2.44,3.13,3,7,1.6,11.6A7.13,7.13,0,0,1,25.84,22.24Z"/></svg>