<?xml version="1.0" encoding="utf-8"?>
<!-- Generator: Adobe Illustrator 23.0.1, SVG Export Plug-In . SVG Version: 6.00 Build 0)  -->
<svg width="20" height="20" version="1.1" id="Layer_1" xmlns="http://www.w3.org/2000/svg" xmlns:xlink="http://www.w3.org/1999/xlink" x="0px" y="0px"
	 viewBox="0 0 40 38.6" style="enable-background:new 0 0 40 38.6;" xml:space="preserve">
<g>
	<g>
		<path fill="#333333" d="M21.6,0.5c-0.6,0.1-1.3,0.2-1.9,0.4c-0.2,0-0.4,0.1-0.6,0.1c-1.3,0-2.5,0.3-3.7,0.5c-0.4,0.1-0.8,0.2-1.2,0.2
			c-0.4,0-0.6,0.2-0.9,0.5c-0.8,0.8-1.6,1.6-2.4,2.5c-0.2,0.3-0.5,0.5-0.8,0.8C10,5.5,10,5.7,10,5.8c0.1,0.2,0.1,0.3,0.2,0.5
			c0.1,0.2,0.2,0.4,0.2,0.6c0,0.3,0.1,0.5,0.2,0.8c0.1,0.1,0.1,0.2,0.1,0.4c0.1,0.3-0.1,0.5-0.4,0.4C9.5,8.2,8.6,7.9,7.8,7.6
			c-0.1,0-0.2-0.1-0.3-0.1C7,7.4,6.7,7.5,6.3,7.7C6,8,5.7,8.2,5.4,8.5c-0.7,0.7-1.4,1.3-2.1,2c-0.1,0.1-0.2,0.2-0.4,0.4
			c-0.3,0.3-0.5,0.6-0.6,0.9c-0.1,0.2-0.2,0.5-0.3,0.7c-0.1,0.3-0.2,0.6-0.3,1c-0.1,0.9-0.4,1.7-0.6,2.5c-0.2,0.7-0.4,1.3-0.7,2
			c-0.1,0.4-0.3,0.8-0.4,1.2C0,19.8,0,20.4,0.1,21c0.1,0.2,0.2,0.4,0.4,0.5c0.1,0,0.1,0.1,0.2,0.1c0.5,0.2,1,0.4,1.5,0.6
			c0.5,0.2,1,0.4,1.5,0.5c0.6,0.2,1.1,0.3,1.7,0.5c1.1,0.4,2.2,0.7,3.3,1.1c0.4,0.1,0.9,0.3,1.4,0.3c0.2,0,0.3,0.1,0.2,0.3
			c-0.1,0.2-0.3,0.5-0.4,0.7c-0.6,0.7-0.9,1.5-1.3,2.3c-0.2,0.5-0.4,1-0.6,1.5c0,0.1-0.1,0.1-0.1,0.2c-0.7,1-1.2,2-1.7,3.1
			c0,0.1-0.1,0.2-0.1,0.3c-0.2,0.4-0.1,0.8,0.3,1.1C6.3,34,6.3,34,6.4,34.1c0.4,0.2,0.8,0.4,1.2,0.7c0.7,0.4,1.3,0.8,2,1.2
			c0.1,0.1,0.3,0.2,0.5,0.2c1,0.5,1.9,1,2.9,1.4c0.8,0.3,1.5,0.7,2.3,1c0.1,0.1,0.2,0,0.3-0.1c0.7-1.2,1.4-2.3,2.1-3.5
			c0.1-0.1,0.1-0.2,0.2-0.3c0.4-0.3,0.5-0.7,0.7-1.1c0.6-1.2,1.1-2.3,1.7-3.5c0.2-0.3,0.3-0.7,0.5-1c0-0.1,0.2-0.1,0.2-0.1
			c0.3,0.3,0.6,0.6,0.9,0.9c0.4,0.5,0.8,0.9,1.2,1.3c0.5,0.6,1,1.2,1.5,1.8c0,0.1,0.1,0.1,0.1,0.2c0.7,1.1,1.6,2.1,2.5,3.2
			c0.1,0.1,0.2,0.2,0.2,0.3c0.1,0.1,0.1,0.3,0.3,0.3c0.2,0,0.5,0.1,0.7-0.1c0.1,0,0.1-0.1,0.2-0.1c1-0.7,2-1.3,3-2
			c0.9-0.7,1.8-1.3,2.7-2c0.2-0.1,0.3-0.3,0.5-0.6c0.3-0.5,0.5-1.1,0.7-1.6c0.2-0.5,0.4-1,0.6-1.6c0.3-0.8,0.7-1.6,1-2.4
			c0.1-0.2,0-0.3-0.1-0.4c-0.2-0.3-0.5-0.6-0.7-0.8c-0.9-1-1.6-2.1-2.5-3.1c0,0,0,0,0-0.1c-0.1-0.1,0-0.2,0.1-0.3
			c0.8-0.3,1.6-0.7,2.3-1.1c0.2-0.1,0.3-0.2,0.5-0.3c0.9-0.4,1.5-1.2,1.8-2.1c0.1-0.3,0.3-0.7,0.4-1c0.3-0.6,0.6-1.3,1.1-1.8
			c0.2-0.2,0.3-0.5,0.1-0.8c-0.2-1-0.7-2-1.2-2.9c-0.5-0.8-0.9-1.6-1.3-2.3c-0.5-0.9-1-1.8-1.5-2.7c-0.3-0.5-0.6-0.9-0.9-1.3
			c-0.1-0.1-0.2-0.1-0.3-0.1c-0.1,0-0.1,0-0.2,0.1c-1.2,0.7-2.5,1.2-3.7,1.8c-1.2,0.6-2.4,1.1-3.7,1.7c-0.2,0.1-0.3,0.1-0.5,0.2
			c-0.2,0.1-0.4,0-0.4-0.2c0-0.1-0.1-0.2-0.1-0.4c0-1.1-0.2-2.1-0.4-3.2c-0.2-0.8-0.2-1.7-0.3-2.5c0-0.3-0.1-0.7-0.1-1
			C25.1,1.4,25.1,1,25,0.6c0-0.2-0.1-0.3-0.3-0.4C24.6,0,24.5,0,24.3,0c-0.1,0-0.2,0-0.3,0.1C23.2,0.2,22.4,0.3,21.6,0.5
			C21.6,0.5,21.6,0.5,21.6,0.5z M3.4,17.3C3.4,17.3,3.4,17.3,3.4,17.3C3.4,17.3,3.4,17.3,3.4,17.3c-0.1,0.5-0.1,0.5-0.6,0.9
			C2.4,18.6,2,19,1.6,19.4c-0.2,0.2-0.5,0.5-0.7,0.7c0,0-0.1,0-0.1,0c0,0-0.1-0.1-0.1-0.1c0-0.2,0.1-0.4,0.1-0.6
			c0-0.1,0.1-0.2,0.2-0.2c0.4-0.1,0.6-0.4,0.9-0.7c0.4-0.4,0.8-0.8,1.2-1.1C3.2,17.3,3.3,17.3,3.4,17.3z M32,30.8
			C32,30.8,32,30.7,32,30.8c0.1,0.1,0.1,0.2,0,0.3c-0.2,0.8-0.4,1.6-0.6,2.3c0,0.1-0.1,0.3-0.2,0.4c-0.1,0.4-0.4,0.5-0.7,0.6
			c0,0-0.1,0-0.1-0.1c0-0.1,0-0.2,0.1-0.4c0.2-0.7,0.5-1.5,0.7-2.2c0.1-0.4,0.3-0.8,0.6-1C31.9,30.8,31.9,30.8,32,30.8z M39.1,15.5
			C39.1,15.5,39.1,15.5,39.1,15.5C39.1,15.5,39.1,15.5,39.1,15.5c0.1,0.2-0.1,0.4-0.1,0.5c-0.4,0.8-0.8,1.6-1.2,2.3
			c-0.1,0.3-0.3,0.5-0.4,0.8c-0.1,0.2-0.2,0.2-0.3,0.3c-0.1,0-0.1,0.1-0.2,0c0,0,0-0.1,0-0.1c0.2-0.6,0.3-1.1,0.6-1.6
			c0.2-0.4,0.4-0.7,0.5-1.1c0.1-0.2,0.2-0.3,0.2-0.5c0-0.2,0.1-0.3,0.2-0.4C38.6,15.6,38.8,15.5,39.1,15.5z M26.7,35
			c-0.1,0-0.1,0-0.2,0c-0.1-0.1-0.3-0.3-0.4-0.4c-0.1-0.1-0.2-0.2-0.2-0.4c0-0.1,0.2-0.2,0.2-0.3c0.1-0.2,0.2-0.4,0.3-0.6
			c0.2-0.8,0.6-1.5,0.9-2.3c0,0,0-0.1,0.1-0.1c0.1-0.1,0.2-0.1,0.2,0c0.1,0.1,0.2,0.2,0.3,0.3c0.2,0.2,0.2,0.3,0.1,0.5
			c-0.3,0.8-0.6,1.6-1,2.4c-0.1,0.2-0.2,0.4-0.3,0.6C26.7,34.7,26.7,34.8,26.7,35c0.2,0.2,0.4,0.2,0.5,0c0,0,0,0,0-0.1
			c0.4-0.9,0.9-1.8,1.2-2.7c0.1-0.3,0.2-0.3,0.4-0.1c0.3,0.3,0.3,0.3,0.1,0.7c-0.5,0.9-0.9,1.9-1.2,2.9c0,0.1,0,0.3-0.2,0.3
			c-0.2,0-0.3-0.1-0.3-0.2C27,35.6,26.8,35.3,26.7,35z M15,6.4c-0.3-1.1-0.5-2.3-0.7-3.5c0-0.1,0-0.2,0-0.3c0-0.1,0.1-0.2,0.2-0.2
			c0.1,0,0.3-0.1,0.4-0.1c1-0.2,2-0.4,3-0.6c0.4-0.1,0.7-0.1,1.1-0.1c0.6,0,1.3-0.1,1.9-0.3c0.3-0.1,0.6-0.2,0.9-0.3
			c0.8-0.2,1.7-0.2,2.5-0.4c0.1,0,0.2,0.1,0.3,0.2c0.1,0.8,0.3,1.5,0.3,2.3c0,0.8,0.2,1.6,0.3,2.5c0.2,0.8,0.2,1.7,0.3,2.5
			c0.1,0.5,0.2,1.1,0.4,1.5c0.1,0.2,0.2,0.2,0.4,0.2c0.5-0.2,1-0.4,1.4-0.6c1.3-0.6,2.6-1.2,3.9-1.8c0.8-0.4,1.6-0.7,2.4-1.1
			c0.1-0.1,0.3-0.1,0.4-0.2c0.2-0.1,0.3,0,0.4,0.1c0.3,0.5,0.6,0.9,0.8,1.4c0.5,0.9,1,1.9,1.6,2.8c0.4,0.7,0.8,1.3,1.2,2
			c0.3,0.5,0.5,1.1,0.7,1.7c0.1,0.3,0,0.4-0.2,0.5c-0.3,0.2-0.7,0.3-1,0.4c-0.9,0.3-1.9,0.6-2.8,1.1c-1,0.5-2,0.9-2.9,1.3
			c-0.6,0.3-1.3,0.6-1.9,0.9c-0.3,0.1-0.3,0.3-0.2,0.5c0.1,0.2,0.2,0.3,0.3,0.4c0.2,0.2,0.3,0.3,0.4,0.5c0.7,0.8,1.5,1.7,2.2,2.5
			c0.2,0.2,0.4,0.4,0.6,0.7c0.7,0.9,1.5,1.8,2.2,2.7c0.5,0.6,0.5,0.6-0.1,1.1c-1.4,1.1-2.7,2.2-4.1,3.3c-0.4,0.4-0.9,0.7-1.3,1.1
			c-0.2,0.1-0.3,0.3-0.5,0.4c-0.2,0.2-0.3,0.2-0.5,0c-0.3-0.3-0.6-0.6-0.9-1c-0.7-0.7-1.4-1.4-2-2.2c-1.1-1.4-2.4-2.6-3.6-3.9
			c-0.1-0.1-0.3-0.1-0.4,0c-0.1,0.1-0.2,0.1-0.3,0.2c-0.2,0.3-0.4,0.6-0.5,0.9c-0.3,0.8-0.6,1.5-1.1,2.2c-0.2,0.3-0.4,0.7-0.5,1
			c-0.1,0.2-0.2,0.4-0.3,0.7c-0.6,1.3-1.3,2.5-1.8,3.8c0,0.1-0.1,0.1-0.1,0.2c-0.1,0.1-0.2,0.1-0.3,0.1c-0.2-0.1-0.4-0.2-0.6-0.3
			c-0.4-0.2-0.8-0.5-1.2-0.7c-1.6-0.8-3.2-1.5-4.8-2.3c-0.4-0.2-0.8-0.3-1.1-0.5c-0.3-0.1-0.6-0.2-0.8-0.4c-0.4-0.3-0.4-0.3-0.2-0.7
			c0.1-0.2,0.2-0.4,0.2-0.5c0.3-0.8,0.7-1.6,1.2-2.4c0.5-0.8,1-1.7,1.4-2.6c0.1-0.2,0.2-0.4,0.3-0.6c0.3-0.3,0.5-0.7,0.7-1
			c0.2-0.2,0.2-0.5,0.2-0.8c0-0.2-0.1-0.4-0.3-0.5c-0.3-0.1-0.6-0.2-0.8-0.3c-0.8-0.3-1.6-0.5-2.4-0.8c-0.7-0.2-1.4-0.5-2.2-0.7
			c-0.9-0.2-1.7-0.6-2.6-0.9c-0.1,0-0.2-0.1-0.3-0.2c-0.2-0.1-0.2-0.2-0.2-0.4c0-0.1,0.1-0.2,0.1-0.4c0.3-1.3,0.7-2.6,1.2-3.9
			c0.5-1.4,1-2.8,1.6-4.1C7,8.8,7.1,8.6,7.3,8.4c0.1-0.1,0.2-0.1,0.3-0.1c0.3,0.1,0.6,0.3,0.9,0.3c0.8,0.1,1.5,0.5,2.3,0.6
			c1.3,0.4,2.6,0.9,3.9,1.3c0.2,0.1,0.4,0.2,0.5,0.2c0.2,0.1,0.4-0.1,0.4-0.3c0-0.3,0-0.5-0.1-0.8c-0.1-0.5-0.2-1.1-0.3-1.6
			C15.2,7.6,15.1,7.1,15,6.4z M9.1,34.5c0,0.1,0.1,0.2,0.2,0.3c0.1,0,0.2-0.1,0.3-0.2c0.3-0.4,0.5-0.9,0.7-1.3
			c0.2-0.5,0.5-1.1,0.7-1.6c0.1-0.1,0.1-0.2,0.2-0.3c0-0.1,0.1-0.1,0.2,0c0.2,0.1,0.2,0.2,0.2,0.4c-0.1,0.2-0.1,0.5-0.2,0.7
			c-0.4,0.8-0.8,1.6-1.1,2.4c-0.1,0.2-0.2,0.3-0.1,0.5c0,0.1-0.1,0.2-0.2,0.1c-0.6-0.3-1.2-0.7-1.8-1C8,34.3,8,34.1,8.1,33.9
			c0.4-0.8,0.7-1.7,1.1-2.5c0.1-0.2,0.2-0.4,0.3-0.6c0.1-0.2,0.2-0.2,0.4-0.1c0.1,0,0.3,0.1,0.4,0.2c0.2,0.1,0.3,0.3,0.2,0.5
			c0,0.1-0.1,0.3-0.2,0.4c-0.4,0.8-0.7,1.7-1.2,2.5C9.1,34.2,9,34.3,9.1,34.5z M13.8,32.4C13.8,32.4,13.9,32.4,13.8,32.4
			c0.4,0.1,0.7,0.3,1,0.5c0,0,0.1,0.1,0.1,0.2c0,0.1-0.1,0.3-0.2,0.4c-0.5,1-1,2.1-1.5,3.1c-0.1,0.2-0.2,0.2-0.4,0.1
			c-0.8-0.3-0.7-0.3-0.4-1c0,0,0-0.1,0.1-0.1c0.4-1,0.9-1.9,1.2-2.9c0-0.1,0.1-0.1,0.1-0.2C13.7,32.5,13.8,32.5,13.8,32.4z M10,20.4
			c-0.1,0.4-0.2,0.8-0.4,1.1c-0.3,0.7-0.8,1.2-1.2,1.9c-0.1,0.2-0.2,0.2-0.4,0.1c-0.1,0-0.3-0.1-0.4-0.1c-0.3-0.1-0.3-0.2-0.2-0.5
			c0.4-0.7,0.8-1.4,1.1-2.1c0.1-0.2,0.2-0.4,0.3-0.6C8.9,20.1,9,20,9.1,20.1C9.4,20.2,9.7,20.3,10,20.4z M24.8,32.6
			c0-0.1,0-0.1,0.1-0.2c0.4-0.9,0.7-1.8,1-2.7c0.1-0.2,0.1-0.4,0.3-0.4c0.2-0.1,0.3,0.2,0.4,0.3c0.1,0.1,0.2,0.2,0.2,0.3
			c0.1,0.1,0.1,0.3,0.1,0.4c-0.1,0.2-0.2,0.5-0.2,0.7c-0.1,0.2-0.2,0.4-0.3,0.7c-0.3,0.5-0.4,1.1-0.6,1.6c-0.1,0.1-0.1,0.3-0.2,0.3
			c-0.2,0.1-0.2-0.2-0.3-0.3c-0.1-0.1-0.2-0.3-0.4-0.5C24.8,32.7,24.8,32.7,24.8,32.6z M34.7,20.6c0-0.1,0-0.2,0.1-0.3
			c0.5-0.9,0.8-1.9,1.2-2.8c0.1-0.3,0.3-0.6,0.4-0.9c0.1-0.1,0.1-0.2,0.2-0.3c0.3-0.1,0.5-0.2,0.8-0.3c0.1,0,0.1,0.1,0.1,0.2
			c-0.1,0.2-0.1,0.4-0.2,0.5c-0.4,0.8-0.7,1.6-1,2.4c0,0.1,0,0.1-0.1,0.2c-0.3,0.6-0.7,1.1-1.4,1.3C34.7,20.7,34.7,20.6,34.7,20.6z
			 M21.1,28.3c0-0.1,0-0.2,0.1-0.2c0.4-0.7,0.7-1.4,1.1-2.2c0.4-0.8,0.4-0.6,0.9-0.1c0,0,0.1,0.1,0.1,0.1c0.1,0.1,0.2,0.3,0.1,0.5
			c-0.4,0.9-0.8,1.7-1.2,2.6c0,0.1-0.1,0.1-0.1,0.2c-0.1,0.1-0.1,0.1-0.2,0c-0.2-0.2-0.4-0.4-0.6-0.6C21.1,28.4,21.1,28.4,21.1,28.3
			z M11.4,36.1c-0.2-0.1-0.3-0.1-0.4-0.2c-0.2-0.1-0.4-0.1-0.5-0.3c0.1-0.2,0.2-0.4,0.3-0.6c0.4-0.9,0.9-1.9,1.3-2.9
			c0-0.1,0.1-0.2,0.2-0.3c0.1-0.1,0.1-0.1,0.2-0.1c0.1,0,0.1,0,0.2,0.1c0.2,0.1,0.3,0.2,0.2,0.4c-0.1,0.3-0.1,0.5-0.2,0.8
			c-0.3,1-0.8,1.9-1.2,2.8C11.5,35.9,11.5,36,11.4,36.1z M7,19.5c-0.2,0.5-0.5,0.9-0.7,1.4c-0.1,0.3-0.3,0.6-0.5,0.9
			c-0.2,0.2-0.3,0.4-0.5,0.7c-0.1,0.2-0.2,0.2-0.4,0.1c-0.1,0-0.3-0.1-0.4-0.1c-0.1-0.1-0.2-0.2-0.1-0.3c0.4-1,0.9-2,1.5-2.8
			C6,19.2,6,19.2,6.1,19.2C6.4,19.2,6.7,19.3,7,19.5z M8.3,29.9C8.4,29.9,8.4,29.9,8.3,29.9c0.3,0.1,0.4,0.2,0.5,0.3
			c0,0,0,0.1,0,0.2c0,0.1-0.1,0.3-0.2,0.4c-0.2,0.5-0.4,0.9-0.6,1.4c-0.2,0.4-0.4,0.9-0.6,1.3c-0.1,0.2-0.2,0.2-0.3,0.1
			c-0.2-0.1-0.3-0.2-0.5-0.2c-0.1-0.1-0.2-0.2-0.1-0.3C7,32.1,7.6,31.1,8.2,30C8.2,30,8.3,30,8.3,29.9z M25,27.9c0.1,0,0.1,0,0.2,0
			c0.2,0.1,0.2,0.2,0.3,0.4c0.1,0.1,0.1,0.2,0,0.3c-0.3,0.9-0.6,1.8-1,2.7c-0.1,0.2-0.1,0.3-0.2,0.5c0,0.1-0.2,0.1-0.2,0
			c-0.1-0.1-0.2-0.2-0.2-0.3c-0.4-0.5-0.5-0.4-0.1-1c0.1-0.2,0.2-0.5,0.3-0.7c0.3-0.6,0.6-1.2,0.9-1.8C24.9,28,25,28,25,27.9z
			 M15.5,33.3c0.2,0,0.4,0.1,0.5,0.3c0.1,0.1,0.1,0.2,0.1,0.3c0,0.1-0.1,0.2-0.1,0.3c-0.4,1.1-1.2,2-1.7,3.1c0,0.1-0.1,0.1-0.2,0.1
			c-0.2-0.1-0.3-0.1-0.4-0.3C14.2,35.8,14.8,34.5,15.5,33.3z M11.7,21c-0.2,0.3-0.4,0.6-0.6,0.9c-0.4,0.6-0.7,1.2-1,1.8
			C9.9,24,9.9,24,9.5,24c-0.1,0-0.2-0.1-0.3-0.1C9,23.8,9,23.8,9,23.7c0.1-0.1,0.1-0.3,0.2-0.4c0.5-0.7,0.9-1.5,1.2-2.3
			c0-0.1,0.1-0.1,0.1-0.2c0.1-0.2,0.2-0.2,0.4-0.2C11.2,20.7,11.5,20.8,11.7,21z M24,26.7c0.1,0,0.1,0,0.1,0c0,0,0.1,0.1,0.1,0.1
			c0.4,0.4,0.4,0.4,0.2,0.9c-0.3,0.7-0.7,1.4-0.9,2.1c-0.4,1-0.4,0.7-0.9,0.2c-0.1-0.1-0.1-0.2,0-0.4c0.3-0.6,0.6-1.3,0.9-1.9
			c0.1-0.3,0.3-0.6,0.4-0.8C23.9,26.8,23.9,26.8,24,26.7z M1.9,21.4c-0.1,0-0.1,0-0.2,0c-0.2-0.1-0.6-0.1-0.6-0.3
			c-0.1-0.3,0.2-0.5,0.4-0.6c0.4-0.4,0.8-0.8,1.2-1.2c0.3-0.3,0.6-0.5,0.9-0.7c0.1,0,0.2-0.1,0.3-0.1c0,0,0.1,0,0.1,0.1
			c0,0,0,0.1,0,0.1c0,0.1-0.1,0.2-0.1,0.3C3.5,19.4,3,20,2.6,20.6c-0.2,0.2-0.4,0.4-0.5,0.6C2,21.3,1.9,21.3,1.9,21.4z M3.6,22.1
			C3.3,22,3,21.9,2.7,21.7c-0.1,0-0.1-0.1,0-0.2c0.2-0.3,0.4-0.5,0.6-0.8c0.5-0.6,0.9-1.3,1.4-1.9c0.1-0.1,0.2-0.2,0.3-0.1
			c0.1,0,0.1,0,0.2,0.1c0.1,0,0.2,0.1,0.1,0.2c0,0.1-0.1,0.1-0.1,0.2c-0.5,0.7-0.9,1.5-1.2,2.4c0,0.1-0.1,0.3-0.2,0.4
			C3.7,22,3.7,22,3.6,22.1z M11.2,7.8c-0.1-0.5-0.1-0.5,0.2-0.8c0.1-0.1,0.2-0.2,0.3-0.3c0.6-0.6,1.2-1.3,1.8-1.9
			c0.1-0.1,0.1-0.1,0.2-0.2c0,0,0.1,0,0.1,0c0.1,0,0.1,0.1,0.1,0.2c0,0.1,0,0.2,0,0.2c-0.2,0.3-0.4,0.5-0.5,0.8
			c-0.4,0.6-0.8,1.2-1.3,1.8c-0.2,0.2-0.4,0.5-0.7,0.6c-0.1,0-0.1,0-0.2-0.1C11.2,7.9,11.2,7.8,11.2,7.8z M33.6,21.2
			C33.6,21.2,33.6,21.2,33.6,21.2c0,0-0.1,0-0.1,0c0,0-0.1,0-0.1,0c0,0,0-0.1,0-0.1c0-0.1,0.1-0.3,0.1-0.4c0.3-0.9,0.7-1.8,1-2.7
			c0.1-0.2,0.2-0.3,0.1-0.5c-0.1-0.2,0-0.3,0.2-0.3c0.2-0.1,0.4-0.2,0.5-0.2c0,0,0.1,0,0.1,0c0,0,0,0.1,0,0.1c0,0,0,0.1,0,0.1
			c-0.3,0.9-0.6,1.8-1.1,2.6c-0.1,0.2-0.2,0.3-0.3,0.5c-0.1,0.1,0,0.2,0,0.4c0.1,0.3,0.1,0.3-0.2,0.4C33.8,21.1,33.7,21.1,33.6,21.2
			z M10.8,6.1c-0.1-0.2,0-0.3,0.1-0.5c0.2-0.2,0.4-0.4,0.5-0.6c0.6-0.6,1.2-1.2,1.8-1.8c0.1-0.1,0.2-0.1,0.3-0.2c0,0,0.1,0,0.1,0
			c0.1,0.2,0.1,0.3,0,0.5c-0.1,0.2-0.3,0.4-0.4,0.6C12.8,4.6,12.4,5,12,5.4c-0.3,0.3-0.6,0.6-0.9,0.9C11,6.4,10.9,6.4,10.8,6.1
			C10.8,6.2,10.8,6.1,10.8,6.1z M5.9,22.7c0-0.1,0.1-0.2,0.1-0.2c0.4-0.5,0.7-1,0.9-1.6c0.2-0.4,0.4-0.7,0.6-1.1
			c0.1-0.2,0.2-0.2,0.4-0.2c0,0,0,0,0.1,0c0.2,0.1,0.2,0.2,0.2,0.3c-0.1,0.2-0.2,0.5-0.4,0.7c-0.4,0.7-0.8,1.4-1.1,2.2
			C6.7,23,6.6,23,6.5,23c-0.2,0-0.4-0.1-0.6-0.2C5.9,22.9,5.9,22.8,5.9,22.7z M30.3,32.2c0.1,0,0.2,0.1,0.1,0.1
			c-0.2,0.7-0.4,1.5-0.8,2.2c-0.1,0.2-0.2,0.4-0.2,0.6c0,0.1,0,0.2-0.1,0.3c-0.2,0.2-0.5,0.3-0.7,0.5c-0.1,0-0.2,0-0.1-0.1
			c0-0.1,0-0.1,0-0.2c0.3-0.8,0.6-1.6,1-2.3c0.2-0.3,0.4-0.6,0.7-0.9C30.2,32.2,30.3,32.2,30.3,32.2z M33.5,32.2c0-0.1,0-0.2,0-0.3
			c0.2-0.7,0.4-1.4,0.6-2c0.1-0.4,0.3-0.8,0.5-1.2c0.2-0.4,0.6-0.6,0.9-0.9c0,0,0,0,0.1,0c0,0,0,0,0,0.1c0,0.1,0,0.2-0.1,0.3
			c-0.3,0.6-0.6,1.2-0.8,1.8c-0.2,0.6-0.5,1.2-0.8,1.8c-0.1,0.1-0.2,0.3-0.3,0.4C33.7,32.3,33.6,32.3,33.5,32.2
			C33.6,32.3,33.6,32.2,33.5,32.2z M5.1,11.3C5.1,11.3,5.2,11.4,5.1,11.3c0,0.3-0.1,0.6-0.1,0.8c-0.1,0.2-0.2,0.4-0.4,0.6
			c-0.5,0.4-1,0.8-1.6,1.1c-0.1,0.1-0.3,0.3-0.4,0.1c-0.1-0.1,0-0.3,0-0.4c0-0.1,0-0.2,0.1-0.3c0-0.1,0.1-0.1,0.1-0.1
			c0.4-0.1,0.6-0.4,0.9-0.6C4,12,4.4,11.7,4.9,11.4C4.9,11.3,5,11.3,5.1,11.3z M32.2,20.6c0.2-0.6,0.4-1.2,0.6-1.7
			c0.1-0.3,0.2-0.5,0.3-0.7c0.1-0.3,0.2-0.4,0.5-0.5c0.1,0,0.1-0.1,0.2-0.1c0,0,0.1,0,0.1,0c0,0,0.1,0.1,0,0.1
			c-0.1,0.4-0.3,0.8-0.4,1.2c-0.2,0.6-0.5,1.2-0.8,1.9c-0.1,0.4-0.2,0.3-0.4,0.1C32.3,20.8,32.2,20.7,32.2,20.6z M16.8,34
			c0.2,0,0.3,0.1,0.4,0.2c0.1,0.1,0.1,0.2,0,0.3c0,0,0,0.1-0.1,0.1c-0.5,1.1-1.3,2-1.9,3c0,0-0.1,0.1-0.1,0.1c-0.1,0-0.1,0-0.2,0
			c0,0-0.1-0.1-0.1-0.1c0.1-0.3,0.3-0.7,0.5-1c0.4-0.6,0.8-1.3,1.1-2c0.1-0.2,0.1-0.3,0.2-0.5C16.7,34.1,16.8,34,16.8,34z
			 M32.2,33.2c0-0.1,0-0.2,0-0.3c0.1-0.5,0.2-1,0.4-1.5c0.1-0.4,0.3-0.7,0.3-1.1c0-0.2,0.1-0.3,0.2-0.4c0.1-0.1,0.3-0.2,0.4-0.3
			c0.1,0,0.1-0.1,0.2,0c0,0,0,0.1,0,0.1c-0.2,0.5-0.3,1-0.5,1.5c-0.2,0.5-0.4,1-0.4,1.5c0,0.1-0.1,0.2-0.1,0.2
			c-0.1,0.1-0.2,0.2-0.4,0.2C32.3,33.2,32.2,33.2,32.2,33.2z M1.3,17.9c0,0,0-0.1,0-0.1c0.1-0.2,0.1-0.3,0.2-0.5
			c0.1-0.3,0.2-0.6,0.3-0.9C2,16.2,2.4,16.1,2.6,16c0.4-0.2,0.7-0.4,1.1-0.6c0,0,0.1,0,0.1,0c0,0,0,0.1,0,0.1
			c-0.1,0.2-0.3,0.3-0.4,0.5c-0.6,0.7-1.2,1.4-2,1.9C1.4,18,1.4,18,1.3,17.9z M6.1,8.8C6.1,8.8,6.1,8.8,6.1,8.8
			C6.2,8.8,6.2,8.8,6.1,8.8c0,0.3-0.1,0.5-0.2,0.7C5.8,9.8,5.6,10,5.4,10.2c-0.6,0.5-1.2,1-1.8,1.4c-0.1,0.1-0.2,0.2-0.4,0.2
			c-0.1,0,0-0.2,0.1-0.4c0.1-0.1,0.2-0.3,0.3-0.4C4.5,10.4,5.2,9.6,6,8.8C6,8.8,6.1,8.8,6.1,8.8z M14.5,7.4c0.1,0.3,0,0.6-0.2,0.8
			c-0.3,0.3-0.7,0.6-1,1c-0.1,0.1-0.2,0.1-0.4,0.1c-0.1,0-0.1,0-0.2-0.1c-0.1-0.1-0.2-0.2-0.1-0.3c0.5-0.6,1.1-1.1,1.5-1.8
			c0,0,0,0,0.1,0c0,0,0.2,0,0.2,0C14.5,7.3,14.5,7.4,14.5,7.4z M14.1,5.8C14.1,5.8,14.2,5.8,14.1,5.8c0.2,0.2,0.2,0.4,0.1,0.4
			c-0.3,0.2-0.4,0.4-0.5,0.7c-0.5,0.7-1,1.3-1.6,1.9c0,0-0.1,0.1-0.1,0.1c0,0-0.1,0-0.1,0c0,0-0.1-0.1,0-0.1c0-0.2,0.2-0.3,0.3-0.5
			c0.5-0.5,1-1,1.4-1.6c0.2-0.3,0.4-0.5,0.6-0.8C14,5.8,14.1,5.8,14.1,5.8z M2.1,15.3C2.1,15.3,2.1,15.3,2.1,15.3
			c0-0.2,0.1-0.4,0.2-0.5c0.6-0.4,1.2-0.7,1.8-1.1c0.1,0,0.1,0,0.1,0c0,0.1,0,0.1,0,0.2c-0.1,0.2-0.3,0.2-0.4,0.4
			c-0.4,0.4-0.9,0.7-1.3,1c-0.1,0-0.2,0.1-0.3,0.1C2.2,15.4,2.2,15.4,2.1,15.3z M32.4,18.3c-0.1,0.6-0.4,1.1-0.6,1.7
			c0,0.1-0.2,0.1-0.2,0c-0.1-0.1-0.2-0.3-0.1-0.5c0.1-0.2,0.2-0.5,0.3-0.7C31.8,18.4,32,18.3,32.4,18.3z M13.9,9.6
			c0-0.1,0-0.1,0-0.2c0.2-0.2,0.4-0.5,0.7-0.6c0.1,0,0.3,0.4,0.3,0.9c0,0.1-0.1,0.2-0.2,0.1C14.4,9.8,14.2,9.8,13.9,9.6z M31,19
			C31,19,30.9,19,31,19C30.9,19,30.9,19,31,19C31,18.9,31,18.9,31,19C31,19,31,19,31,19z"/>
	</g>
</g>
</svg>
