<?xml version="1.0" encoding="utf-8"?>
<!-- Generator: Adobe Illustrator 23.0.1, SVG Export Plug-In . SVG Version: 6.00 Build 0)  -->
<svg height="21" width="16" version="1.1" id="Layer_1" xmlns="http://www.w3.org/2000/svg" xmlns:xlink="http://www.w3.org/1999/xlink" x="0px" y="0px"
	 viewBox="0 0 29.3 44" style="enable-background:new 0 0 29.3 44;" xml:space="preserve">
<g>
	<g>
		<g>
			<path fill="#73cdb1" d="M29.2,30.2c0,1.6,0,3.1,0,4.7c0,0.7,0,1.4,0,2.1c0,0.6-0.2,1.1-0.7,1.4c-0.4,0.2-0.7,0.5-1,0.8c-0.5,0.4-1,0.8-1.4,1.2
				c-0.6,0.5-1.2,1.1-1.7,1.7c-0.4,0.4-0.8,0.6-1.3,0.7c-0.2,0-0.4,0-0.5,0.1c-0.8,0.4-1.6,0.8-2.4,0.9c0,0-0.1,0-0.1,0
				c-0.3,0.3-0.7,0.2-1.1,0.2c-0.5,0-1-0.1-1.4-0.3c-1.4-0.4-2.8-1-4.1-1.8c-0.5-0.3-1.1-0.6-1.7-0.8c-0.9-0.4-1.7-0.8-2.5-1.2
				c-1.6-0.9-3.2-1.6-4.9-2.3c-0.8-0.3-1.6-0.7-2.4-1c-0.2-0.1-0.3-0.1-0.5-0.3c-0.3-0.3-0.7-0.6-1.1-0.8c-0.1-0.7-0.2-1.3-0.2-2
				c0-0.8,0-1.6,0-2.4c0-1.3,0-2.5,0-3.8c0-2.3,0-14.6-0.1-16.9c0.2-0.3,0.4-0.4,0.7-0.5c0.5-0.2,1.1-0.3,1.6-0.6
				c1.1-0.5,2-1.1,2.2-2.4C4.7,6.1,5.1,5.9,5.9,6c0.6,0.1,1.3,0.3,1.9,0.5c0.2,0,0.3,0.1,0.4,0.1C8.7,6.1,9,5.6,9.5,5.3
				c0.5-0.3,1.1-0.5,1.6-0.7c0.4-1.2,0.7-1.8,1.4-2.8c1.1-1.4,2.5-2,4.2-1.7c0.9,0.1,1.7,0.4,2.5,0.7c0.2,0.1,0.5,0.2,0.7,0.4
				c1,0.7,1.8,1.6,2.4,2.7c0.4,0.8,0.7,1.6,1,2.4C23.6,7.1,23.8,8,23.8,9c0,0.8,0.1,1.7,0.2,2.5c0,0.2,0.1,0.4,0.1,0.6
				c0.2,0.1,0.5,0.2,0.7,0.3c0.6,0.2,1.3,0.5,1.9,0.8c0.7,0.3,1.4,0.6,2.1,0.6c0.2,0,0.4,0.1,0.4,0.3c-0.1,0.3-0.2,0.6-0.2,0.8
				C28.9,17.1,29.2,30.2,29.2,30.2z M22,4.9C22,5,22,5.2,22,5.3c0.3,1,0.6,1.9,0.8,2.9C23,8.3,23,8.1,23.1,8c0-0.1,0.1-0.3,0.1-0.4
				c-0.2-0.9-0.5-1.8-1-2.6C22.1,5,22,4.9,22,4.9c0-0.1,0-0.3-0.2-0.3c0-0.1,0-0.2,0-0.3c0-0.1-0.1-0.1-0.2-0.1
				c0.1,0.1,0.2,0.3,0.2,0.4C21.9,4.7,21.9,4.8,22,4.9z M24.7,22.7c-0.2,0.1-0.2,0.3-0.3,0.5c0,0.4,0,0.9-0.1,1.4
				c0.1,0,0.2,0,0.3-0.1c0.7-0.7,1.5-1.3,2.3-2c0.3-0.2,0.6-0.5,0.9-0.8c0-0.3,0-0.6,0-1c-0.2,0.1-0.4,0.2-0.5,0.3
				c-0.7,0.4-1.4,0.9-2.1,1.3c-0.1,0.1-0.2,0.2-0.4,0.1c0,0,0-0.1,0.1-0.1c0.7-0.5,1.5-1,2.2-1.5c0.2-0.2,0.5-0.3,0.8-0.4
				c0.1-0.6,0.1-1.2,0.1-1.8c-0.1,0-0.2,0-0.2,0c-0.1,0-0.2,0.1-0.3,0.1c-1,0.6-1.9,1.3-2.9,1.9c0,0.3,0,0.6,0,0.9
				c0,0.3,0,0.6,0,0.9c0.1,0,0.2,0,0.3,0C24.9,22.5,24.8,22.6,24.7,22.7z M25.6,25.9c0.7-0.5,1.3-1.1,2.1-1.5
				c0.3-0.1,0.4-0.3,0.4-0.6c0-0.4-0.1-0.9-0.1-1.3c-0.2-0.1-0.2,0-0.3,0.1c-0.9,0.6-1.7,1.3-2.6,2c-0.1,0.1-0.2,0.1-0.2,0.2
				c-0.2,0.2-0.4,0.4-0.4,0.7c0,0.4,0,0.7,0,1.1c0,0.1,0,0.3,0.2,0.3c-0.1,0.1-0.2,0.3-0.2,0.4c0,0.5,0,0.9,0,1.4c0,0,0,0,0.1,0
				c0,0,0.1,0,0.1,0c1.2-0.9,2.3-1.8,3.5-2.7c0-0.4,0-0.8-0.1-1.2c-0.7,0.3-1.2,0.8-1.8,1.2c-0.5,0.3-0.9,0.7-1.4,0.9
				C25,26.5,25.3,26.2,25.6,25.9z M25.2,18.4c-0.1,0.3-0.4,0.3-0.6,0.6c-0.1,0.3-0.1,0.8,0,1.3c0.1,0,0.3-0.1,0.3-0.1
				c0.4-0.3,0.8-0.6,1.3-0.9c0.6-0.4,1.2-0.8,1.8-1.2c0.1-0.8,0.2-1.7,0.2-2.5c-0.2-0.2-0.3-0.1-0.4,0c-0.7,0.4-1.3,0.7-1.9,1.3
				c-0.4,0.4-0.8,0.8-1.3,1c0,0.2,0,0.4,0,0.6c0.1,0,0.2,0,0.2,0C25,18.5,25.1,18.5,25.2,18.4L25.2,18.4z M17.8,15.9
				c-1.3-0.3-2.6-0.6-3.9-1c-0.3-0.1-0.7-0.1-1-0.3c-1.5-0.5-3-1.1-4.5-1.6c-1.1-0.4-2.1-0.7-3.2-1c-1.3-0.3-2.5-0.6-3.8-1
				c-0.1,0-0.2,0-0.3-0.1C1,11.2,1,11.3,1,11.5C1,11.8,1,12.2,1,12.6c0.2,2.1,0.2,4.1,0.2,6.2c-0.1,2.3-0.1,4.7-0.1,7
				c0,1.7,0,3.4,0,5.1c0,1.1,0,2.2,0.1,3.3c0,0.2,0,0.4,0.2,0.5c0.1,0.1,0.2,0.3,0.2,0.5c0.1,0.3,0.3,0.5,0.6,0.7
				c1.1,0.5,2.3,1,3.4,1.5c1.3,0.6,2.6,1.1,3.9,1.8c0.8,0.4,1.6,0.8,2.4,1.2c1,0.5,2,1,2.9,1.5c1.1,0.6,2.2,1,3.4,1.4
				c0.1,0,0.2,0.1,0.4,0.1c0.3,0,0.4-0.1,0.4-0.3c0-0.1,0-0.1,0-0.2c0.1-1.3,0.2-2.5,0.3-3.8c0-0.9,0.1-1.9,0.1-2.8
				c0-1.1,0-2.2,0.1-3.4c0-1.6,0.1-3.1,0.1-4.7c0-0.2,0-0.4,0-0.6c0-0.3-0.1-0.5,0-0.8c0.2-1,0-2,0-3.1c0-0.9,0-1.8,0-2.7
				c0-0.3,0-0.5,0-0.8c0-1.1,0-2.1-0.1-3.2c0-0.1,0-0.3,0-0.5C18.8,16.3,18.3,16.1,17.8,15.9z M21.8,16.8c-0.2,0-0.5,0-0.7,0
				c-0.2,0-0.4,0-0.6,0c0,0.2,0,0.4,0,0.6c0,1,0.1,2,0.1,3c0,1.7,0.1,3.5,0.1,5.2c0,1.5,0,3.1-0.1,4.6c-0.1,2.6-0.2,5.2-0.3,7.8
				c-0.1,1.3-0.2,2.6-0.2,3.9c0,0.3,0,0.6,0,0.9c0.1,0,0.2,0.1,0.2,0c0.1,0,0.2-0.1,0.4-0.1c0.7-0.3,1.4-0.6,2.2-0.8
				c0-0.4,0-0.7,0-1c0.1-1.2,0.2-2.3,0.2-3.5c0.1-1.3,0.1-2.6,0.1-3.8c0-0.9,0-1.8,0-2.7c0.1-2.6,0.1-5.3,0.2-7.9
				c0.1-1.8,0.2-3.7,0.3-5.5c0-0.2,0-0.4,0-0.6C22.8,16.7,22.4,16.7,21.8,16.8z M12.7,5.1c1.1,0.4,1.9,1.2,2.6,2.2
				c0.3,0.5,0.6,0.9,0.8,1.4c0.1,0.2,0.3,0.3,0.5,0.4c1.6,0.6,3.2,1.2,4.9,1.8c0.1,0,0.2,0,0.3,0.1c0.5-0.4,0.5-0.9,0.6-1.5
				c0-0.8-0.1-1.6-0.3-2.3c-0.2-0.7-0.3-1.4-0.6-2.1c-0.2-0.5-0.4-1.1-0.7-1.6c-0.5-0.9-1.2-1.6-2.2-1.9c-0.6-0.2-1.2-0.4-1.8-0.4
				c-1,0-1.7,0.4-2.4,1c-0.7,0.7-1.3,1.6-1.7,2.6c0,0,0,0.1,0,0.2C12.6,5,12.6,5.1,12.7,5.1z M7.8,11.8c1.3,0.9,7.2,2.9,8.8,3
				c0-0.2,0-0.4,0-0.5c0-1.4-0.2-2.8-0.8-4.1c-0.2-0.4-0.3-0.6-0.7-0.7c-0.3-0.1-0.7-0.3-1-0.4c-0.4-0.1-0.8-0.3-1.2-0.3
				C11.6,8.7,10.4,8.3,9.2,8c-0.1,0-0.2,0-0.3-0.1C8.2,8.9,8,9.8,7.8,11.8z M19.7,16c0.1,0.1,0.3,0,0.5,0c0.4,0,0.8,0.1,1.2,0.1
				c0.1,0,0.2,0,0.3,0c0.6-0.2,1.2,0,1.7,0.1c0.2,0,0.4,0,0.6-0.1c0.8-0.4,1.5-0.7,2.3-1c0.4-0.2,0.8-0.3,1.2-0.5
				c0.3-0.1,0.5-0.2,0.7-0.4c0-0.1-0.1-0.1-0.1-0.1c-0.7,0-1.4-0.2-2-0.5c-1-0.5-2-0.8-3-1.1c-1-0.3-1.9-0.8-2.8-1.1
				c-0.9-0.4-1.9-0.7-2.9-1.1c-0.2-0.1-0.4-0.1-0.6-0.2c0,0.4,0.1,0.6,0.2,0.9c0,0.3,0.1,0.6,0.1,0.9c0.1,0.3,0.1,0.7,0.2,1
				c0.1,0.7,0.2,1.4,0,2.2C18.2,15.4,19,15.7,19.7,16z M23.9,41c1-1.1,2.2-1.8,3.3-2.6c0.1-0.1,0.3-0.2,0.4-0.3
				c0.5-0.3,0.6-0.8,0.5-1.5c-0.2,0.1-0.3,0.1-0.4,0.2c-0.5,0.4-1,0.8-1.5,1.3c-0.5,0.4-0.9,0.9-1.3,1.3c-0.1,0.1-0.2,0.2-0.4,0.4
				c0.3-0.7,0.7-1.1,1.1-1.5c0.4-0.4,0.8-0.8,1.2-1.1c0.4-0.4,0.9-0.7,1.4-1.1c0-0.4,0.1-0.8-0.1-1.3C28,34.9,27.9,35,27.8,35
				c-0.8,0.6-1.7,1.2-2.5,1.8c-0.4,0.3-0.7,0.6-1.1,1c-0.2,0.2-0.3,0.4-0.3,0.6c-0.1,0.8-0.1,1.7-0.2,2.5c0,0,0,0.1,0.1,0.1
				C23.8,41,23.9,41,23.9,41z M27.6,32.5c-0.8,0.6-1.5,1.2-2.3,1.8c-0.3,0.2-0.6,0.5-0.9,0.8c-0.2,0.2-0.4,0.5-0.4,0.8
				c0,0.5-0.1,1-0.1,1.6c0.1,0,0.2,0,0.2-0.1c0.7-0.6,1.3-1.1,2-1.7c0.5-0.4,1-0.8,1.5-1.2c0.4-0.2,0.5-0.6,0.5-1
				c0-0.4-0.1-0.9-0.1-1.4C27.9,32.3,27.7,32.4,27.6,32.5z M28.1,31.2c0-0.3,0-0.7-0.1-1c-0.2-0.1-0.3,0-0.4,0.1
				c-0.8,0.7-1.6,1.3-2.4,2c-0.2,0.1-0.3,0.3-0.4,0.4c-0.7,0.5-0.8,1.3-0.7,2.2c0.5-0.3,0.9-0.7,1.3-1.1c0.4-0.4,0.8-0.8,1.3-1.1
				c0.4-0.4,0.9-0.7,1.4-1.1C28.1,31.4,28.1,31.3,28.1,31.2z M24.6,29.1c-0.2,0.2-0.3,0.4-0.3,0.7c0,0.3,0,0.6,0,0.9
				c0.1,0,0.2,0,0.2,0c1.1-1,2.3-1.9,3.4-2.7c0,0,0.1-0.1,0.1-0.1c0-0.7,0-0.7-0.1-1C26.8,27.4,25.6,28.2,24.6,29.1z M28.1,29.3
				c0-0.2,0-0.5-0.1-0.9c-0.2,0.1-0.3,0.1-0.5,0.2c-1,0.8-2,1.6-3.1,2.4c-0.2,0.2-0.3,0.3-0.3,0.6c0,0.3,0,0.7,0,1.1
				C25.6,31.5,26.8,30.4,28.1,29.3z M6.6,11.6c0,0,0.1,0,0.2,0c0-1.4,0.2-2.7,0.8-4C7.2,7.3,6.7,7.2,6.2,7.1c-0.1,0.8,0,1.5,0,2.2
				c0,0.7,0.1,1.4,0.1,2.1C6.5,11.5,6.6,11.6,6.6,11.6z M14.9,8.5C14.9,8.5,14.9,8.5,14.9,8.5c-0.6-1.3-1.6-2-2.6-2.1
				c-0.2,0.5-0.2,0.8-0.1,1.5C13.1,8,14,8.3,14.9,8.5z M4.9,8.9c0,0.4,0,0.7,0,1.1c0,0.3,0.1,0.7,0.1,1c0.2,0.1,0.4,0.1,0.6,0.2
				c0.1-0.7,0-3-0.2-4C5,8,4.9,8.2,4.9,8.9z M24.6,16.4c-0.1,0.4-0.1,0.8-0.1,1.2c0.2-0.1,0.3-0.1,0.4-0.2c0.2-0.1,0.4-0.3,0.5-0.5
				c0.7-0.7,1.4-1.2,2.3-1.7c0.2-0.1,0.3-0.2,0.5-0.3C27,15.2,25.8,15.8,24.6,16.4z M4.5,8.8C4.3,8.9,4.2,8.9,4.1,9
				C4,9.1,3.9,9.2,3.9,9.4c0,0.4,0.1,0.9,0.1,1.3c0,0.2,0.2,0.2,0.4,0.1C4.6,10.2,4.5,9.6,4.5,8.8z M10.8,7.4c0-0.4,0-0.7,0-1.1
				C10.3,6.3,10,6.6,9.7,7C10.1,7.2,10.4,7.4,10.8,7.4z M23.4,10.8c0,0,0-0.1,0-0.1c0,0-0.1-0.1-0.1,0c-0.1,0.1-0.2,0.2-0.3,0.2
				c0,0,0.1,0.1,0.1,0.1C23.2,11,23.3,10.9,23.4,10.8z M23.2,11.6c0,0,0.1,0.1,0.1,0.1c0,0,0.1,0,0.1-0.1c0-0.1,0-0.1-0.1-0.2
				C23.3,11.5,23.3,11.6,23.2,11.6z"/>
			<path fill="#73cdb1" d="M25.2,18.4c0.1,0,0.2,0,0.2,0c0.5-0.4,1.1-0.7,1.6-1.1c0.4-0.3,0.7-0.6,1-1c0,0,0.1-0.1,0.1-0.3c-0.2,0-0.3,0-0.3,0.1
				c-0.3,0.2-0.6,0.4-0.8,0.7c-0.4,0.4-0.9,0.9-1.4,1.2C25.4,18.1,25.3,18.3,25.2,18.4L25.2,18.4z"/>
		</g>
	</g>
</g>
</svg>
