<?xml version="1.0" encoding="utf-8"?>
<!-- Generator: Adobe Illustrator 16.0.0, SVG Export Plug-In . SVG Version: 6.00 Build 0)  -->
<!DOCTYPE svg PUBLIC "-//W3C//DTD SVG 1.1//EN" "http://www.w3.org/Graphics/SVG/1.1/DTD/svg11.dtd">
<svg version="1.1" id="Layer_1" xmlns="http://www.w3.org/2000/svg" xmlns:xlink="http://www.w3.org/1999/xlink" x="0px" y="0px"
	 width="20.641px" height="22px" viewBox="0 0 20.641 22" enable-background="new 0 0 20.641 22" xml:space="preserve">
<path fill="#333333" d="M11.016,4.918C8.8,4.68,5.983,6.143,5.504,9.193c-0.083,0.527-0.088,1.062-0.016,1.589
	c0.224,1.642,0.997,2.571,1.726,3.435c0.537,0.638,1.209,1.422,1.366,2.351c0.045,0.263,0.046,0.513,0.004,0.742
	c-0.029,0.15,0.063,0.287,0.213,0.318c0.143,0.03,0.289-0.051,0.325-0.205c0.144-0.604,0.048-1.203-0.204-1.782
	c-0.302-0.693-0.781-1.273-1.235-1.81c-0.588-0.696-1.086-1.288-1.378-2.339c-0.403-1.447-0.128-2.953,0.58-3.97
	c0.676-0.97,1.704-1.59,2.762-1.778c0.522-0.093,0.829-0.059,1.053-0.052c0.016,0,0.141,0.012,0.234,0.024
	c1.13,0.153,2.07,0.79,2.714,1.682c0.82,1.135,1.096,2.548,0.579,4.166c-0.151,0.472-0.406,0.977-0.672,1.359
	c-0.641,0.921-1.504,1.342-1.948,2.283c-0.348,0.737-0.404,1.641-0.036,2.474c0.062,0.139,0.196,0.235,0.343,0.235
	c0.243,0,0.445-0.267,0.341-0.504c-0.063-0.142-0.118-0.341-0.142-0.453c-0.033-0.156-0.053-0.375-0.041-0.609
	c0.031-0.398,0.144-0.766,0.37-1.103c0.412-0.584,1.04-1.012,1.535-1.636C16.946,9.858,14.491,5.293,11.016,4.918 M14.405,9.09
	c-0.001-0.015,0-0.038,0.008-0.063l0.12,0.038L14.405,9.09z"/>
<path fill="#333333" d="M8.569,18.323c-0.047,0.021-0.087,0.033-0.12,0.087c-0.029,0.04-0.051,0.092-0.047,0.143
	c0.006,0.102,0.073,0.199,0.177,0.223c0.071,0.016,0.144,0.03,0.218,0.031c1.939,0.019,3.108,0.12,3.103,0.12
	c0.04,0.001,0.075-0.008,0.11-0.022c0.041-0.017,0.08-0.036,0.112-0.068c0.034-0.046,0.065-0.079,0.067-0.147
	c0.005-0.023,0.005-0.046-0.002-0.068c0-0.023-0.007-0.045-0.018-0.064c-0.023-0.051-0.058-0.09-0.107-0.12
	c-0.084-0.051-0.096-0.044-0.275-0.058c-1.499-0.113-2.378-0.106-2.979-0.094C8.727,18.289,8.647,18.304,8.569,18.323"/>
<polygon fill="#333333" points="8.411,19.592 8.411,19.592 8.411,19.591 "/>
<polygon fill="#333333" points="8.411,19.49 8.411,19.489 8.411,19.488 "/>
<path fill="#333333" d="M12.146,19.253c-0.071-0.022-0.12-0.015-0.403-0.013c-0.211,0.001-1.647,0.025-2.382,0.051
	c-0.415,0.014-0.645,0.025-0.811,0.056c-0.058,0.011-0.127,0.073-0.139,0.141c-0.012,0.036-0.011,0.069,0,0.104
	c0.012,0.067,0.08,0.131,0.139,0.14c0.128,0.021,0.257,0.028,0.387,0.033c0.713,0.027,2.68,0.017,2.763,0.016
	c0.447-0.006,0.393,0.003,0.509-0.046c0.031-0.017,0.055-0.04,0.074-0.068c0.034-0.044,0.059-0.102,0.056-0.16
	C12.334,19.385,12.267,19.292,12.146,19.253"/>
<path fill="#333333" d="M10.708,20.28c-0.616-0.016-0.335-0.012-1.343-0.021c-0.164-0.002-0.337-0.008-0.567,0.017
	c-0.155,0.016-0.16,0.015-0.186,0.022c-0.078,0.022-0.166,0.112-0.161,0.203c0.002,0.05,0.021,0.092,0.055,0.13
	c0.067,0.075,0.099,0.071,0.227,0.09c0.314,0.048,0.363,0.042,1.226,0.072c0.242,0.008,1.744,0.045,1.909,0.025
	c0.183-0.022,0.218-0.029,0.273-0.072c0.013-0.01,0.024-0.022,0.035-0.034c0.112-0.056,0.112-0.21,0.005-0.269
	C12.078,20.304,11.829,20.309,10.708,20.28"/>
<path fill="#333333" d="M12.068,21.094c-0.062-0.039-0.16-0.05-0.202-0.046c-0.721,0.059-1.503,0.044-2.215-0.01
	c-0.106-0.007-0.213-0.01-0.319-0.016C9.152,21.011,9.129,21,8.97,21.03c-0.028,0.004-0.054,0.018-0.075,0.037
	c-0.026,0.02-0.052,0.048-0.064,0.081c-0.073-0.035-0.156,0.037-0.134,0.113c0.068,0.234,0.25,0.419,0.462,0.531
	c0.286,0.149,0.612,0.167,0.934,0.17c0.336,0.044,0.682,0.053,1.065,0.009c0.186,0.001,0.378,0.002,0.556-0.051
	c0.264-0.08,0.427-0.259,0.479-0.451c0.021-0.052,0.03-0.102,0.018-0.156C12.207,21.223,12.143,21.139,12.068,21.094"/>
<path fill="#333333" d="M9.418,6.542L9.418,6.542C8.813,6.57,8.248,6.959,7.859,7.41c-0.21,0.245-0.362,0.476-0.511,0.797
	C7.204,8.518,7.103,8.8,7,9.22c-0.078,0.323-0.139,0.624-0.16,0.952c-0.003,0.052-0.001,0.052,0.016,0.167
	c0.006,0.037,0.008,0.055,0.046,0.133c0.001,0.001,0.008,0.025,0.008,0.028c0.048,0.164,0.273,0.218,0.385,0.051
	c0.018-0.026,0.058-0.058,0.087-0.108c0.052-0.09,0.079-0.15,0.122-0.356c0.073-0.35,0.129-0.743,0.281-1.217
	c0.21-0.655,0.493-1.16,1.03-1.585C9.022,7.13,9.192,7.049,9.38,6.972c0.11-0.046,0.11-0.037,0.15-0.062
	C9.54,6.906,9.548,6.901,9.558,6.896c0.016-0.009,0.032-0.02,0.047-0.036C9.612,6.853,9.62,6.846,9.626,6.839
	c0.07-0.064,0.067-0.206-0.042-0.255C9.566,6.575,9.545,6.562,9.511,6.553C9.466,6.547,9.458,6.539,9.418,6.542"/>
<path fill="#333333" d="M6.116,13.529c-0.015,0.002-0.039-0.001-0.079,0.01c-0.033,0.009-0.056,0.023-0.068,0.029
	c-0.014,0.006-0.029,0.012-0.044,0.02c-0.05,0.024-0.094,0.056-0.134,0.084c-0.13,0.09-0.03,0.017-0.204,0.154
	c-0.112,0.077-0.377,0.314-0.475,0.402c-1.395,1.255-1.436,1.372-1.725,1.567c-0.05,0.033-0.104,0.055-0.198,0.133
	c-0.024,0.01-0.045,0.021-0.06,0.028c-0.018,0.008-0.005-0.001-0.069,0.049c-0.044,0.056-0.037,0.047-0.043,0.056
	c-0.079,0.136-0.034,0.355,0.197,0.413v0.001c0.029,0.01,0.057,0.013,0.082,0.015c0.05,0.02,0.11,0.022,0.175,0.022
	c0.074,0,0.131-0.018,0.187-0.038c0.321-0.116,0.469-0.271,1.384-1.157c0.767-0.745,0.831-0.825,1.025-1.045
	c0.148-0.165,0.123-0.148,0.214-0.269c0.017-0.023,0.022-0.036,0.032-0.056c0.016-0.03,0.044-0.069,0.048-0.139
	c0.012-0.072-0.003-0.134-0.045-0.188C6.311,13.611,6.232,13.516,6.116,13.529"/>
<path fill="#333333" d="M17.472,16.772c-0.011-0.031-0.026-0.057-0.037-0.076c-0.02-0.033-0.01-0.045-0.097-0.171
	c-0.035-0.052-0.07-0.11-0.128-0.187c-0.566-0.756-1.195-1.494-1.88-2.154c-0.158-0.152-0.248-0.247-0.369-0.29
	c-0.239-0.087-0.437,0.139-0.356,0.349c0.034,0.087,0.093,0.157,0.146,0.215c0.054,0.054,0.379,0.404,0.447,0.478
	c0.872,0.932,1.379,1.633,1.678,1.992c0.07,0.084,0.073,0.074,0.1,0.104c0.021,0.022,0.037,0.045,0.08,0.072
	c0.035,0.038,0.065,0.072,0.096,0.105c0.017,0.02,0.07,0.079,0.155,0.088c0.21,0.025,0.34-0.194,0.257-0.345
	C17.45,16.741,17.495,16.832,17.472,16.772"/>
<path fill="#333333" d="M20.499,10.158c-0.064-0.036-0.081-0.071-0.197-0.103c-0.119-0.066-0.222-0.075-0.486-0.116
	c-0.229-0.035-1.901-0.251-3.03-0.35c-0.264-0.023-0.1-0.016-0.445-0.026c-0.18-0.005-0.274,0.016-0.384,0.137
	c-0.075,0.082-0.09,0.199-0.037,0.297c0.105,0.198,0.226,0.202,0.502,0.263c0.121,0.027,0.692,0.114,0.784,0.127
	c2.848,0.387,2.863,0.366,3.014,0.328c0.122-0.003,0.136-0.031,0.222-0.054C20.669,10.6,20.721,10.283,20.499,10.158"/>
<path fill="#333333" d="M4.473,9.561C4.531,9.563,4.57,9.555,4.717,9.544c0.091-0.006,0.138-0.024,0.179-0.04
	c0.027-0.009,0.087-0.029,0.136-0.079C5.16,9.296,5.153,9.061,4.973,8.947C4.881,8.89,4.851,8.878,4.766,8.855
	C4.595,8.808,4.702,8.817,4.162,8.749C4.06,8.738,3.96,8.732,3.863,8.726C2.959,8.669,2.53,8.677,2.056,8.693
	c-0.466,0.015-0.99,0.051-1.458,0.13C0.554,8.831,0.535,8.83,0.467,8.862C0.455,8.866,0.375,8.89,0.354,8.897
	c-0.035,0.014-0.055,0.02-0.087,0.042C0.231,8.953,0.185,8.97,0.14,8.993C0.043,9.042-0.013,9.157,0.002,9.27
	c0.015,0.111,0.095,0.203,0.2,0.229C0.247,9.51,0.289,9.516,0.329,9.52c0.049,0.02,0.085,0.024,0.138,0.027
	c0.101,0.007,0.07,0.014,0.155,0.02c0.126,0.009,0.984-0.043,1.62-0.053c1.094-0.016,1.7,0.029,1.881,0.038
	C4.22,9.557,4.251,9.554,4.473,9.561"/>
<path fill="#333333" d="M2.772,2.679c0.025,0.087,0.076,0.16,0.115,0.223C2.985,3.064,3.04,3.164,3.305,3.486
	C4.338,4.735,5.2,5.336,5.967,5.849C6.058,5.91,6.104,5.95,6.197,5.95c0.254,0,0.388-0.324,0.149-0.498
	C6.045,5.234,5.964,5.164,5.773,4.996c-0.574-0.505-0.844-0.742-1.43-1.365C4.039,3.308,3.85,3.079,3.565,2.736
	C3.52,2.681,3.472,2.634,3.428,2.586c-0.145-0.157-0.161-0.18-0.217-0.219C3.181,2.335,3.15,2.309,3.125,2.284
	C2.931,2.096,2.6,2.304,2.727,2.579C2.741,2.609,2.754,2.644,2.772,2.679"/>
<path fill="#333333" d="M15.795,6.364c0.032,0,0.046-0.005,0.062-0.005c0.176,0,0.67-0.195,0.777-0.236
	c0.235-0.091,0.348-0.134,0.727-0.319c0.603-0.293,0.961-0.505,1.329-0.74c0.335-0.216,0.462-0.329,0.523-0.381
	c0.162-0.138,0.174-0.143,0.209-0.196c0.041-0.038,0.082-0.076,0.125-0.117c0.092-0.086,0.102-0.234,0.022-0.336
	c-0.076-0.098-0.211-0.126-0.323-0.066c-0.046,0.024-0.094,0.049-0.14,0.074c-0.085,0.023-0.108,0.048-0.37,0.184
	c-0.059,0.032-0.114,0.067-0.168,0.098c-1.38,0.823-1.594,0.886-2.686,1.419c-0.03,0.015-0.063,0.029-0.099,0.049
	c-0.116,0.068-0.082,0.056-0.12,0.08C15.43,6.019,15.53,6.364,15.795,6.364"/>
<path fill="#333333" d="M10.633,3.999c0.112,0.138,0.409,0.155,0.521-0.142c0.028-0.061,0.023-0.084,0.03-0.15
	c0.033-0.458,0.044-1.82,0.038-2.279c-0.002-0.222,0.005-0.453-0.028-0.682c-0.01-0.096-0.01-0.198-0.031-0.304
	c-0.008-0.058-0.008-0.089-0.032-0.141c-0.005-0.035,0.005,0.022-0.017-0.107c-0.021-0.125-0.187-0.256-0.362-0.163
	c-0.05,0.026-0.108,0.087-0.121,0.161c-0.018,0.099-0.019,0.109-0.019,0.109c-0.021,0.048-0.023,0.076-0.028,0.109
	c-0.011,0.074-0.017,0.068-0.03,0.24c-0.016,0.196-0.034,0.156-0.042,0.6c0,0.004-0.025,1.049-0.011,1.853
	C10.513,3.813,10.503,3.841,10.633,3.999"/>
</svg>
