<svg width="251" height="70" xmlns="http://www.w3.org/2000/svg" viewBox="0 0 250 68.83"><defs><style>.cls-1{fill:#fafafa;}.cls-2{fill:#fff;}</style></defs><title>Logo-White</title><g id="Background"><rect class="cls-1" x="-3350.5" y="-2818.81" width="251" height="70" /></g><g id="Content"><path class="cls-2" d="M11.15,22.19v.16l-2.66-.08c-.42,0-.84,0-1.24,0a5.76,5.76,0,0,1-1.24,0v.32c-.08.8-.12,1.58-.12,2.32V27.2q0,3.24,0,6.52t.32,6.52v8.81a2.1,2.1,0,0,1-.66,1.8H5.52l-.08,0s-.06,0-.14,0L5,50.45a14.54,14.54,0,0,0,.08-2q0-1.05,0-2.64l0-2.45q0-2.19-.15-4.62c-.09-1.61-.12-3.17-.09-4.66v-4.2c0-.54,0-1.13,0-1.78s0-1.22,0-1.7V22.89a1.56,1.56,0,0,0-.11-.62H3.12l-2,.08H.58a.62.62,0,0,1-.41-.1A.85.85,0,0,1,0,21.79c0-.16.4-.24,1.1-.24l.95,0c.33,0,.7,0,1.13,0H6.35c1,0,2,0,3-.12.31,0,.66,0,1.07,0s.62.11.66.24Z"/><path class="cls-2" d="M21.26,21.63a13.57,13.57,0,0,1,.4,2.22,24.53,24.53,0,0,1,.12,2.55v2.8c0,.58,0,1.18,0,1.78s0,1.22,0,1.86v1.28a2.37,2.37,0,0,0,.12.76v1.64c0,.29,0,.59,0,.88s0,.63,0,1,.06,1,.06,1.68v6.43A14.35,14.35,0,0,0,22,48v.2c0,.34,0,.63,0,.86s0,.4,0,.54v.32a6.26,6.26,0,0,1-.12.62c0,.14-.17.22-.4.22a1.91,1.91,0,0,1-.87-.12V43.2c0-1.28,0-2.49-.09-3.64s-.12-2.39-.2-3.72V35.2h-2.6l-1.1,0a13.13,13.13,0,0,0-1.9.1l-.35,0s-.09.11-.17.32V36c.08.77.13,1.46.17,2.06s.06,1.33.06,2.18v.88c0,.46,0,1,0,1.66s0,1.47,0,2.43v1.6c0,.56,0,1.17.06,1.84v.66a3.68,3.68,0,0,1-.06.66l-.17,1a.42.42,0,0,1-.26.1l-.32,0c-.31,0-.46-.32-.46-1a2.6,2.6,0,0,1,0-.4,2.8,2.8,0,0,0,0-.4,4,4,0,0,0,.05-.62V45.33c0-.72,0-1.39-.05-2s0-1,0-1.52,0-1,0-1.6v-1c0-1,0-1.92-.06-2.72S13.07,35,13,34.2s-.07-1.29-.09-2,0-1.46,0-2.18,0-1.33,0-2.06.05-1.26.09-1.58V21.59a1.47,1.47,0,0,1,.52,0,.72.72,0,0,1,.63.24v8.47c0,.78,0,1.58-.05,2.41v1a1.52,1.52,0,0,0,.11.6v.32l.72,0,.78,0q.75,0,1.68-.06l1.62,0,.66,0,.66,0V34.2c.08-1.31.13-2.54.15-3.67s0-2.22,0-3.24,0-1.94-.06-2.79-.08-1.45-.12-1.82V22.2a.69.69,0,0,1,.12-.39.51.51,0,0,1,.46-.18Z"/><path class="cls-2" d="M31.77,21.59l.72,0,.78.06c.24.11.34.19.32.24s0,.16.09.32-.19.2-.58.2a10.5,10.5,0,0,1-1.41-.08,11.77,11.77,0,0,0-1.3-.08l-1.94,0c-.63,0-1.3.05-2,.1v.48c0,1.92,0,3.84-.09,5.75s-.09,3.82-.09,5.74l-.11.52c.5,0,1.06,0,1.67,0s1.2,0,1.74,0h.58a.62.62,0,0,1,.69.48v.08s-.17.09-.52.12h-.81a3.56,3.56,0,0,0-.55,0h-.55l-1.07,0c-.4,0-.76,0-1.07.06V36c0,.37-.05.75-.05,1.12v2.68c0,.27,0,.54,0,.8s0,.55,0,.84V42l-.05,3.37c0,.1,0,.27,0,.5s0,.74,0,1.54v2.48a10.27,10.27,0,0,0,1.15.1l1.2,0a8.91,8.91,0,0,0,1.26-.1,8.4,8.4,0,0,1,1.37-.1,1.78,1.78,0,0,1,.83.16.6.6,0,0,1,.32.6v0l-1.16,0c-.19,0-.4,0-.63,0l-.87,0-1.24,0c-.48,0-1.07,0-1.76,0H26a1,1,0,0,1-.58-.16c-.16-.11-.23-.43-.23-1a20.78,20.78,0,0,0,0-2.64c0-.94,0-1.94,0-3q0-1.11,0-2.28c0-.77,0-1.54,0-2.32V35.88c0-.75,0-1.39,0-1.94s0-1,.06-1.5,0-.89.05-1.3,0-.88,0-1.38v-.88q0-1.24,0-2a9.61,9.61,0,0,0,0-1.34v0c0-.38-.07-.77-.08-1.19s0-.92,0-1.54v-.2a.83.83,0,0,0-.06-.28.44.44,0,0,1,0-.32.53.53,0,0,1,.3-.26,2.39,2.39,0,0,1,.79-.1l.58,0c.2,0,.41,0,.64,0h.87c.84,0,1.56,0,2.13,0Z"/><path class="cls-2" d="M221.46,21.83a.33.33,0,0,0,.18.08.17.17,0,0,1,0,.12.21.21,0,0,0,0,.12.38.38,0,0,0-.06.22v.26l-.35,1.92c0,.3-.08.61-.14.95s-.11.64-.14.94l-1.28,7c-.07.59-.17,1.15-.28,1.68s-.22,1.05-.29,1.56-.24,1.28-.38,1.92-.24,1.32-.32,2c-.19,1.18-.4,2.27-.63,3.28s-.48,2.09-.75,3.21v.08a.34.34,0,0,1-.06.2.32.32,0,0,0-.06.2c.08-.11.08,0,0,.26s-.15.55-.23.82v0c-.08.4-.16.81-.26,1.24s-.2.64-.32.64-.13,0-.17.14a2.43,2.43,0,0,1-.17.3h-.23a.67.67,0,0,1-.47-.24,4,4,0,0,1-.34-.84c-.27-1-.49-2.06-.67-3.12s-.35-2.14-.55-3.21l-.34-2.24c-.12-.82-.23-1.52-.35-2.08s-.23-1.1-.35-1.64a11.1,11.1,0,0,0-.31-1.36,14.43,14.43,0,0,1-.38-1.68l-1.44-8c-.43,1.76-.78,3.52-1.07,5.3s-.59,3.58-.9,5.42l-1.1,6.12a1.42,1.42,0,0,1-.11.48v0c-.08.46-.19,1.09-.35,1.89s-.34,1.58-.55,2.34a11.27,11.27,0,0,1-.72,2c-.27.54-.56.82-.87.82a2.17,2.17,0,0,1-.75-1.22c-.19-.63-.34-1.25-.46-1.86v0l-.17-.76c-.19-.86-.38-1.7-.55-2.54s-.34-1.68-.49-2.51c-.31-1.44-.6-2.95-.87-4.54s-.54-3.2-.81-4.84-.52-3.29-.75-4.94-.42-3.27-.58-4.85a2.14,2.14,0,0,1,0-.48v-.48c0-.08.11-.12.34-.12a3.73,3.73,0,0,1,.47,0c.15,0,.25.07.28.12l.7,4,.46,3.64c.08.61.16,1.22.26,1.84s.18,1.23.26,1.84l.29,1.8c.15,1,.32,2,.49,2.94s.38,2,.61,3c.11.46.23.93.34,1.42s.21,1,.29,1.42c.12.75.24,1.49.38,2.21a19.14,19.14,0,0,0,.49,2.08c.31-1.31.59-2.62.86-4s.52-2.59.76-3.82c.15-.85.3-1.72.46-2.6s.32-1.79.52-2.72v0c.11-.61.21-1.17.29-1.66a14.49,14.49,0,0,1,.29-1.46l.57-3.2q.06-.45.15-.84c.06-.27.1-.54.14-.8l.35-1.84.34-1.69c.08-.13.41-.2,1-.2l.26,0a.87.87,0,0,0,.2,0c.08,0,.14.23.2.6s.13.72.2,1,.08.46.12.73,0,.33,0,.2l.63,3.24c.12.53.23,1.08.32,1.66s.18,1.13.26,1.66l.7,3.76c.19.93.34,1.82.46,2.64s.25,1.63.4,2.4c.16,1,.33,2.1.52,3.17s.44,2.24.75,3.52c.43-1.71.78-3.4,1.07-5.07s.59-3.34.9-5l.81-4.24.52-3.08.52-3.12c.07-.54.18-1.08.31-1.64s.24-1.11.32-1.65V24l.12-.64c0-.24.07-.47.11-.7a.72.72,0,0,1,.23-.46v-.08a.85.85,0,0,1,.75-.28l.18,0A.22.22,0,0,0,221.46,21.83Z"/><path class="cls-2" d="M225,28.6v1.92c0,.67,0,1.36-.06,2.08s-.07,1.62-.09,2.54,0,1.77,0,2.54q0,1.56.06,3l.12,2.88c0,.7.06,1.45.08,2.27s0,1.59,0,2.34v1a3.77,3.77,0,0,1-.08.76,1.84,1.84,0,0,1-.26.6.55.55,0,0,1-.47.24.57.57,0,0,1-.37-.2,1.28,1.28,0,0,1-.2-.88v-19c0-.3,0-.6,0-.92s0-.66,0-1v-.44c0-.19,0-.5,0-.92s0-1-.06-1.74,0-1.71-.08-2.91a4.43,4.43,0,0,1,.08-.88c.06-.29.18-.44.38-.44a2.25,2.25,0,0,1,.49.06.71.71,0,0,1,.37.18Z"/><path class="cls-2" d="M236.37,23.31a9.59,9.59,0,0,1,.62,1.36,7.61,7.61,0,0,1,.36,1.25l.17.72a5.66,5.66,0,0,1,.15,1.58c0,.57,0,1.4,0,2.5v1.12c0,.35,0,.88-.06,1.6v.24a6.66,6.66,0,0,1-.17,1.4,7.23,7.23,0,0,1-.52,1.48,4.88,4.88,0,0,1-.83,1.24,2.26,2.26,0,0,1-1.06.68.4.4,0,0,0-.35.4A4.11,4.11,0,0,0,235,40c.34,1,.66,1.9.95,2.64s.62,1.62,1,2.61v0l.92,2.3c.27.68.56,1.48.87,2.42v.16s0,.08,0,.1,0,.05,0,.1v.16c-.07.08-.27.12-.57.12s-.51-.32-.84-1-.65-1.37-1-2.18-.62-1.62-.87-2.4-.42-1.35-.54-1.67l-1.61-4.52a2.51,2.51,0,0,1-.8.08,22,22,0,0,1-2.64-.24l.18,6.93q.06,1.08,0,2a12.44,12.44,0,0,0,.08,1.82v.28c0,.53-.05.85-.17,1l-.78,0c-.25,0-.39-.05-.43-.1V44.81q0-.6,0-1.17c0-.37,0-.74,0-1.12v0a11.74,11.74,0,0,1-.06-2.1,9.76,9.76,0,0,0-.11-2.14V35.16c0-.56,0-1.11,0-1.66s0-1.1,0-1.66V26.9c0-.58,0-1.13-.05-1.67l-.06-2.84c0-.53.25-.8.63-.8s.73,0,1,0,.75,0,1.33,0H232c.19,0,.59,0,1.21.08a7.87,7.87,0,0,1,2.05.58A3.3,3.3,0,0,1,236.37,23.31Zm0,3.21c-.35-1.95-1-3.1-2.08-3.45l-1.22-.44a4.72,4.72,0,0,1-.8-.08,7.8,7.8,0,0,0-1.1-.08,2.46,2.46,0,0,0-1.33.28v.52a5.52,5.52,0,0,0,.06.86,3.74,3.74,0,0,1,0,.82c0,.38,0,.76,0,1.15s0,.76,0,1.14v2.08c0,.4,0,.79,0,1.18s0,.78,0,1.18L230,35.2v2.6l.93.16a4,4,0,0,0,.92.12h.75a3.32,3.32,0,0,0,3.21-1.92,6.4,6.4,0,0,0,.58-2,19.41,19.41,0,0,0,.14-2.32V30.1c0-.58,0-1.1,0-1.58s0-.9-.06-1.24A4.74,4.74,0,0,0,236.37,26.52Z"/><path class="cls-2" d="M248.09,21.59l.73,0,.78.06c.23.11.33.19.31.24s0,.16.09.32-.19.2-.58.2a10.5,10.5,0,0,1-1.41-.08,11.77,11.77,0,0,0-1.3-.08l-1.94,0c-.63,0-1.3.05-2,.1v.48c0,1.92,0,3.84-.09,5.75s-.08,3.82-.08,5.74l-.12.52c.5,0,1.06,0,1.68,0s1.19,0,1.73,0h.58a.62.62,0,0,1,.69.48v.08s-.17.09-.52.12h-.81a3.48,3.48,0,0,0-.55,0h-.55l-1.07,0c-.4,0-.76,0-1.06.06V36a10.51,10.51,0,0,0-.06,1.12v2.68c0,.27,0,.54,0,.8s0,.55,0,.84V42l-.06,3.37c0,.1,0,.27,0,.5s0,.74,0,1.54v2.48a9.85,9.85,0,0,0,1.14.1l1.2,0a8.91,8.91,0,0,0,1.26-.1,8.4,8.4,0,0,1,1.37-.1,1.75,1.75,0,0,1,.83.16.6.6,0,0,1,.32.6v0l-1.16,0c-.19,0-.4,0-.63,0l-.87,0-1.24,0c-.48,0-1.07,0-1.76,0h-.75a1,1,0,0,1-.58-.16c-.16-.11-.23-.43-.23-1a22.74,22.74,0,0,0,.06-2.64c0-.94-.06-1.94-.06-3q0-1.11,0-2.28c0-.77,0-1.54,0-2.32V35.88c0-.75,0-1.39,0-1.94s0-1,.06-1.5,0-.89.05-1.3,0-.88,0-1.38v-.88q0-1.24,0-2a9.61,9.61,0,0,0,0-1.34v0c0-.38-.06-.77-.08-1.19s0-.92,0-1.54v-.2a.83.83,0,0,0-.06-.28.44.44,0,0,1,0-.32.53.53,0,0,1,.3-.26,2.39,2.39,0,0,1,.79-.1l.59,0a6.22,6.22,0,0,0,.63,0h.87c.84,0,1.56,0,2.14,0Z"/><path class="cls-2" d="M195.32,35.75l-.2.88c-.33,1.44-.81,3.1-1.44,5a49.93,49.93,0,0,1-2.35,5.74,45.28,45.28,0,0,1-3.14,5.48A18.88,18.88,0,0,1,184.55,57a2.27,2.27,0,0,1-1.15.41.52.52,0,0,1-.41-.3,1.26,1.26,0,0,1-.13-.6V56a16.09,16.09,0,0,1,.63-4.5c.41-1.46.85-2.9,1.32-4.33s.92-2.87,1.33-4.33a16.57,16.57,0,0,0,.62-4.5,7.15,7.15,0,0,0-.83-3.69,7,7,0,0,0-2.2-2.27,14.42,14.42,0,0,0-3-1.5c-1.11-.4-1.82-.53-2.93-1a30.61,30.61,0,0,0,1.47-4A13.24,13.24,0,0,0,180,21.7a5.86,5.86,0,0,0-.87-3.13,3,3,0,0,0-2.7-1.41,4.63,4.63,0,0,0-2.65.77,7.17,7.17,0,0,0-2,2,9.15,9.15,0,0,0-1.25,2.66,10.51,10.51,0,0,0-.41,2.82,8.25,8.25,0,0,0,.91,4.16,9.41,9.41,0,0,0,2.24,2.66,12.89,12.89,0,0,0,1.58,1.07c-.25.39-.54.83-.9,1.33a27.38,27.38,0,0,1-2.72,3.17,18.86,18.86,0,0,1-3.53,2.79,8.1,8.1,0,0,1-4.13,1.2,1.79,1.79,0,0,1-1.7-1,6.83,6.83,0,0,1-.75-2.36,14.2,14.2,0,0,1-.17-2.65c0-.86,0-1.49,0-1.89a2.53,2.53,0,0,0,.09-.64,2.44,2.44,0,0,1,.08-.64A7,7,0,0,0,163,32.5c.63-.11,1.17-.23,1.61-.34a9.42,9.42,0,0,0,1.66-.69,6.34,6.34,0,0,0,1.54-1.11,5.09,5.09,0,0,0,1.08-1.5,3.73,3.73,0,0,0,.29-1.85,2.51,2.51,0,0,0-.83-1.58,3.39,3.39,0,0,0-1.54-.73,7.77,7.77,0,0,0-1.82-.13,10,10,0,0,0-1.7.21,6.33,6.33,0,0,0-3.16,1.68A12.67,12.67,0,0,0,158,29.41a16.45,16.45,0,0,0-1.45,4.2,11.06,11.06,0,0,0-.22,1.8c-.29,1.29-.65,2.73-1.07,4.33s-1,3.45-1.53,5.28a36.82,36.82,0,0,1-2,5,15.51,15.51,0,0,1-2.49,3.73,4,4,0,0,1-2.86,1.46c-.56-.29-.86-1-.92-2.1a20.9,20.9,0,0,1,.29-4.08c.25-1.6.6-3.35,1-5.27s.87-3.87,1.29-5.87.78-4,1.12-5.87a30.46,30.46,0,0,0,.49-5.1,9,9,0,0,0-.12-1.37,8.21,8.21,0,0,0-.37-1.46,3.39,3.39,0,0,0-.75-1.2,1.68,1.68,0,0,0-1.24-.52,3.5,3.5,0,0,0-2.33,1.25,20.76,20.76,0,0,0-2.53,3.17,41.52,41.52,0,0,0-2.49,4.29q-1.2,2.35-2.24,4.62c-.69,1.52-1.28,2.91-1.78,4.16a24.31,24.31,0,0,0-1,2.92l.09-.69V37.6c0-1.91,0-3.89-.13-5.91s-.23-4-.45-5.75a14.34,14.34,0,0,0-.92-4l-.74-.52c-.67-.05-1,.25-1,.9v1.59a75.79,75.79,0,0,1-.43,8.13c-.12.53-.25,1.06-.4,1.63q-.58,2.27-1.35,4.67c-.51,1.61-1.07,3.1-1.66,4.47a9.19,9.19,0,0,1-1.43,2.86c-1.28,1.49-1.37-2.1-1.37-2.1,0-.67,0-1.34,0-2a12.91,12.91,0,0,1,0-1.59l.2-4.06a17.52,17.52,0,0,1,0-1.79,17.46,17.46,0,0,0,0-1.79c0-.36-.06-.91-.14-1.65a14.18,14.18,0,0,0-.44-2.25,6.69,6.69,0,0,0-.9-2,1.64,1.64,0,0,0-1.47-.8,2.79,2.79,0,0,0-2,1.19,16,16,0,0,0-1.78,2.66,24,24,0,0,0-1.4,3c-.35.92-.63,1.6-.83,2.06,0-.2,0-.41,0-.61,0-.91-.08-1.83-.08-2.74,0-.23,0-.64,0-1.24a16.54,16.54,0,0,0-.21-1.89,13.51,13.51,0,0,0-.41-1.76c-.17-.51-.36-.77-.58-.77-.5,0-.92.43-1.25,1.29a15.78,15.78,0,0,0-.79,3.25c-.15,1-.27,2.14-.37,3.33-.23.65-.47,1.29-.7,1.9q-1,2.49-2.2,5c-.28.52-.57,1-.87,1.55s-.63,1-1,1.46c-.11.11-.32.35-.62.72s-.62.73-1,1.08a3.25,3.25,0,0,1-1,.72c-.33.15-.52.08-.58-.21a19.64,19.64,0,0,1-.54-4.2c0-1.43,0-2.83,0-4.2.06-.86.11-1.7.17-2.53s.08-1.67.08-2.53a10.29,10.29,0,0,0-.25-2.31c-.16-.75-.3-1.49-.41-2.23a.63.63,0,0,0-.62-.56.62.62,0,0,0-.71.39c-.5,1-1,2-1.37,3a24.69,24.69,0,0,0-1,3.25c-.11.18-.22.33-.33.48s-.22.3-.33.47l-.54.81a9.3,9.3,0,0,1-.83,1.07,5.24,5.24,0,0,1-1,.9,2.48,2.48,0,0,1-1,.47,5.15,5.15,0,0,0,.17-1.2c0-.91.08-1.92.08-3s.06-2.23.17-3.34a17.64,17.64,0,0,1,.62-3.22,6.19,6.19,0,0,1,1.45-2.57,1.3,1.3,0,0,1,1.29-.43,3.85,3.85,0,0,1,1.37.69,8.73,8.73,0,0,1,1.28,1.24,8.29,8.29,0,0,0,1,1.07c.11.18.23.19.37,0a.34.34,0,0,0,0-.47c-.61-.63-1.24-1.35-1.9-2.15A5.05,5.05,0,0,0,99.77,23a3.71,3.71,0,0,0-2.65.13,6.61,6.61,0,0,0-2.24,1.67A11.28,11.28,0,0,0,92.51,29a22.58,22.58,0,0,0-.87,4.8,11.13,11.13,0,0,0,0,2.15,1.43,1.43,0,0,0,0,.22l-.58,1.58c-.61,1.6-1.28,3.21-2,4.84A44.27,44.27,0,0,1,86.92,47a18.75,18.75,0,0,1-2.37,3.25,3.35,3.35,0,0,1-2.36,1.29,1.63,1.63,0,0,1-1.41-.69A4.86,4.86,0,0,1,80,49.24a9.57,9.57,0,0,1-.33-1.89c-.06-.65-.08-1.18-.08-1.58a65.05,65.05,0,0,1,.49-8.08c.33-2.63.67-5.29,1-8A20,20,0,0,0,86,25.89a23.18,23.18,0,0,0,3.57-5.07,25.84,25.84,0,0,0,2.2-5.88,27,27,0,0,0,.74-6.27c0-.68,0-1.53-.08-2.53a13.28,13.28,0,0,0-.46-2.83A6.26,6.26,0,0,0,90.77,1a2.65,2.65,0,0,0-2.2-1Q86.5,0,84.72,2.79a30.85,30.85,0,0,0-3.2,7.15A98.65,98.65,0,0,0,79,19.59c-.74,3.51-1.37,6.91-1.86,10.2-.07.45-.13.88-.19,1.31-.44.27-.91.54-1.43.83-1.41.77-2.56,1.45-3.44,2a53.83,53.83,0,0,0,2.57-8.53,42.88,42.88,0,0,0,.91-8.88,30.76,30.76,0,0,0-.21-3.21,16.67,16.67,0,0,0-.83-3.73,9.59,9.59,0,0,0-1.7-3.09A3.52,3.52,0,0,0,70,5.23,6.43,6.43,0,0,0,65.85,7a26.62,26.62,0,0,0-3.95,4.2,52.47,52.47,0,0,0-3.4,5c-1,1.75-1.84,3.16-2.44,4.25q.24-2,.45-3.9a36.12,36.12,0,0,0,.21-3.9c0-.57,0-1.29-.08-2.15a9.72,9.72,0,0,0-.46-2.4,6.07,6.07,0,0,0-1-1.93,2.31,2.31,0,0,0-1.9-.81,4.28,4.28,0,0,0-2.37,1A23,23,0,0,0,48,8.92a36.72,36.72,0,0,0-3,3.47,41.82,41.82,0,0,0-2.65,3.81,37.14,37.14,0,0,0-1.95,3.52,6.42,6.42,0,0,0-.79,2.65l.25.17A5,5,0,0,0,41.16,21c.57-.86,1.22-1.87,1.93-3s1.5-2.41,2.36-3.73S47.17,11.7,48,10.59a18.85,18.85,0,0,1,2.6-2.75A3.86,3.86,0,0,1,53,6.77a1.07,1.07,0,0,1,1.12,1,8.13,8.13,0,0,1,.2,1.67,21,21,0,0,1-.61,5.06c-.41,1.66-.84,3.31-1.28,5q-2.87,11.57-5,23.32a134.58,134.58,0,0,0-2.09,23.74h.08a2,2,0,0,0,.79,1.67,2.61,2.61,0,0,0,1.7.64,1.58,1.58,0,0,0,1.37-.94,8.17,8.17,0,0,0,.83-2.44c.19-1,.34-2.12.45-3.34s.19-2.42.25-3.56.08-2.17.08-3.09a15,15,0,0,1,.09-2Q51.41,48,52.12,42a90.91,90.91,0,0,1,2.19-11.83,62.57,62.57,0,0,1,4-11.1,32.66,32.66,0,0,1,6.55-9.3,16.55,16.55,0,0,1,2-1.76,4.22,4.22,0,0,1,2.53-.81,1.85,1.85,0,0,1,1.45.6,4,4,0,0,1,.83,1.5,8.36,8.36,0,0,1,.38,1.84c.05.63.08,1.18.08,1.63a18.67,18.67,0,0,1-.37,3c-.25,1.37-.57,2.93-1,4.67S70,24,69.45,25.89s-1.07,3.63-1.66,5.23a38.74,38.74,0,0,1-1.7,4.07,5,5,0,0,1-1.57,2.1,14.62,14.62,0,0,1-3.44,1.2,26.13,26.13,0,0,0-3.7,1.11,8.23,8.23,0,0,0-2.94,1.93,5.07,5.07,0,0,0-1.2,3.65,3.34,3.34,0,0,0,1.32,2.91,5.17,5.17,0,0,0,3.07.94,9.47,9.47,0,0,0,4.61-1.11,13.81,13.81,0,0,0,3.61-2.87,22.65,22.65,0,0,0,2.82-3.95c.83-1.45,1.57-2.9,2.24-4.33.44-.22,1.09-.61,1.94-1.15s1.75-1.13,2.66-1.76c.41-.28.79-.56,1.16-.83-.28,2-.5,3.92-.66,5.67q-.37,4-.38,5.79a27.85,27.85,0,0,0,.21,3.3,12.48,12.48,0,0,0,.83,3.26,6.35,6.35,0,0,0,1.78,2.48,4.71,4.71,0,0,0,6.23-.39,16.56,16.56,0,0,0,2.82-3.55,34.84,34.84,0,0,0,2.44-4.93q1.13-2.74,2-5.4c.14-.41.26-.8.38-1.21a4.83,4.83,0,0,0,1.16,1.51,3.32,3.32,0,0,0,2,.73,2.49,2.49,0,0,0,2.16-.82c.66-.65,1.21-1.24,1.66-1.75a1.28,1.28,0,0,0,.2-.26,1.45,1.45,0,0,1,.21-.26,13.41,13.41,0,0,0-.08,1.55V40.2c0,.69,0,1.52.08,2.49a12.71,12.71,0,0,0,.46,2.79,5.42,5.42,0,0,0,1.2,2.22,2.76,2.76,0,0,0,2.32.82,3.76,3.76,0,0,0,2-.56,7.11,7.11,0,0,0,1.66-1.41,11,11,0,0,0,1.29-1.8c.36-.63.7-1.26,1-1.89.45-.86.85-1.73,1.21-2.61s.7-1.79,1-2.7c.2-.52.39-1,.58-1.56-.07,1.09-.12,2.15-.16,3.18-.06,1.49-.08,2.85-.08,4.08v2.61a4.08,4.08,0,0,0,.41,2,1.79,1.79,0,0,0,1.74.77,1.64,1.64,0,0,0,1.54-.77,4.8,4.8,0,0,0,.58-1.84,12.26,12.26,0,0,0,0-2.19c-.06-.74-.08-1.34-.08-1.8V38.26l0,.62a10.21,10.21,0,0,1,.46-2.41,32.54,32.54,0,0,1,1.25-3.72,34.53,34.53,0,0,1,1.59-3.47c.55-1,1.07-1.6,1.57-1.71a1.07,1.07,0,0,1,.18.47,46.88,46.88,0,0,1-.62,9.24,46.88,46.88,0,0,0-.62,9.24,1.36,1.36,0,0,0,0,.2h0a4.45,4.45,0,0,0,1.11,2.8,3.8,3.8,0,0,0,3.25,1.18c1.08-.27,1.75-1.12,2.65-2.17s2.34-5.75,3-8c-.13,1.8-.19,3.6-.19,5.42a8.29,8.29,0,0,0,.12,1.33,4.7,4.7,0,0,0,.42,1.33,3,3,0,0,0,.78,1,1.84,1.84,0,0,0,1.25.43,2,2,0,0,0,1.33-.43,2.31,2.31,0,0,0,.7-1.07,4.37,4.37,0,0,0,.21-1.37,10.78,10.78,0,0,0-.09-1.41c.23-.69.59-1.7,1.08-3s1.07-2.81,1.7-4.41,1.36-3.26,2.16-5,1.6-3.29,2.41-4.72a20.47,20.47,0,0,1,2.4-3.51,3.23,3.23,0,0,1,2.28-1.37c.56-.12.82.25.79,1.11a18.21,18.21,0,0,1-.62,3.6c-.39,1.54-.89,3.32-1.49,5.32s-1.22,4.05-1.83,6.17-1.12,4.17-1.53,6.17a26.2,26.2,0,0,0-.63,5.31,15,15,0,0,0,.17,2.1,8.49,8.49,0,0,0,.58,2.15,4.73,4.73,0,0,0,1.16,1.67,2.81,2.81,0,0,0,2,.68,4.38,4.38,0,0,0,3-1.5,17.19,17.19,0,0,0,2.9-3.9A46.11,46.11,0,0,0,154,47.33c.8-1.94,1.49-3.86,2.07-5.74.26-.85.49-1.66.7-2.45a5.69,5.69,0,0,0,.63,1.5,7.06,7.06,0,0,0,1.32,1.67,6.06,6.06,0,0,0,1.41,1,5.4,5.4,0,0,0,1.12.43,4.15,4.15,0,0,0,1.17.19,7.23,7.23,0,0,0,2.71-.58,17.89,17.89,0,0,0,4.39-2.57,25.29,25.29,0,0,0,4-3.86,21.8,21.8,0,0,0,2.23-3.2c.16.08.31.18.47.25,1.05.46,2,.9,2.91,1.33a9.62,9.62,0,0,1,2.24,1.45,2.7,2.7,0,0,1,.91,2.1,14.08,14.08,0,0,1-.58,4c-.39,1.32-.8,2.62-1.25,3.9s-.85,2.59-1.24,3.9a14.13,14.13,0,0,0-.58,4,7.23,7.23,0,0,0,1.12,3.82A3.61,3.61,0,0,0,183,60.36a4.63,4.63,0,0,0,3-1.47,18.56,18.56,0,0,0,3-3.77A45.09,45.09,0,0,0,191.78,50q1.31-2.82,2.27-5.46c.64-1.76,1.16-3.35,1.54-4.78a13.5,13.5,0,0,0,.58-3.2C196.17,36,195.93,35.75,195.32,35.75ZM162.91,28a4.44,4.44,0,0,1,3.28-1.84,1.48,1.48,0,0,1,1.62.55,2,2,0,0,1,0,1.85,3.36,3.36,0,0,1-1.29,1.5,9.6,9.6,0,0,1-1.78.9,8.87,8.87,0,0,1-3.48.6A10.67,10.67,0,0,1,162.91,28Zm-81.1-3q.38-2.4.92-5.4T84,13.42q.7-3.22,1.54-5.92a25,25,0,0,1,1.74-4.41c.61-1.15,1.24-1.72,1.91-1.72a1.46,1.46,0,0,1,1.36,1,8.52,8.52,0,0,1,.67,2.27,22.35,22.35,0,0,1,.25,2.57c0,.86,0,1.49,0,1.89A22.44,22.44,0,0,1,89,20.19a26.62,26.62,0,0,1-7.68,8.27C81.38,27.77,81.56,26.63,81.81,25Zm-20,16.33A15.34,15.34,0,0,1,60.45,43a8.44,8.44,0,0,1-1.61,1.33,3.33,3.33,0,0,1-1.79.56l-.74-.77a2.22,2.22,0,0,1,.78-1.67A7.63,7.63,0,0,1,59,41.23a20.13,20.13,0,0,1,2.24-.9c.77-.26,1.38-.44,1.82-.56C62.69,40.23,62.31,40.76,61.86,41.36Zm113-14.43a6.69,6.69,0,0,1-.5-2.57,10.28,10.28,0,0,1,.17-1.59,10.74,10.74,0,0,1,.5-1.93,5.62,5.62,0,0,1,.87-1.63,1.57,1.57,0,0,1,1.28-.68c1.1,0,1.78,2.14,1.74,3.08a11.37,11.37,0,0,1-.2,1.76c-.14.72-.34,1.44-.54,2.19a22.77,22.77,0,0,1-1.31,3.8A7.5,7.5,0,0,1,174.9,26.93Z"/></g></svg>