<?xml version="1.0" encoding="utf-8"?>
<!-- Generator: Adobe Illustrator 23.0.1, SVG Export Plug-In . SVG Version: 6.00 Build 0)  -->
<svg height="16" width="12" version="1.1" id="Layer_1" xmlns="http://www.w3.org/2000/svg" xmlns:xlink="http://www.w3.org/1999/xlink" x="0px" y="0px"
	 viewBox="0 0 29 40" style="enable-background:new 0 0 29 40;" xml:space="preserve">
<path fill="#f05b21" d="M26.6,0.3c-1.1-0.2-1.9-0.2-2.9-0.2l-0.7,0c-1.1,0-2.2,0-3.2-0.1C18.5,0,17.3,0,16.1,0c-1.2,0-2.3,0-3.5,0.1
	c-1.1,0-2.2,0.1-3.3,0.1c-1.4,0-2.8,0-4.2,0l-2.6,0C2.3,0.2,2,0.3,1.9,0.4c-0.1,0-0.2,0.1-0.2,0.1C0.8,0.7,0,1,0.2,2.5
	c0,0.6,0.1,1.2,0.2,1.8C0.5,5,0.6,5.7,0.6,6.4c0.1,2.5,0.1,5,0.1,7.5c0,1.8,0,3.5,0,5.3c0,2.3,0,5.8-0.2,9.1
	c-0.1,1.6-0.2,3.3-0.3,4.7C0.1,34.8,0,36.3,0,37.5c0,0.4,0.1,0.7,0.2,1c0,0.1,0.1,0.2,0.1,0.3c0.1,0.5,0.4,1.1,0.8,1.2
	c0,0,0.1,0,0.1,0c0.4,0,0.8-0.4,1-0.7c0.9-0.7,2.7-2.4,4-3.6c0.5-0.4,0.9-0.8,1.1-1l1-0.9c1.6-1.5,3.4-3.1,4.9-4.6
	c0.2-0.2,0.2-0.2,0.2-0.2c0,0,0.1,0.1,0.2,0.1c0.1,0.1,0.2,0.1,0.4,0.2c2.3,1.3,3.6,2.1,5.7,3.7c0.5,0.4,1,1,1.4,1.5
	c0.5,0.6,1,1.2,1.5,1.6c0.5,0.4,1,0.8,1.5,1.1c0.7,0.5,1.3,1,2,1.5c0.4,0.4,1,0.5,1.4,0.3c0.5-0.2,0.9-0.8,1-1.5c0-0.1,0-0.2,0-0.2
	c0-0.2,0.1-0.4,0.1-0.6c0-1.1,0-2.3,0-3.6c0-1.5,0-3,0-4.2c0-1.2,0-2.4,0-3.7c0-1.6-0.1-3.1,0-4.8c0-1.4,0.1-2.8,0.1-4.2
	c0-1.4,0.1-2.8,0.1-4.2c0-1.4,0.1-2.7,0.1-4c0-1.5,0.1-3,0.1-4.4l0,0C29,1.6,28.4,0.7,26.6,0.3z M2.9,27.7c0.2-3.8,0.3-7.6,0.2-9.9
	c0-1.5,0-3.1,0.1-4.7c0-2,0.1-4,0-6c0-0.5-0.1-0.9-0.2-1.3C3,5.4,2.9,5.1,2.9,4.7c0-0.2,0-0.5,0-0.7c0-0.1,0-0.2,0-0.3
	c0.1,0,0.2,0,0.2,0c1.2,0,2.4,0.1,3.6,0.1C7.9,3.9,9.1,4,10.3,4c1.3,0,2.4-0.1,3.6-0.1c1.2-0.1,2.4-0.1,3.6-0.1
	c1.1,0,2.3-0.1,3.4-0.1c1.1-0.1,2.3-0.1,3.5-0.1c0.3,0,0.6,0.1,0.9,0.2c0.1,0.1,0.2,0.1,0.4,0.1v0.7c0,2.8,0,6,0,9.4
	c0,1.9,0,3.8,0,5.8l0,7.9c0,2.1,0,4.2,0,6.3c-0.5-0.5-1.1-1-1.6-1.6c-0.8-0.8-1.6-1.7-2.4-2.3c-0.7-0.6-1.2-0.9-1.7-1.2
	c-0.4-0.3-0.8-0.5-1.4-1c-0.6-0.4-1.2-0.8-1.7-1.2c-0.4-0.2-0.7-0.4-1.1-0.5c-0.4-0.1-0.7-0.3-1-0.5c-0.8-0.5-1.6-1.1-2.7,0
	c-0.7,0.7-1.4,1.4-2.1,2.2c-1,1-2,2.1-2.9,2.9l-0.4,0.4c-1,1-2.6,2.5-3.9,4.1C2.7,33.2,2.8,30.5,2.9,27.7z"/>
</svg>
