<?xml version="1.0" encoding="utf-8"?>
<!-- Generator: Adobe Illustrator 16.0.0, SVG Export Plug-In . SVG Version: 6.00 Build 0)  -->
<!DOCTYPE svg PUBLIC "-//W3C//DTD SVG 1.1//EN" "http://www.w3.org/Graphics/SVG/1.1/DTD/svg11.dtd">
<svg version="1.1" id="Layer_1" xmlns="http://www.w3.org/2000/svg" xmlns:xlink="http://www.w3.org/1999/xlink" x="0px" y="0px"
	 width="19.586px" height="20px" viewBox="0 0 19.586 20" enable-background="new 0 0 19.586 20" xml:space="preserve">
<path fill="#808080" d="M8.587,6.043C6.907,6.47,5.862,8.126,5.813,9.781c-0.066,2.231,1.654,4.211,3.842,4.611
	c1.371,0.293,2.92-0.332,3.777-1.456c1.228-1.612,1.078-3.72-0.082-5.303C12.303,6.205,10.301,5.606,8.587,6.043 M12.737,7.404
	L12.737,7.404c0.015-0.05,0.033-0.088,0.041-0.083c0.013,0.008,0.053,0.051,0.18,0.196c0.021,0.024,0.029,0.061,0.02,0.081
	C12.963,7.621,12.971,7.638,13,7.645c0.044,0.012,0.037,0.045-0.021,0.101c-0.031,0.029-0.039,0.025-0.113-0.058
	c-0.043-0.049-0.09-0.095-0.107-0.102C12.715,7.566,12.708,7.506,12.737,7.404 M12.272,6.959c0.006-0.046,0.018-0.053,0.049-0.037
	c0.049,0.023,0.302,0.259,0.314,0.291c0.01,0.026-0.055,0.182-0.072,0.173c-0.008-0.003-0.062-0.046-0.121-0.095
	s-0.114-0.09-0.123-0.093c-0.063-0.021-0.084-0.053-0.07-0.112C12.256,7.048,12.266,6.991,12.272,6.959 M10.903,6.372
	c0.011-0.045,0.037-0.043,0.258,0.015c0.135,0.036,0.339,0.103,0.453,0.148c0.207,0.083,0.52,0.246,0.529,0.276
	c0.002,0.009-0.006,0.066-0.017,0.126l-0.021,0.111l-0.065-0.047c-0.036-0.026-0.081-0.055-0.099-0.065
	c-0.02-0.009-0.047-0.029-0.063-0.045c-0.016-0.015-0.068-0.049-0.117-0.075c-0.048-0.027-0.166-0.092-0.263-0.147
	c-0.099-0.056-0.269-0.128-0.39-0.165c-0.119-0.037-0.217-0.071-0.217-0.076C10.891,6.424,10.895,6.399,10.903,6.372 M10.537,6.279
	c0.237,0.034,0.237,0.034,0.2,0.093c-0.018,0.026-0.045,0.041-0.064,0.033c-0.02-0.009-0.098-0.021-0.176-0.029
	c-0.129-0.011-0.143-0.017-0.16-0.066c-0.012-0.029-0.014-0.053-0.007-0.055C10.337,6.253,10.43,6.263,10.537,6.279 M9.93,6.208
	L9.93,6.208c0.082,0.011,0.162,0.021,0.18,0.021c0.016,0,0.035,0.024,0.043,0.051c0.013,0.044,0.004,0.054-0.061,0.068
	C9.995,6.37,9.846,6.331,9.801,6.271C9.746,6.198,9.77,6.186,9.93,6.208 M9.36,6.187c0.183,0.006,0.195,0.01,0.236,0.069
	c0.024,0.035,0.041,0.069,0.037,0.077C9.63,6.341,9.58,6.349,9.522,6.351c-0.058,0.003-0.139,0.011-0.18,0.017
	C9.27,6.379,9.262,6.375,9.186,6.29C9.141,6.238,9.12,6.196,9.137,6.19C9.155,6.185,9.254,6.183,9.36,6.187 M7.856,6.555
	c0.063-0.037,0.119-0.077,0.125-0.086c0.018-0.029,0.621-0.217,0.766-0.24c0.158-0.024,0.16-0.023,0.24,0.091
	c0.06,0.086,0.066,0.159,0.011,0.134c-0.015-0.006-0.05-0.005-0.078,0.005C8.891,6.468,8.807,6.493,8.733,6.515l-0.135,0.04
	L8.512,6.468C8.407,6.361,8.35,6.366,8.368,6.482c0.006,0.042,0.021,0.081,0.033,0.086c0.043,0.02,0.004,0.049-0.155,0.116
	C8.157,6.72,8.028,6.781,7.96,6.817S7.825,6.872,7.813,6.859C7.799,6.845,7.778,6.787,7.764,6.73L7.741,6.625L7.856,6.555z
	 M7.348,6.847c0.027-0.01,0.09-0.045,0.137-0.077c0.098-0.066,0.107-0.066,0.103-0.002C7.584,6.794,7.596,6.854,7.612,6.903
	c0.025,0.076,0.023,0.094-0.022,0.133c-0.056,0.049-0.124,0.037-0.12-0.021c0-0.019-0.033-0.051-0.076-0.07
	C7.295,6.901,7.282,6.872,7.348,6.847 M7.051,7.069c0.066-0.058,0.084-0.05,0.098,0.042c0.015,0.097,0.004,0.116-0.065,0.105
	C6.956,7.195,6.948,7.159,7.051,7.069 M10.098,14.267c-0.119,0.013-0.123,0.004-0.023-0.059c0.109-0.07,0.162-0.071,0.131-0.001
	C10.19,14.24,10.151,14.261,10.098,14.267 M10.174,13.964c-0.021-0.01-0.066-0.008-0.1,0.005c-0.086,0.032-0.381,0.074-0.497,0.071
	c-0.054-0.002-0.13-0.02-0.167-0.042c-0.064-0.036-0.122-0.043-0.321-0.039c0,0-0.344-0.012-0.622-0.21
	c-0.105-0.056-0.218-0.124-0.25-0.152c-0.064-0.054-0.179-0.128-0.373-0.24c-0.115-0.067-0.324-0.242-0.537-0.451
	c-0.279-0.275-0.349-0.351-0.461-0.51c-0.066-0.095-0.164-0.228-0.216-0.295c-0.161-0.205-0.331-0.576-0.454-0.994
	c-0.061-0.201-0.087-0.665-0.064-1.094c0.039-0.73,0.113-1.012,0.406-1.548c0.196-0.361,0.281-0.466,0.611-0.758
	c0.32-0.284,0.747-0.586,1.018-0.719c0.181-0.09,0.25-0.116,0.418-0.162c0.107-0.029,0.246-0.07,0.31-0.091
	C8.936,6.714,9,6.703,9.016,6.71s0.03,0.003,0.032-0.01c0.003-0.022,0.233-0.07,0.433-0.089c0.592-0.059,1.219,0.006,1.666,0.173
	c0.219,0.082,0.522,0.268,0.931,0.573c0.106,0.079,0.228,0.159,0.269,0.178c0.047,0.021,0.086,0.061,0.102,0.101
	c0.014,0.037,0.055,0.08,0.092,0.097c0.109,0.05,0.26,0.236,0.262,0.323c0,0.061,0.012,0.078,0.061,0.087
	c0.045,0.008,0.086,0.05,0.156,0.155c0.051,0.079,0.1,0.16,0.108,0.18c0.007,0.02,0.042,0.091,0.075,0.158
	c0.064,0.13,0.084,0.178,0.203,0.523c0.224,0.647,0.271,1.411,0.119,1.933c-0.039,0.139-0.08,0.27-0.09,0.288
	c-0.008,0.018-0.054,0.136-0.099,0.26c-0.103,0.284-0.433,0.805-0.601,0.949c-0.059,0.05-0.114,0.109-0.125,0.13
	c-0.035,0.081-0.482,0.422-0.791,0.605c-0.238,0.142-0.524,0.284-0.541,0.269c-0.01-0.008-0.024-0.001-0.032,0.016
	c-0.024,0.055-0.285,0.167-0.546,0.233c-0.076,0.02-0.217,0.06-0.313,0.088C10.292,13.959,10.196,13.974,10.174,13.964
	 M13.628,11.396c0.028-0.047,0.05-0.057,0.089-0.041c0.061,0.023,0.057,0.062-0.005,0.058c-0.022-0.001-0.053,0.025-0.067,0.057
	c-0.02,0.042-0.031,0.049-0.041,0.024C13.598,11.474,13.608,11.43,13.628,11.396 M11,14.031c-0.063,0.137-0.138,0.199-0.256,0.213
	c-0.06,0.007-0.16,0.021-0.224,0.032l-0.115,0.019l0.052-0.069c0.028-0.038,0.065-0.091,0.083-0.119
	c0.018-0.027,0.035-0.051,0.042-0.052c0.005-0.001,0.11-0.027,0.233-0.057l0.225-0.055L11,14.031z M11.358,13.968
	c-0.068,0.149-0.082,0.165-0.148,0.175c-0.07,0.011-0.072,0.009-0.061-0.045c0.008-0.031,0.029-0.104,0.051-0.163
	c0.031-0.09,0.051-0.112,0.125-0.142c0.05-0.02,0.094-0.026,0.099-0.013C11.428,13.793,11.399,13.877,11.358,13.968 M11.819,13.682
	c-0.02,0.082-0.029,0.162-0.024,0.179c0.021,0.066-0.038,0.125-0.166,0.167c-0.073,0.023-0.136,0.036-0.14,0.029
	c-0.002-0.008,0.035-0.108,0.082-0.222c0.082-0.195,0.094-0.209,0.184-0.254l0.096-0.048L11.819,13.682z M12.176,13.604
	c-0.021,0.009-0.029,0.038-0.021,0.087c0.007,0.041,0,0.075-0.014,0.077c-0.015,0.002-0.031-0.049-0.037-0.113
	c-0.006-0.065-0.021-0.148-0.035-0.184c-0.022-0.062-0.02-0.069,0.039-0.109c0.033-0.023,0.07-0.041,0.084-0.04
	C12.246,13.328,12.231,13.584,12.176,13.604 M12.497,13.546c-0.055,0.038-0.109,0.067-0.122,0.066
	c-0.015-0.002-0.009-0.058,0.011-0.125c0.02-0.067,0.029-0.169,0.02-0.227c-0.016-0.089-0.01-0.11,0.029-0.138
	c0.027-0.018,0.055-0.029,0.064-0.025c0.008,0.003,0.033,0.091,0.055,0.194l0.041,0.187L12.497,13.546z M12.842,13.265
	c-0.029,0.016-0.063,0.048-0.072,0.071c-0.01,0.022-0.025,0.037-0.035,0.032c-0.02-0.009-0.069-0.123-0.115-0.263
	c-0.032-0.096-0.031-0.1,0.039-0.165c0.039-0.037,0.074-0.065,0.078-0.062c0.002,0.003,0.045,0.072,0.096,0.154
	C12.928,13.19,12.928,13.219,12.842,13.265 M13.11,13.054c-0.073,0.064-0.1,0.048-0.199-0.12c-0.084-0.142-0.088-0.199-0.014-0.227
	c0.051-0.019,0.047-0.022,0.156,0.108C13.172,12.959,13.18,12.994,13.11,13.054 M13.356,12.759c-0.049,0.136-0.084,0.129-0.207-0.04
	c-0.101-0.135-0.11-0.161-0.08-0.21c0.045-0.077,0.131-0.048,0.232,0.08C13.366,12.669,13.376,12.7,13.356,12.759 M13.606,12.296
	c-0.014,0.023-0.053,0.094-0.084,0.157l-0.059,0.114l-0.086-0.075c-0.047-0.041-0.096-0.099-0.109-0.128
	c-0.012-0.029-0.035-0.06-0.051-0.067c-0.021-0.009-0.018-0.029,0.006-0.058c0.021-0.025,0.047-0.063,0.057-0.084
	c0.025-0.058,0.099-0.048,0.232,0.029C13.616,12.244,13.629,12.258,13.606,12.296 M13.828,11.775
	c-0.074,0.243-0.108,0.275-0.248,0.236c-0.175-0.051-0.179-0.064-0.084-0.273c0.073-0.159,0.089-0.18,0.123-0.165
	c0.022,0.009,0.091,0.017,0.153,0.017h0.113L13.828,11.775z M14.071,10.694c-0.002,0.014-0.012,0.113-0.021,0.22
	c-0.021,0.255-0.051,0.299-0.205,0.312c-0.066,0.005-0.132,0.005-0.145,0c-0.012-0.006-0.004-0.049,0.018-0.095
	c0.051-0.116,0.082-0.279,0.092-0.478c0.01-0.212,0.024-0.241,0.108-0.222c0.038,0.009,0.091,0.014,0.118,0.012s0.053-0.002,0.057,0
	C14.1,10.446,14.092,10.521,14.071,10.694 M14.049,9.771c0.031,0.094,0.041,0.494,0.016,0.523c-0.019,0.019-0.227,0.016-0.229-0.003
	c-0.001-0.003-0.008-0.107-0.016-0.229l-0.014-0.223l0.11-0.07l0.11-0.071L14.049,9.771z M13.889,9.056
	c-0.004,0.011,0.012,0.072,0.034,0.137c0.024,0.067,0.029,0.12,0.013,0.122c-0.039,0.005-0.031,0.06,0.01,0.064
	c0.016,0.002,0.031,0.029,0.035,0.061c0.004,0.047-0.014,0.073-0.088,0.135c-0.051,0.042-0.1,0.073-0.107,0.069
	c-0.01-0.004-0.039-0.11-0.066-0.235L13.668,9.18l0.098-0.08C13.854,9.028,13.913,9.006,13.889,9.056 M13.739,8.69
	c0.021,0.009,0.023,0.026,0.006,0.043c-0.016,0.016-0.038,0.024-0.049,0.019c-0.012-0.005-0.014-0.025-0.006-0.043
	C13.698,8.69,13.721,8.681,13.739,8.69 M13.7,8.969c-0.07,0.026-0.094,0.024-0.116-0.01c-0.046-0.069-0.011-0.138,0.069-0.138
	C13.815,8.82,13.844,8.914,13.7,8.969 M13.592,8.594c-0.074,0.105-0.098,0.105-0.141,0.001c-0.038-0.089-0.303-0.571-0.361-0.655
	c-0.021-0.031-0.02-0.055,0.014-0.096c0.024-0.03,0.051-0.05,0.06-0.044c0.048,0.029,0.243,0.308,0.353,0.499
	C13.641,8.517,13.643,8.521,13.592,8.594"/>
<path fill="#808080" d="M19.431,11.327c-0.14-0.251-0.442-0.5-0.71-0.719c-0.104-0.085-0.203-0.167-0.285-0.241
	c-0.389-0.358-0.48-0.463-0.457-0.991c0.02-0.465-0.025-0.912-0.136-1.367c-0.162-0.662-0.153-0.67,0.283-1.101l0.104-0.104
	c0.418-0.418,0.479-0.645,0.318-1.217c-0.202-0.721-0.771-1.462-1.238-1.917c-0.339-0.33-0.593-0.352-1.013-0.388
	c-0.118-0.009-0.228-0.015-0.334-0.015c-0.142,0-0.276,0.009-0.413,0.027c-0.127,0.016-0.292,0.074-0.466,0.136
	c-0.216,0.075-0.437,0.154-0.587,0.154c-0.014,0-0.027-0.001-0.04-0.003c-0.179-0.023-0.412-0.229-0.636-0.428
	c-0.16-0.139-0.309-0.271-0.449-0.35c-0.301-0.17-0.617-0.323-0.941-0.456c-0.139-0.058-0.309-0.098-0.488-0.141
	c-0.238-0.057-0.482-0.115-0.638-0.211c-0.19-0.118-0.226-0.322-0.265-0.557c-0.023-0.131-0.045-0.266-0.096-0.401
	c-0.176-0.471-0.48-0.786-0.881-0.911C9.797,0.042,9.481,0,9.122,0C8.336,0,7.411,0.212,6.762,0.539
	c-0.52,0.262-0.635,0.882-0.736,1.429C6.002,2.098,5.979,2.225,5.95,2.344c-0.073,0.312-0.092,0.32-0.328,0.424L5.516,2.816
	c-0.211,0.097-0.421,0.23-0.623,0.358l-0.08,0.051C4.557,3.387,4.335,3.572,4.134,3.749C4.091,3.786,4.032,3.856,3.961,3.937
	C3.845,4.07,3.651,4.295,3.559,4.32H3.557c-0.166,0-0.607-0.171-0.932-0.296C2.294,3.896,2.118,3.829,2.042,3.829
	c-0.022,0-0.06,0.013-0.075,0.029C1.936,3.892,1.84,3.925,1.755,3.954c-0.132,0.044-0.28,0.095-0.376,0.191
	C1.22,4.303,1.106,4.485,1.016,4.642C0.801,5.013,0.632,5.419,0.469,5.811L0.442,5.879C0.415,5.942,0.376,6.021,0.334,6.108
	C0.175,6.437-0.023,6.845,0.053,7.093c0.096,0.316,0.467,0.481,0.825,0.64c0.26,0.115,0.528,0.234,0.632,0.395
	c0.122,0.189,0.072,0.556,0.027,0.88c-0.021,0.17-0.043,0.331-0.043,0.466c0.007,0.409,0.049,0.866,0.134,1.437
	c0.06,0.403-0.005,0.427-0.368,0.562c-0.068,0.026-0.146,0.054-0.232,0.09c-0.055,0.022-0.133,0.044-0.217,0.066
	c-0.178,0.05-0.361,0.101-0.457,0.189c-0.037,0.033-0.072,0.06-0.105,0.085c-0.188,0.147-0.291,0.254-0.232,0.74
	c0.026,0.208,0.096,0.419,0.165,0.623c0.031,0.095,0.063,0.189,0.089,0.28c0.141,0.494,0.432,0.998,0.817,1.42
	c0.021,0.022,0.062,0.07,0.112,0.132c0.289,0.343,0.461,0.538,0.547,0.579c0.049,0.023,0.095,0.035,0.14,0.035
	c0.067,0,0.123-0.025,0.181-0.051c0.043-0.019,0.088-0.04,0.146-0.054c0.068-0.016,0.156-0.042,0.255-0.073
	c0.209-0.064,0.47-0.144,0.638-0.144c0.021,0,0.041,0.002,0.059,0.005c0.141,0.024,0.465,0.282,0.703,0.471
	c0.16,0.129,0.3,0.239,0.396,0.296c0.479,0.283,0.49,0.449,0.517,0.85c0.008,0.117,0.018,0.25,0.039,0.408l0.008,0.057
	c0.104,0.768,0.186,1.375,0.957,1.78l0.181,0.096C6.472,19.626,7.168,20,7.751,20c0.231,0,0.427-0.06,0.582-0.179
	c0.183-0.139,0.317-0.326,0.448-0.506c0.115-0.16,0.225-0.311,0.359-0.423c0.129-0.106,0.258-0.152,0.432-0.152
	c0.082,0,0.17,0.01,0.264,0.02c0.109,0.012,0.223,0.025,0.35,0.025c0.021,0,0.041,0,0.063-0.001
	c0.248-0.009,0.521-0.035,0.787-0.078c0.082-0.013,0.191-0.051,0.309-0.09c0.166-0.057,0.354-0.121,0.479-0.121
	c0.021,0,0.039,0.002,0.055,0.006c0.107,0.029,0.234,0.173,0.355,0.312c0.119,0.135,0.23,0.263,0.352,0.324
	c0.146,0.075,0.259,0.093,0.402,0.115l0.049,0.008c0.104,0.017,0.209,0.026,0.314,0.026c0.854,0,1.579-0.571,2.221-1.074
	c0.494-0.389,0.787-0.619,0.649-1.273c-0.017-0.08-0.034-0.157-0.053-0.233c-0.103-0.434-0.19-0.809,0.075-1.146
	c0.307-0.389,0.66-0.648,0.967-0.71c0.068-0.014,0.139-0.021,0.222-0.021c0.069,0,0.138,0.005,0.203,0.009
	c0.067,0.004,0.134,0.009,0.196,0.009c0.119,0,0.273-0.012,0.434-0.108C19.137,14.215,19.93,12.225,19.431,11.327 M19.362,11.366
	c0.061,0.109,0.101,0.235,0.123,0.373C19.462,11.601,19.422,11.475,19.362,11.366c-0.094-0.167-0.266-0.336-0.451-0.496
	C19.096,11.03,19.268,11.199,19.362,11.366 M16.86,14.248c-0.008,0.015-0.029,0.029-0.049,0.031
	c-0.021,0.003-0.027-0.015-0.017-0.039c0.011-0.025,0.032-0.039,0.049-0.032C16.86,14.215,16.866,14.233,16.86,14.248
	 M16.584,13.995c-0.094,0.083-0.15,0.212-0.203,0.346C16.434,14.207,16.491,14.078,16.584,13.995
	c0.074-0.066,0.156-0.104,0.24-0.128C16.741,13.891,16.659,13.929,16.584,13.995 M16.487,14.871
	c0.025,0.012,0.023,0.039-0.008,0.083c-0.025,0.035-0.058,0.059-0.07,0.053c-0.014-0.006-0.012-0.043,0.006-0.083
	C16.434,14.883,16.463,14.86,16.487,14.871 M12.999,18.854c-0.051-0.023-0.051-0.027,0.013-0.051
	c0.042-0.015,0.084-0.008,0.11,0.018c0.035,0.036,0.035,0.044-0.012,0.051C13.081,18.876,13.03,18.868,12.999,18.854 M12.147,18.043
	c0.026-0.059,0.111-0.075,0.193-0.038c0.09,0.041,0.111,0.107,0.042,0.133C12.315,18.163,12.127,18.087,12.147,18.043 M3.544,14.96
	c-0.076,0.037-0.114,0.007-0.162-0.128c-0.058-0.162-0.015-0.17,0.11-0.019C3.577,14.912,3.585,14.94,3.544,14.96 M0.454,12.319
	c-0.026-0.08-0.022-0.103,0.037-0.161c0.086-0.085,0.096-0.028,0.031,0.181c-0.027,0.091-0.054,0.138-0.072,0.13
	c-0.018-0.007-0.016-0.024,0.002-0.036C0.47,12.421,0.471,12.37,0.454,12.319 M0.704,13.429c-0.032,0.07-0.059,0.024-0.115-0.2
	c-0.038-0.146-0.046-0.283-0.025-0.413c0.018-0.107,0.039-0.198,0.047-0.201c0.01-0.004,0.022,0.052,0.031,0.122
	c0.006,0.071,0.033,0.161,0.059,0.2C0.741,13.004,0.745,13.338,0.704,13.429 M0.526,6.722C0.497,6.719,0.507,6.669,0.565,6.537
	c0.045-0.1,0.09-0.216,0.102-0.258c0.061-0.213,0.357-0.885,0.473-1.074c0.072-0.118,0.17-0.278,0.217-0.356
	c0.049-0.078,0.1-0.137,0.114-0.129c0.015,0.007,0.009,0.03-0.013,0.052C1.415,4.814,1.376,4.897,0.883,6.014
	C0.641,6.564,0.559,6.726,0.526,6.722 M0.766,7.163C0.754,7.186,0.698,7.154,0.635,7.089C0.581,7.031,0.598,6.934,0.659,6.963
	C0.696,6.982,0.778,7.134,0.766,7.163 M1.528,4.591c0.021-0.047,0.035-0.06,0.029-0.029C1.552,4.593,1.534,4.631,1.518,4.648
	C1.5,4.663,1.504,4.638,1.528,4.591 M6.38,3.222c0.233-0.141,0.368-0.347,0.454-0.585C6.749,2.875,6.614,3.081,6.38,3.222
	c-0.495,0.299-1.069,0.49-1.513,0.873C5.311,3.712,5.885,3.521,6.38,3.222 M6.028,2.363c0.028-0.119,0.051-0.247,0.076-0.376
	C6.079,2.116,6.056,2.244,6.028,2.363 M6.508,1.893c0.027-0.011,0.07,0.135,0.055,0.186C6.554,2.107,6.544,2.142,6.54,2.16
	C6.538,2.177,6.522,2.218,6.504,2.251C6.487,2.283,6.427,2.317,6.372,2.325C6.317,2.333,6.284,2.334,6.298,2.328
	c0.015-0.007,0.039-0.08,0.054-0.163C6.374,2.032,6.44,1.919,6.508,1.893 M6.563,1.406C6.622,1.331,6.655,1.382,6.61,1.48
	C6.589,1.522,6.555,1.568,6.532,1.583C6.477,1.62,6.499,1.485,6.563,1.406 M6.384,2.733c0.058-0.029,0.083-0.031,0.069-0.004
	c-0.01,0.024-0.055,0.054-0.098,0.068C6.311,2.811,6.28,2.814,6.284,2.802C6.29,2.79,6.334,2.759,6.384,2.733 M6.635,0.969
	C6.657,0.92,6.684,0.902,6.713,0.915c0.029,0.014,0.031,0.04,0.008,0.078C6.667,1.079,6.595,1.058,6.635,0.969 M7.62,0.618
	c0-0.001,0.002-0.001,0.002-0.002C7.622,0.617,7.62,0.617,7.62,0.618C6.985,0.899,7.056,1.714,6.899,2.394
	C7.056,1.714,6.985,0.899,7.62,0.618 M7.247,0.421c0.046-0.016,0.092-0.031,0.14-0.047C7.339,0.39,7.292,0.405,7.247,0.421
	 M13.342,3.165c0.083,0.044,0.171,0.108,0.26,0.172C13.513,3.273,13.425,3.209,13.342,3.165c-0.255-0.134-0.52-0.263-0.788-0.379
	C12.823,2.902,13.087,3.031,13.342,3.165 M15.78,3.46c0.008-0.018,0.408-0.04,0.547-0.032c0.096,0.007-0.08,0.039-0.287,0.053
	C15.794,3.497,15.762,3.495,15.78,3.46 M18.88,13.271c-0.263,0.567-0.378,0.658-0.608,0.658c-0.111,0-0.256-0.024-0.441-0.055
	l-0.141-0.023c-0.058-0.01-0.117-0.022-0.177-0.034c-0.151-0.03-0.31-0.062-0.467-0.062c-0.21,0-0.379,0.059-0.515,0.18
	c-0.125,0.11-0.189,0.282-0.252,0.448c-0.041,0.109-0.078,0.212-0.131,0.29c-0.049,0.071-0.154,0.163-0.258,0.251
	c-0.177,0.152-0.359,0.309-0.388,0.463c-0.024,0.13,0.052,0.332,0.132,0.547c0.045,0.118,0.086,0.23,0.1,0.304l0.022,0.122
	c0.044,0.235,0.093,0.501,0.083,0.72c-0.014,0.311-0.018,0.315-0.279,0.528l-0.134,0.109c-0.286,0.236-0.582,0.479-0.892,0.655
	c-0.211,0.119-0.649,0.365-0.93,0.365c-0.029,0-0.056-0.002-0.078-0.007c-0.096-0.022-0.295-0.266-0.401-0.397
	c-0.054-0.066-0.101-0.123-0.134-0.156c-0.037-0.037-0.107-0.13-0.182-0.227c-0.217-0.281-0.367-0.468-0.468-0.506
	c-0.022-0.009-0.049-0.013-0.077-0.013c-0.127,0-0.314,0.076-0.515,0.158c-0.13,0.052-0.261,0.105-0.351,0.125
	c-0.086,0.019-0.172,0.04-0.256,0.06c-0.349,0.083-0.678,0.16-1.035,0.16l-0.067-0.001c-0.077-0.002-0.142-0.006-0.196-0.01
	c-0.057-0.003-0.104-0.005-0.145-0.005c-0.146,0-0.238,0.035-0.385,0.147c-0.193,0.147-0.35,0.402-0.516,0.673
	c-0.225,0.367-0.454,0.745-0.775,0.841c-0.014,0.004-0.029,0.006-0.049,0.006c-0.313,0-1.072-0.471-1.48-0.724
	c-0.09-0.056-0.166-0.103-0.219-0.134c-0.365-0.212-0.353-0.585-0.338-1.017c0.006-0.144,0.01-0.29,0.002-0.437
	c-0.006-0.097-0.006-0.184-0.006-0.265c0.002-0.249,0.004-0.465-0.199-0.71c-0.09-0.109-0.224-0.205-0.352-0.297
	c-0.08-0.057-0.154-0.112-0.217-0.166c-0.213-0.189-0.391-0.429-0.564-0.662C4.42,14.926,4.229,14.67,3.995,14.47
	c-0.118-0.103-0.262-0.153-0.434-0.153c-0.199,0-0.41,0.066-0.615,0.13c-0.115,0.036-0.233,0.074-0.346,0.098l-0.076,0.016
	c-0.113,0.024-0.189,0.04-0.234,0.04c-0.041,0-0.053-0.008-0.137-0.1c-0.029-0.033-0.063-0.071-0.107-0.116
	c-0.188-0.193-0.367-0.417-0.533-0.665c-0.304-0.454-0.734-1.293-0.602-1.612c0.107-0.254,0.656-0.422,1.097-0.556
	c0.261-0.08,0.509-0.155,0.657-0.243c0.015-0.008,0.025-0.021,0.033-0.035c0.008-0.02,0.015-0.025,0.022-0.025
	c0.118-0.016,0.123-0.115,0.117-0.215c-0.003-0.047-0.028-0.064-0.112-0.121c-0.037-0.026-0.113-0.077-0.123-0.09
	c-0.059-0.129-0.07-0.297-0.082-0.446l-0.004-0.053C2.472,9.73,2.518,9.086,2.573,8.48c0.012-0.117,0.025-0.224,0.039-0.321
	c0.063-0.453,0.108-0.78-0.44-1.006C2.09,7.12,1.979,7.087,1.85,7.05C1.593,6.977,1.241,6.876,1.141,6.747
	C1.028,6.6,1.063,6.492,1.163,6.242l0.021-0.056c0.064-0.165,0.152-0.334,0.237-0.497c0.054-0.106,0.108-0.21,0.157-0.314
	c0.025-0.054,0.055-0.136,0.09-0.228C1.751,4.92,1.891,4.542,2.03,4.463c0.058-0.032,0.133-0.049,0.224-0.049
	c0.327,0,0.772,0.21,1.067,0.349l0.1,0.046C3.481,4.837,3.53,4.863,3.573,4.886c0.106,0.056,0.184,0.096,0.293,0.096
	c0.065,0,0.139-0.015,0.236-0.049C4.329,4.85,4.499,4.64,4.665,4.438c0.088-0.108,0.171-0.21,0.255-0.282
	c0.274-0.237,0.61-0.403,0.935-0.565c0.189-0.093,0.385-0.19,0.568-0.3c0.494-0.299,0.572-0.858,0.648-1.398
	c0.074-0.518,0.143-1.008,0.582-1.202c0.41-0.182,1.056-0.305,1.607-0.305c0.213,0,0.398,0.018,0.555,0.054
	c0.385,0.086,0.668,0.441,0.866,1.085l0.021,0.062c0.027,0.083,0.072,0.221,0.078,0.281c-0.002,0.034-0.055,0.222-0.066,0.258
	c-0.01,0.023-0.008,0.048,0.004,0.069c0.107,0.193,0.445,0.252,0.744,0.304c0.1,0.018,0.195,0.034,0.252,0.052
	c0.494,0.159,1.029,0.389,1.591,0.685c0.181,0.096,0.384,0.261,0.581,0.422c0.24,0.197,0.469,0.383,0.665,0.45
	c0.065,0.023,0.142,0.035,0.228,0.035c0.252,0,0.56-0.099,0.83-0.186c0.16-0.052,0.313-0.1,0.428-0.12l0.074-0.014
	c0.131-0.024,0.242-0.044,0.342-0.044c0.132,0,0.238,0.035,0.354,0.117c0.214,0.148,0.431,0.469,0.603,0.726
	c0.043,0.065,0.086,0.127,0.125,0.182c0.355,0.507,0.742,1.191,0.66,1.45c-0.072,0.226-0.268,0.354-0.476,0.489
	c-0.272,0.178-0.556,0.362-0.517,0.776c0.019,0.188,0.088,0.375,0.158,0.555c0.055,0.147,0.112,0.299,0.137,0.444
	c0.063,0.356,0.058,0.727,0.045,1.043l-0.008,0.146c-0.021,0.408-0.012,0.517,0.367,0.846l0.127,0.109
	c0.265,0.229,0.516,0.445,0.748,0.695C19.235,11.848,19.268,12.438,18.88,13.271 M15.583,15.401
	c-0.01,0.056,0.008,0.139,0.035,0.229C15.59,15.54,15.573,15.457,15.583,15.401 M15.905,17.287c-0.025,0.16-0.088,0.215-0.293,0.383
	c-0.25,0.204-0.52,0.419-0.797,0.607c0.277-0.188,0.547-0.403,0.797-0.607C15.817,17.502,15.879,17.447,15.905,17.287
	 M14.362,18.558c-0.024,0.013-0.051,0.024-0.078,0.038C14.311,18.583,14.338,18.57,14.362,18.558 M14.094,18.686
	c-0.035,0.015-0.07,0.026-0.105,0.04C14.024,18.712,14.059,18.701,14.094,18.686 M13.815,18.783
	c-0.039,0.01-0.072,0.012-0.107,0.018C13.743,18.795,13.778,18.793,13.815,18.783 M2.954,14.985c0.008,0.113-0.055,0.11-0.145-0.005
	c-0.086-0.109-0.084-0.185,0.006-0.179C2.882,14.805,2.948,14.891,2.954,14.985 M2.63,14.619c0.067-0.014,0.138-0.034,0.207-0.054
	C2.768,14.585,2.698,14.605,2.63,14.619 M2.573,14.632c-0.045,0.01-0.088,0.018-0.121,0.026C2.485,14.65,2.526,14.642,2.573,14.632
	 M2.141,7.995C2.118,8.042,2.055,7.957,2.006,7.816C1.97,7.715,1.963,7.643,1.987,7.62C2.008,7.6,2.034,7.587,2.045,7.592
	C2.083,7.609,2.163,7.945,2.141,7.995 M1.897,8.751C1.881,8.675,1.889,8.468,1.909,8.428C1.915,8.419,1.926,8.496,1.938,8.6
	C1.956,8.793,1.928,8.899,1.897,8.751 M1.852,9.194c0.01-0.068,0.014-0.069,0.057-0.008C1.932,9.222,1.956,9.33,1.961,9.425
	c0.021,0.458,0.139,1.07,0.261,1.354l0.112,0.262L2.22,11.1c-0.173,0.091-0.179,0.083-0.269-0.388
	C1.897,10.414,1.827,9.362,1.852,9.194 M2.55,8.015C2.545,8.054,2.54,8.096,2.534,8.138C2.54,8.096,2.545,8.054,2.55,8.015
	 M2.485,8.596c-0.049,0.556-0.086,1.143-0.049,1.698C2.399,9.739,2.436,9.153,2.485,8.596 M2.528,10.856
	c0.019,0.041,0.176,0.135,0.215,0.168C2.704,10.991,2.546,10.897,2.528,10.856c-0.047-0.105-0.063-0.227-0.076-0.348
	C2.464,10.629,2.481,10.751,2.528,10.856 M0.995,6.503c0,0.007,0.002,0.013,0,0.019C0.997,6.516,0.995,6.51,0.995,6.503
	 M1.003,6.652c0-0.001-0.001-0.002-0.002-0.003C1.002,6.65,1.003,6.651,1.003,6.652 M1.03,6.375c0.004-0.011,0.004-0.02,0.008-0.032
	C1.034,6.355,1.034,6.364,1.03,6.375 M3.641,4.83c0.038,0.02,0.072,0.036,0.105,0.048C3.713,4.866,3.678,4.85,3.641,4.83
	 M3.768,4.887C3.803,4.898,3.839,4.901,3.88,4.899c-0.004,0-0.011,0.004-0.015,0.004C3.831,4.903,3.799,4.897,3.768,4.887
	 M4.071,4.858c0.002-0.001,0.002-0.001,0.004-0.001c0.162-0.058,0.297-0.195,0.424-0.345c-0.127,0.15-0.262,0.287-0.424,0.345
	C4.073,4.857,4.073,4.857,4.071,4.858 M17.622,9.564c0.015-0.352,0.016-0.712-0.045-1.06c-0.059-0.333-0.264-0.664-0.295-0.993
	c-0.006-0.075,0.002-0.141,0.017-0.201c-0.015,0.06-0.022,0.126-0.017,0.201c0.031,0.329,0.236,0.66,0.295,0.993
	C17.637,8.852,17.636,9.212,17.622,9.564c-0.01,0.254-0.029,0.398,0.006,0.522C17.592,9.962,17.612,9.818,17.622,9.564 M17.52,6.982
	c-0.078,0.064-0.135,0.139-0.179,0.225C17.385,7.121,17.442,7.046,17.52,6.982c0.254-0.213,0.637-0.349,0.75-0.703
	c0.014-0.045,0.018-0.097,0.012-0.156c0.006,0.059,0.002,0.111-0.012,0.156C18.157,6.633,17.774,6.769,17.52,6.982 M18.051,5.49
	c0.102,0.194,0.18,0.387,0.213,0.551C18.231,5.877,18.153,5.684,18.051,5.49 M17.763,5.003c0.029,0.045,0.058,0.091,0.089,0.141
	C17.821,5.094,17.792,5.048,17.763,5.003 M16.852,3.83c-0.07-0.049-0.135-0.081-0.199-0.101C16.717,3.749,16.782,3.781,16.852,3.83
	c0.034,0.023,0.066,0.06,0.1,0.089C16.918,3.889,16.886,3.853,16.852,3.83 M16.456,3.699c0.048,0.001,0.094,0.011,0.139,0.02
	C16.549,3.71,16.503,3.7,16.456,3.699 M16.421,3.445c-0.028-0.001-0.05-0.007-0.046-0.013c0.002-0.005,0.031-0.016,0.063-0.025
	c0.035-0.009,0.055-0.004,0.047,0.013C16.477,3.436,16.45,3.447,16.421,3.445 M16.022,3.757c0.063-0.01,0.116-0.02,0.17-0.029
	C16.138,3.737,16.083,3.747,16.022,3.757c-0.002,0.001-0.006,0.002-0.009,0.003C16.016,3.759,16.02,3.758,16.022,3.757 M16.331,3.71
	c-0.025,0.003-0.049,0.003-0.077,0.007C16.282,3.713,16.305,3.713,16.331,3.71 M15.386,3.941c0.106-0.032,0.211-0.065,0.31-0.096
	C15.596,3.877,15.493,3.909,15.386,3.941 M15,4.034c0.076-0.013,0.156-0.03,0.236-0.052C15.157,4.005,15.079,4.021,15,4.034
	 M14.778,4.063c-0.074,0-0.141-0.009-0.201-0.03c0.082,0.029,0.183,0.027,0.287,0.019C14.835,4.054,14.804,4.063,14.778,4.063
	 M13.919,3.584c0.046,0.037,0.09,0.069,0.135,0.106C14.009,3.653,13.965,3.621,13.919,3.584 M10.788,2.156L10.788,2.156
	c0.057,0.103,0.22,0.161,0.398,0.204C11.007,2.317,10.844,2.259,10.788,2.156 M10.854,1.896c0.002-0.01,0.006-0.025,0.006-0.03
	c-0.004-0.047-0.024-0.119-0.045-0.189c-0.022-0.07-0.045-0.138-0.058-0.175c-0.153-0.495-0.415-1.025-0.927-1.141
	C9.671,0.325,9.481,0.31,9.278,0.309C9.481,0.31,9.671,0.325,9.831,0.361c0.512,0.116,0.773,0.646,0.927,1.141
	c0.013,0.037,0.035,0.105,0.058,0.175c0.021,0.07,0.041,0.142,0.045,0.189C10.86,1.871,10.856,1.886,10.854,1.896 M9.481,0.102
	c0.051,0.004,0.103,0.006,0.15,0.013C9.583,0.108,9.532,0.106,9.481,0.102 M8.069,0.468c0.049-0.013,0.098-0.024,0.148-0.035
	C8.167,0.444,8.118,0.455,8.069,0.468 M8.614,0.359c0.049-0.006,0.096-0.015,0.146-0.02C8.71,0.344,8.663,0.353,8.614,0.359
	 M5.202,3.425C5.165,3.456,5.089,3.507,5.036,3.538C4.823,3.662,4.092,4.276,3.987,4.421C3.95,4.469,3.899,4.523,3.874,4.54
	C3.829,4.57,3.848,4.536,4.022,4.296c0.059-0.081,0.223-0.233,0.381-0.357C4.743,3.674,4.831,3.61,4.88,3.587
	c0.03-0.013,0.058-0.032,0.06-0.041c0.002-0.008,0.035-0.032,0.076-0.051c0.04-0.02,0.113-0.056,0.164-0.08L5.27,3.37L5.202,3.425z
	 M3.731,4.3C3.731,4.3,3.731,4.3,3.731,4.3S3.731,4.3,3.731,4.3 M3.581,4.397L3.581,4.397C3.608,4.39,3.643,4.359,3.677,4.335
	C3.643,4.359,3.608,4.39,3.581,4.397 M3.427,4.384C3.45,4.389,3.465,4.39,3.483,4.393C3.465,4.39,3.45,4.389,3.427,4.384
	 M3.278,4.654c0.041,0.019,0.076,0.035,0.11,0.052C3.354,4.69,3.317,4.672,3.278,4.654 M2.282,4.337
	C2.366,4.34,2.454,4.353,2.546,4.375C2.454,4.353,2.366,4.34,2.282,4.337 M2.608,4.393C2.69,4.416,2.774,4.442,2.856,4.474
	C2.774,4.442,2.69,4.416,2.608,4.393 M2.907,4.492C3,4.529,3.09,4.568,3.175,4.607C3.09,4.568,3,4.529,2.907,4.492 M2.282,3.979
	C2.337,4,2.399,4.023,2.466,4.048C2.399,4.023,2.337,4,2.282,3.979 M1.991,4.394c0.066-0.038,0.15-0.051,0.236-0.055
	C2.141,4.343,2.057,4.356,1.991,4.394 M1.911,4.462c-0.053,0.058-0.1,0.141-0.145,0.232c-0.037,0.074-0.068,0.153-0.1,0.231
	c0.031-0.078,0.063-0.157,0.1-0.231C1.811,4.603,1.858,4.52,1.911,4.462 M1.198,5.967C1.25,5.854,1.301,5.742,1.36,5.631
	C1.301,5.742,1.251,5.854,1.198,5.967 M0.96,7.119C0.969,7.116,1.04,7.132,1.118,7.154C1.25,7.191,1.262,7.203,1.327,7.353
	C1.366,7.441,1.389,7.53,1.378,7.551C1.358,7.598,1.342,7.59,1.132,7.429C1.016,7.338,0.969,7.28,0.958,7.215
	C0.952,7.166,0.952,7.122,0.96,7.119 M1.25,6.919c0.095,0.05,0.205,0.095,0.326,0.134C1.456,7.014,1.345,6.969,1.25,6.919
	 M1.583,7.347C1.638,7.361,1.696,7.385,1.713,7.4c0.029,0.028,0.113,0.375,0.098,0.409C1.807,7.818,1.782,7.815,1.755,7.8
	C1.622,7.729,1.567,7.654,1.528,7.495L1.485,7.321L1.583,7.347z M1.932,11.491c0.279-0.085,0.541-0.162,0.691-0.251
	c0.018-0.036,0.035-0.053,0.051-0.062c-0.016,0.009-0.033,0.026-0.051,0.062C2.473,11.329,2.211,11.406,1.932,11.491
	c-0.466,0.142-0.979,0.307-1.095,0.586c-0.042,0.102-0.038,0.24-0.005,0.394c0.078,0.354,0.307,0.789,0.477,1.075
	c-0.17-0.285-0.398-0.721-0.477-1.075c-0.033-0.155-0.038-0.292,0.005-0.394C0.954,11.798,1.466,11.633,1.932,11.491 M1.391,14.408
	c-0.018-0.007-0.035,0.021-0.043,0.067c-0.029,0.165-0.072,0.045-0.052-0.151c0.026-0.256,0.026-0.258,0.097-0.178
	c0.034,0.04,0.051,0.101,0.038,0.151c-0.01,0.047-0.006,0.084,0.011,0.082c0.017-0.002,0.024,0.029,0.019,0.069
	c-0.007,0.04-0.013,0.103-0.015,0.14c-0.002,0.037-0.004,0.109-0.006,0.16c-0.004,0.075-0.013,0.089-0.045,0.075
	c-0.078-0.036-0.09-0.147-0.031-0.275C1.395,14.479,1.407,14.416,1.391,14.408 M1.204,13.954c-0.006,0.04-0.01,0.134-0.012,0.21
	c0,0.075-0.01,0.183-0.021,0.238c-0.012,0.057-0.029,0.099-0.039,0.095s-0.012-0.019-0.005-0.033
	c0.007-0.014-0.019-0.057-0.054-0.095c-0.114-0.122-0.187-0.375-0.149-0.524c0.019-0.073,0.042-0.175,0.054-0.226
	c0.012-0.052,0.025-0.075,0.03-0.053c0.006,0.022,0.056,0.102,0.108,0.178C1.17,13.82,1.209,13.914,1.204,13.954 M1.631,15.017
	c0.01-0.021-0.005-0.045-0.033-0.055c-0.035-0.014-0.045-0.086-0.031-0.267c0.008-0.136,0.021-0.25,0.028-0.252
	s0.043,0.027,0.081,0.065c0.053,0.055,0.07,0.125,0.07,0.311c0.002,0.133-0.006,0.259-0.016,0.281
	c-0.01,0.021-0.027,0.033-0.037,0.027C1.641,15.097,1.616,15.05,1.631,15.017 M2.149,14.611c-0.016-0.015-0.033-0.033-0.051-0.053
	C2.118,14.579,2.133,14.596,2.149,14.611 M2.051,15.129c0.025-0.111,0.068-0.126,0.146-0.047c0.076,0.077,0.064,0.113-0.045,0.134
	C2.038,15.237,2.028,15.228,2.051,15.129 M2.17,14.632c0.014,0.012,0.025,0.02,0.039,0.028C2.196,14.652,2.184,14.644,2.17,14.632
	 M2.225,14.669c0.02,0.007,0.039,0.012,0.064,0.012C2.264,14.681,2.245,14.676,2.225,14.669 M2.401,14.667
	C2.36,14.675,2.325,14.68,2.296,14.68C2.325,14.68,2.36,14.675,2.401,14.667 M2.594,15.059c0.063,0.062,0.061,0.065-0.014,0.097
	c-0.041,0.018-0.084,0.029-0.092,0.024c-0.033-0.016-0.121-0.197-0.108-0.222C2.395,14.923,2.516,14.979,2.594,15.059 M2.754,15.371
	c-0.035,0.008-0.068,0.016-0.104,0.026C2.686,15.386,2.718,15.379,2.754,15.371 M3.012,15.321c-0.033,0.004-0.063,0.006-0.1,0.013
	C2.95,15.327,2.979,15.325,3.012,15.321 M3.036,14.997c0.004-0.071,0.025-0.079,0.074-0.028c0.022,0.022,0.029,0.052,0.017,0.066
	C3.085,15.079,3.032,15.056,3.036,14.997 M2.999,14.516c0.035-0.012,0.07-0.022,0.105-0.033C3.069,14.494,3.034,14.504,2.999,14.516
	 M3.352,14.421c-0.009,0.002-0.018,0.002-0.025,0.004C3.334,14.423,3.343,14.423,3.352,14.421 M3.53,14.401
	c0.01-0.001,0.021-0.003,0.031-0.003c0.01,0,0.02,0.004,0.029,0.004C3.571,14.401,3.55,14.4,3.53,14.401 M3.778,14.436
	c-0.02-0.006-0.037-0.01-0.057-0.015C3.741,14.426,3.758,14.43,3.778,14.436 M4.315,14.93c-0.022-0.028-0.043-0.057-0.066-0.084
	C4.272,14.873,4.292,14.902,4.315,14.93 M5.497,16.685c-0.039-0.018-0.067-0.043-0.063-0.056c0.016-0.031,0.127,0.015,0.133,0.055
	C5.569,16.703,5.538,16.704,5.497,16.685 M5.579,17.018l0.004,0.118l-0.096-0.044c-0.078-0.035-0.094-0.058-0.084-0.12
	c0.008-0.042,0.016-0.097,0.018-0.124c0.002-0.036,0.021-0.036,0.08,0.002C5.556,16.886,5.579,16.932,5.579,17.018 M5.511,17.275
	c0.089,0.042,0.108,0.067,0.117,0.162c0.006,0.061,0.005,0.113-0.001,0.115c-0.006,0.001-0.061-0.01-0.123-0.026
	c-0.104-0.026-0.111-0.035-0.113-0.147C5.388,17.22,5.389,17.22,5.511,17.275 M5.587,17.775c-0.08,0.018-0.134,0.003-0.149-0.04
	c-0.02-0.051,0.043-0.061,0.133-0.019C5.657,17.756,5.657,17.759,5.587,17.775 M5.522,18.483c-0.017-0.007-0.023-0.026-0.017-0.042
	c0.008-0.015,0.026-0.022,0.042-0.015c0.016,0.007,0.023,0.026,0.016,0.041C5.555,18.483,5.536,18.49,5.522,18.483 M5.547,18.299
	c-0.031-0.022-0.055-0.062-0.053-0.088c0.004-0.071,0.074-0.027,0.104,0.066c0.014,0.044,0.021,0.077,0.016,0.071
	C5.608,18.343,5.579,18.321,5.547,18.299 M5.528,17.958c-0.061-0.074-0.041-0.129,0.049-0.135c0.053-0.004,0.064,0.012,0.064,0.082
	c0,0.047-0.005,0.098-0.012,0.113C5.614,18.051,5.593,18.038,5.528,17.958 M5.481,16.181c0.071,0.054,0.145,0.109,0.194,0.169
	c0.048,0.057,0.075,0.112,0.101,0.168c-0.025-0.056-0.053-0.111-0.101-0.168C5.625,16.29,5.552,16.235,5.481,16.181 M6.237,18.796
	C6.311,18.839,6.429,18.913,6.569,19C6.43,18.914,6.311,18.839,6.237,18.796c-0.133-0.078-0.221-0.175-0.279-0.286
	C6.016,18.621,6.104,18.718,6.237,18.796 M6.497,19.164c-0.031-0.016-0.035-0.026-0.008-0.025c0.024,0.001,0.047,0.013,0.053,0.027
	C6.547,19.18,6.528,19.179,6.497,19.164 M6.272,19.425c-0.056-0.029-0.102-0.053-0.154-0.081C6.167,19.371,6.22,19.398,6.272,19.425
	 M7.051,19.384c-0.023-0.011-0.029-0.029-0.014-0.041c0.017-0.011,0.043-0.015,0.058-0.008c0.015,0.006,0.021,0.025,0.015,0.041
	C7.102,19.391,7.077,19.395,7.051,19.384 M6.751,19.657c-0.009-0.005-0.019-0.008-0.028-0.012
	C6.733,19.649,6.743,19.652,6.751,19.657 M6.581,19.007c0.037,0.022,0.078,0.048,0.119,0.072C6.659,19.054,6.618,19.03,6.581,19.007
	 M6.831,19.159c0.039,0.023,0.08,0.046,0.121,0.069C6.911,19.205,6.87,19.182,6.831,19.159 M7.097,19.312
	c0.041,0.023,0.082,0.045,0.123,0.066C7.179,19.356,7.138,19.335,7.097,19.312 M7.923,19.656c-0.026-0.004-0.056-0.007-0.086-0.015
	C7.868,19.649,7.897,19.652,7.923,19.656 M7.725,19.607c-0.035-0.012-0.07-0.023-0.109-0.039C7.655,19.583,7.69,19.595,7.725,19.607
	 M7.485,19.51c-0.041-0.018-0.08-0.036-0.121-0.057C7.405,19.474,7.444,19.492,7.485,19.51 M8.047,19.656
	c0.389-0.116,0.643-0.586,0.895-0.992C8.69,19.07,8.436,19.54,8.047,19.656L8.047,19.656L8.047,19.656z M9.53,18.03
	c0.016-0.006,0.033-0.009,0.049-0.013C9.563,18.021,9.546,18.023,9.53,18.03 M9.556,18.662c-0.073,0.002-0.146,0.009-0.216,0.031
	C9.411,18.671,9.483,18.664,9.556,18.662 M9.684,18c0.006,0,0.012-0.002,0.018-0.002c0.023,0,0.056,0.002,0.084,0.004
	C9.747,17.999,9.715,18,9.684,18 M9.739,18.354c-0.006,0.016-0.035,0.024-0.063,0.017c-0.033-0.007-0.041-0.024-0.021-0.044
	C9.69,18.289,9.756,18.311,9.739,18.354 M11.159,17.853c-0.047,0.011-0.096,0.022-0.143,0.033
	C11.063,17.875,11.112,17.864,11.159,17.853 M10.756,17.942c-0.036,0.007-0.072,0.012-0.109,0.019
	C10.684,17.954,10.72,17.949,10.756,17.942 M10.42,17.995C10.378,18,10.333,18,10.29,18.003C10.333,18,10.378,18,10.42,17.995
	 M11.061,18.247c0.09-0.033,0.164-0.075,0.161-0.094c-0.005-0.037,0.14-0.06,0.153-0.025c0.014,0.037-0.079,0.121-0.193,0.175
	c-0.117,0.056-0.322,0.077-0.301,0.031C10.888,18.318,10.969,18.279,11.061,18.247 M11.638,17.72c0.072-0.028,0.149-0.06,0.226-0.09
	C11.788,17.66,11.71,17.692,11.638,17.72 M11.745,18.426c-0.028,0.004-0.055,0.006-0.084,0.013
	C11.69,18.432,11.716,18.43,11.745,18.426 M11.511,18.478c-0.03,0.01-0.062,0.017-0.092,0.028
	C11.452,18.495,11.479,18.488,11.511,18.478 M12.391,18.373c0.157-0.043,0.293-0.027,0.368,0.044
	c0.103,0.097,0.106,0.125,0.019,0.13C12.5,18.566,12.194,18.427,12.391,18.373 M12.315,17.519c-0.029-0.011-0.08-0.001-0.131,0.008
	c0.027-0.004,0.061-0.016,0.082-0.016C12.284,17.511,12.301,17.514,12.315,17.519c0.033,0.012,0.082,0.056,0.137,0.116
	C12.397,17.575,12.348,17.531,12.315,17.519 M12.11,17.543c-0.051,0.015-0.104,0.033-0.16,0.055
	C12.006,17.576,12.059,17.558,12.11,17.543 M13.702,19.169c-0.065,0.013-0.133,0.019-0.199,0.024
	C13.569,19.188,13.636,19.182,13.702,19.169 M14.614,18.799c-0.057,0.034-0.113,0.067-0.17,0.097
	C14.5,18.866,14.557,18.833,14.614,18.799 M14.319,18.959c-0.057,0.028-0.115,0.053-0.174,0.077
	C14.204,19.012,14.262,18.987,14.319,18.959 M14.016,19.085c-0.061,0.021-0.121,0.038-0.184,0.053
	C13.895,19.123,13.956,19.106,14.016,19.085 M15.436,18.215c-0.052,0.041-0.105,0.082-0.158,0.123
	C15.331,18.297,15.384,18.256,15.436,18.215 M15.186,18.407c-0.058,0.044-0.117,0.088-0.177,0.132
	C15.069,18.495,15.128,18.451,15.186,18.407 M14.901,18.614c-0.057,0.039-0.113,0.077-0.17,0.114
	C14.788,18.691,14.844,18.653,14.901,18.614 M17.046,13.836c0.013,0,0.026,0.003,0.04,0.004c-0.059-0.002-0.115,0.006-0.172,0.015
	C16.958,13.848,17.001,13.836,17.046,13.836 M17.399,13.876c-0.031-0.006-0.063-0.007-0.095-0.012
	C17.335,13.869,17.366,13.87,17.399,13.876 M17.261,14.173c0.05-0.007,0.095-0.006,0.099,0.003c0.004,0.01-0.054,0.071-0.125,0.136
	c-0.119,0.106-0.133,0.11-0.141,0.048C17.081,14.267,17.149,14.191,17.261,14.173 M17.579,14.755
	c-0.039-0.002-0.076-0.004-0.116-0.005C17.501,14.751,17.54,14.753,17.579,14.755 M17.961,13.976
	c-0.066-0.011-0.143-0.023-0.225-0.036C17.819,13.953,17.893,13.965,17.961,13.976 M18.222,14.004
	c-0.052-0.002-0.108-0.007-0.172-0.016C18.114,13.998,18.169,14.002,18.222,14.004 M18.61,13.876
	c-0.045,0.045-0.092,0.081-0.144,0.101C18.518,13.957,18.565,13.921,18.61,13.876 M18.461,13.978
	c-0.051,0.02-0.109,0.026-0.174,0.028C18.352,14.004,18.411,13.998,18.461,13.978 M18.952,13.306
	c-0.057,0.122-0.105,0.219-0.153,0.305C18.846,13.525,18.895,13.428,18.952,13.306 M18.755,13.683
	c-0.035,0.056-0.069,0.105-0.103,0.145C18.686,13.788,18.72,13.74,18.755,13.683 M19.229,12.257
	c-0.002-0.336-0.115-0.657-0.394-0.955c-0.069-0.073-0.144-0.139-0.216-0.208c0.072,0.069,0.146,0.135,0.216,0.208
	C19.114,11.6,19.227,11.921,19.229,12.257 M19.225,12.295c-0.002,0.12-0.02,0.242-0.047,0.366
	C19.206,12.537,19.223,12.415,19.225,12.295 M18.382,10.425c0.052,0.048,0.114,0.1,0.177,0.152
	C18.497,10.525,18.434,10.473,18.382,10.425c-0.101-0.092-0.183-0.17-0.249-0.243C18.2,10.255,18.282,10.333,18.382,10.425
	 M17.766,8.028c0.055,0.225,0.092,0.445,0.114,0.668c0.022,0.223,0.028,0.446,0.019,0.677c-0.006,0.138-0.004,0.25,0.01,0.345
	c-0.014-0.095-0.016-0.207-0.01-0.345c0.01-0.23,0.004-0.454-0.019-0.677C17.858,8.473,17.821,8.253,17.766,8.028
	c-0.07-0.284-0.105-0.46-0.096-0.596C17.661,7.568,17.696,7.744,17.766,8.028 M18.472,5.608c0.038,0.137,0.063,0.251,0.073,0.354
	C18.536,5.859,18.51,5.745,18.472,5.608c-0.047-0.167-0.116-0.339-0.2-0.509C18.356,5.269,18.425,5.441,18.472,5.608 M17.255,3.727
	c0.06,0.058,0.118,0.129,0.179,0.193C17.374,3.856,17.315,3.785,17.255,3.727c-0.079-0.077-0.153-0.136-0.226-0.182
	C17.102,3.591,17.176,3.65,17.255,3.727 M16.292,3.362c0.08,0.007,0.15,0.015,0.22,0.022C16.442,3.377,16.372,3.369,16.292,3.362
	c-0.116-0.01-0.23-0.014-0.344-0.013c0.004,0,0.011-0.001,0.017-0.001C16.073,3.348,16.181,3.353,16.292,3.362 M15.561,3.373
	c0.012-0.001,0.02-0.001,0.031-0.002C15.581,3.372,15.573,3.372,15.561,3.373c-0.07,0.01-0.16,0.034-0.255,0.065
	C15.401,3.407,15.491,3.382,15.561,3.373 M15.114,3.505c-0.063,0.022-0.125,0.041-0.188,0.062
	C14.989,3.546,15.05,3.527,15.114,3.505 M14.626,3.643c0.034-0.006,0.065-0.007,0.104-0.016C14.692,3.636,14.661,3.637,14.626,3.643
	 M14.418,3.651c-0.119-0.024-0.248-0.104-0.383-0.209C14.17,3.547,14.299,3.627,14.418,3.651 M12.868,2.647
	c-0.155-0.076-0.307-0.161-0.465-0.226c-0.107-0.044-0.24-0.079-0.377-0.112c0.137,0.033,0.27,0.068,0.377,0.112
	C12.561,2.486,12.712,2.571,12.868,2.647 M10.87,1.066c0.107,0.285,0.088,0.587,0.211,0.807C10.958,1.653,10.977,1.351,10.87,1.066
	c-0.106-0.289-0.278-0.539-0.518-0.706C10.591,0.527,10.763,0.777,10.87,1.066 M9.182,0.083c-0.052,0-0.105,0.002-0.158,0.003
	C9.056,0.085,9.09,0.08,9.122,0.08C9.143,0.08,9.161,0.083,9.182,0.083 M7.801,0.254c0.038-0.01,0.075-0.021,0.113-0.03
	C7.876,0.233,7.839,0.244,7.801,0.254 M8.454,0.128c0.048-0.006,0.094-0.01,0.141-0.015C8.547,0.118,8.501,0.122,8.454,0.128
	 M6.798,0.61c0.001-0.001,0.003-0.001,0.004-0.002C6.801,0.609,6.799,0.609,6.798,0.61C6.497,0.762,6.341,1.046,6.243,1.369
	C6.341,1.046,6.497,0.762,6.798,0.61 M4.856,3.293C5.075,3.155,5.315,2.997,5.55,2.888c0.325-0.149,0.38-0.143,0.466-0.482
	C5.93,2.745,5.875,2.739,5.55,2.888C5.315,2.997,5.075,3.155,4.856,3.293C4.739,3.367,4.639,3.46,4.532,3.544
	C4.639,3.46,4.739,3.366,4.856,3.293 M2.688,4.133c-0.066-0.025-0.132-0.05-0.193-0.074C2.556,4.083,2.622,4.108,2.688,4.133
	 M3.297,4.349C3.276,4.343,3.256,4.338,3.233,4.331C3.256,4.338,3.276,4.343,3.297,4.349 M3.042,4.266
	C3.028,4.26,3.014,4.256,2.999,4.251C3.014,4.256,3.028,4.26,3.042,4.266 M2.026,3.913C2.03,3.91,2.034,3.909,2.042,3.909
	c0.008,0,0.028,0.006,0.041,0.009C2.057,3.912,2.032,3.907,2.026,3.913C2.002,3.939,1.962,3.961,1.915,3.981
	C1.962,3.961,2.002,3.939,2.026,3.913 M2.229,3.961C2.19,3.947,2.153,3.935,2.122,3.926C2.153,3.935,2.19,3.947,2.229,3.961
	 M1.436,4.201c0.076-0.076,0.199-0.122,0.316-0.162C1.635,4.079,1.512,4.126,1.436,4.201C1.382,4.255,1.337,4.314,1.292,4.373
	C1.337,4.314,1.382,4.255,1.436,4.201 M0.516,5.91c0.113-0.276,0.235-0.553,0.365-0.825C0.751,5.357,0.629,5.634,0.516,5.91
	c-0.074,0.175-0.23,0.469-0.322,0.737C0.286,6.379,0.442,6.085,0.516,5.91 M1.577,8.085C1.315,7.679,0.284,7.579,0.129,7.069
	C0.11,7.003,0.118,6.918,0.137,6.825C0.118,6.918,0.11,7.003,0.129,7.069C0.284,7.579,1.315,7.679,1.577,8.085
	c0.142,0.218,0.086,0.604,0.039,0.952C1.663,8.689,1.718,8.303,1.577,8.085 M1.577,9.473c-0.002-0.082,0.01-0.18,0.021-0.28
	C1.586,9.293,1.575,9.391,1.577,9.473c0.004,0.377,0.045,0.758,0.095,1.134C1.622,10.231,1.581,9.85,1.577,9.473 M0.096,12.633
	c-0.068-0.563,0.092-0.558,0.311-0.756c0.031-0.028,0.078-0.053,0.131-0.076c0.162-0.068,0.393-0.112,0.52-0.164
	c0.407-0.167,0.616-0.186,0.66-0.42c-0.044,0.234-0.253,0.254-0.66,0.42c-0.127,0.052-0.357,0.096-0.52,0.164
	c-0.053,0.023-0.1,0.048-0.131,0.076C0.188,12.075,0.028,12.07,0.096,12.633c0.025,0.209,0.098,0.422,0.167,0.631
	C0.194,13.055,0.122,12.841,0.096,12.633 M1.782,15.605c-0.014-0.007-0.033-0.021-0.057-0.042
	C1.749,15.584,1.768,15.598,1.782,15.605c0.041,0.02,0.074,0.027,0.106,0.027H1.886C1.856,15.632,1.821,15.624,1.782,15.605
	 M2.196,15.529c-0.074,0.017-0.129,0.044-0.178,0.065C2.067,15.572,2.12,15.547,2.196,15.529c0.063-0.015,0.149-0.041,0.242-0.069
	C2.345,15.488,2.259,15.514,2.196,15.529 M3.179,15.316L3.179,15.316c0.063,0.01,0.147,0.055,0.246,0.119
	C3.327,15.371,3.243,15.326,3.179,15.316 M4.304,16.093c-0.094-0.055-0.241-0.173-0.399-0.3C4.063,15.92,4.21,16.038,4.304,16.093
	c0.165,0.098,0.278,0.184,0.356,0.27C4.583,16.277,4.469,16.191,4.304,16.093 M4.78,16.549c0.026,0.064,0.045,0.131,0.056,0.205
	C4.825,16.68,4.806,16.613,4.78,16.549 M4.843,16.798C4.854,16.9,4.86,17.014,4.87,17.15C4.86,17.014,4.854,16.9,4.843,16.798
	 M4.938,17.701c0.027,0.187,0.057,0.36,0.102,0.52C4.995,18.061,4.965,17.888,4.938,17.701 M5.571,19.029
	c0.072,0.055,0.156,0.108,0.25,0.157c0.02,0.01,0.043,0.023,0.063,0.034c-0.019-0.01-0.045-0.024-0.063-0.034
	C5.727,19.137,5.643,19.084,5.571,19.029 M7.179,19.815c0.038,0.012,0.076,0.023,0.114,0.033
	C7.255,19.837,7.217,19.827,7.179,19.815 M7.739,19.918c0.066,0,0.129-0.012,0.191-0.022c-0.059,0.01-0.115,0.024-0.179,0.024
	C7.747,19.92,7.743,19.918,7.739,19.918 M9.09,18.83c-0.303,0.252-0.475,0.676-0.805,0.928c-0.078,0.059-0.164,0.099-0.256,0.125
	c0.092-0.026,0.178-0.066,0.256-0.125C8.616,19.506,8.788,19.082,9.09,18.83c0.076-0.063,0.15-0.101,0.225-0.127
	C9.241,18.729,9.167,18.767,9.09,18.83 M9.594,18.662c0.087,0.001,0.178,0.01,0.271,0.021C9.77,18.672,9.681,18.663,9.594,18.662
	 M11.024,18.627c-0.252,0.04-0.522,0.068-0.779,0.077c-0.02,0.001-0.039,0.001-0.059,0.001c-0.012,0-0.023-0.002-0.035-0.002
	c0.031,0,0.063,0.002,0.094,0.001C10.501,18.695,10.772,18.667,11.024,18.627c0.051-0.008,0.119-0.029,0.192-0.053
	C11.143,18.598,11.075,18.619,11.024,18.627 M12.282,18.746c0.113,0.13,0.228,0.263,0.338,0.32c0.105,0.053,0.197,0.074,0.297,0.091
	c-0.1-0.017-0.191-0.038-0.297-0.091C12.509,19.009,12.395,18.877,12.282,18.746 M13.059,19.182
	c0.108,0.017,0.215,0.023,0.318,0.021c-0.01,0-0.02,0.003-0.027,0.003C13.254,19.206,13.157,19.197,13.059,19.182 M16.141,16.955
	c0.006,0.02,0,0.032,0.004,0.052C16.141,16.987,16.147,16.975,16.141,16.955c-0.027-0.135-0.061-0.265-0.089-0.392
	C16.079,16.69,16.114,16.82,16.141,16.955 M16.179,15.51c-0.17,0.215-0.207,0.442-0.188,0.682
	C15.972,15.952,16.009,15.725,16.179,15.51c0.269-0.338,0.638-0.663,1.015-0.739c0.002-0.001,0.006,0,0.008-0.001
	c-0.002,0.001-0.006,0-0.008,0.001C16.817,14.847,16.446,15.172,16.179,15.51 M17.754,14.763c0.055,0.003,0.107-0.001,0.16-0.005
	c-0.027,0.003-0.055,0.009-0.084,0.009C17.806,14.767,17.78,14.764,17.754,14.763 M18.223,14.67
	c-0.074,0.045-0.15,0.067-0.227,0.081C18.073,14.737,18.149,14.715,18.223,14.67c0.602-0.361,1.215-1.548,1.278-2.487
	C19.438,13.122,18.825,14.309,18.223,14.67"/>
</svg>
