<?xml version="1.0" encoding="utf-8"?>
<!-- Generator: Adobe Illustrator 16.0.0, SVG Export Plug-In . SVG Version: 6.00 Build 0)  -->
<!DOCTYPE svg PUBLIC "-//W3C//DTD SVG 1.1//EN" "http://www.w3.org/Graphics/SVG/1.1/DTD/svg11.dtd">
<svg version="1.1" id="Layer_1" xmlns="http://www.w3.org/2000/svg" xmlns:xlink="http://www.w3.org/1999/xlink" x="0px" y="0px"
	 width="15.186px" height="15px" viewBox="0 0 15.186 15" enable-background="new 0 0 15.186 15" xml:space="preserve">
<path fill="#44bc96" d="M15.092,6.805c-1.41-2.086-4.236-6.878-7.135-6.804C7.734,0.006,7.559,0.138,7.459,0.312
	c-0.1-0.013-0.216,0.005-0.355,0.06C7.107,0.38,6.816,0.547,6.747,0.668C6.631,0.869,6.648,1.124,6.646,1.35
	C6.643,2.007,6.65,2.665,6.684,3.323c0.031,0.578,0.108,1.165,0.287,1.716c0.01,0.03,0.022,0.06,0.035,0.089
	c-4.621-1.891-8.24,5.856-6.607,9.545c0.222,0.503,0.9,0.364,1.158,0c0.75-1.062,1.539-2.076,2.435-3.017
	c0.837-0.88,1.747-1.215,2.717-1.719c-0.13,1.643-0.151,4.328,1.17,4.033c0.03-0.008,0.052-0.027,0.079-0.039
	c0.167,0.087,0.381,0.085,0.57-0.084c2.222-2.006,4.338-4.117,6.459-6.23C15.189,7.415,15.26,7.052,15.092,6.805 M12.016,8.702
	c0,0-0.42,0.433-0.606,0.625c-0.554,0.563-1.104,1.129-1.647,1.702c-0.213,0.224-0.763,0.819-0.763,0.819
	c-0.286,0.309-0.575,0.613-0.858,0.924c-0.004-0.02-0.006-0.038-0.01-0.056C8.066,12.31,8.032,11.9,8.004,11.488
	c-0.025-0.37-0.042-0.741-0.061-1.112c0,0,0.402-1.457-1.1-1.664c-0.215-0.028-0.42-0.073-0.632-0.063c0,0-0.735,0.157-0.862,0.191
	C5.225,8.873,5,8.987,4.83,9.091C4.719,9.158,4.169,9.536,4.169,9.536c-0.381,0.294-0.714,0.686-1.11,1.018
	c-0.213,0.179-0.553,0.618-0.553,0.618c-0.074,0.087-0.148,0.174-0.22,0.262l-0.483,0.607c-0.205,0.269-0.4,0.532-0.58,0.781
	c-0.082-0.575-0.049-1.159,0.067-1.731c0,0,0.151-0.702,0.333-1.085c0.094-0.195,0.18-0.395,0.281-0.587
	c0,0,0.232-0.369,0.492-0.791c0.207-0.337,0.488-0.621,0.768-0.896c0,0,0.146-0.167,0.42-0.381c0.168-0.131,0.333-0.261,0.508-0.381
	c0,0,0.971-0.546,1.223-0.642c0,0,0.427-0.173,0.793-0.232c0.293-0.06,0.592-0.092,0.89-0.085c0.306,0.006,0.444-0.015,0.444-0.015
	c0.125-0.041,0.695-0.463,0.537-0.682C7.971,5.3,7.965,5.296,7.957,5.286c0.012-0.04,0.023-0.08,0.029-0.123
	C8.02,4.928,7.962,4.68,7.95,4.442C7.915,3.809,7.912,3.171,7.922,2.536c0.004-0.239,0.07-0.787,0.04-1.281
	c1.849,1.03,3.169,2.539,4.496,4.201c0.431,0.539,0.833,1.102,1.229,1.665C13.645,7.062,12.366,8.349,12.016,8.702"/>
</svg>
