<?xml version="1.0" encoding="utf-8"?>
<!-- Generator: Adobe Illustrator 23.0.1, SVG Export Plug-In . SVG Version: 6.00 Build 0)  -->
<svg width="18" height="20"  version="1.1" id="Layer_1" xmlns="http://www.w3.org/2000/svg" xmlns:xlink="http://www.w3.org/1999/xlink" x="0px" y="0px"
	 viewBox="0 0 40 45.4" style="enable-background:new 0 0 40 45.4;" xml:space="preserve">
<path fill="#fff" d="M35.2,23.6c1-2.3,2.3-4.5,3.6-6.6c0.3-0.5,0.6-1,0.9-1.4c0.2-0.4,0.4-0.8,0.4-1.3c0.1-1.3,0-4.6-0.4-5
	c-0.1-0.1-0.1-0.1-0.1-0.1l0,0c-1.1,0.1-2.5,0.3-3.4,0.4c-0.5,0.1-1.1,0.2-1.6,0.3c-2.2,0.4-4.5,0.8-6.7,0.7c-0.4,0-1,0-1.4-0.4
	c-0.6-0.7-1.2-1.3-1.7-1.9c-1.1-1.2-2.1-2.3-3.3-3.4c-0.8-0.7-1.5-1.5-2.2-2.2c-0.6-0.7-1.3-1.3-2-2c-0.2-0.2-0.4-0.4-0.6-0.5
	L16.3,0c0,0-0.1,0-0.1,0c-0.6,0.4-0.7,1-0.8,1.5c0,0.1,0,0.2-0.1,0.3c-0.5,1.9-0.9,3.8-1.3,5.6c-0.4,1.8-0.8,3.7-1.3,5.7
	c-0.1,0.3-0.6,1-0.8,1.2c-1.7,1.2-3.8,2.1-6.2,3c-1.3,0.5-2.6,1-3.9,1.6c-0.3,0.1-0.6,0.2-0.9,0.4c-0.6,0.3-1,0.7-0.9,1.3
	c0.1,0.9,0.1,1.9,0.2,2.9c0,0.2,0.1,0.6,0.3,0.7c0.6,0.5,1.1,0.9,1.7,1.2c0.6,0.4,1.3,0.7,2,1.1c1,0.6,2,1.1,3,1.7
	c0.6,0.4,1.2,0.8,1.7,1.2c0.6,0.5,1.3,0.9,1.9,1.3c0.9,0.6,1.2,1.4,1.3,2.2c0,0.1,0,0.2,0,0.3l0,0.1c0.1,1.1,0.2,2.1,0.3,3.2
	c0.2,2.2,0.4,4.4,0.6,6.6c0,0.2,0,0.4,0.1,0.6c0.1,0.9,0.1,1.6,0.5,1.7c0,0,0.1,0,0.1,0c0.2,0,0.5-0.2,0.8-0.5
	c0.5-0.5,1.1-1.1,1.6-1.6c0.9-1,1.9-2,2.9-2.8c1-0.9,2.1-1.8,3.2-2.6c0.8-0.6,1.6-1.2,2.3-1.9c0.7-0.6,1.6-0.8,2.7-0.5l0.7,0.2
	c1.4,0.3,2.8,0.7,4.2,1c0.9,0.2,1.7,0.4,2.6,0.6c0.9,0.2,1.7,0.4,2.6,0.6c0.4,0.1,0.9,0.2,1.3,0.3c0.2,0.1,0.5,0.1,0.7,0.2
	c0,0,0.1,0,0.1,0c0,0,0,0,0-0.1l0-0.1c0.1-0.8,0.3-1.7-0.1-2.6c-0.5-1.3-1-2.6-1.6-3.9c-0.2-0.5-0.4-0.9-0.6-1.4
	c-0.1-0.2-0.2-0.4-0.3-0.6c-0.1-0.2-0.2-0.4-0.3-0.6c-0.2-0.5-0.4-0.9-0.6-1.4c-0.4-1-0.8-2-1.2-2.9c-0.2-0.4,0-0.6,0.1-0.9
	L35.2,23.6z M32.4,35.2c0,0.2,0,0.3-0.1,0.5c-0.2-0.3-0.2-0.7,0-1.5C32.5,34.5,32.5,34.9,32.4,35.2z M32.8,35.9l0.1-1.7
	c0.5,0.4,0.5,0.8,0.4,1.3c0,0.2,0,0.4,0,0.5C33.1,36,32.9,36,32.8,35.9z M36.4,36.7l-2.5-0.5v-1.7l2.3,0.7L36.4,36.7z M36.9,36.7
	c0,0-0.1,0-0.1,0l-0.1-1.3l0.1,0L36.9,36.7z M28.3,34.9c-0.3-0.4-0.3-0.7,0-1.5C28.4,33.7,28.5,34,28.3,34.9z M27.5,34.7v-1.5
	c0,0,0,0,0.1,0c0.1,0.3,0.1,0.5,0,0.8C27.6,34.2,27.6,34.5,27.5,34.7L27.5,34.7z M27,34.4c-0.3-0.4-0.3-0.7-0.1-1.4
	C27,33.4,27,33.7,27,34C27,34.1,27,34.3,27,34.4z M26.3,34.2c-0.1-0.4-0.3-0.8-0.1-1.3C26.4,33.4,26.4,33.8,26.3,34.2z M25.2,34.7
	l-0.1,0v-0.9C25.2,34.1,25.2,34.4,25.2,34.7z M15.9,42.1c-0.2-0.2-0.2-0.5-0.1-0.8l0,0L15.9,42.1z M15.2,43.1c-0.1-0.4-0.1-0.7,0-1
	C15.4,42.4,15.5,42.7,15.2,43.1z M37.5,35.6l0.3,1c0,0,0.1,0.1,0.1,0.1c0.1,0,0.1,0,0.1-0.1l0.2-1.2c0.3,0.4,0.3,0.7,0.3,1.1
	c0,0.2,0,0.3,0,0.5l-0.9-0.1V35.6z M24.4,35.3c-0.3-0.5-0.3-0.9,0-1.3C24.6,34.5,24.7,34.9,24.4,35.3z M18,40c0,0.1-0.1,0.2-0.2,0.4
	c0,0,0,0,0,0c-0.1-0.6-0.1-1,0.2-1.5c0,0,0,0.1,0,0.1C18,39.3,18,39.7,18,40z M17.3,39.7l0.3,0.9c-0.4,0.7-0.4,0.7-1,1.1
	C16.2,40.8,16.4,40.2,17.3,39.7z M18.7,39.6l-0.2,0.3c-0.1-0.4-0.2-0.8-0.3-1.2l0.3-0.1L18.7,39.6z M19.7,37.4
	c0.5,1,0.3,1.5-0.8,2.1c0-0.1,0-0.2,0-0.2C18.7,38.4,19,37.8,19.7,37.4z M13.3,38.1c0-0.1,0-0.2,0-0.3c-0.1-1.4-0.3-3-0.5-4.6
	c0-0.3-0.1-0.7-0.2-1c-0.1-0.8-0.3-1.6-0.2-2.4C12.9,32.3,13.4,35.3,13.3,38.1z M34.2,21.1c0,0.1,0.1,0.3,0.1,0.4
	c0,0.1,0.1,0.2,0.1,0.4l0.1,0.4c0,0,0.1,0.1,0.1,0.1c0,0,0.1-0.1,0.1-0.1c0-0.3-0.1-0.6-0.1-0.9c-0.1-0.7-0.2-1.3,0.3-1.9l0.3,1.7
	c0,0,0,0,0,0c0,0.6-0.3,1-0.6,1.4C34.1,22.2,33.9,21.7,34.2,21.1z M35.9,18c0,0.1,0,0.2,0.1,0.3c0.2,1.1,0.4,2.1-0.4,2.9l0-0.4
	c0-0.6,0-1.2,0-1.8C35.5,18.5,35.6,18.2,35.9,18z M20.7,36.5l0.4,1.2l-0.7,0.4C20.1,37.4,20.2,36.9,20.7,36.5z M21.9,35.6
	c0.2-0.1,0.3-0.2,0.6-0.4c0.2-0.1,0.3-0.2,0.5-0.3c0,0,0.1-0.1,0.1-0.1c0.3,1.2,0.3,1.2-0.7,1.9l0,0c-0.3,0.2-0.6,0.5-0.9,0.7
	c-0.1,0.1-0.2,0.1-0.2,0.2C21.1,36.2,21.1,36.1,21.9,35.6z M23.8,32.4c-0.3,0.3-0.6,0.6-0.9,0.9l-0.4,0.4c-2.6,2.2-5.3,4.4-7.7,6.9
	c-0.1,0.1-0.2,0.1-0.3,0.2c0,0-0.1,0-0.1,0c0-0.7-0.1-1.3-0.1-2c-0.1-1.7-0.2-3.3-0.3-4.9c-0.1-0.9-0.2-1.7-0.3-2.6
	c-0.1-0.4-0.1-0.9-0.2-1.3c-0.1-0.7-0.2-1.3-0.2-1.9c-0.1-1-0.3-1.2-1.2-1.5c-0.5-0.2-1-0.4-1.5-0.7c-2.2-1.3-4.4-2.7-6.5-4
	c-0.6-0.4-1.1-0.7-1.7-1.1c-0.3-0.2-0.6-0.4-0.9-0.6c0,0,0,0,0,0c0.1-0.2,1-0.7,1.8-1c4-1.3,6-2.3,8.7-3.7l0.2-0.1
	c0.1-0.1,0.3-0.1,0.4-0.2c0.1,0,0.2-0.1,0.3-0.1c0.1,0,0.2-0.1,0.2-0.1c0.5-0.2,0.5-0.3,0.8-1.2c0.2-1.4,0.6-2.9,0.7-3.2
	c0.3-1.4,0.4-2.4,0.5-3.2c0.2-1.4,0.3-2.4,0.9-4.3c0-0.1,0.1-0.3,0.1-0.5c0.1-0.4,0.1-0.9,0.4-0.9c0,0,0,0,0.1,0c0,0,0,0,0,0
	c0,0,0,0,0,0c0.2,0,0.6,0.4,0.7,0.6l0,0c0.5,0.5,1,1.1,1.6,1.7c0.8,0.9,1.7,1.8,2.3,2.5c0.5,0.6,1,1.1,1.5,1.6
	c0.5,0.6,1.1,1.2,1.7,1.8c0.5,0.5,1,1,1.4,1.5l0.4,0.4c0.3,0.4,0.6,0.3,1.2,0.2c0.2,0,0.3-0.1,0.6-0.1l0.4,0
	c0.6-0.1,1.3-0.2,1.8-0.2c1.2-0.1,2.1-0.3,3-0.4c0.4-0.1,0.9-0.1,1.4-0.2c0.5-0.1,1-0.2,1.5-0.2c0.9-0.2,1.7-0.3,2.5-0.3
	c-1.8,4-5.5,10.6-5.8,11.2c-0.3,0.4,0.6,2.4,2,5.2c0.5,0.9,0.8,1.7,1,2.2c0.4,0.9,0.8,1.7,1.1,2.6c0.2,0.4,0.4,0.9,0.6,1.3
	c0.1,0.3,0.2,0.5,0.3,0.8c0,0.1,0.1,0.2,0.1,0.3c-2.1-0.2-4.2-0.6-6.2-1c-2.5-0.5-4.9-0.9-7.2-1.1c0,0-0.1,0-0.1,0
	C24.1,32,23.9,32.2,23.8,32.4z M22.5,36.8L22.5,36.8L22.5,36.8L22.5,36.8z M39.2,11.7c0.2,0.9,0.2,2.4-0.1,3.3c0-0.3,0-0.7-0.1-1
	C39,13.2,38.9,12.5,39.2,11.7z M38.2,14.7c0-0.3,0-0.5,0-0.8c0-0.4,0-0.7,0.3-1c0,0.1,0,0.2,0,0.3c0.1,0.9,0.3,1.8,0,2.8
	c-0.1-0.3-0.2-0.6-0.3-0.8l0-0.1c0,0,0,0,0,0L38.2,14.7z M37,15.4l0.3,1.8c0,0,0,0,0,0.1c0.2,0.6-0.1,1-0.5,1.5c0-0.3,0-0.7-0.1-1
	C36.7,17,36.6,16.2,37,15.4z M37.8,14.2L38,15c0,0,0,0,0,0c0,0.2,0,0.3,0,0.5c0,0.4,0.1,0.7,0,1.1l0,0c0,0.2,0,0.4-0.2,0.5
	c-0.1,0-0.2,0-0.3,0c0-0.2,0-0.4,0-0.5c0-0.5,0-1-0.1-1.5C37.5,14.8,37.5,14.4,37.8,14.2z M1.4,23.5c-0.6-0.4-0.6-1.4-0.5-2.2
	c0.4,0.5,0.4,1.1,0.5,1.8C1.4,23.3,1.4,23.4,1.4,23.5z M3.3,24.8v-1.9c0.2,0.1,0.4,0.2,0.6,0.2v1.9c-0.1-0.2-0.1-0.5-0.2-0.7
	c0-0.2,0-0.5-0.2-0.7c0,0-0.1,0-0.1,0c0,0,0,0,0,0c0,0-0.1,0-0.1,0.1L3.3,24.8z M2.7,24.1c0,0.1,0,0.1,0,0.1l-0.1,0v-1.6
	C2.9,23.1,2.8,23.6,2.7,24.1z M2.2,24.1c-0.3-0.6-0.4-1.1-0.3-1.9c0.2,0.4,0.2,0.9,0.3,1.4C2.1,23.7,2.1,23.9,2.2,24.1z M9.2,28.2
	c0,0,0,0.1,0,0.1c-0.3-0.4-0.3-0.9-0.1-1.8C9.2,27.1,9.2,27.6,9.2,28.2z M7.9,26.8l-0.2,0.7c-0.2-0.1-0.5-0.3-0.7-0.4
	c-0.8-0.4-1.5-0.8-2.2-1.3c-0.2-0.1-0.4-0.4-0.4-0.7c-0.1-0.4,0-0.8,0-1.3c0-0.1,0-0.3,0-0.5c0.5,0.1,1,0.4,1.4,0.7
	c0.2,0.1,0.3,0.2,0.5,0.3c0.4,0.2,0.8,0.5,1.3,0.8c0.2,0.1,0.3,0.2,0.5,0.3L7.9,26.8C7.9,26.8,7.9,26.8,7.9,26.8z M8.1,26.7l0.3-1
	c0.2,0.5,0.2,1,0.2,1.5c0,0.3,0,0.6,0,0.8c-0.6-0.2-0.5-0.6-0.5-1C8.1,27,8.2,26.8,8.1,26.7C8.2,26.7,8.1,26.7,8.1,26.7z M10.3,29.3
	L10.1,27C10.5,27.3,10.6,27.9,10.3,29.3C10.4,29.3,10.4,29.3,10.3,29.3z M9.7,27.4l0.1,1.1C9.6,28.2,9.6,27.8,9.7,27.4z M11.1,30
	c-0.2-0.6-0.2-1.2-0.2-1.8c0-0.3,0-0.5,0-0.8c0.1,0,0.1,0.1,0.2,0.1c0.1,0.1,0.2,0.1,0.2,0.2C11.4,28.3,11.4,29.1,11.1,30z M12,28.4
	l-0.1,1.7C11.7,29.5,11.8,28.9,12,28.4z M31.8,34.2c0,0.4,0,0.7-0.1,1.1c0,0.1,0,0.3,0,0.4l-1.1-0.2l-0.1-1.8c0.6,0,0.6,0.1,0.8,1.4
	c0,0.1,0.1,0.1,0.1,0.1c0.1,0,0.1,0,0.1-0.1v-1.2c0.1,0,0.2,0,0.3,0C31.7,34,31.8,34.1,31.8,34.2z M29.6,33.5
	C29.6,33.5,29.6,33.5,29.6,33.5c0.1,0,0.2,0.1,0.3,0.1c0.1,0.5,0.1,1,0.1,1.5l0,0.3C29.4,35.1,29.3,34.8,29.6,33.5z"/>
</svg>
