<?xml version="1.0" encoding="utf-8"?>
<!-- Generator: Adobe Illustrator 16.0.0, SVG Export Plug-In . SVG Version: 6.00 Build 0)  -->
<!DOCTYPE svg PUBLIC "-//W3C//DTD SVG 1.1//EN" "http://www.w3.org/Graphics/SVG/1.1/DTD/svg11.dtd">
<svg version="1.1" id="Layer_1" xmlns="http://www.w3.org/2000/svg" xmlns:xlink="http://www.w3.org/1999/xlink" x="0px" y="0px"
	 width="500" height="100%" viewBox="0 0 43.952 36" enable-background="new 0 0 43.952 36" xml:space="preserve">
<rect y="-0.001" fill="#FAFAFA" width="43.95" height="36.001"/>
<g>
	<defs>
		<rect id="SVGID_1_" width="43.952" height="36"/>
	</defs>
	<clipPath id="SVGID_2_">
		<use xlink:href="#SVGID_1_"  overflow="visible"/>
	</clipPath>
	
		<rect x="-28.294" y="-18.31" clip-path="url(#SVGID_2_)" fill="none" stroke="#FF0000" stroke-width="5" stroke-miterlimit="10" width="932.938" height="75.959"/>
	<path clip-path="url(#SVGID_2_)" d="M2.934,19.143c0.995,0.985,1.034,1.03,1.961,0.236c1.073-0.919,2.055-1.942,3.103-2.891
		c0.748-0.676,1.537-1.306,2.314-1.949c1.089-0.902,2.188-1.792,3.273-2.698c0.517-0.432,1.054-0.851,1.502-1.347
		c0.328-0.363,2.276-1.789,2.858-2.457c0.482-0.552,1.099-0.999,1.704-1.426c0.564-0.398,0.671-0.891,0.498-1.497
		c-0.194-0.682-0.42-1.356-0.607-2.04c-0.235-0.866-0.111-1.141,0.702-1.524c0.855-0.402,1.717-0.791,2.589-1.156
		c0.868-0.365,1.369-0.147,1.823,0.699c0.4,0.747,0.644,1.531,0.854,2.357c0.382,1.5,0.93,2.959,1.414,4.433
		c0.805,2.439,1.642,4.867,2.411,7.316c0.618,1.967,1.205,3.946,1.719,5.943c0.388,1.502,0.635,3.04,0.948,4.561
		c0.04,0.195,0.091,0.391,0.158,0.578c0.267,0.74,0.178,0.963-0.521,1.229c-0.6,0.228-1.223,0.407-1.801,0.682
		c-1.058,0.501-2.062,0.275-3.005-0.224c-0.719-0.38-1.48-0.361-2.23-0.453c-0.597-0.073-1.207-0.017-1.811-0.053
		c-0.763-0.047-1.015,0.19-0.871,0.924c0.162,0.828,0.336,1.654,0.543,2.472c0.458,1.808-0.489,3.363-2.265,4.02
		c-1.58,0.584-3.203,0.708-4.842,0.842c-1.04,0.084-2.078,0.203-3.119,0.269c-1.07,0.068-1.273-0.15-1.807-1.102
		c-0.974-1.733-1.426-3.638-1.973-5.516c-0.141-0.482-0.31-0.964-0.523-1.418c-0.347-0.738-1.566-0.956-2.177-0.324
		c-0.873,0.901-1.994,0.779-3.027,0.745c-0.672-0.021-1.125-0.721-1.355-1.375c-0.222-0.631-0.338-1.299-0.5-1.95
		c-0.244-0.983-0.477-1.971-0.735-2.95c-0.293-1.113-0.171-1.422,0.83-1.944C1.622,19.814,2.277,19.48,2.934,19.143 M22.689,13.636
		c0.06-0.018,0.12-0.036,0.18-0.054c-0.474-1.581-0.941-3.165-1.428-4.743c-0.129-0.418-0.298-0.827-0.49-1.22
		c-0.343-0.702-0.971-0.748-1.514-0.151c-0.338,0.37-0.689,0.732-1.063,1.065c-0.478,0.425-3.16,2.677-3.238,2.743
		c-1.236,1.04-2.484,2.066-3.702,3.127c-0.659,0.572-1.241,1.232-1.904,1.798c-0.713,0.61-1.54,1.095-2.199,1.752
		c-0.393,0.391-0.9,0.554-1.273,0.898c-0.692,0.638-1.316,1.354-1.928,2.072c-0.149,0.174-0.235,0.506-0.185,0.729
		c0.269,1.22,0.56,2.438,0.906,3.637c0.186,0.644,0.587,1.137,1.353,1.175c0.671,0.032,1.341,0.131,2.011,0.126
		c1.18-0.008,2.361-0.123,3.54-0.102c2.157,0.04,4.314,0.135,6.469,0.234c0.754,0.035,5.696-0.048,7.019-0.003
		c0.878,0.03,1.007-0.271,0.797-1.191c-0.286-1.251-0.56-2.507-0.915-3.739C24.338,19.063,23.504,16.353,22.689,13.636
		 M17.966,27.734c0.109,1.049,0.205,1.912,0.288,2.777c0.098,1.021-0.036,1.194-1.054,1.487c-1.13,0.326-2.26,0.657-3.387,0.993
		c-0.925,0.276-1.468,0.04-1.858-0.87c-0.331-0.771-0.632-1.556-0.931-2.341c-0.228-0.596-0.425-1.205-0.652-1.802
		c-0.154-0.403-0.748-0.753-1.043-0.604c-0.376,0.19-0.335,0.533-0.264,0.884c0.14,0.692,0.217,1.402,0.41,2.08
		c0.368,1.296,0.806,2.568,1.524,3.727c0.423,0.681,0.957,1.112,1.82,1.006c0.431-0.052,0.871-0.053,1.306-0.042
		c2.122,0.05,4.145-0.445,6.148-1.073c0.538-0.169,0.851-0.533,0.96-1.07c0.059-0.295,0.126-0.61,0.087-0.902
		c-0.164-1.229-0.35-2.459-0.562-3.682c-0.088-0.5-0.493-0.748-0.962-0.744C19.203,27.563,18.611,27.668,17.966,27.734
		 M11.65,29.403c-0.026,0.013-0.052,0.027-0.079,0.041c0.331,0.657,0.623,1.337,1.001,1.965c0.486,0.81,0.761,0.926,1.663,0.682
		c0.876-0.237,1.728-0.561,2.59-0.847c0.396-0.132,0.704-0.443,0.633-0.817c-0.167-0.881-0.403-1.757-0.719-2.593
		c-0.073-0.195-0.574-0.297-0.886-0.319c-1.208-0.086-2.419-0.135-3.63-0.171c-0.604-0.02-0.874,0.273-0.814,0.874
		C11.45,28.616,11.567,29.009,11.65,29.403 M24.513,9.595c-0.354,0.468-0.51,0.837-0.063,1.218c0.164,0.14,0.288,0.502,0.226,0.7
		c-0.193,0.625-0.183,1.287-0.546,1.894c-0.518,0.871-0.157,2.151,0.718,2.828c0.23-0.546,0.572-1.014,0.545-1.692
		c-0.281,0.084-0.486,0.145-0.766,0.229c0.006-0.251-0.037-0.459,0.024-0.629c0.239-0.661,0.515-1.31,0.773-1.965
		c0.309-0.779,0.65-1.547,0.905-2.343c0.135-0.419,0.273-0.901-0.136-1.442c-0.216,0.228-0.424,0.385-0.546,0.592
		c-0.204,0.345-0.349,0.725-0.531,1.084c-0.038,0.074-0.135,0.117-0.208,0.176C24.768,10.011,24.64,9.803,24.513,9.595 M28.5,15.126
		c-0.101-0.038-0.201-0.075-0.302-0.112c-0.929,0.868-1.092,2.155-1.635,3.234c-0.169,0.337-0.154,0.683,0.094,1.221
		c0.245-0.471,0.479-0.767,0.558-1.099c0.225-0.964,0.555-1.863,1.178-2.65C28.503,15.582,28.468,15.328,28.5,15.126 M27.388,12.119
		c-0.65,0.202-0.654,0.626-0.771,0.996c-0.12,0.379-0.292,0.742-0.45,1.109c-0.157,0.367-0.265,0.728,0.049,1.21
		C26.689,14.329,27.311,13.407,27.388,12.119 M27.948,26.546c-0.353,0.485-0.575,0.862-0.125,1.236
		c0.261,0.216,1.238-0.082,1.421-0.42c0.056-0.103-0.036-0.286-0.072-0.501c-0.297,0.169-0.513,0.291-0.751,0.426
		C28.27,27.049,28.146,26.856,27.948,26.546 M25.324,6.105c-0.143,1.009-0.251,1.783-0.382,2.717
		C26.121,7.423,26.156,7.233,25.324,6.105 M28.317,20.394c0.66-0.309,0.821-0.777,0.539-1.565
		C28.336,19.249,28.283,19.793,28.317,20.394 M2.708,21.926l-0.207-0.048c-0.672,1.241-0.772,1.632-0.491,2.4
		C2.274,23.388,2.491,22.656,2.708,21.926 M28.843,16.73c-0.097-0.045-0.193-0.091-0.291-0.136
		c-0.392,0.537-0.511,1.178-0.638,1.816c0.065,0.026,0.13,0.052,0.196,0.078C28.354,17.902,28.598,17.316,28.843,16.73
		 M24.964,18.011c0.563-0.25,0.604-0.579,0.575-1.152c-0.319,0.183-0.614,0.254-0.696,0.427
		C24.764,17.452,24.906,17.722,24.964,18.011 M20.423,3.029c0.523-0.142,0.72-0.362,0.632-0.844
		C20.484,2.161,20.34,2.428,20.423,3.029 M21.461,3.252c-0.417,0.409-0.718,0.703-0.381,1.271
		C21.554,4.197,21.574,3.819,21.461,3.252 M4.172,25.944c-0.345,0.023-0.472,0.154-0.395,0.458c0.079,0.313,0.176,0.588,0.654,0.402
		C4.342,26.508,4.259,26.233,4.172,25.944 M27.845,19.438c-0.56,0.237-0.604,0.489-0.433,1.062
		C27.59,20.063,27.686,19.828,27.845,19.438 M26.036,20.841l0.234,0.008c-0.015-0.145-0.028-0.289-0.042-0.435
		c-0.053,0.002-0.104,0.004-0.155,0.006C26.062,20.56,26.048,20.699,26.036,20.841 M23.047,9.772
		c-0.165-0.052-0.295-0.126-0.328-0.096c-0.08,0.075-0.116,0.198-0.171,0.301c0.082,0.038,0.194,0.13,0.239,0.104
		C22.88,10.028,22.938,9.913,23.047,9.772 M27.731,22.196c0.204-0.127,0.302-0.16,0.303-0.194c0.001-0.095-0.039-0.189-0.063-0.284
		C27.914,21.832,27.856,21.947,27.731,22.196 M29.36,20.419c0.052,0.066,0.108,0.154,0.119,0.149
		c0.075-0.037,0.141-0.094,0.21-0.145l-0.144-0.179C29.483,20.304,29.421,20.361,29.36,20.419 M26.197,12.063
		c0.047,0.018,0.094,0.036,0.14,0.054c0.047-0.123,0.094-0.246,0.142-0.369c-0.044-0.017-0.089-0.034-0.133-0.051
		C26.296,11.818,26.247,11.94,26.197,12.063"/>
	<path clip-path="url(#SVGID_2_)" d="M23.053,23.947c-0.584-0.11-0.99-0.188-1.585-0.299c-0.272-0.659-0.592-1.436-0.935-2.268
		c1.599,0.018,1.711,0.089,2.151,1.347C22.813,23.101,22.913,23.484,23.053,23.947"/>
	<path clip-path="url(#SVGID_2_)" d="M15.398,23.364c-0.741-0.05-0.451-0.876-0.997-1.134c-0.37,0.678,0.28,1.338,0.021,2.105
		c-0.647-0.893-0.617-1.835-0.845-2.782c0.578-0.063,1.129-0.289,1.472,0.182C15.378,22.188,15.714,22.73,15.398,23.364"/>
	<path clip-path="url(#SVGID_2_)" d="M19.36,20.751c0.792,0.73,1.014,1.641,1.242,2.535c0.035,0.136-0.162,0.332-0.252,0.5
		c-0.183-0.106-0.466-0.169-0.532-0.325C19.468,22.635,19.135,21.792,19.36,20.751"/>
	<path clip-path="url(#SVGID_2_)" d="M11.617,22.313c0.56,0.088,0.918,0.144,1.295,0.204c0.327,0.413,0.321,0.846,0.074,1.305
		c-0.255,0.472-0.657,0.518-0.888,0.04C11.889,23.427,11.803,22.933,11.617,22.313"/>
	<path clip-path="url(#SVGID_2_)" d="M6.265,25.021c-0.156-0.521-0.312-1.039-0.502-1.674c0.456,0.002,0.867,0.003,1.31,0.005
		c0.126,0.418,0.243,0.81,0.41,1.368c-0.333-0.366-0.543-0.596-0.891-0.976c-0.065,0.546-0.107,0.902-0.149,1.258
		C6.383,25.008,6.324,25.015,6.265,25.021"/>
	<path clip-path="url(#SVGID_2_)" d="M15.924,21.582c0.519,0.992,1.02,1.726,1.216,2.681C16.41,24.041,15.781,22.705,15.924,21.582"
		/>
	<path clip-path="url(#SVGID_2_)" d="M17.043,21.447c0.663,0.382,0.914,1.114,0.676,1.972
		C17.225,22.986,16.988,22.295,17.043,21.447"/>
	<path clip-path="url(#SVGID_2_)" d="M18.462,21.524c0.334,0.626,0.848,1.177,0.78,1.992c-0.526-0.135-0.531-0.133-0.762-0.817
		c-0.12-0.358-0.219-0.724-0.328-1.086C18.255,21.583,18.359,21.555,18.462,21.524"/>
	<path clip-path="url(#SVGID_2_)" d="M24.081,23.613c-0.487-0.567-0.841-1.19-1.115-1.965
		C23.826,21.803,24.147,22.395,24.081,23.613"/>
	<path clip-path="url(#SVGID_2_)" d="M9.8,22.801c0.169,0.565,0.339,1.13,0.508,1.695C9.629,24.093,9.535,23.5,9.579,22.86
		C9.651,22.841,9.726,22.82,9.8,22.801"/>
	<path clip-path="url(#SVGID_2_)" d="M8.19,22.984c0.521,0.486,0.517,1.131,0.543,1.771C8.332,24.239,8.212,23.63,8.19,22.984"/>
	<path clip-path="url(#SVGID_2_)" d="M10.999,24.15l-0.417-1.393c0.56,0.315,0.609,0.817,0.68,1.312
		C11.173,24.097,11.086,24.123,10.999,24.15"/>
	<path clip-path="url(#SVGID_2_)" d="M29.828,9.376c1.131-1.403,6.313-9.813,6.744-9.358c-0.06,0.113-1.162,3.368-6.419,9.441
		C30.052,9.576,29.73,9.496,29.828,9.376"/>
	<path clip-path="url(#SVGID_2_)" d="M40.004,14.034c-1.293,0.133-8.187,2.089-8.193,1.466c0.087-0.033,2.271-1.448,8.06-1.759
		C39.982,13.735,40.115,14.023,40.004,14.034"/>
	<path clip-path="url(#SVGID_2_)" d="M30.787,12.613c1.174-0.557,7.02-4.702,7.234-4.118c-0.07,0.061-1.657,2.124-7.011,4.35
		C30.908,12.888,30.687,12.661,30.787,12.613"/>
	<path clip-path="url(#SVGID_2_)" d="M32.383,18.538c1.787,0.429,11.795,1.557,11.564,2.14c-0.129-0.006-3.604,0.377-11.497-1.81
		C32.298,18.826,32.23,18.501,32.383,18.538"/>
</g>
</svg>
