<?xml version="1.0" encoding="utf-8"?>
<!-- Generator: Adobe Illustrator 23.0.1, SVG Export Plug-In . SVG Version: 6.00 Build 0)  -->
<svg height="22" width="18"  version="1.1" id="Layer_1" xmlns="http://www.w3.org/2000/svg" xmlns:xlink="http://www.w3.org/1999/xlink" x="0px" y="0px"
	 viewBox="0 0 32.8 40" style="enable-background:new 0 0 32.8 40;" xml:space="preserve">
<g>
	<g>
		<path d="M31,17.4"/>
		<g>
			<polygon points="8,25.7 8,25.7 8,25.5 			"/>
			<path fill="#0071a5" d="M32.8,18.7c0-0.9-0.1-1.7-0.1-2.6c0-0.3,0-0.7-0.2-1c-0.4-0.6-1.5-1-1.5-1l-0.1-1.5c0,0,1.2-1.1,1.3-1.3
				c0.6-1.3,0.3-3.8-0.2-6.1c-0.1-0.4-0.2-0.9-0.5-1.2c0,0-0.1-0.1-0.1-0.1c-0.3-0.3-1.6-0.8-1.6-0.8s-0.1-2-0.9-2.8
				c-0.6-0.6-1.6-0.5-2.4-0.3c-4.3,0.8-14.6,2.1-16,2.4c-1.3,0.3-2.9,0.4-4.1,1c-2,1-3.5,2.7-4,4.9c0,0.2-0.1,0.3-0.1,0.5
				c-1.4,0.8-2.4,2-2.2,2.8c0.2,0.8,0.6,1,1.2,1.1c0.2,0.1,0.6,0.1,0.9,0c0,0.6,0.1,1.2,0.2,1.7c-1.1,0.8-1.8,1.7-1.7,2.4
				c0.2,0.8,0.6,1,1.2,1.1c0.2,0.1,0.6,0.1,0.9,0c0.1,0.7,0.1,1.4,0.2,2c-1,0.8-1.7,1.7-1.6,2.3c0.2,0.8,0.6,1,1.2,1.1
				c0.2,0.1,0.5,0.1,0.8,0c0.1,0.5,0.1,1,0.2,1.5c-1,0.8-1.7,1.7-1.5,2.3c0.2,0.8,0.6,1,1.2,1.1c0.2,0.1,0.6,0.1,0.8,0
				c0.1,0.9,0.3,1.9,0.4,2.8c-0.9,0.7-1.5,1.6-1.4,2.2c0.2,0.8,0.6,1,1.2,1.1c0.2,0.1,0.5,0.1,0.7,0c0.1,0.9,0.3,1.7,0.5,2.6
				C5.4,38,5.6,38.7,6,39.1C6.7,40,8,40,9.2,40c5.6-0.4,11.2-1.2,16.7-2.5c1.2-0.3,2.4-0.6,3.4-1.3c1.4-1,1.4-2.7,1.8-4.4
				c0.5-2.3,0.1-5.9,0-8.2c0-0.8-0.1-1,0.4-1.8c0.4-0.6,0.9-1,1.2-1.6C32.8,19.8,32.8,19.2,32.8,18.7z M2,11.9c-0.3,0-0.9,0-1-0.4
				c0-0.5,0.4-1.1,1-1.5C2,10.6,2,11.3,2,11.9z M31,11.6C31,11.6,31.1,11.5,31,11.6C31.1,11.5,31,11.6,31,11.6z M31.8,10.1
				C31.5,10,31.3,9.9,31,9.9c-0.1,0-0.4-0.1-0.6-0.1c0,0.1,0,0.1,0,0.2c0.3,0,0.7,0.1,1,0.2c0.1,0,0.2,0.1,0.4,0.1
				c0,0.1-0.1,0.2-0.1,0.3c-0.3-0.1-0.6-0.1-0.9-0.2c0,0-0.1,0-0.2,0c-0.1,0-0.1,0-0.2-0.1c0,0.1,0,0.1,0,0.2
				c0.4,0.1,0.8,0.2,1.2,0.2c0,0.1-0.1,0.2-0.1,0.3c-0.3-0.1-0.7-0.1-1-0.2c0,0.1,0,0.1,0,0.2c0.3,0.1,0.6,0.1,0.9,0.2
				c-0.1,0.1-0.2,0.2-0.2,0.3c-0.2,0-0.4-0.1-0.6-0.1c0,0,0,0.1,0,0.1c0.2,0,0.3,0.1,0.4,0.1c0,0,0,0,0.1,0
				c-0.1,0.1-0.3,0.2-0.4,0.3c-0.1-1.5-0.3-3.1-0.5-4.6c0,0.1,0,0.1,0,0.2c0.2,0,0.4,0,0.6,0.1c0.3,0,0.6,0.1,0.9,0.1c0,0,0,0,0,0
				c0,0.2,0,0.4,0.1,0.5c0-0.1,0-0.1,0-0.2C31.3,8,31,7.9,30.6,7.9c0,0,0,0-0.1,0c-0.1,0-0.2,0-0.4,0c0,0,0,0.1,0,0.1
				c0.5,0,1,0.2,1.5,0.3c0,0.1,0,0.2,0,0.3c-0.1,0-0.1-0.1-0.2-0.1c-0.3,0-0.6-0.1-0.9-0.1c-0.1,0-0.2,0-0.4-0.1c0,0.1,0,0.1,0,0.2
				c0.5,0.1,1,0.2,1.5,0.2c0,0.2,0,0.3,0.1,0.5c-0.3-0.1-0.7-0.2-1-0.2c-0.2,0-0.3-0.1-0.5-0.1c0,0.1,0,0.1,0,0.2
				c0.5,0.1,1,0.2,1.5,0.3c0,0,0.1,0,0.1,0c0,0.1,0,0.2,0,0.3c-0.4-0.1-1-0.3-1.5-0.3c0,0.1,0,0.1,0,0.2c0.5,0.1,1,0.1,1.5,0.3
				c0,0,0,0,0,0C31.8,9.9,31.8,10,31.8,10.1z M31.3,5C31.3,5,31.3,5,31.3,5C31.3,5,31.3,5,31.3,5C31.3,5,31.3,5,31.3,5
				C31.3,5,31.3,5,31.3,5z M30.8,4.5c-0.1,0-0.1,0-0.2-0.1c-0.1,0-0.1,0-0.2-0.1c0.1,0,0.1,0,0.2,0.1C30.7,4.4,30.7,4.5,30.8,4.5z
				 M30.1,4.2c-0.1,0-0.2-0.1-0.3,0C29.9,4.2,30,4.2,30.1,4.2z M30.4,4.3c0,0-0.1,0-0.1-0.1C30.3,4.3,30.4,4.3,30.4,4.3z M30.3,4.3
				c0,0-0.1,0-0.1,0C30.2,4.2,30.2,4.3,30.3,4.3z M29.8,4.2C29.8,4.2,29.8,4.2,29.8,4.2C29.8,4.2,29.8,4.2,29.8,4.2z M29.8,4.2
				C29.8,4.3,29.8,4.3,29.8,4.2c0.3,0.1,0.7,0.2,1,0.3c0.2,0.1,0.3,0.2,0.4,0.3c0,0,0.1,0.1,0.1,0.2c-0.3-0.1-0.6-0.1-0.9-0.2
				c-0.1,0-0.4-0.1-0.6-0.1c0,0,0,0.1,0,0.1c0.1,0,0.1,0,0.2,0c0.5,0,0.9,0.2,1.4,0.3c0,0.1,0,0.1,0,0.2c0.1,0.4,0.1,0.9,0.2,1.3
				c0,0,0,0,0-0.1c0,0-0.1,0-0.1,0c-0.4-0.1-0.8-0.1-1.2-0.2c0,0-0.1,0-0.2-0.1c0,0.1,0,0.1,0,0.2c0.5,0,1,0.1,1.4,0.2
				c0,0,0.1,0,0.1,0c0,0.1,0,0.2,0,0.3c0,0,0,0,0,0c-0.1,0-0.3,0-0.4-0.1c-0.2,0-0.4-0.1-0.6-0.1c-0.1,0-0.3-0.1-0.5-0.1
				c0,0.1,0,0.1,0,0.2c0.5,0.1,1,0.2,1.5,0.2c0,0,0,0,0,0c0,0.1,0,0.2,0,0.3c-0.3-0.1-1.1-0.3-1.5-0.3c0,0,0,0,0,0
				C30,6.5,29.9,5.8,29.8,5C29.7,4.6,29.7,4.3,29.8,4.2z M21.7,1.5c0.3,0,0.5-0.1,0.6-0.1c0,0,0,0,0,0c0.9-0.2,1.8-0.3,2.7-0.5
				c0,0.2,0.1,0.7,0.1,0.9c0.3,3.9,0.7,7.8,1,11.8c0,0,0,0,0,0c-0.6-0.8-1.3-1.5-1.9-2.3c0-0.1-0.1-0.1-0.2-0.2
				c-0.3-0.1-0.5,0.2-0.6,0.5c-0.3,1-0.9,2-1.6,2.8c-0.2-2.8-0.4-5.7-0.7-8.5c-0.1-0.7-0.2-1.5-0.2-2.2c0-0.3-0.1-1.9-0.1-2.1
				C21.1,1.6,21.4,1.5,21.7,1.5z M5.7,24.1c-0.1-1.4-0.2-2.7-0.3-4.1c0.3-0.1,0.7-0.1,1.1-0.2c0.1,1.4,0.3,2.7,0.4,4.1
				C6.5,23.9,6.1,24,5.7,24.1z M7,24.8c0.2,1.8,0.4,3.5,0.7,5.3c-0.5,0.1-0.9,0.2-1.3,0.3c-0.3-1.8-0.5-3.6-0.6-5.3
				C6.1,24.9,6.6,24.8,7,24.8z M5.3,19.1c-0.1-1.6-0.2-3.1-0.3-4.7c0.3-0.1,0.6-0.1,0.9-0.1c0.1,1.6,0.3,3.1,0.4,4.7
				C6,18.9,5.7,19,5.3,19.1z M5.6,10c0.1,1.1,0.2,2.2,0.3,3.3c-0.3,0-0.6,0.1-0.9,0.1C4.8,12,4.7,10.5,4.5,9.1C4.8,9,5.2,9,5.5,8.9
				C5.5,9.3,5.6,9.7,5.6,10z M4.3,6.3c0.1-0.6,0.5-1.3,1-1.5c0.2,0.7,0,1.7,0.1,2.4c0,0.2,0,0.5,0,0.7C5.1,8,4.7,8.1,4.4,8.2
				C4.3,7.6,4.2,6.9,4.3,6.3z M3.7,6.9c0.1,0.4,0.2,0.9,0.2,1.4c-0.2,0-0.4,0.1-0.5,0.2C3.2,8.5,3,8.6,2.7,8.7
				C3,7.4,3.7,6.9,3.7,6.9z M1.6,16.8c0-0.4,0.3-0.9,0.7-1.3c0.1,0.6,0.1,1.1,0.2,1.7C2.2,17.2,1.7,17.2,1.6,16.8z M2.8,14.2
				c-0.1-1.3-0.2-2.7-0.2-4c0-0.2,0-0.3,0-0.5c0.3-0.2,0.7-0.3,1-0.4c0.1,0,0.2-0.1,0.4-0.1c0.1,1.4,0.1,2.9,0.2,4.2
				c0,0.1,0,0.2,0,0.3c-0.1,0-0.2,0.1-0.3,0.1C3.6,13.8,3.2,14,2.8,14.2z M2.3,22.3c0-0.4,0.2-0.8,0.6-1.2c0.1,0.5,0.1,1.1,0.2,1.6
				C2.8,22.8,2.4,22.7,2.3,22.3z M2.9,15.2c0.4-0.2,0.9-0.5,1.3-0.6c0.1,0,0.1,0,0.2,0c0.1,1.6,0.3,3.1,0.5,4.7c0,0-0.1,0-0.1,0
				c-0.5,0.2-1,0.4-1.4,0.7C3.1,18.3,3,16.7,2.9,15.2z M2.9,27.3c0-0.4,0.2-0.8,0.6-1.2c0.1,0.5,0.1,1.1,0.2,1.6
				C3.4,27.7,3,27.6,2.9,27.3z M3.4,20.8c0.4-0.3,1-0.5,1.5-0.7c0.1,1.4,0.2,2.8,0.3,4.1c-0.4,0.2-0.9,0.4-1.3,0.6
				C3.7,23.5,3.5,22.2,3.4,20.8z M4,33.5c0-0.3,0.1-0.7,0.4-1c0.1,0.5,0.2,1,0.2,1.4C4.4,33.9,4,33.8,4,33.5z M4.8,31.1
				c-0.3-1.8-0.6-3.5-0.8-5.3c0.4-0.2,0.8-0.5,1.2-0.6c0.2,1.8,0.3,3.6,0.6,5.4C5.5,30.7,5.1,30.9,4.8,31.1z M28.8,35.8
				c-1.2,0.8-2.6,1.1-4,1.4c-5.1,1.1-10.3,1.7-15.4,2.2c-1,0.1-2.2,0.1-2.9-0.7c-0.3-0.4-0.4-0.9-0.5-1.4C5.6,35.5,5.3,33.7,5,32
				c0.3-0.2,0.6-0.4,1-0.5c0.1,0.5,0.1,0.9,0.2,1.4c0.2,0.9,0.3,1.8,0.5,2.7C6.9,36.4,7.2,37.4,8,38c0.7,0.5,1.7,0.6,2.7,0.5
				c6.2-0.2,12.4-1.6,18.5-3C29,35.6,28.9,35.7,28.8,35.8z M29.9,33.7c-0.1,0.4-0.4,0.7-0.8,0.9c-0.5,0.3-0.4,0.4-0.9,0.5
				c-5.8,1.3-11.6,2.6-17.5,2.9c-0.9,0-2,0-2.6-0.7c-0.3-0.4-0.5-0.9-0.6-1.3c-0.4-1.5-0.7-3.1-1-4.6c0,0,0,0,0,0
				C6.9,31.1,7.4,31,7.8,31c0.2,1.4,0.4,2.8,0.6,4.2c0.1,0.4,0.1,0.9,0.4,1.3c0.5,0.6,1.3,0.6,2,0.6c6.7-0.2,12.8-1.5,19.1-3.8
				C29.9,33.4,29.9,33.5,29.9,33.7z M30.5,31.3c-0.1,0.3-0.2,0.7-0.4,0.9c-0.2,0.2-0.5,0.3-0.8,0.4c-6.2,2.3-12.2,3.6-18.9,3.6
				c-0.4,0-0.9,0-1.1-0.3c-0.1-0.1-0.5-2.6-0.8-5.1c0.5,0,1-0.1,1.5-0.1c0.2,0.7,0.7,1.1,1.2,1c0.5-0.1,0.8-0.8,0.7-1.5
				c-0.1-0.7-0.7-1.2-1.2-1.1c-0.3,0.1-0.6,0.3-0.7,0.7c-0.5,0-1,0-1.6,0c-0.3-2.4-0.6-4.5-0.6-4.5s0-0.3-0.1-0.8
				c0.4,0,0.8-0.1,1.3-0.1c0.2,0.7,0.7,1.1,1.2,1c0.5-0.1,0.8-0.8,0.7-1.5c-0.1-0.7-0.7-1.2-1.2-1.1c-0.3,0.1-0.6,0.3-0.7,0.7
				c-0.4,0-0.9,0-1.4,0c-0.1-1-0.3-2.5-0.4-4.1c0.4,0,0.8,0,1.2,0c0.2,0.7,0.7,1.1,1.2,1c0.5-0.1,0.8-0.8,0.7-1.5
				C10,18.5,9.5,18,9,18.1c-0.3,0.1-0.6,0.3-0.7,0.7c-0.4,0-0.8,0-1.3,0c-0.1-1.5-0.3-3.1-0.4-4.7c0.3,0,0.7,0,1,0
				c0.2,0.7,0.7,1.1,1.2,1c0.5-0.1,0.8-0.8,0.7-1.5c-0.1-0.7-0.7-1.2-1.2-1.1c-0.3,0.1-0.6,0.3-0.7,0.7c-0.3,0-0.7,0-1.1,0
				c-0.1-1.6-0.3-3.1-0.4-4.4c0.3,0,0.6,0,0.9,0c0.2,0.7,0.7,1.1,1.2,1c0.5-0.1,0.8-0.8,0.7-1.5C8.8,7.7,8.3,7.2,7.7,7.3
				C7.4,7.4,7.2,7.6,7.1,8c-0.3,0-0.6,0-1,0C6,6.7,6,5.6,6,5c0-1.3,2.8-1.6,4.3-1.9c1.9-0.3,8.1-1,9.9-1.3c0,0.4,0.1,1.7,0.2,2.1
				c0.1,1.3,0.3,2.6,0.4,3.9c0.2,2.6,0.4,5.1,0.6,7.7c0,0.2,0,0.4,0.2,0.5c0.2,0.1,0.4-0.1,0.5-0.3c0.8-1.1,1.4-2.2,2-3.4
				c0.6,0.8,1.3,1.6,1.9,2.4c0.1,0.2,0.4,0.4,0.6,0.3c0.3-0.1,0.3-0.5,0.3-0.7c-0.4-4.3-0.8-9.1-1.2-13.4c0.2,0,0.4-0.1,0.6-0.1
				c0.6-0.1,1.4-0.2,1.9,0.3c0.3,0.3,0.5,0.7,0.5,1.2c1.1,7.1,1.4,11.2,1.5,19C30.3,23,30.9,29.5,30.5,31.3z M11.5,30.9
				c0,0.3-0.2,0.6-0.4,0.6c-0.3,0.1-0.6-0.2-0.7-0.7C10.8,30.8,11.1,30.8,11.5,30.9z M10.4,30c0.1-0.2,0.2-0.3,0.3-0.3
				c0.2,0,0.4,0.1,0.6,0.4C11.1,30,10.8,30,10.4,30z M10.4,24.7c0,0.3-0.2,0.6-0.4,0.6c-0.3,0.1-0.6-0.2-0.7-0.7
				C9.7,24.7,10.1,24.7,10.4,24.7z M9.3,23.8c0.1-0.2,0.2-0.3,0.3-0.3c0.2,0,0.4,0.1,0.6,0.4C10.1,23.8,9.7,23.8,9.3,23.8z
				 M9.8,19.8c0,0.3-0.2,0.6-0.4,0.6c-0.3,0.1-0.6-0.2-0.7-0.7C9.1,19.7,9.5,19.7,9.8,19.8z M8.7,18.8c0.1-0.2,0.2-0.3,0.3-0.3
				c0.2,0,0.4,0.1,0.6,0.4C9.5,18.9,9.1,18.9,8.7,18.8z M9.1,14.2c0,0.3-0.2,0.6-0.4,0.6c-0.3,0.1-0.6-0.2-0.7-0.7
				C8.4,14.2,8.8,14.2,9.1,14.2z M8,13.3C8.1,13.1,8.2,13,8.4,13c0.2,0,0.4,0.1,0.6,0.4C8.8,13.3,8.4,13.3,8,13.3z M8.6,8.9
				c0,0.3-0.2,0.6-0.4,0.6C7.9,9.6,7.6,9.3,7.5,8.8C7.9,8.9,8.2,8.9,8.6,8.9z M7.5,8c0.1-0.2,0.2-0.3,0.3-0.3c0.2,0,0.4,0.1,0.6,0.4
				C8.2,8,7.9,8,7.5,8z M32.2,19c-0.3-0.1-0.6-0.2-1-0.3c0,0,0,0-0.1,0c-0.1,0-0.1,0-0.2,0c0-0.1,0-0.2,0-0.3c0.1,0,0.3,0,0.4,0.1
				c0.3,0.1,0.6,0.1,0.8,0.2C32.1,18.8,32.1,18.9,32.2,19z M32.1,18.5c-0.3-0.1-0.8-0.3-1.2-0.4c0-0.1,0-0.2,0-0.2c0,0,0,0,0,0
				c0.4,0.1,0.8,0.2,1.2,0.3C32.1,18.3,32.1,18.4,32.1,18.5z M30.9,16.2c0.4,0.1,0.8,0.2,1.1,0.3c0,0,0,0,0,0.1c0,0.1,0,0.2,0,0.2
				c-0.4-0.1-0.8-0.2-1.1-0.3c0,0,0,0.1,0,0.1c0.2,0.1,0.3,0.1,0.4,0.1c0.2,0.1,0.5,0.1,0.7,0.2c0,0.3,0,0.6,0,1
				c-0.1,0-0.2-0.1-0.3-0.1c-0.2,0-0.4-0.1-0.6-0.1c-0.1,0-0.2-0.1-0.3-0.1c0,0.1,0,0.1,0,0.2c0-0.6,0-1.2,0-1.8c0-0.1,0-0.2,0-0.3
				c0.4,0.1,0.7,0.2,1.1,0.3c0,0,0,0,0,0c0,0.1,0,0.3,0,0.4c-0.2,0-0.5-0.1-0.7-0.2c-0.2,0-0.3-0.1-0.4-0.1
				C30.9,16.1,30.9,16.2,30.9,16.2z M31.1,15.2C31.1,15.2,31.1,15.2,31.1,15.2c0.2,0.1,0.4,0.1,0.6,0.1c0.1,0,0.2,0.1,0.2,0.1
				c0.1,0.1,0.1,0.1,0.1,0.2c0,0,0,0.1,0,0.1c-0.2-0.1-0.5-0.2-0.8-0.2c0,0-0.2,0-0.3-0.1C30.9,15.4,30.9,15.2,31.1,15.2z
				 M31.2,21.3C31.2,21.3,31.2,21.3,31.2,21.3c-0.1,0-0.1,0-0.2-0.1c0,0-0.1,0-0.1,0c0,0.1,0,0.1,0,0.2c0.1,0,0.1,0,0.2,0.1
				c-0.1,0.1-0.1,0.1-0.2,0.2c0-0.3,0-0.5,0-0.8c0.2,0,0.4,0.1,0.6,0.2C31.4,21.1,31.3,21.2,31.2,21.3z M31.6,20.8
				c-0.1,0-0.2-0.1-0.3-0.1c-0.1,0-0.3-0.1-0.4-0.1c0-0.1,0-0.2,0-0.3c0.3,0.1,0.6,0.1,0.9,0.2C31.7,20.7,31.7,20.8,31.6,20.8z
				 M31.9,20.4c-0.3-0.1-0.7-0.2-1-0.3c0-0.1,0-0.2,0-0.2c0.4,0.1,0.7,0.2,1.1,0.3C32,20.3,31.9,20.4,31.9,20.4z M32,19.4
				c-0.3-0.1-0.6-0.1-0.9-0.2c-0.1,0-0.1,0-0.2-0.1c0,0.1,0,0.1,0,0.2c0.4,0.1,0.8,0.2,1.2,0.3c0,0.1,0,0.1,0,0.2
				c0,0.1,0,0.1-0.1,0.2c-0.3-0.1-0.5-0.2-0.8-0.2c-0.1,0-0.2-0.1-0.3-0.1c0-0.3,0-0.6,0-0.9c0.4,0.1,0.8,0.3,1.2,0.4
				c0,0.1,0,0.2,0,0.3C32.1,19.5,32.1,19.4,32,19.4z"/>
			<path fill="#0071a5" d="M32.1,17.7c0-0.1,0-0.1,0-0.2c0,0,0,0,0,0c-0.4-0.1-0.8-0.2-1.2-0.3c0,0.1,0,0.1,0,0.2C31.3,17.4,31.7,17.5,32.1,17.7z"
				/>
			<path fill="#0071a5" d="M31.4,5.6c0-0.1,0-0.1,0-0.2c-0.3,0-0.5-0.1-0.8-0.1c-0.3-0.1-0.5-0.1-0.7-0.2c0,0.1,0,0.1,0,0.2
				C30.3,5.4,30.9,5.5,31.4,5.6z"/>
			<path fill="#0071a5" d="M29.9,5.8c0.2,0,0.6,0.1,0.7,0.1c0.3,0.1,0.6,0.1,0.8,0.2c0,0,0,0,0,0c0-0.1,0-0.1,0-0.2c-0.5-0.1-1-0.2-1.5-0.3
				C29.9,5.7,29.9,5.8,29.9,5.8z"/>
		</g>
	</g>
</g>
</svg>
