<?xml version="1.0" encoding="utf-8"?>
<!-- Generator: Adobe Illustrator 23.0.1, SVG Export Plug-In . SVG Version: 6.00 Build 0)  -->
<svg width="16" height="22"  version="1.1" id="Layer_1" xmlns="http://www.w3.org/2000/svg" xmlns:xlink="http://www.w3.org/1999/xlink" x="0px" y="0px"
	 viewBox="0 0 29.2 40" style="enable-background:new 0 0 29.2 40;" xml:space="preserve">
<g>
	<g>
		<g>
			<path fill="#0071a5" d="M0,32.4c0,0.8,1.1,2.3,2.1,3.2c1.2,1.2,3,1.5,4.6,1.8c5.1,0.9,10.1,1.7,15.2,2.6c0.9,0.2,1.9,0.3,2.7-0.2
				c0.8-0.5,1.1-1.6,1.3-2.6c1.8-8.7,1.4-17.6,3.1-26.3c0.1-0.7,0.3-1.4,0.2-2.1c-0.1-0.6-0.3-1.1-0.6-1.6c-0.4-0.8-0.7-1.8-1.2-2.5
				c-0.4-0.6-1.5-0.7-2.1-0.9c-1.8-0.6-3.6-1.1-5.4-1.5c-1.2-0.3-2.4-0.5-3.6-0.7c-2.5-0.4-5.1-0.8-7.6-1C7.5,0.3,6.3,0.2,5.2,0.1
				c-1-0.1-2.2-0.2-3,0.6C1.6,1.2,1.5,2.2,1.5,3C1.2,6.3,1,9.5,0.8,12.8C0.4,19.3,0,27.1,0,32.4z M27.8,6.7c0.2,0.4,0.4,0.8,0.6,1.2
				c-0.1,0-0.2,0-0.3,0.1c-0.2,0.1-0.4,0.1-0.6,0.2c0.1-0.5,0.1-1,0.2-1.4C27.7,6.7,27.8,6.7,27.8,6.7z M28.4,8.1
				C28.4,8,28.4,8,28.4,8.1C28.4,8,28.4,8,28.4,8.1z M28.5,8.4c0,0,0-0.1,0-0.1C28.5,8.3,28.5,8.3,28.5,8.4z M28.4,10.6
				c-1.1,5.7-1.3,11.5-1.9,17.2c-0.5,0.1-1,0.3-1.5,0.4c0-0.3,0.1-0.6,0.1-0.9c0.5-0.1,1-0.3,1.5-0.5c0-0.3,0.1-0.6,0.1-0.9
				c-0.4,0.1-0.9,0.2-1.3,0.4c-0.1,0-0.1,0-0.2,0c0-0.4,0.1-0.8,0.1-1.3c0.5-0.1,1-0.3,1.4-0.4c0-0.2,0-0.5,0.1-0.7
				c-0.5,0.2-0.9,0.4-1.4,0.5c0-0.4,0.1-0.9,0.2-1.3c0.5-0.1,0.9-0.2,1.4-0.4c0-0.2,0-0.5,0.1-0.7c-0.4,0.1-0.9,0.2-1.3,0.4
				c0.1-0.5,0.1-1.1,0.2-1.6c0.4-0.1,0.9-0.3,1.3-0.4c0-0.2,0-0.4,0.1-0.7c-0.4,0.1-0.8,0.3-1.3,0.4c0-0.3,0.1-0.7,0.1-1
				c0.4-0.2,0.8-0.3,1.2-0.5c0-0.3,0-0.5,0.1-0.8c-0.4,0.1-0.8,0.3-1.2,0.4c0-0.4,0.1-0.8,0.2-1.2c0.4-0.1,0.8-0.3,1.2-0.4
				c0-0.2,0.1-0.5,0.1-0.7c-0.1,0.1-0.3,0.1-0.4,0.2c-0.2,0.1-0.5,0.2-0.7,0.3c0.1-0.5,0.1-1,0.2-1.5c0.4-0.1,0.8-0.3,1.2-0.4
				c0-0.2,0.1-0.4,0.1-0.7c-0.4,0.1-0.8,0.2-1.2,0.4c0.1-0.4,0.1-0.8,0.2-1.3c0.4-0.1,0.9-0.3,1.2-0.4c0-0.2,0.1-0.5,0.1-0.7
				c-0.4,0.1-0.8,0.2-1.2,0.4c0.1-0.5,0.1-0.9,0.2-1.4c0.4-0.1,0.8-0.2,1.3-0.3C28.4,10.7,28.4,10.6,28.4,10.6
				c0-0.2,0.1-0.3,0.1-0.5c-0.1,0-0.1,0-0.2,0c-0.4,0.1-0.7,0.2-1.1,0.3c0.1-0.5,0.1-1,0.2-1.6c0.2-0.1,0.4-0.1,0.6-0.2
				c0.2-0.1,0.4-0.2,0.6-0.2c0,0,0,0,0,0.1C28.6,9.2,28.5,9.9,28.4,10.6z M24.7,31c0.5-0.1,1-0.3,1.5-0.4c0-0.1,0-0.2,0-0.3
				c-0.1,0.7-0.2,1.5-0.3,2.2c0,0,0,0,0,0c-0.1,0-0.2,0.1-0.3,0.1c-0.2,0.1-0.7,0.2-1.1,0.4C24.6,32.3,24.7,31.6,24.7,31z
				 M24.8,30.3c0-0.5,0.1-1,0.1-1.4c0.1,0,0.1,0,0.2-0.1c0.4-0.1,0.9-0.2,1.3-0.4c0,0.5-0.1,1-0.2,1.4
				C25.8,30.1,25.3,30.2,24.8,30.3z M25.7,34.3c-0.4,0.1-0.9,0.3-1.3,0.4c0,0,0,0,0,0c0-0.3,0.1-0.6,0.1-0.8c0-0.2,0-0.3,0-0.5
				c0.5-0.1,0.9-0.3,1.4-0.4C25.8,33.5,25.7,33.9,25.7,34.3z M23.2,37.2C23.2,37.2,23.2,37.2,23.2,37.2
				C23.2,37.2,23.2,37.2,23.2,37.2z M23.4,37c0.4-0.4,0.6-1,0.7-1.6c0.4-0.2,0.9-0.3,1.4-0.5c-0.1,0.5-0.2,1-0.3,1.5
				c-0.4,0.1-0.8,0.2-1.2,0.3c-0.1,0-0.2,0.1-0.4,0.1C23.6,36.9,23.6,36.9,23.4,37C23.5,37,23.5,37,23.4,37z M1.4,33.9
				c0.9,0.2,1.7,0.4,2.6,0.5c-0.6,0.2-1.2,0.4-1.7,0.6c0.2,0.2,0.3,0.3,0.5,0.4c0,0,0,0,0,0c0.8-0.2,1.6-0.5,2.4-0.8
				c0.8,0.2,1.7,0.3,2.5,0.5c-1.1,0.3-2.3,0.6-3.4,1c0.4,0.1,0.9,0.2,1.4,0.3c0.3-0.1,0.6-0.2,0.9-0.3c0.7-0.2,1.4-0.4,2.1-0.6
				c0.1,0,0.3-0.1,0.4-0.1c0.8,0.2,1.6,0.3,2.4,0.5c-1.2,0.4-2.4,0.7-3.6,0.9C8.4,36.9,9,37,9.5,37.1c1.1-0.3,2.2-0.6,3.2-0.9
				c0.7,0.1,1.3,0.3,2,0.4c0,0,0,0,0,0c-0.5,0.2-2.3,0.9-3,0.9c0.4,0.1,0.9,0.1,1.3,0.2c1-0.3,2-0.6,3-0.9c0.7,0.1,1.5,0.3,2.2,0.4
				c-1,0.3-1.9,0.6-2.9,0.9c0.4,0.1,0.9,0.2,1.3,0.2c0.7-0.2,1.4-0.5,2.1-0.7c0.2-0.1,0.3-0.1,0.5-0.2c0.3,0.1,0.7,0.1,1,0.2
				c0.3,0.1,0.6,0.1,0.9,0.1c-0.6,0.2-1.7,0.6-2.7,0.9c0.4,0.1,0.9,0.2,1.3,0.2c1.6-0.5,3.5-1.1,3.6-1.1c0.6-0.2,1.2-0.4,1.8-0.6
				c0,0,0,0,0,0c0,0,0,0,0,0c0-0.1,0-0.1,0.1-0.2c0,0.1,0,0.2,0,0.2c-0.2,0.8-0.4,1.6-1.1,2c-0.6,0.3-1.3,0.2-1.9,0.1
				c-5.4-0.9-10.9-1.9-16.3-2.8c-0.8-0.1-1.7-0.3-2.4-0.7C2.6,35.4,2.2,35,1.4,33.9z M0.6,31c0.3-9.5,0.8-19,1.6-28.5
				c0-0.3,0.1-0.7,0.2-1c0.1-0.1,0.1-0.2,0.2-0.3c0.4-0.5,1.2-0.5,1.9-0.5C8.3,0.8,12,1.2,15.8,1.9c1.9,0.3,3.7,0.8,5.6,1.2
				c0.9,0.2,1.8,0.5,2.8,0.7c0.7,0.2,1.8,0.3,2.3,0.8c0.7,0.6,0.5,1.9,0.4,2.7c-0.8,6.3-1.6,12.7-2.3,19c-0.3,2.8-0.7,5.6-1,8.5
				c-0.1,0.8-0.3,1.7-0.9,2.1c-0.5,0.3-1.2,0.2-1.9,0.1c-6.2-1.1-12.4-2.3-18.5-3.6c-0.4-0.1-0.8-0.2-1.1-0.4
				C0.6,32.5,0.6,31.7,0.6,31z"/>
			<path fill="#0071a5" d="M2.3,17.5c-0.3,3.1-0.5,6.2,0.2,9.2c0.1,0.6,0.3,1.3,0.7,1.8C3.9,29.3,5,29.5,6,29.6c2.8,0.4,5.6,1,8.3,1.7
				c2,0.5,3.9,1.1,5.9,1.2c0.6,0,1.3,0,1.6-0.5c0,0,0-0.1,0.1-0.1c0.2-0.3,0.2-0.6,0.2-0.9c0.8-6.9,1.7-13.7,2.5-20.6
				c0.1-0.8,0.2-1.7,0.1-2.5c-0.3-2.3-2.5-2.8-4.4-3.1c-3.1-0.5-6.3-1.1-9.4-1.6C9.3,3,7.6,2.7,5.9,2.6c-0.6,0-1.3,0-1.7,0.4
				C3.9,3.4,3.8,3.9,3.7,4.4C3.2,8.7,2.7,13.1,2.3,17.5z M3.4,13.3c0.3-3,0.7-5.9,1-8.9c0-0.3,0.1-0.6,0.3-0.8
				c0.2-0.3,0.6-0.3,1-0.3c0,0,0,0,0,0c1.5,0,2.9,0.2,4.4,0.4c3.6,0.6,7.1,1.2,10.7,1.8c1.5,0.3,3.1,0.7,3.4,2.5
				c0.1,0.7,0,1.4-0.1,2c-0.9,7-1.8,14-2.6,21c0,0.2-0.1,0.5-0.2,0.7c-0.2,0.2-0.5,0.2-0.8,0.2c-3-0.1-5.8-1.2-8.6-1.9
				c-2.2-0.5-4.6-0.7-6.8-1.3c-0.5-0.1-1.1-0.3-1.5-0.8c-0.3-0.3-0.3-0.8-0.4-1.2C2.4,22.3,2.9,17.8,3.4,13.3z"/>
			<path fill="#0071a5" d="M10.6,32.5c-0.1,0.4-0.1,0.8,0.1,1.2c0.3,0.5,0.9,0.9,1.5,0.7c0.4-0.1,0.8-0.5,0.9-0.9c0-0.1,0.1-0.3,0-0.5
				c-0.1-0.8-1-1.8-1.9-1.4C10.9,31.9,10.7,32.2,10.6,32.5z M11.2,33.2c0-0.2,0.1-0.5,0.3-0.7c0.1-0.1,0.2-0.1,0.4-0.1
				c0.4,0,0.6,0.6,0.6,0.9c0,0.1,0,0.1,0,0.2c0,0.1-0.1,0.2-0.2,0.3C11.8,33.9,11.2,33.6,11.2,33.2z"/>
			<path fill="#233a94" d="M24.4,38.8c-0.2,0.1-0.4,0.1-0.5,0.2c-0.4,0.1-0.8,0.2-1.1,0.4c-0.2,0-0.4-0.1-0.7-0.1c-0.2,0-0.5-0.1-0.7-0.1
				c1.2-0.4,2.3-0.7,3.5-1.1C24.7,38.3,24.6,38.6,24.4,38.8z"/>
			<g>
				<path fill="#0071a5" d="M6.9,7.7C7,7.7,7,7.7,7,7.7C7.5,7.5,8.9,8,9.4,8.1c0.8,0.2,1.6,0.3,2.4,0.5c3.1,0.6,6.2,1.2,9.4,1.8
					c0.1,0,0.2,0,0.2,0.1c0,0.1,0,0.2,0,0.2c-0.1,1.2-0.3,2.4-0.4,3.5c0,0.1,0,0.3-0.2,0.4c-0.1,0.1-0.3,0.1-0.4,0
					c-4.6-1-9.3-2-13.9-2.9c-0.1,0-0.1,0-0.2-0.1c-0.1-0.1-0.1-0.2-0.1-0.3C6.3,10.4,6.3,8.3,6.9,7.7z M7.2,8.5
					C7.1,9.3,7,10,6.9,10.8c0,0.1,0,0.2,0,0.3c0.1,0.1,0.1,0.1,0.2,0.1C11.6,12.1,16,13,20.4,14c0.1-0.9,0.3-1.9,0.4-2.8
					c0-0.1,0-0.2,0-0.3c-0.1-0.1-0.1-0.1-0.2-0.1c-2.3-0.4-4.5-0.8-6.8-1.3c-2.1-0.4-4.4-1.2-6.5-1.2C7.2,8.4,7.2,8.5,7.2,8.5z"/>
				<path fill="#0071a5" d="M13.6,20.6c0.2-0.1,0.4,0,0.9,0.1c1.8,0.4,3.6,0.8,5.4,1c0.1,0,0.2,0,0.3,0.1c0.2,0.1,0.2,0.4,0.1,0.7
					c-0.1,1-0.3,2.1-0.4,3.1c0,0.1,0,0.2-0.1,0.3C19.7,26,19.5,26,19.3,26c-2-0.4-4-0.8-6-1.2c-0.2,0-0.5-0.1-0.7-0.3
					c-0.2-0.2-0.1-0.5-0.1-0.8c0.1-0.8,0.2-1.7,0.6-2.4C13.3,20.8,13.4,20.6,13.6,20.6z M19.5,22.3C19.5,22.3,19.4,22.3,19.5,22.3
					c-1.8-0.3-3.6-0.6-5.4-0.9c-0.8-0.1-0.9,1.8-0.9,2.4c0,0.1,0,0.2,0,0.3c0.1,0.1,0.2,0.1,0.2,0.1c1.9,0.4,3.8,0.8,5.7,1.2
					c0,0,0.1,0,0.1,0c0,0,0-0.1,0-0.1c0.1-0.8,0.3-1.6,0.4-2.4c0-0.1,0-0.2,0-0.3C19.7,22.3,19.6,22.3,19.5,22.3z"/>
				<path fill="#0071a5" d="M11.5,20.2c0,0,0.1,0,0.1,0c0.1,0,0.3,0.1,0.3,0.2c0,0.1,0,0.1,0,0.2c-0.1,1-0.3,2.1-0.4,3.1c0,0.1,0,0.3-0.2,0.4
					c-0.1,0.1-0.3,0.1-0.5,0c-1.8-0.4-3.5-0.7-5.3-1.1c-0.1,0-0.2,0-0.3-0.1c-0.2-0.1-0.1-0.4-0.1-0.6c0.1-0.8,0.1-1.6,0.2-2.4
					c0.1-0.9,0-0.9,0.8-0.9C8,19.5,9.7,19.9,11.5,20.2z M10.6,20.7c-1.1-0.2-2.3-0.5-3.4-0.7c-0.7-0.2-0.9-0.4-1.2,0.2
					c-0.2,0.5-0.1,1.5-0.2,2c0,0.1,0,0.2,0,0.2c0,0,0.1,0,0.1,0.1c1.5,0.3,3,0.7,4.4,1c0.2,0,0.3,0.1,0.5,0c0.1-0.1,0.1-0.2,0.1-0.3
					c0.1-0.6,0.2-1.3,0.3-1.9c0-0.1,0-0.2,0-0.2c0-0.1-0.1-0.1-0.2-0.1C10.9,20.8,10.7,20.7,10.6,20.7z"/>
				<path fill="#0071a5" d="M7.9,6.1c0.1,0,0.1,0,0.2,0c4.3,0.8,8.5,1.5,12.8,2.3c0.3,0.1,0.8,0,0.8-0.3C21.5,8,21.2,7.9,21,7.9
					c-2.6-0.5-5.1-0.9-7.7-1.4C12,6.3,10.7,6.1,9.4,5.8C9.1,5.8,7.8,5.4,7.6,5.6C7.4,5.9,7.6,6.1,7.9,6.1z"/>
				<path fill="#0071a5" d="M5.8,26.5c0.1,0,0.1,0,0.2,0c4.3,0.8,8.5,1.5,12.8,2.3c0.3,0.1,0.8,0,0.8-0.3c-0.2-0.1-0.5-0.2-0.7-0.2
					c-2.6-0.5-5.1-0.9-7.7-1.4c-1.3-0.2-2.6-0.5-3.9-0.7c-0.3-0.1-1.5-0.5-1.7-0.2C5.2,26.3,5.5,26.4,5.8,26.5z"/>
				<path fill="#0071a5" d="M9.1,15.8c-0.1,0-0.2,0-0.3,0.1c0,0.4,0.4,0.5,0.7,0.6c2.3,0.4,4.6,0.7,6.8,1.1c0.2,0,0.5,0,0.6-0.2
					c0-0.2-0.2-0.3-0.5-0.4c-2.4-0.4-4.8-0.8-7.2-1.2C9.2,15.8,9.2,15.8,9.1,15.8z"/>
				<path fill="#0071a5" d="M9.7,17.6c0.1,0,0.1,0,0.2,0c1.9,0.3,3.8,0.7,5.7,1.3c0.2,0.1,0.5,0.2,0.7,0.1c0.2-0.1,0.3-0.4,0.2-0.6
					c-0.1-0.1-0.2-0.1-0.3-0.1c-1.6-0.3-3.2-0.9-4.9-1.2c-0.3-0.1-3.1-0.4-2,0.3C9.4,17.5,9.6,17.6,9.7,17.6z"/>
				<path fill="#0071a5" d="M9.7,15.2c0.1,0,0.3,0,0.4,0.1c2.2,0.3,4.4,0.7,6.5,1.2c0.1,0,0.2,0,0.2,0c0.1-0.1,0.1-0.2,0.1-0.4
					c-0.1-0.1-0.2-0.2-0.3-0.2c-0.6-0.2-1.2-0.3-1.9-0.5c-1.7-0.3-3.3-0.6-5-1c-0.5-0.1-0.8,0.3-0.3,0.6C9.5,15.2,9.6,15.2,9.7,15.2
					z"/>
			</g>
		</g>
	</g>
</g>
</svg>
