<?xml version="1.0" encoding="utf-8"?>
<!-- Generator: Adobe Illustrator 23.0.1, SVG Export Plug-In . SVG Version: 6.00 Build 0)  -->
<svg version="1.1" width="23" height="19" id="Layer_1" xmlns="http://www.w3.org/2000/svg" xmlns:xlink="http://www.w3.org/1999/xlink" x="0px" y="0px"
	 viewBox="0 0 44 36" style="enable-background:new 255 255 255 255;" xml:space="preserve">
<g>
	<g>
		<g>
			<path fill="#0071a5" d="M2.9,19.1c1,1,1,1,2,0.2C6,18.5,6.9,17.4,8,16.5c0.7-0.7,1.5-1.3,2.3-1.9c1.1-0.9,2.2-1.8,3.3-2.7
				c0.5-0.4,1.1-0.9,1.5-1.3c0.3-0.4,2.3-1.8,2.9-2.5c0.5-0.6,1.1-1,1.7-1.4c0.6-0.4,0.7-0.9,0.5-1.5c-0.2-0.7-0.4-1.4-0.6-2
				c-0.2-0.9-0.1-1.1,0.7-1.5c0.9-0.4,1.7-0.8,2.6-1.2c0.9-0.4,1.4-0.1,1.8,0.7c0.4,0.7,0.6,1.5,0.9,2.4c0.4,1.5,0.9,3,1.4,4.4
				c0.8,2.4,1.6,4.9,2.4,7.3c0.6,2,1.2,3.9,1.7,5.9c0.4,1.5,0.6,3,0.9,4.6c0,0.2,0.1,0.4,0.2,0.6c0.3,0.7,0.2,1-0.5,1.2
				c-0.6,0.2-1.2,0.4-1.8,0.7c-1.1,0.5-2.1,0.3-3-0.2c-0.7-0.4-1.5-0.4-2.2-0.5c-0.6-0.1-1.2,0-1.8-0.1c-0.8,0-1,0.2-0.9,0.9
				c0.2,0.8,0.3,1.7,0.5,2.5c0.5,1.8-0.5,3.4-2.3,4c-1.6,0.6-3.2,0.7-4.8,0.8c-1,0.1-2.1,0.2-3.1,0.3c-1.1,0.1-1.3-0.2-1.8-1.1
				c-1-1.7-1.4-3.6-2-5.5c-0.1-0.5-0.3-1-0.5-1.4c-0.3-0.7-1.6-1-2.2-0.3c-0.9,0.9-2,0.8-3,0.7c-0.7,0-1.1-0.7-1.4-1.4
				c-0.2-0.6-0.3-1.3-0.5-2c-0.2-1-0.5-2-0.7-2.9C-0.2,21,0,20.7,1,20.2C1.6,19.8,2.3,19.5,2.9,19.1z M22.7,13.6
				c0.1,0,0.1,0,0.2-0.1c-0.5-1.6-0.9-3.2-1.4-4.7C21.3,8.4,21.1,8,21,7.6c-0.3-0.7-1-0.7-1.5-0.2c-0.3,0.4-0.7,0.7-1.1,1.1
				c-0.5,0.4-3.2,2.7-3.2,2.7c-1.2,1-2.5,2.1-3.7,3.1c-0.7,0.6-1.2,1.2-1.9,1.8C8.8,16.8,8,17.3,7.3,18c-0.4,0.4-0.9,0.6-1.3,0.9
				c-0.7,0.6-1.3,1.4-1.9,2.1c-0.1,0.2-0.2,0.5-0.2,0.7c0.3,1.2,0.6,2.4,0.9,3.6c0.2,0.6,0.6,1.1,1.4,1.2c0.7,0,1.3,0.1,2,0.1
				c1.2,0,2.4-0.1,3.5-0.1c2.2,0,4.3,0.1,6.5,0.2c0.8,0,5.7,0,7,0c0.9,0,1-0.3,0.8-1.2c-0.3-1.3-0.6-2.5-0.9-3.7
				C24.3,19.1,23.5,16.4,22.7,13.6z M18,27.7c0.1,1,0.2,1.9,0.3,2.8c0.1,1,0,1.2-1.1,1.5c-1.1,0.3-2.3,0.7-3.4,1
				c-0.9,0.3-1.5,0-1.9-0.9c-0.3-0.8-0.6-1.6-0.9-2.3c-0.2-0.6-0.4-1.2-0.7-1.8c-0.2-0.4-0.7-0.8-1-0.6C9,27.6,9,27.9,9.1,28.3
				c0.1,0.7,0.2,1.4,0.4,2.1c0.4,1.3,0.8,2.6,1.5,3.7c0.4,0.7,1,1.1,1.8,1c0.4-0.1,0.9-0.1,1.3,0c2.1,0.1,4.1-0.4,6.1-1.1
				c0.5-0.2,0.9-0.5,1-1.1c0.1-0.3,0.1-0.6,0.1-0.9c-0.2-1.2-0.3-2.5-0.6-3.7c-0.1-0.5-0.5-0.7-1-0.7C19.2,27.6,18.6,27.7,18,27.7z
				 M11.7,29.4C11.6,29.4,11.6,29.4,11.7,29.4c0.3,0.7,0.5,1.4,0.9,2c0.5,0.8,0.8,0.9,1.7,0.7c0.9-0.2,1.7-0.6,2.6-0.8
				c0.4-0.1,0.7-0.4,0.6-0.8c-0.2-0.9-0.4-1.8-0.7-2.6c-0.1-0.2-0.6-0.3-0.9-0.3c-1.2-0.1-2.4-0.1-3.6-0.2c-0.6,0-0.9,0.3-0.8,0.9
				C11.4,28.6,11.6,29,11.7,29.4z M24.5,9.6c-0.4,0.5-0.5,0.8-0.1,1.2c0.2,0.1,0.3,0.5,0.2,0.7c-0.2,0.6-0.2,1.3-0.5,1.9
				c-0.5,0.9-0.2,2.2,0.7,2.8c0.2-0.5,0.6-1,0.5-1.7c-0.3,0.1-0.5,0.1-0.8,0.2c0-0.3,0-0.5,0-0.6c0.2-0.7,0.5-1.3,0.8-2
				c0.3-0.8,0.7-1.5,0.9-2.3c0.1-0.4,0.3-0.9-0.1-1.4C26,8.6,25.8,8.8,25.6,9c-0.2,0.3-0.3,0.7-0.5,1.1c0,0.1-0.1,0.1-0.2,0.2
				C24.8,10,24.6,9.8,24.5,9.6z M28.5,15.1c-0.1,0-0.2-0.1-0.3-0.1c-0.9,0.9-1.1,2.2-1.6,3.2c-0.2,0.3-0.2,0.7,0.1,1.2
				c0.2-0.5,0.5-0.8,0.6-1.1c0.2-1,0.6-1.9,1.2-2.6C28.5,15.6,28.5,15.3,28.5,15.1z M27.4,12.1c-0.7,0.2-0.7,0.6-0.8,1
				c-0.1,0.4-0.3,0.7-0.4,1.1c-0.2,0.4-0.3,0.7,0,1.2C26.7,14.3,27.3,13.4,27.4,12.1z M27.9,26.5c-0.4,0.5-0.6,0.9-0.1,1.2
				c0.3,0.2,1.2-0.1,1.4-0.4c0.1-0.1,0-0.3-0.1-0.5c-0.3,0.2-0.5,0.3-0.8,0.4C28.3,27,28.1,26.9,27.9,26.5z M25.3,6.1
				c-0.1,1-0.3,1.8-0.4,2.7C26.1,7.4,26.2,7.2,25.3,6.1z M28.3,20.4c0.7-0.3,0.8-0.8,0.5-1.6C28.3,19.2,28.3,19.8,28.3,20.4z
				 M2.7,21.9c-0.1,0-0.1,0-0.2,0c-0.7,1.2-0.8,1.6-0.5,2.4C2.3,23.4,2.5,22.7,2.7,21.9z M28.8,16.7c-0.1,0-0.2-0.1-0.3-0.1
				c-0.4,0.5-0.5,1.2-0.6,1.8c0.1,0,0.1,0.1,0.2,0.1C28.4,17.9,28.6,17.3,28.8,16.7z M25,18c0.6-0.3,0.6-0.6,0.6-1.2
				c-0.3,0.2-0.6,0.3-0.7,0.4C24.8,17.5,24.9,17.7,25,18z M20.4,3c0.5-0.1,0.7-0.4,0.6-0.8C20.5,2.2,20.3,2.4,20.4,3z M21.5,3.3
				C21,3.7,20.7,4,21.1,4.5C21.6,4.2,21.6,3.8,21.5,3.3z M4.2,25.9c-0.3,0-0.5,0.2-0.4,0.5C3.9,26.7,4,27,4.4,26.8
				C4.3,26.5,4.3,26.2,4.2,25.9z M27.8,19.4c-0.6,0.2-0.6,0.5-0.4,1.1C27.6,20.1,27.7,19.8,27.8,19.4z M26,20.8c0.1,0,0.2,0,0.2,0
				c0-0.1,0-0.3,0-0.4c-0.1,0-0.1,0-0.2,0C26.1,20.6,26,20.7,26,20.8z M23,9.8c-0.2-0.1-0.3-0.1-0.3-0.1c-0.1,0.1-0.1,0.2-0.2,0.3
				c0.1,0,0.2,0.1,0.2,0.1C22.9,10,22.9,9.9,23,9.8z M27.7,22.2C27.9,22.1,28,22,28,22c0-0.1,0-0.2-0.1-0.3
				C27.9,21.8,27.9,21.9,27.7,22.2z M29.4,20.4c0.1,0.1,0.1,0.2,0.1,0.2c0.1,0,0.1-0.1,0.2-0.1c0-0.1-0.1-0.1-0.1-0.2
				C29.5,20.3,29.4,20.4,29.4,20.4z M26.2,12.1c0,0,0.1,0,0.1,0.1c0-0.1,0.1-0.2,0.1-0.4c0,0-0.1,0-0.1-0.1
				C26.3,11.8,26.2,11.9,26.2,12.1z"/>
			<path fill="#0071a5"  d="M23.1,23.9c-0.6-0.1-1-0.2-1.6-0.3c-0.3-0.7-0.6-1.4-0.9-2.3c1.6,0,1.7,0.1,2.2,1.3C22.8,23.1,22.9,23.5,23.1,23.9z"/>
			<path fill="#0071a5"  d="M15.4,23.4c-0.7-0.1-0.5-0.9-1-1.1c-0.4,0.7,0.3,1.3,0,2.1c-0.6-0.9-0.6-1.8-0.8-2.8c0.6-0.1,1.1-0.3,1.5,0.2
				C15.4,22.2,15.7,22.7,15.4,23.4z"/>
			<path fill="#0071a5"  d="M19.4,20.8c0.8,0.7,1,1.6,1.2,2.5c0,0.1-0.2,0.3-0.3,0.5c-0.2-0.1-0.5-0.2-0.5-0.3C19.5,22.6,19.1,21.8,19.4,20.8z"/>
			<path fill="#0071a5"  d="M11.6,22.3c0.6,0.1,0.9,0.1,1.3,0.2c0.3,0.4,0.3,0.8,0.1,1.3c-0.3,0.5-0.7,0.5-0.9,0C11.9,23.4,11.8,22.9,11.6,22.3z"/>
			<path fill="#0071a5"  d="M6.3,25c-0.2-0.5-0.3-1-0.5-1.7c0.5,0,0.9,0,1.3,0c0.1,0.4,0.2,0.8,0.4,1.4c-0.3-0.4-0.5-0.6-0.9-1
				c-0.1,0.5-0.1,0.9-0.1,1.3C6.4,25,6.3,25,6.3,25z"/>
			<path fill="#0071a5"  d="M15.9,21.6c0.5,1,1,1.7,1.2,2.7C16.4,24,15.8,22.7,15.9,21.6z"/>
			<path fill="#0071a5"  d="M17,21.4c0.7,0.4,0.9,1.1,0.7,2C17.2,23,17,22.3,17,21.4z"/>
			<path fill="#0071a5"  d="M18.5,21.5c0.3,0.6,0.8,1.2,0.8,2c-0.5-0.1-0.5-0.1-0.8-0.8c-0.1-0.4-0.2-0.7-0.3-1.1C18.3,21.6,18.4,21.6,18.5,21.5z"/>
			<path fill="#0071a5"  d="M24.1,23.6c-0.5-0.6-0.8-1.2-1.1-2C23.8,21.8,24.1,22.4,24.1,23.6z"/>
			<path fill="#0071a5"  d="M9.8,22.8c0.2,0.6,0.3,1.1,0.5,1.7c-0.7-0.4-0.8-1-0.7-1.6C9.7,22.8,9.7,22.8,9.8,22.8z"/>
			<path fill="#0071a5"  d="M8.2,23c0.5,0.5,0.5,1.1,0.5,1.8C8.3,24.2,8.2,23.6,8.2,23z"/>
			<path fill="#0071a5"  d="M11,24.2c-0.1-0.5-0.3-0.9-0.4-1.4c0.6,0.3,0.6,0.8,0.7,1.3C11.2,24.1,11.1,24.1,11,24.2z"/>
		</g>
		<path fill="#0071a5"  d="M29.8,9.4C31,8,36.1-0.4,36.6,0c-0.1,0.1-1.2,3.4-6.4,9.4C30.1,9.6,29.7,9.5,29.8,9.4z"/>
		<path fill="#0071a5"  d="M40,14c-1.3,0.1-8.2,2.1-8.2,1.5c0.1,0,2.3-1.4,8.1-1.8C40,13.7,40.1,14,40,14z"/>
		<path fill="#0071a5"  d="M30.8,12.6c1.2-0.6,7-4.7,7.2-4.1c-0.1,0.1-1.7,2.1-7,4.3C30.9,12.9,30.7,12.7,30.8,12.6z"/>
		<path fill="#0071a5"  d="M32.4,18.5c1.8,0.4,11.8,1.6,11.6,2.1c-0.1,0-3.6,0.4-11.5-1.8C32.3,18.8,32.2,18.5,32.4,18.5z"/>
	</g>
</g>
</svg>
