<?xml version="1.0" encoding="UTF-8"?> <!-- Generator: Adobe Illustrator 23.0.1, SVG Export Plug-In . SVG Version: 6.00 Build 0) --> <svg xmlns="http://www.w3.org/2000/svg" xmlns:xlink="http://www.w3.org/1999/xlink" width="22" height="22" id="Layer_1" x="0px" y="0px" viewBox="0 0 40 38.5" style="enable-background:new 0 0 40 38.5;" xml:space="preserve"> <g> <g> <path fill="#0071a5" d="M0,14.4c0-0.8,0.2-3.1,0.2-3.3c-0.1-2.5,1.6-5,3.5-6.5c0.2-0.1,2.8-2.3,3.1-2.4c1-0.3,2-0.5,3-0.5c2.1,0,4.2,0.9,5.9,2.3 c1.7,1.4,2.8,3.1,4.2,4.8c0.6-1.6,1-3.1,2-4.5c1-1.3,2.2-2.4,3.6-3.1c2.9-1.5,6.8-1.5,9.7,0c1.1,0.6,3.5,3.5,4.3,6.9 c0.8,3.4,0.5,6.8-0.7,10.1c-0.5,1.5-1.2,2.9-2,4.3c-0.7,1.2-3.9,4.4-4.8,5.2c-1.8,1.6-7.3,5.4-7.7,5.8c-0.9,1.2-7.7,5.1-7.8,5.1 c-0.3,0-0.5-0.2-0.6-0.5c-0.9-2.1,0.8-4.4,0.4-6.5c0-0.1-0.1-0.3-0.1-0.4c-0.1-0.1-3.4-1.7-3.8-1.8c-0.4-0.1-2.5-1.1-2.6-1.3 c-0.3,0-3.3-2.1-3.6-2.3c-2.7-2.2-4.7-5.1-5.9-8.3c0-0.1-0.1-0.2-0.1-0.3C0.1,16.2,0,15.3,0,14.4z M4.4,18C4.4,18,4.4,18,4.4,18 c-0.2-0.2-0.5-1.2-0.8-1.1c-0.1,0-0.2,0.2-0.2,0.3c-0.2,0.7-0.8,1.4-0.6,2.2c0,0.2,0.2,0.4,0.4,0.5c-0.1,0.1,0.1,0.3,0.2,0.3 c0.1,0,0.3,0,0.4-0.1C4.3,19.5,4.1,18.7,4.4,18z M31.2,0.9C29.7,0.7,28,1,26.6,1.6C25.8,2,23.1,4,22.5,5.1 c-0.1,0.2-1.7,2.9-1.9,4.2c-0.1,0.5-0.2,1-0.7,1.1c-1.3-2.4-3-4.7-5.3-6.2S9.2,2.3,6.8,3.6C6.6,3.7,5.4,4.7,5,5 C4.9,5.1,3.1,7.3,2.8,8.2C2.5,9.1,2.5,10.1,2.6,11c0.4,3.2,2.1,6.2,4.2,8.5s4.9,4.2,7.6,6c1,0.6,2,1.2,3,1.8 c0.5,0.3,1,0.7,1.5,0.9c0.2,0.1,1,0.4,1.1,0.5c0.7,0.9,0.8,1.7,0.8,2.8c0,1-0.3,2-0.6,3c0,0.1,0.1,0.1,0.1,0.1 c0.4-0.2,1-0.4,1.3-0.5c1.2-0.5,2-1.5,2.4-1.9c0.1-0.1,1-2,0.8-2.9c-0.2-1.3,1.9-2,2.8-2.6c5-3.4,9.3-9.1,10.3-15.1 c0.3-1.8,0.4-3.8-0.2-5.5c-0.4-1.1-1.6-2.8-2.1-3.3C35.1,2.3,32.9,1.2,31.2,0.9z M18.5,34.8c0.4-0.8,0.7-1.5,1.1-2.3 c0.1-0.3,0.3-0.6,0.4-0.9c0.1-0.2,0.1-0.9-0.2-0.7c-0.3,0.2-0.6,0.9-0.8,1.2c-0.5,0.8-1,1.6-1.4,2.4c-0.3,0.6-0.7,1.3-1,2 c-0.1,0.2-0.1,0.4,0,0.5c0.1,0.1,0.3,0,0.4-0.2C17.7,36.3,18.2,35.6,18.5,34.8z M5.7,22.3c-0.1,0.2-0.1,0.4-0.3,0.6 c0,0-0.1,0.1-0.1,0.2c0,0,0,0.1,0.1,0.1c0.2,0.2,0.4,0.4,0.7,0.6c0.1,0.1,0.5,0.6,0.6,0.3c0-0.1,0-0.1,0-0.2 c0-0.2,0.1-0.4,0.2-0.6c0.2-0.5,0.4-0.9,0.5-1.4c0-0.1,0.1-0.2,0-0.3c0-0.2-0.2-0.3-0.4-0.4c-0.2-0.1-0.8-0.6-0.9-0.5 C6.1,21,6,21.4,5.9,21.7C5.8,21.9,5.8,22.1,5.7,22.3z M8.4,25.5c0-0.1,0.1-0.2,0.1-0.2C8.8,24.7,9,24,9.1,23.4c0-0.1,0-0.2,0-0.3 c0-0.2-0.4-0.4-0.5-0.5c-0.1-0.1-0.3-0.2-0.5-0.1c-0.1,0.1-0.2,0.2-0.2,0.3c-0.3,0.5-0.5,1.1-0.7,1.7c0,0.1-0.1,0.2-0.1,0.3 c0,0.3,0.2,0.5,0.5,0.6c0.2,0.1,0.5,0.2,0.6,0.4C8.4,25.7,8.4,25.6,8.4,25.5z M11.6,24.9c-0.1,0-0.1,0-0.2,0 c-0.1,0.1-0.1,0.2-0.1,0.3c-0.1,0.4-0.4,0.7-0.4,1.1c0,0.2,0,0.5-0.2,0.7c0,0-0.1,0.1-0.1,0.2c0,0,0,0.1,0.1,0.1 c0.3,0.2,0.7,0.4,1.1,0.5c0.2,0,0.4-0.3,0.5-0.5c0.2-0.4,0.4-0.9,0.6-1.3c0,0,0,0,0-0.1c0,0,0,0,0-0.1C12.7,25.5,12,25,11.6,24.9z M17.8,33c0.2-0.4,0.4-0.8,0.5-1c0.3-0.6,0.6-1.3,0.9-2c0-0.1,0.1-0.2,0-0.3c0-0.1-0.1-0.1-0.2-0.1c-0.3-0.1-0.6-0.1-0.8,0.1 c-0.1,0.1-0.1,0.2-0.2,0.3c-0.1,0.3-0.3,0.6-0.4,0.9c-0.1,0.2,0,0.4-0.1,0.7c-0.1,0.5-0.1,0.9-0.2,1.4c0,0.2,0,0.4-0.1,0.6 c0,0,0,0.1,0,0.2C17.4,33.6,17.6,33.3,17.8,33z M4.7,19.5C4.4,20,4.2,20.6,4,21.2c0,0.1-0.1,0.2,0,0.3c0,0.2,0.2,0.3,0.3,0.4 C4.4,22,4.6,22,4.8,22c0.4-0.1,0.6-0.8,0.8-1.2c0.2-0.4,0.4-1,0-1.4C5.4,19.3,4.9,19.3,4.7,19.5z M10.3,26.3 c0.1-0.3,0.2-0.7,0.4-1c0.1-0.3,0.3-0.6,0.3-0.9c0-0.3-0.9-0.7-1.1-0.5c-0.5,0.5-0.2,1.3-0.7,1.9C9,25.8,9,25.8,8.9,25.9 c0,0.1-0.1,0.2,0,0.2c0,0,0.1,0.1,0.1,0.1c0.2,0.1,0.4,0.2,0.5,0.3c0.2,0.1,0.4,0.2,0.5,0.1C10.2,26.5,10.2,26.4,10.3,26.3 C10.3,26.3,10.3,26.3,10.3,26.3z M2.4,14.9c-0.2,0.4-0.3,0.8-0.5,1.2c-0.2,0.5-0.6,2.2,0.3,2.3c0.1,0,0.2-0.1,0.2-0.1 c0.1-0.2,0.1-0.5,0.2-0.8c0.1-0.6,0.5-1.1,0.6-1.6c0-0.3,0-0.5-0.2-0.8c-0.1-0.2-0.2-0.4-0.4-0.5C2.5,14.7,2.4,14.8,2.4,14.9z M35.1,23.3c0.1-0.1,0.2-0.2,0.3-0.2c0.2-0.2,0.3-0.5,0.4-0.8c0.2-0.7,0.3-1.4,0.3-2.2c0-0.1,0-0.3-0.1-0.3 c-0.4-0.4-0.9,1.2-1,1.4c-0.2,0.7-0.3,1.5-0.1,2.2c0,0.1,0.1,0.2,0.2,0.2c0,0,0-0.1,0.1-0.1C35,23.4,35,23.3,35.1,23.3z M33.3,22.7C33.3,22.8,33.2,22.8,33.3,22.7c-0.3,0.5-0.2,1-0.2,1.4c-0.1,0.4-0.2,0.8,0,1.2c0.3-0.4,0.8-0.5,1-0.9 c0.1-0.2,0.1-0.5,0.1-0.7c0-0.5,0-1,0-1.5c0,0,0-0.1-0.1-0.1c0,0-0.1,0-0.1,0c-0.1,0.1-0.3,0.2-0.4,0.3 C33.5,22.5,33.4,22.6,33.3,22.7z M31.8,24.1c-0.1,0.1-0.2,0.2-0.3,0.2c-0.1,0.1-0.2,0.2-0.2,0.4c0,0.1,0,0.2,0,0.2 c0,0.2-0.1,0.5-0.2,0.7c-0.2,0.5-0.2,1-0.2,1.6c0.2-0.2,0.4-0.4,0.7-0.6c0.8-0.7,0.7-1.9,0.7-2.9C32.1,23.9,32,24,31.8,24.1z M13.7,28.3c0.3-0.4,0.5-0.9,0.6-1.4c0-0.2,0-0.3-0.2-0.4c-0.1,0-0.2,0-0.4-0.1c-0.1-0.1-0.1-0.2-0.2-0.2c-0.3,0-0.2,0.7-0.4,0.8 c-0.2,0.3-0.6,0.7-0.3,1.1c0.1,0.2,0.3,0.3,0.5,0.3c0.1,0,0.1,0,0.2,0C13.6,28.4,13.6,28.4,13.7,28.3 C13.6,28.3,13.7,28.3,13.7,28.3z M17.1,28.6c-0.1,0-0.1,0-0.1,0c-0.2,0-0.4,0-0.6,0.2c-0.2,0.2-0.2,0.5-0.4,0.6 c0,0-0.1,0.1-0.1,0.1c0,0,0,0.1,0.1,0.1c0.4,0.2,0.6,0.4,1,0.6c0,0,0,0,0.1,0c0,0,0,0,0.1-0.1c0.3-0.4,0.4-0.8,0.7-1.2 C17.7,28.7,17.4,28.6,17.1,28.6z M15.9,28.3c0.1-0.3,0.1-0.6-0.1-0.7c-0.2-0.1-0.5-0.2-0.5-0.1c0,0.1-0.1,0.1-0.2,0.2 C15,27.7,15,27.8,15,27.9c-0.1,0.2-0.2,0.3-0.3,0.4c-0.1,0.1-0.2,0.4-0.1,0.5c0,0,0.3,0.3,0.5,0.3c0.1,0,0.3,0,0.4-0.1 c0.1-0.1,0.1-0.1,0.2-0.2C15.7,28.7,15.8,28.5,15.9,28.3z M29.4,28.4c0,0,0.1,0,0.1-0.1c0.1-0.1,0.1-0.1,0.1-0.2 c0.1-0.1,0.3-0.1,0.4-0.2c0.1-0.1,0.1-0.2,0.2-0.3c0.2-0.6,0.3-1.2,0.2-1.8c0,0-0.4,0.3-0.4,0.4c-0.2,0.2-0.3,0.4-0.4,0.6 c-0.2,0.5-0.3,1-0.2,1.5c0,0,0,0.1,0.1,0.1C29.4,28.4,29.4,28.4,29.4,28.4z M27.5,28.1c0,0.1,0,0.2-0.1,0.2c0,0.2,0,0.5,0,0.7 c0,0,0,0.1,0,0.1c0,0,0.1,0.1,0.1,0.1c0.1,0,0.3,0.1,0.4,0c0.2-0.1,0.2-0.2,0.3-0.4c0.2-0.5,0.3-1,0.2-1.5c0,0,0-0.1,0-0.1 c0,0-0.1,0-0.1,0C28,27.5,27.7,27.7,27.5,28.1z M37.1,17.9c-0.3,0.3-0.6,3.1-0.6,3.2c0,0,0.1,0.1,0.1,0.1c0,0,0,0,0,0 c0.2-0.2,0.3-0.4,0.4-0.7c0.1-0.4,0.2-0.7,0.2-1.1c0-0.5,0.1-1,0.1-1.5C37.2,17.8,37.1,17.8,37.1,17.9z M1.5,11.8 c0-0.2,0.1-0.4,0.1-0.5c0-0.1,0-1.9,0.1-1.9c-0.1,0-0.2,0.1-0.2,0.2c0,0.1,0,0.2-0.1,0.3C1.3,10.8,1,11.5,1,12.3 c0,0.2,0,0.4,0.2,0.5C1.3,12.5,1.4,12.2,1.5,11.8z M37.6,17c0,0.2,0.5,0.4,0.5,0.4s0.1,0.1,0.1,0.1c0,0,0-0.1,0.1-0.1 c0.3-1.1,0.6-2.2,0.7-3.4c0-0.1,0-0.1,0-0.2c-0.1-0.2-0.4,0.5-0.4,0.6c-0.1,0.4-0.6,1.8-0.7,1.9C37.8,16.5,37.6,16.8,37.6,17z M25.7,29.7c0,0.2,0,0.3,0,0.5c0,0,0.1,0.1,0.1,0.1c0.1,0,0.2,0,0.2,0c0.1-0.1,0.2-0.1,0.2-0.1c0.2-0.1,0.3-0.1,0.3-0.3 c0-0.3,0.1-0.7,0-1.1c-0.3,0.2-0.6,0.4-0.9,0.5C25.7,29.4,25.7,29.5,25.7,29.7z M1.5,14.9C1.5,14.9,1.5,14.9,1.5,14.9 c0.3-0.4,0.5-0.8,0.6-1.1c0.1-0.3-0.3-0.5-0.3-0.5c-0.2,0.4-0.4,0.8-0.5,1.2c0,0.1-0.1,0.2-0.1,0.3C1.2,14.9,1.3,15,1.5,14.9 C1.5,14.9,1.5,14.9,1.5,14.9z M33.7,1.6C33.7,1.6,33.7,1.6,33.7,1.6C33.7,1.6,33.7,1.6,33.7,1.6C33.7,1.6,33.7,1.5,33.7,1.6 C33.7,1.5,33.7,1.5,33.7,1.6z"></path> <path fill="#0071a5" d="M33,10c-0.6-0.3-1.4-0.3-2.1-0.4C31,8.8,31.2,8.1,31,7.3C31,7,30.5,7,30.4,7.3c-0.3,0.7-0.3,1.5-0.4,2.2 c-0.7-0.1-1.5-0.2-2.2-0.2c-0.3,0-0.4,0.5-0.1,0.6c0.7,0.2,1.4,0.4,2.2,0.5c-0.1,0.7-0.2,1.4-0.2,2.2c0,0.3,0.5,0.4,0.6,0.1 c0.2-0.7,0.4-1.4,0.5-2.1c0.7,0.1,1.5,0.3,2.2,0.1C33.2,10.6,33.3,10.1,33,10z"></path> <g> <path fill="#0071a5" d="M34.7,9.2c0,0.3,0,0.6,0,0.9c0,0.1,0,0.3-0.1,0.3c0,0.1-0.1,0.1-0.1,0.1c0,0,0,0,0-0.1c0-0.1,0-0.3,0-0.5 c0-0.2,0-0.4,0-0.6c0-0.1,0-0.1,0-0.2c0,0,0-0.1,0-0.1c-0.1-0.1-0.1-0.3-0.2-0.6c-0.1-0.3-0.3-0.6-0.5-0.9c0,0,0-0.1-0.1-0.1 c0,0,0-0.1-0.1-0.1c-0.1-0.1-0.3-0.3-0.4-0.4c-0.1-0.1-0.3-0.2-0.4-0.3c-0.1,0-0.1-0.1-0.2-0.1c0,0-0.1,0-0.1-0.1 c0,0-0.1,0-0.1-0.1c-0.1-0.1-0.2-0.1-0.4-0.2c0,0,0,0,0,0c-0.1,0-0.1,0-0.2-0.1C31.7,6,31.6,6,31.6,6c-0.1,0-0.2-0.1-0.3-0.1 c-0.2,0-0.4-0.1-0.5-0.1c-0.2,0-0.3,0-0.5-0.1c-0.1,0-0.1,0-0.2,0c-0.1,0-0.1,0-0.2,0c0,0-0.1,0-0.1,0c0,0-0.1,0-0.1,0 c-0.1,0-0.2,0-0.3,0.1C29.1,5.9,29,6,28.8,6.1c-0.1,0-0.1,0.1-0.2,0.1c-0.1,0-0.1,0.1-0.2,0.1c-0.2,0.1-0.3,0.2-0.5,0.3 c0,0-0.1,0.1-0.1,0.1c0,0-0.1,0.1-0.1,0.1c-0.1,0-0.1,0.1-0.2,0.1c0,0-0.1,0-0.1,0.1c0,0-0.1,0.1-0.1,0.1 c-0.1,0.1-0.1,0.1-0.2,0.2c-0.1,0.1-0.2,0.3-0.3,0.5c-0.1,0.2-0.2,0.4-0.3,0.6c-0.1,0.2-0.1,0.4-0.2,0.6c0,0,0,0.1,0,0.1 c0,0,0,0.1,0,0.1c0,0.1,0,0.1,0,0.2c0,0.1,0,0.1,0,0.2c0,0.1,0,0.1,0,0.2c0,0.2,0,0.4,0,0.5c0,0.2,0,0.3,0,0.5c0,0.1,0,0.1,0,0.2 c0,0.1,0,0.1,0.1,0.1c0,0,0,0.1,0,0.1c0,0.1,0,0.1,0,0.1c0,0,0,0.1,0.1,0.2c0.1,0.2,0.2,0.4,0.4,0.7c0.1,0.1,0.2,0.3,0.3,0.5 c0,0.1,0.1,0.1,0.2,0.2c0.1,0.1,0.1,0.1,0.2,0.2c0.2,0.2,0.4,0.4,0.6,0.5c0.1,0,0.1,0.1,0.2,0.1c0.1,0,0.1,0.1,0.2,0.1 c0.1,0,0.1,0.1,0.2,0.1c0.1,0,0.1,0,0.2,0.1c0.1,0,0.2,0.1,0.3,0.1c0.1,0,0.1,0,0.2,0c0,0,0,0,0,0c0,0,0.1,0,0.2,0 c0.1,0,0.3,0,0.4,0c0.1,0,0.1,0,0.2,0l0.1,0c0,0,0.1,0,0.1,0c0,0,0,0,0,0c0.2,0,0.5-0.1,0.8-0.1c0.3-0.1,0.5-0.1,0.6-0.1 c0.1,0,0.1,0,0.2,0c0,0,0.1,0,0.1,0c0,0,0.1,0,0.1-0.1c0.1,0,0.2-0.1,0.2-0.1c0.1-0.1,0.2-0.1,0.2-0.2c0.2-0.1,0.3-0.2,0.4-0.3 c0.1-0.1,0.3-0.3,0.4-0.4c0,0,0.1-0.1,0.1-0.1c0,0,0.1-0.1,0.1-0.1c0.1-0.1,0.1-0.1,0.1-0.2c0.1-0.1,0.1-0.2,0.2-0.2 c0,0,0-0.1,0.1-0.1c0,0,0.1-0.1,0.1-0.1c0,0,0.1-0.1,0.1-0.1c0,0,0,0,0.1-0.2c0,0,0,0,0-0.1c0,0,0,0,0-0.1c0,0,0-0.1,0,0 c0,0,0-0.1,0.1-0.2c0.1-0.3,0.1-0.4,0.2-0.5c0-0.1,0.1,0,0.1,0.2c0,0.1,0,0.1,0.1,0c0.1-0.1,0.1-0.2,0.1-0.2c0,0,0.1,0.1,0.1,0.3 c0,0,0,0.1,0,0.1c0,0,0,0.1,0,0.1c0,0,0,0,0,0.1c0,0.3-0.1,0.5-0.3,0.8c-0.1,0.3-0.3,0.5-0.5,0.8c-0.2,0.2-0.4,0.5-0.6,0.7 c-0.3,0.2-0.5,0.4-0.8,0.5c0,0-0.1,0-0.1,0.1c-0.1,0-0.1,0.1-0.2,0.1c-0.1,0-0.1,0.1-0.2,0.1c0,0-0.1,0-0.1,0c0,0-0.1,0-0.1,0 c-0.1,0-0.1,0-0.1,0.1c-0.1,0.1-0.4,0.2-0.7,0.3c-0.1,0-0.2,0-0.4,0.1c-0.1,0-0.1,0-0.2,0c-0.1,0-0.1,0-0.2,0c0,0-0.1,0-0.1,0 c0,0-0.1,0-0.1,0c-0.1,0-0.1,0-0.2,0c-0.1,0-0.2,0-0.3-0.1c-0.2,0-0.4-0.1-0.6-0.2c-0.2-0.1-0.4-0.1-0.6-0.2 c-0.4-0.2-0.7-0.4-1-0.6c-0.1,0-0.1-0.1-0.2-0.1c-0.1-0.1-0.1-0.1-0.2-0.2c-0.1-0.1-0.1-0.1-0.2-0.2c0,0-0.1-0.1-0.1-0.1 c0,0-0.1-0.1-0.1-0.1c0,0-0.1-0.1-0.1-0.1c0,0-0.1-0.1-0.1-0.1c-0.3-0.5-0.5-1-0.6-1.5c-0.1-0.3-0.1-0.6-0.1-0.9 c0-0.1,0-0.1,0-0.2c0-0.1,0-0.1,0-0.2c0-0.1,0-0.2,0-0.3c0-0.2,0-0.4,0.1-0.6c0,0,0-0.1,0-0.1c0,0,0-0.1,0-0.1 c0-0.1,0-0.2,0.1-0.2c0.1-0.5,0.4-1,0.7-1.5c0.1-0.2,0.3-0.4,0.5-0.6c0.1-0.1,0.2-0.2,0.4-0.3c0,0,0.1-0.1,0.1-0.1 c0,0,0.1,0,0.1-0.1c0.1,0,0.1-0.1,0.2-0.1c0,0,0.1,0,0.1,0c0,0,0.1,0,0.1-0.1c0,0,0.1,0,0.1,0c0,0,0.1,0,0.1,0 c0.1,0,0.1,0,0.1-0.1c0.1,0,0.1-0.1,0.2-0.1c0.1,0,0.1-0.1,0.2-0.1c0.1,0,0.2-0.1,0.3-0.1c0.1,0,0.2-0.1,0.4-0.1 c0.1,0,0.1,0,0.2,0c0.1,0,0.1,0,0.2,0c0.2,0,0.5,0,0.7,0c0.2,0,0.4,0.1,0.6,0.1c0.2,0.1,0.4,0.1,0.6,0.2c0.5,0.2,1,0.5,1.5,0.9 c0.3,0.2,0.5,0.5,0.7,0.8c0.1,0.1,0.1,0.1,0.1,0.2c0,0.1,0.1,0.1,0.1,0.2c0.1,0.2,0.2,0.3,0.2,0.5c0,0,0,0.1,0,0.1 c0,0,0,0.1,0,0.1c0,0.1,0,0.1,0,0.1c0,0,0,0.1,0,0.1l0,0.1l0,0.1C34.7,9,34.7,9.1,34.7,9.2L34.7,9.2z"></path> </g> </g> </g> </svg> 