<?xml version="1.0" encoding="utf-8"?>
<!-- Generator: Adobe Illustrator 23.0.1, SVG Export Plug-In . SVG Version: 6.00 Build 0)  -->
<svg width="32" height="22" version="1.1" id="Layer_1" xmlns="http://www.w3.org/2000/svg" xmlns:xlink="http://www.w3.org/1999/xlink" x="0px" y="0px"
	 viewBox="0 0 44.2 32" style="enable-background:new 0 0 44.2 32;" xml:space="preserve">
<g>
	<g>
		<g>
			<path fill="#333333" d="M17.7,3.4c0,0,0.1,0,0.1,0.4c0,0.4-0.5,1.4-0.7,2.1C17,6.6,16.8,8.8,17,10.1c0.2,1.3,0.6,2.2,0.7,2.6
				c0.2,0.4,0.2,0.7,0.4,0.7c0.3,0,1.9-0.9,2.8-1.8c0.9-0.9,1.3-1.4,1.4-2c0.1-0.6,0.2-1.1,0.5-1c0.3,0,0.5,0.7,0.1,1.5
				c-0.4,0.8-1.1,1.7-2.2,2.6c-1.1,0.9-2.2,1.5-2.8,1.5c-0.6,0-0.6-0.3-1-1.2c-0.3-0.9-0.9-2.7-0.9-4.7c0-2,0.5-3.3,0.7-3.8
				C17,4.1,17.2,3.4,17.7,3.4z"/>
			<path fill="#333333" d="M17.1,4.4c0,0-0.2-0.6,0-1.3C17.2,2.4,18.1,1,20,0.4c1.9-0.6,3.3-0.3,4.2,0.2c0.9,0.5,1.8,1.6,2,2.1c0,0,0.4-0.8,1.6-1.1
				c1.1-0.3,2.4,1,2.5,2c0,1-0.6,1.6-1.1,1.8c-0.5,0.1-0.9,0-0.9-0.3c0-0.2,0.6-0.1,1.1-0.6c0.5-0.6,0.2-1.6-0.6-2
				c-0.7-0.4-1.8-0.1-2.4,0.7c0,0,0,1-0.1,1.4c-0.2,0.4-0.5,0.4-0.6,0.2c-0.2-0.1,0-0.5,0-1c0-0.5-0.2-1.8-1.4-2.4
				C23,0.7,21.7,0.6,20.4,1c-1.3,0.4-2.3,1.5-2.5,1.9c-0.2,0.4-0.2,0.9-0.2,0.9L17.1,4.4z"/>
			<path fill="#333333" d="M17.3,4.4c0,0,0.7,0.1,1.1,0c0.4-0.2,0.6-0.2,0.5,0.2c-0.2,0.4-1.3,0.7-1.9,0.6c-0.6-0.2-0.8-0.5-0.8-0.8
				c0-0.3,0.3-0.4,0.6-0.2C17,4.3,17.3,4.4,17.3,4.4z"/>
			<path fill="#333333" d="M19.4,3.1c0,0,0.1-0.4,0.4-0.4c0.3,0,0.2,0.9,0.2,0.9S20,3.7,20.1,4c0,0.2-0.1,0.3,0.2,1.3c0.4,0.9,1.1,1.7,1.9,1.9
				C23,7.3,23.6,7,23.8,6.7c0.2-0.3,0.3-0.1,0.3,0.2s-0.4,0.8-1.2,0.9c-0.8,0.1-2.2-0.4-3-1.8c0,0,0,0.9,0.6,1.5
				c0.6,0.6,0.9,0.4,1.1,0.5c0.2,0,0.4,0.3-0.3,0.4c-0.7,0.1-1.6-0.5-1.9-1.5C19,5.7,19.4,3.1,19.4,3.1z"/>
			<path fill="#333333" d="M22.3,10.8c0,0,0.5,0.3,2.2-0.4c1.7-0.6,3-2.4,3-3.4c0-1-0.1-1.1-0.2-1.2c-0.1,0-0.2-0.2,0-0.4c0.2-0.2,0.6-0.2,0.7,0.5
				c0.1,0.6,0.3,2-0.7,3.2c-0.9,1.1-2.9,2.8-5.7,2.4L22.3,10.8z"/>
			<path fill="#333333" d="M19.9,13.2c0,0,0,1.3,0,2c0,0.7-0.2,1.8-0.2,1.8s-0.2-0.1-0.4,0.2c-0.2,0.3-0.3,0.7-0.3,1c0,0.3,0.5,0.7,0.7,0.3
				c0.2-0.3,0.6-1.2,0.8-2.2c0.1-1,0.4-3.2-0.2-3.4L19.9,13.2z"/>
			<path fill="#333333" d="M22.6,18.3c0,0-0.7-0.3-0.9-2.1c-0.2-1.8-0.1-3.2-0.1-3.6c0.1-0.4,0.3-0.7,0.5-0.4c0.2,0.3,0,1.5,0.1,2.4
				c0.1,0.9,0.2,2.1,0.4,2.6c0.2,0.5,0.4,0.5,0.5,0.5c0.1,0,0.1,0.3,0.1,0.4C23.2,18.2,22.6,18.3,22.6,18.3z"/>
			<path fill="#333333" d="M23,18c0,0,0.6-0.4,1.5-0.5c0.9-0.1,1.6,0.2,1.8,0.5c0.2,0.3,0.1,0.4,0,0.6c-0.1,0.3-0.7,1.4-0.8,3.1
				c-0.1,1.7-0.1,2.7-0.1,3.4c0,0.7-0.1,2.2-0.2,2.6c-0.1,0.4-0.3,0.7-0.6,0.5c-0.2-0.2,0-1.1,0-1.6c0-0.5,0.1-3,0-3.8
				c0-0.9,0.2-2.4,0.3-2.9c0.2-0.5,0.6-1.5,0.5-1.6c-0.1-0.1-0.8-0.1-1.3,0.1c-0.5,0.2-0.9,0.4-1.1,0.4C23,18.7,22.7,18.1,23,18z"/>
			<path fill="#333333" d="M22.1,19.2c0.3-0.1,0.6-0.1,0.7-0.2c0.1-0.1,0.3-0.5-0.1-0.9c0,0-0.4,0.6-1.1,0.7c-0.5,0.1-1.4,0.2-1.6,0.1
				c-0.2-0.1-0.2-0.7-0.4-0.5c-0.2,0.2-0.2,0.6-0.1,0.9C19.5,19.3,19.8,20,22.1,19.2z"/>
			<path fill="#333333" d="M22.9,32c0,0,0.1-2.5,0.1-4.1c-0.1-1.6-0.1-3.1,0-3.5c0.1-0.4,0.4-0.8,0.5-0.3c0,0.5,0,2.5,0,3.1c0,0.6,0.1,3.1,0.1,3.6
				c0,0.5-0.1,1.2-0.1,1.2L22.9,32z"/>
			<path fill="#333333" d="M19.2,18.3c0,0-0.7-0.2-1.1-0.4c-0.4-0.1-1.1,0-1.5,0c-0.4,0-0.7,0.2-0.8,0.5c0,0.3,0,1.8,0.1,3c0.1,1.2,0.3,3.9,0.4,5
				c0.1,1.1,0,2.8,0,3.3c-0.1,0.6-0.2,1.3-0.3,1.5c-0.1,0.2,0.1,0.4,0.3,0.5c0.2,0.1,0.4-0.5,0.6-1.7c0.1-1.2-0.1-5-0.2-6.2
				c-0.1-1.2-0.1-3.7-0.1-4.1c0-0.5,0-0.8,0.1-0.9c0.1-0.1,0.4-0.1,1,0c0.5,0,0.8,0.2,1.2,0.4c0.3,0.1,0.7,0.1,0.7,0.1l0.1-0.5
				L19.2,18.3z"/>
			<path fill="#333333" d="M24,21.4c0,0,0.2-0.4-0.2-0.6c-0.4-0.2-0.9,0-1.2,0c-0.3,0-0.9,0-1,0.1c-0.1,0-0.1,0.4-0.2,0.7c0,0.3,0,0.9,0.2,1
				c0.2,0.1,0.9-0.3,1.2-0.3c0.3-0.1,0.6-0.1,0.9-0.2C23.9,21.9,24.3,21.7,24,21.4z M23,21.5l0-0.3l0.3-0.1l0,0.3L23,21.5z"/>
		</g>
		<g>
			<path fill="#333333" d="M29.8,6.4c0,0,0.2,2.1,0.4,3.2c0.2,1.1,0.9,2.4,1.2,3.1c0.3,0.7,1,1.6,1.1,1.6c0.1,0,0.2-0.3,0.4-0.2
				c0.2,0.1,1.5,0.1,2.1,0.2c0.6,0.1,1.8-0.2,2-0.6c0.2-0.3,0.9-1.8,1.2-3.8C38.6,8.1,39,6.3,39,6c0-0.4,0.2-0.5,0.4-0.5
				c0.2,0,0.4,0.3,0.2,1.3c-0.2,1-0.6,3-0.8,4c-0.2,1-0.7,2.2-0.9,2.8c-0.2,0.6-0.4,0.9-0.6,1c-0.1,0.1-0.3,0.1-0.3,0.1
				s-0.1,0.3-0.7,0.4c-0.6,0.1-1.8,0-2.1,0c-0.3,0-1.3,0-1.5,0.1c-0.2,0-0.5,0-0.9-0.4c-0.3-0.4-1.4-2-1.9-3.6
				c-0.5-1.6-0.6-3.6-0.7-4.2c0-0.7,0.1-1,0.3-1C29.7,5.7,29.8,6.1,29.8,6.4z"/>
			<path fill="#333333" d="M31.1,4.8c0,0-0.4,0.2-0.4,0.8s0.9,1.2,2.1,0.9c1.2-0.3,2.1-1.6,2.2-2.1c0.2-0.5,0.2-1,0.2-1.2c0.1-0.2,0.3-0.5,0.6-0.1
				c0.3,0.4,0,1.3-0.2,1.7c-0.2,0.4-1,1.5-2,2c-1,0.4-2.5,0.4-3.1-0.3c-0.6-0.8-0.3-1.6,0.1-1.9C31.1,4.4,31.4,4.6,31.1,4.8z"/>
			<path fill="#333333" d="M35.4,4.9c0,0,0.4-0.2,0.5,0.1c0.1,0.3,0,0.8,0.1,1.2c0.1,0.5,0.5,1.1,1.3,1.1c0.8,0,1.4-0.3,1.8-0.8L39,7.3
				c0,0-0.3,0.9-1.6,0.9C36.2,8.1,34.9,6.9,35.4,4.9z"/>
			<path fill="#333333" d="M40,3.9c0,0-0.2-0.3,0.2-0.5c0.4-0.1,1.2-0.2,1.9,0.1c0.7,0.3,1.1,1.1,1,1.7c0,0.5-0.7,1.2-0.7,1.2s0.8,0.2,1.3,0.9
				c0.5,0.7,0.6,1.6,0,2.3c-0.7,0.7-1.7,0.9-2.3,0.7c-0.6-0.2-0.4-0.4,0.3-0.4c0.6,0,1.5-0.5,1.8-1.1c0.3-0.5-0.3-1.6-1.1-1.7
				c-0.8-0.1-0.9,0.1-1.1,0.1c-0.1,0-0.6-0.2-0.4-0.5C41,6.4,41.6,6.2,42,5.9c0.4-0.3,0.7-0.9,0.5-1.3c-0.2-0.4-0.9-0.7-1.4-0.6
				c-0.4,0.1-0.5,0.3-0.7,0.2C40.2,4.1,40,3.9,40,3.9z"/>
			<path fill="#333333" d="M28.9,3.8c0,0-0.2-0.8,0.1-1.3C29.3,1.9,30.2,1.2,31,1c0.7-0.3,1.6-0.4,2.3,0c0,0,0.5-0.8,1.2-0.9
				c0.7-0.1,1.2,0.5,1.4,1.4c0,0,1.4-0.8,2.5-0.4c1.1,0.5,1.5,1.5,1.6,2.3c0.1,0.8-0.1,1.7-0.4,2c-0.3,0.3-0.7,0.1-0.6-0.2
				c0.1-0.3,0.7-0.8,0.6-1.7c-0.1-0.8-0.9-1.9-1.7-1.9c-0.8,0-1.6,0.2-1.9,0.5c-0.3,0.3-0.4,0.6-0.6,0.6c-0.2,0-0.2-0.3-0.2-0.7
				c0-0.4,0-1.2-0.4-1.3c-0.4-0.1-0.8,0.3-1,0.6c0,0,0.2,0.4,0.2,0.7c0.1,0.3,0,0.6-0.4,0.5c-0.3-0.2-0.5-1.2-1.2-1.1
				c-0.7,0-2.9,0.3-2.8,2.1l0,0.3L28.9,3.8z"/>
			<path fill="#333333" d="M29.3,3.6c0,0,0.5,0,0.8,0.2c0.3,0.2,0.3,0.4,0,0.6c-0.2,0.2-0.9-0.3-1.6-0.1c-0.8,0.2-1.8,1.2-1.7,2c0,0,0.4,0,0.4,0.3
				c0,0.4-0.2,0.3-0.5,0.4c-0.3,0.1-1.5,0.8-1.6,1.5c-0.1,0.7,0.4,1.1,0.9,1.2c0.5,0.1,0.4,0.4,0.3,0.5c-0.1,0.1-0.9,0.1-1.1,0.6
				c-0.2,0.5,0.1,1.1,0.9,1.1c0.8,0,1,0,1,0.1c0,0.1-0.4,0.6-1.4,0.4c-1.1-0.2-1.8-1.3-0.6-2.5c0,0-0.6-0.4-0.7-1.2
				c0-0.8,1-1.9,1.9-2.2c0,0-0.5-0.5,0.1-1.5C27,4.2,28.1,3.5,29.3,3.6z"/>
			<path fill="#333333" d="M32.8,14.8c0,0,0.3,1.7,0.3,2.7c-0.1,1.1-0.2,1.5-0.4,1.8c-0.2,0.2-0.2,0.5,0,0.6c0.2,0.1,0.6-0.3,0.8-1.1
				c0.2-0.8,0.1-1.7,0.1-2.3c0-0.5-0.2-1.9-0.2-1.9L32.8,14.8z"/>
			<path fill="#333333" d="M35.6,14.7c0,0-0.2,1.2-0.2,2.5c0.1,1.3,0.4,1.9,0.5,2.2c0.1,0.3,0.3,0.5,0.5,0.5s0.2-0.2,0-0.7
				c-0.2-0.5-0.5-1.7-0.4-2.6c0-0.9,0.2-1.9,0.2-1.9L35.6,14.7z"/>
			<path fill="#333333" d="M33.5,17.2c0,0,0.4-0.1,0.7-0.1c0.3-0.1,1.1-0.3,1.3-0.3c0.3,0,0.8,0.2,0.9,0.4c0.1,0.2,0.3,0.5-0.1,0.6
				c-0.4,0.1-0.9-0.2-0.9-0.2s0.2,1,0.2,1.4c0.1,0.4,0.3,1.2,0.1,1.3c-0.2,0-0.5-0.3-0.6-1.2c0,0-0.1,0.8,0.1,1.1l-0.3,0.1
				c0,0-0.4-0.3-0.4-0.9c0-0.6,0-1.5,0-1.5s-0.1,0-0.2,0.4c0,0.4-0.3,2-0.3,2l-0.4,0c0,0,0.2-1.3,0.2-1.8c0-0.5,0-0.7,0-0.7l-0.4,0
				L33.5,17.2z"/>
			<path fill="#333333" d="M27.7,21.7c0,0-0.4-0.1-0.4-0.4c0-0.3,0.3-0.4,0.7-0.3c0.4,0,2.4-0.2,3.3-0.5c0.9-0.3,0.9-0.5,1.1-0.4
				c0.2,0.1,0.3,0.3,0,0.7c-0.3,0.4-2,0.7-3.9,0.8c0,0,0,1.1,0.3,2.4c0.3,1.3,0.8,3,1,3.4c0.2,0.5,0.6,1.8,0.5,2.1
				c0,0.2-0.3,0.2-0.3,0.2s0.1,1.4,0.1,2.3l-0.6,0.1c0,0,0.1-2.7,0-3.2c-0.1-0.5-0.8-2.2-1.2-3.8C28,23.5,27.8,22.2,27.7,21.7z"/>
			<path fill="#333333" d="M32.4,20.1c0,0,0.5,0.1,1,0.1c0.5,0,1.5,0,2.1,0c0.6,0,1.1-0.2,1.4-0.4c0.3-0.2,0.4-0.3,0.5-0.1c0.1,0.1,0.2,0.3-0.1,0.5
				c-0.3,0.2-1.4,0.6-2.4,0.7c-1.1,0-2.3-0.1-2.8-0.3L32.4,20.1z"/>
			<path fill="#333333" d="M37.1,20.2c0,0-0.1,0.2,0.1,0.4c0.2,0.2,0.6,0.1,0.9,0.1c0.4,0,1.6,0.1,1.8,0.2c0.3,0,0.5,0.1,0.5,0.1s-0.3,0.6-0.4,1.5
				c-0.1,0.9-0.1,2.3-0.2,3.2c-0.1,0.9-0.2,2.4-0.4,2.9c-0.2,0.6-0.5,1.2-0.2,1.4c0.3,0.2,0.5-0.1,0.6-0.4c0.1-0.4,0.5-1.9,0.6-3.4
				c0.1-1.5,0.2-3.3,0.3-3.8c0.1-0.5,0.4-1.2,0.7-1.2c0,0,0-0.5-0.2-0.7c-0.2-0.2-0.4-0.1-0.6-0.1c-0.2,0-0.8-0.2-1.1-0.2
				c-0.3,0-2.1-0.1-2.1-0.1L37.1,20.2z"/>
			<path fill="#333333" d="M37.1,31.6c0,0,0.1-4.8,0.1-5.2c0-0.5,0.1-0.8,0.3-0.8c0.2,0,0.3,0.2,0.2,0.7c0,0.5,0,3,0,3.5c0,0.5,0,1.8,0,1.8
				L37.1,31.6z"/>
			<path fill="#333333" d="M39.6,31.8c0-0.1-0.1-0.9-0.1-1.3c0-0.4,0.2-0.4,0.3-0.1c0.1,0.3,0.2,1.3,0.2,1.3L39.6,31.8z"/>
			<path fill="#333333" d="M32.2,31.9c0,0-0.4-0.2-0.4-1.3c0-1.1,0-2.5-0.1-3.1c-0.1-0.6,0-1.5,0.2-1.5c0.2,0,0.2,0.8,0.3,1.2
				c0.1,0.5,0.2,1.7,0.2,2.2c0,0.5,0.1,1.9,0.2,2.1C32.5,31.7,32.5,31.8,32.2,31.9z"/>
			<path fill="#333333" d="M33.5,22.9c-0.1-0.2-0.3-0.4-0.6-0.3C32.5,22.7,31,23,31,23S31,22.9,30.8,23c-0.2,0-0.3,0.1-0.4,0.3
				c-0.1,0.2,0,0.3,0,0.3s0,0.9,0,1.1c0,0.2,0.1,0.4,0.6,0.2c0.4-0.1,1.8-0.5,1.8-0.5s0,0.4,0.3,0.3c0.2,0,0.4-0.2,0.4-0.6
				C33.5,23.7,33.6,23.1,33.5,22.9z M32,23.4c0,0,0.7-0.2,0.7-0.2l0,0.2L32,23.4z"/>
			<path fill="#333333" d="M38.3,12c0,0,0.3-0.3,0.4-0.2c0.2,0.1,0.1,0.6,0.8,0.6c0.6,0,1.1-0.5,1.3-0.7c0.2-0.2,0.4-0.1,0.3,0.3
				c0,0.3-0.7,1.1-1.4,1.1C39,13.2,38.5,13,38.3,12z"/>
		</g>
		<g>
			<path fill="#333333" d="M4.6,5.2c0,0,0,2.2,0.2,3.3c0.2,1.1,0.3,1.9,0.5,2.5c0.2,0.6,0.6,1.8,0.7,1.9c0.1,0.1,0.5,0.3,0.6,0.5
				c0.2,0.2,0.4,0.3,0.7,0.4c0.3,0.1,0.4,0.2,0.4,0.4c0,0.2-0.1,0.3-0.6,0.3c-0.5,0-1.3-0.7-1.6-1.1c-0.2-0.3-0.9-1.9-1.1-2.8
				C4.3,9.8,4.1,7.8,4.1,7.1c0-0.7,0.1-1.7,0.1-1.7L4.6,5.2z"/>
			<path fill="#333333" d="M11.7,5.5c0,0-0.4,2.6-0.8,3.9c-0.4,1.2-1.2,2.8-1.9,3.5c-0.6,0.7-1,1-1.1,1.1c-0.1,0.1-0.2,0.2,0,0.5
				c0.2,0.3,0.9-0.2,1.8-1.3c0.9-1.1,2.3-4.7,2.5-6.5C12.4,4.9,12,4.9,12,4.9L11.7,5.5z"/>
			<path fill="#333333" d="M8.4,3.1c0,0,0.5,1.5,1.4,2.5c0.9,1,2.4,0.9,3.2,0l0,0.7c0,0-0.1,0.6-1.3,0.7c-1.2,0.1-2.3-0.7-2.8-1.6
				C8.3,4.5,7.9,3.9,7.8,3.2C7.7,2.4,8.1,2.5,8.2,2.5C8.3,2.6,8.3,2.9,8.4,3.1z"/>
			<path fill="#333333" d="M4.3,5.6c0,0,1.3-0.4,2.1-1.1c0.8-0.7,1.1-1.5,1-1.7c0-0.3-0.2-0.3-0.4-0.1c-0.2,0.1-1,1.4-1.5,1.8
				C5.1,4.8,4.4,5.3,4.4,5.3L4.3,5.6z"/>
			<path fill="#333333" d="M7.7,1c0,0,0.1,0.3,0.5,0.2C8.5,1,9.3,0.6,10,0.7c0.7,0,1.4,0.7,1.8,1.5c0.4,0.9,0.4,2.2,0.4,2.2s0.1,0.2,0.4,0.1
				c0.3-0.1,0.2-1.1,0.1-1.7c-0.2-0.6-0.9-2.1-1.8-2.6c-0.9-0.5-1.8-0.2-2.4,0C8.1,0.5,7.5,0.7,7.7,1z"/>
			<path fill="#333333" d="M3,3.9c0,0,0.3-1.4,1.4-2c1.1-0.6,2-0.6,2.2-0.5c0.2,0,0.7,0.1,0.8-0.2c0.1-0.3-0.1-0.7-0.8-0.6C6.1,0.5,4.2,1,3.6,1.6
				C3.1,2.1,2.5,3.4,2.4,4.2C2.3,4.9,2.5,5.9,3.1,5.9c0.6,0,0.8-0.2,0.8-0.2S3.1,5.8,3,5.2C2.9,4.6,3,4.2,3,3.9z"/>
			<path fill="#333333" d="M4.9,1.5c0,0,0.4,0,0.4,0.4C5.2,2.1,4.6,2.7,4.4,3C4.2,3.3,3.8,3.8,3.7,4C3.6,4.1,3.6,4.2,3.4,4.3
				c-0.2,0-0.5-0.2-0.4-0.4C3,3.6,3.3,3.5,3.5,3.3c0.2-0.3,1-1.6,1.1-1.6C4.6,1.6,4.9,1.5,4.9,1.5z"/>
			<path fill="#333333" d="M6,1.2c0,0-0.6,0.8-0.9,1.2C4.8,2.9,4.3,3.5,4,3.9C3.8,4.3,3.5,4.9,3.6,5c0.1,0.1,0.3,0.2,0.3,0.2S3.8,5.5,4.1,5.4
				s1.1-0.6,1.1-0.6s0-0.4,0.2-0.7C5.7,3.7,6,3.3,6,3.3S5.6,4.2,6,4.3L7.1,3c0,0,0.3-0.6,0.4-0.8c0-0.1,0.2-0.3,0.2-0.5
				c0-0.1,0.2-0.1,0.1,0.1c0,0.1,0,0.2,0.1,0.2c0.1,0,0.3-0.3,0.2-0.4c0-0.1-0.4-0.5-0.9-0.4L6.9,1.1c0,0-2.2,3.1-2,2.7
				c0.1-0.4,1.8-2.7,1.8-2.7L6,1.2z"/>
			<path fill="#333333" d="M9.7,0.5c0,0-0.7,0.7-0.9,1.1C8.5,1.8,8.4,2.1,8.4,2.3c0.1,0.2,0.4,0.3,0.5,0.1C9,2.3,9.6,1.6,9.5,1.9
				C9.4,2.1,8.9,2.8,8.9,2.8S8.8,3,9,3.5c0.2,0.5,0.3,0.6,0.5,0.8c0.2,0.2,0.3,0.3,0.3,0.3S9.6,4.9,9.8,5c0.2,0.1,0.3,0,0.4,0.1
				c0.1,0.2,0.5,0.5,0.9,0.6c0.3,0.1,0.8,0.1,0.9,0c0.1,0,0.6-0.1,0.9-0.5c0,0,0.1-0.2,0-0.2c0,0-0.5,0-0.5,0l0.4-0.5
				c0,0,0.1-0.4-0.2-0.5c-0.2-0.1-0.3-0.2-0.3-0.2s-0.3,0.4-0.5,0.5c-0.1,0.2-0.3,0.5-0.2,0.6c0,0-0.3,0-0.4-0.1
				c-0.1-0.2,0-0.2,0.1-0.4c0.1-0.2,0.9-1.2,0.9-1.2l-0.1-0.7c0,0-0.6,0.7-0.9,1.1c-0.3,0.4-0.5,0.8-0.7,0.8c-0.1,0,0.1-0.4,0.3-0.6
				c0.2-0.2,1.3-1.5,1.3-1.5l-0.3-0.6c0,0-0.8,0.9-1,1.2c-0.3,0.3-0.6,0.9-0.6,0.7c-0.1-0.1,1.2-1.9,1.4-2.3l-0.4-0.4
				c0,0-0.8,1.1-1.1,1.5C9.9,3.1,9.7,3.3,9.5,3.2C9.3,3.1,9.7,2.6,9.9,2.4c0.2-0.3,1.1-1.5,1.1-1.5l-0.6-0.3c0,0-0.3,0.5-0.4,0.4
				c-0.1-0.1,0.2-0.4,0.2-0.4L9.7,0.5z"/>
			<path fill="#333333" d="M12.7,3.9c0,0,0.2-0.4,0.5-0.4c0.3,0,0.3,0.3,0.3,0.6c0,0.3-0.1,1.4,0,2c0,0.5,0.2,2.2,0.3,3c0.1,0.8,0.4,1.6,0.7,1.6
				c0.2,0,0.6-0.4,0.7-0.3c0.1,0.1-0.1,0.6-0.5,0.7c-0.4,0.1-0.9,0-1.1-1.2c-0.2-1.2-0.7-3.3-0.7-4.2C12.8,4.8,12.7,3.9,12.7,3.9z"
				/>
			<path fill="#333333" d="M12.7,6.4L13,6.6l0.4,2.3c0,0-0.3,0.6-0.3,1.2c0,0.5,0.3,0.5,0.6,0.3l0.2,0.4c0,0-0.5,0.7-1,0.2
				C12.4,10.4,12.7,7.4,12.7,6.4z"/>
			<path fill="#333333" d="M12.8,8c0,0-1,1.3-1.4,1.7L10.7,11c0,0,0.1,0.2,0.4,0.1c0.2-0.1,0.3-0.3,0.4-0.5c0.1-0.2,1.3-1.4,1.3-1.4L12.8,8z"/>
			<path fill="#333333" d="M12.7,9.6c0,0-0.8,0.8-1.2,1.5c-0.4,0.7-0.7,1.2-0.7,1.5c0,0.3,0.3,0.3,0.6,0.2c0.3-0.1,0-0.1,0.2-0.5
				c0.2-0.4,1.3-1.8,1.3-1.8L12.7,9.6z"/>
			<path fill="#333333" d="M13.7,10.2c0,0-0.9,0.7-1.3,1.2c-0.4,0.5-1.1,1.5-1.3,1.8C11,13.5,11,13.9,11.2,14c0.2,0.1,0.5-0.5,0.7-0.7
				c0,0-0.2,0.6,0.1,0.7c0.3,0.1,0.7-0.1,0.7-0.1s0-0.4,0.2-0.7c0.2-0.3,1.7-2.2,1.7-2.2S14.2,11,14,10.9
				C13.9,10.8,13.7,10.2,13.7,10.2z"/>
			<path fill="#333333" d="M13.4,12.3c0,0,1.3-0.6,1.9-1.3l-0.4,1.3c0,0-1.4,0.9-2.4,0.9L13.4,12.3z"/>
			<path fill="#333333" d="M14.7,11.9c0,0,0.4-0.6,0.5-0.9c0.1-0.3,0.4-0.4,0.5,0c0.1,0.4,0,1.3-1.2,2.3c-1.2,1-2.8,1.3-3.3,1.2
				c-0.5,0-0.6-0.2-0.6-0.5c0-0.3,0.7-0.2,1.1-0.2c0.3,0,1.4-0.1,1.9-0.5C14,12.9,14.7,11.9,14.7,11.9z"/>
			<path fill="#333333" d="M3.3,5.8c0,0,0-0.2,0.2-0.2c0.2,0,0.2,0.8,0.1,1.6C3.6,7.8,3,9.3,2.5,10.2C2,11,1.3,11.4,0.9,11.3
				c-0.4,0-0.9-0.4-0.8-1.1c0.1-0.7,1.1-0.6,1.1,0c0,0-0.3-0.2-0.6,0C0.4,10.4,0.5,11,1,10.9c0.5-0.1,1.5-1.5,1.8-2.8
				C3.1,6.7,3.3,5.8,3.3,5.8z"/>
			<path fill="#333333" d="M4.2,5.5c0,0-0.1-0.1-0.3-0.1c-0.1,0-0.3,0.4-0.3,0.4s0,2.1-0.2,2.7c-0.1,0.6-0.4,1.4-0.6,1.7c-0.2,0.3-0.8,0.9-0.6,1.1
				c0.2,0.2,0.8-0.3,1.1-1.1c0.3-0.8,0.7-1.7,0.8-3L4.2,5.5z"/>
			<path fill="#333333" d="M2.8,10.9c0,0-0.8,1-1.1,1.3c-0.2,0.4-0.4,1,0.2,0.9c0,0-0.3,0.5,0.1,0.5c0.3,0.1,0.7-0.2,0.7-0.2s0,0.3,0.2,0.3
				c0.2,0,0.4-0.1,0.5-0.3c0.1-0.2,0.2-0.4,0.2-0.4l0.2-0.1c0,0-0.2,0.5,0,0.7c0.3,0.1,0.4,0,0.5-0.2c0.2-0.2,0.3-0.5,0.5-0.8
				C5,12.5,5,12,4.6,12c0,0,0.2-0.4,0-0.6c-0.2-0.3-0.6,0.3-0.8,0.5c-0.2,0.3-0.7,0.8-0.7,0.8s0.6-0.9,0.9-1.3
				c0.3-0.4,0.7-1,0.2-1.1l0.4-0.4L4.4,9.3c0,0-0.4,0.3-0.7,0.7C3.4,10.3,2.8,10.9,2.8,10.9z"/>
			<path fill="#333333" d="M2.4,10.1c0,0,0.4-0.3,0.7,0.1L2.5,11l-0.4,0.4L2,11.9l-0.4,0.7c0,0-0.4,0.3-0.6,0c-0.2-0.3,0.2-0.9,0.2-0.9
				S1,11.2,1.2,11.1C1.2,11.1,2.1,10.6,2.4,10.1z"/>
			<path fill="#333333" d="M0.7,10c0,0,0,1.1,0.1,1.7C1,12.3,1.2,13,1.5,13.3c0.3,0.3,0.7,0.4,0.9,0.5c0.2,0,0.3,0,0.3,0.1c0,0.1-0.5,0.4-1.1,0.1
				c-0.6-0.3-1.1-0.9-1.4-2.3c-0.3-1.4,0-1.6,0-1.6L0.7,10z"/>
			<path fill="#333333" d="M5.5,12.9c0,0-0.2-0.2-0.5,0c-0.3,0.2-0.6,1.1-0.2,1.2c0,0,0,0.2-0.5,0.4c-0.5,0.1-0.7,0-0.9,0c-0.1-0.1-0.4-0.1-0.4,0.3
				c0,0.3,0.7,0.5,1.2,0.4s1.4-0.7,1.5-1.5L5.5,12.9z"/>
			<path fill="#333333" d="M6.7,14.2c0,0-0.3-0.2-0.2,0.5c0.1,0.7,0.2,1.7,0.2,2.1c0,0.4-0.1,0.9-0.3,1c-0.1,0.2-0.1,0.4,0.1,0.5
				c0.2,0.1,0.4-0.3,0.5-0.8c0.1-0.5,0.2-1.6,0.1-2.2C7.1,14.8,7,14.2,7,14.2L6.7,14.2z"/>
			<path fill="#333333" d="M9,13.8c0,0-0.1,0.4-0.1,1.2c0,0.8,0,1.8,0,2c0,0.2,0,1.2,0.3,1.2c0.3,0,0.3-0.8,0.3-1.1c0-0.4-0.1-1.8-0.1-2.2
				C9.4,14.4,9.4,13.7,9,13.8z"/>
			<path fill="#333333" d="M6.9,16c0,0,0.9-0.1,1.4-0.1c0.5,0,1.2,0.2,1.3,0.3c0.1,0.2,0.1,0.5-0.2,0.5c-0.3,0-1.2-0.2-1.7-0.2
				c-0.5,0-1.2,0.3-1.3,0C6.3,16.3,6.5,16.1,6.9,16z"/>
			<path fill="#333333" d="M9.7,16.9c0,0-0.4,0.1-0.7,0.2c-0.2,0.1-0.3,0.5-0.2,0.7c0,0.2,0.2,0.5,0.5,0.5c0.3,0,0.7-0.3,0.8-0.6
				c0.1-0.2,0-0.7,0-0.7s0.5-0.9,1.7-1.3c1.2-0.4,1.6-0.1,1.7,0c0.1,0,0.3,0,0.3-0.1c0-0.2-0.3-0.8-1.1-0.8
				C11.9,14.8,10.5,15.4,9.7,16.9z"/>
			<path fill="#333333" d="M9.9,17.2c0,0,0.9-0.3,1.7-0.7c0.7-0.3,1.5-0.9,1.9-1.1c0.4-0.3,0.4-0.6,0.7-0.5c0.3,0.1,0.2,0.4,0,0.6
				c-0.2,0.2-1.2,1-1.9,1.4c-0.7,0.4-1.3,0.4-1.3,0.4s0.4,0.2,0.6,0.6c0.3,0.4,0.7,1.2,1,1.4L12,19.6c0,0-0.4-0.6-0.7-1.1
				c-0.2-0.5-0.9-0.8-1.5-0.7L9.9,17.2z"/>
			<path fill="#333333" d="M10.3,17.6c0,0,0.2,0.8,0.6,1.3c0.5,0.4,0.9,0.5,1.3,0.6c0.4,0.1,0.7,0,0.9,0c0.1,0,0.1,0.1-0.1,0.3
				c-0.2,0.2-0.7,0.4-1.4,0.2c-0.7-0.1-1.3-0.5-1.6-1.1c-0.3-0.6-0.1-1.2-0.1-1.2L10.3,17.6z"/>
			<path fill="#333333" d="M10.2,18.5c0,0-0.3,0-0.5,0.4c-0.2,0.3,0.1,0.7,0.9,0.5L10.2,18.5z"/>
			<path fill="#333333" d="M2.4,18.9c0,0,1.2-0.1,1.7-0.1c0.5-0.1,1.4-0.2,2.2-0.2c0.8,0,2.6,0.1,3,0.1c0.4,0.1,0.5,0.2,0.5,0.3
				c0,0.2-0.1,0.4-0.5,0.3c-0.4-0.1-2.4-0.1-2.6-0.2c-0.2-0.1-0.3,0.2-0.8,0.1c-0.4-0.1-3.1,0.1-3.1,0.1s0,0.3-0.2,0.5
				c-0.2,0.2-0.6,0.2-0.6,0.2s0.3,1.3,0.5,2.3c0.2,1,0.5,2.8,0.5,3.6c0,0.8,0,2.3,0,3.2C2.9,30,3,31.5,3,31.8c0,0.3-0.2,0.4-0.3-0.1
				c-0.1-0.4-0.4-2.3-0.4-2.9c0-0.7,0.2-2.7,0-3.8c-0.2-1.1-0.4-2.6-0.6-3.3c-0.2-0.8-0.3-1.3-0.5-1.6c-0.1-0.2-0.2-0.3,0-0.5
				c0.2-0.2,0.4-0.3,0.6-0.5C2.1,18.9,2.1,18.8,2.4,18.9z"/>
			<path fill="#333333" d="M4.8,29.8c0,0,0,0.8-0.1,1.2c-0.1,0.4-0.2,0.8,0,1c0.2,0.1,0.6,0.1,0.6-0.5c0-0.6,0.1-2.6,0-3.4
				c-0.1-0.8-0.3-2.4-0.4-3.1c0-0.7,0-1.1-0.2-1.4c-0.2-0.2-0.5-0.2-0.5,0.4c-0.1,0.6,0.2,1.6,0.3,2.4C4.6,27.3,4.8,29.2,4.8,29.8z"
				/>
			<path fill="#333333" d="M8.4,31.9c0,0-0.2,0-0.1-0.6c0.1-0.6,0.3-1.9,0.3-3c0-1.1,0.1-2.9,0.3-3.6c0.1-0.7,0.3-1.1,0.5-1c0.2,0,0.1,1,0,1.8
				c-0.1,0.9-0.1,2-0.2,2.9c-0.1,0.9-0.1,1.8-0.2,2.1C9,31,8.8,32,8.8,32L8.4,31.9z"/>
			<path fill="#333333" d="M11.4,27.7c0,0,0.3-1.5,0.7-2.5c0.3-1,0.5-2.1,0.6-3c0.1-0.9,0.3-1.5,0.5-1.9c0.1-0.4,0.4-0.6,0.5-0.4
				c0.1,0.2-0.2,1.2-0.3,1.7c-0.1,0.5-0.5,2.2-0.7,2.8c-0.2,0.6-0.7,2.2-0.7,3c0,0.8-0.2,1.6-0.2,2.4c0,0.8,0.1,1.6-0.3,1.7
				c-0.4,0-0.3-0.7-0.3-1.4C11.3,29.4,11.4,28.1,11.4,27.7z"/>
		</g>
	</g>
</g>
</svg>
