<svg xmlns="http://www.w3.org/2000/svg" viewBox="0 0 35 35"><defs><style>.cls-1{fill:#fafafa;}.cls-2{fill:#e6e6e6;}.cls-3{fill:gray;}</style></defs><title>Default Avatar</title><g id="Background"><rect class="cls-1" x="-3630.74" y="-2835.72" width="16383" height="16383"/></g><g id="Content"><rect class="cls-2" width="35" height="35"/><path class="cls-3" d="M26.46,25.49a52.21,52.21,0,0,0-5.91-1.67c-.3,0-.34-2.1-.05-2.11a2.46,2.46,0,0,0,1.74-.26c-.65-.14-1.37-.52-.32-.4.56.08,1.86-.3,2-.91-.49-.16-.69-.91-.74-1.11a1.48,1.48,0,0,0,1.68.13s-.89-.63-.72-1.38c.13.64,1,.65,1,.65a1.61,1.61,0,0,1-.05-2.1c.63-.91.75-3,.09-4.83C24.24,9,21.6,4.24,18,5.1a1.92,1.92,0,0,0-.7.42,2.75,2.75,0,0,0-.91-.31h-.08A5.18,5.18,0,0,0,13,6.33c-1.32,1-1.84,2.67-2.44,4.17-.91,2.29-1.34,4.42-.08,6.51.39.65-.71,1.39-.71,1.39a1.23,1.23,0,0,0,1.08-.53,1.2,1.2,0,0,1-.82,1,2.57,2.57,0,0,0,1.75.22s.14.59-.7.81a2,2,0,0,0,2.22,1c1.2-.32.33.36-.42.39.48.48,1.61.32,1.61.32.29,0,.25,2.22-.05,2.21a51.64,51.64,0,0,0-5.91,1.67C6.14,26.88,5.46,28.93,5.27,35H29.73C29.54,28.93,28.86,26.88,26.46,25.49Z"/></g></svg>