<?xml version="1.0" encoding="utf-8"?>
<!-- Generator: Adobe Illustrator 16.0.0, SVG Export Plug-In . SVG Version: 6.00 Build 0)  -->
<!DOCTYPE svg PUBLIC "-//W3C//DTD SVG 1.1//EN" "http://www.w3.org/Graphics/SVG/1.1/DTD/svg11.dtd">
<svg version="1.1" id="Layer_1" xmlns="http://www.w3.org/2000/svg" xmlns:xlink="http://www.w3.org/1999/xlink" x="0px" y="0px"
	 width="20.001px" height="22.688px" viewBox="0 0 20.001 22.688" enable-background="new 0 0 20.001 22.688" xml:space="preserve">
<path fill="#0071a5" d="M17.577,11.799c0.496-1.148,1.154-2.231,1.791-3.278c0.146-0.24,0.292-0.48,0.437-0.722
	C19.923,7.6,19.98,7.4,19.993,7.129c0.031-0.63-0.025-2.309-0.223-2.496c-0.026-0.025-0.053-0.026-0.07-0.026
	c-0.532,0.056-1.263,0.143-1.716,0.215c-0.271,0.043-0.544,0.089-0.818,0.136c-1.106,0.187-2.25,0.376-3.363,0.36
	c-0.204-0.004-0.511-0.011-0.678-0.213c-0.317-0.338-0.597-0.649-0.867-0.95c-0.554-0.616-1.032-1.147-1.635-1.694
	c-0.386-0.35-0.741-0.725-1.085-1.089c-0.31-0.327-0.631-0.667-0.976-0.989c-0.097-0.091-0.197-0.18-0.296-0.267L8.15,0.013
	C8.133-0.003,8.108-0.004,8.089,0.009C7.788,0.215,7.726,0.497,7.671,0.745C7.662,0.788,7.653,0.83,7.642,0.871
	C7.4,1.839,7.196,2.774,6.999,3.678c-0.2,0.918-0.407,1.867-0.654,2.848C6.31,6.665,6.055,7.022,5.931,7.105
	C5.058,7.689,4.043,8.179,2.829,8.601C2.17,8.83,1.518,9.116,0.887,9.392C0.746,9.454,0.604,9.516,0.462,9.577
	c-0.319,0.139-0.478,0.368-0.46,0.663c0.028,0.464,0.059,0.957,0.105,1.437c0.012,0.115,0.06,0.277,0.159,0.356
	c0.307,0.248,0.571,0.434,0.831,0.585c0.323,0.188,0.655,0.371,0.977,0.549c0.502,0.278,1.022,0.565,1.517,0.873
	c0.299,0.185,0.588,0.402,0.868,0.611c0.308,0.232,0.627,0.47,0.964,0.67c0.469,0.28,0.601,0.687,0.673,1.085
	c0.01,0.054,0.015,0.109,0.019,0.164l0.004,0.044c0.046,0.534,0.09,1.068,0.133,1.603c0.087,1.078,0.177,2.193,0.295,3.287
	c0.012,0.109,0.021,0.218,0.03,0.324c0.036,0.435,0.065,0.78,0.251,0.848c0.021,0.008,0.043,0.012,0.066,0.012
	c0.105,0,0.236-0.081,0.404-0.249c0.266-0.265,0.529-0.543,0.783-0.811c0.455-0.481,0.926-0.978,1.428-1.421
	c0.517-0.457,1.075-0.887,1.614-1.303c0.388-0.299,0.79-0.608,1.174-0.926c0.373-0.308,0.791-0.387,1.354-0.256l0.343,0.08
	c0.687,0.161,1.398,0.326,2.098,0.481c0.434,0.096,0.869,0.187,1.304,0.279c0.434,0.092,0.868,0.183,1.302,0.279
	c0.213,0.047,0.428,0.108,0.656,0.172c0.112,0.033,0.23,0.065,0.354,0.099c0.014,0.003,0.029,0.002,0.041-0.006
	c0.011-0.008,0.02-0.02,0.022-0.035l0.009-0.063c0.063-0.404,0.134-0.86-0.026-1.293c-0.243-0.66-0.521-1.319-0.789-1.956
	c-0.1-0.235-0.199-0.47-0.296-0.706c-0.042-0.1-0.087-0.198-0.133-0.296c-0.044-0.096-0.088-0.191-0.128-0.288
	C18.31,14.235,18.215,14,18.12,13.765c-0.195-0.481-0.396-0.978-0.611-1.46c-0.079-0.178-0.024-0.3,0.045-0.454L17.577,11.799z
	 M16.213,17.607c-0.012,0.078-0.024,0.158-0.026,0.24c-0.111-0.168-0.108-0.345-0.008-0.74
	C16.263,17.272,16.238,17.436,16.213,17.607 M16.39,17.969l0.068-0.862c0.268,0.186,0.244,0.397,0.218,0.639
	c-0.01,0.088-0.02,0.179-0.014,0.269C16.56,17.998,16.475,17.984,16.39,17.969 M18.193,18.37l-1.251-0.256v-0.843l1.146,0.324
	L18.193,18.37z M18.469,18.352c-0.019,0.001-0.038,0.001-0.058,0.002l-0.032-0.645l0.039-0.003L18.469,18.352z M14.141,17.471
	c-0.145-0.224-0.145-0.349-0.023-0.765C14.222,16.873,14.232,17.016,14.141,17.471 M13.771,17.343v-0.736
	c0.011-0.001,0.021-0.001,0.031-0.002c0.047,0.128,0.032,0.262,0.017,0.403c-0.013,0.109-0.025,0.222-0.008,0.335H13.771z
	 M13.486,17.225c-0.134-0.195-0.14-0.349-0.048-0.701c0.047,0.159,0.045,0.302,0.043,0.453C13.48,17.058,13.479,17.14,13.486,17.225
	 M13.143,17.122c-0.073-0.205-0.125-0.409-0.037-0.664C13.212,16.697,13.185,16.907,13.143,17.122 M12.581,17.348l-0.051,0.001
	v-0.473C12.592,17.045,12.597,17.193,12.581,17.348 M7.975,21.057c-0.087-0.121-0.076-0.253-0.053-0.399l0.015,0.002L7.975,21.057z
	 M7.62,21.531c-0.061-0.192-0.066-0.348-0.013-0.5C7.682,21.181,7.728,21.335,7.62,21.531 M18.729,17.815l0.127,0.51
	c0.006,0.023,0.026,0.038,0.048,0.038c0.028-0.004,0.046-0.019,0.05-0.043l0.084-0.581c0.138,0.175,0.133,0.346,0.128,0.526
	c-0.003,0.084-0.005,0.171,0.007,0.26l-0.444-0.055V17.815z M12.19,17.659c-0.139-0.253-0.131-0.461,0.023-0.661
	C12.309,17.231,12.333,17.439,12.19,17.659 M9.004,19.987c-0.005,0.06-0.065,0.125-0.122,0.188c0,0.001-0.001,0.002-0.002,0.002
	c-0.046-0.278-0.039-0.517,0.094-0.731c0.003,0.021,0.005,0.043,0.008,0.065C9,19.668,9.018,19.832,9.004,19.987 M8.664,19.853
	l0.129,0.431c-0.183,0.336-0.202,0.363-0.516,0.569C8.108,20.405,8.22,20.118,8.664,19.853 M9.333,19.791l-0.114,0.153
	c-0.055-0.22-0.102-0.409-0.148-0.597l0.127-0.043L9.333,19.791z M9.833,18.677c0.251,0.523,0.172,0.736-0.394,1.042
	c-0.002-0.039-0.004-0.078-0.011-0.117C9.354,19.184,9.486,18.881,9.833,18.677 M6.642,19.036c-0.005-0.056-0.01-0.112-0.015-0.17
	c-0.061-0.699-0.131-1.494-0.232-2.275c-0.022-0.174-0.053-0.349-0.083-0.517c-0.071-0.397-0.143-0.806-0.104-1.218
	C6.466,16.171,6.694,17.639,6.642,19.036 M17.118,10.556c0.02,0.073,0.039,0.141,0.059,0.208c0.019,0.062,0.04,0.123,0.072,0.216
	l0.063,0.19c0.008,0.023,0.031,0.038,0.056,0.033s0.042-0.026,0.041-0.051c-0.007-0.154-0.031-0.301-0.055-0.442
	c-0.059-0.351-0.11-0.658,0.151-0.926l0.151,0.874c-0.004,0.007-0.005,0.015-0.005,0.023c0.004,0.285-0.145,0.5-0.307,0.724
	C17.029,11.084,16.962,10.841,17.118,10.556 M17.945,8.985c0.009,0.045,0.018,0.09,0.027,0.135c0.112,0.552,0.209,1.034-0.214,1.442
	l-0.007-0.213c-0.008-0.295-0.017-0.589-0.02-0.883C17.729,9.268,17.795,9.116,17.945,8.985 M10.345,18.261l0.195,0.622
	l-0.333,0.214C10.05,18.688,10.088,18.452,10.345,18.261 M10.944,17.804c0.078-0.054,0.17-0.12,0.278-0.203
	c0.08-0.061,0.166-0.114,0.258-0.169c0.024-0.015,0.048-0.03,0.073-0.046c0.152,0.601,0.135,0.613-0.331,0.955l-0.01,0.007
	c-0.154,0.114-0.304,0.238-0.45,0.358c-0.041,0.034-0.083,0.069-0.124,0.103C10.554,18.08,10.568,18.07,10.944,17.804
	 M11.885,16.194c-0.156,0.169-0.291,0.316-0.445,0.443l-0.215,0.178c-1.307,1.078-2.657,2.193-3.839,3.457
	c-0.033,0.035-0.083,0.06-0.146,0.09c-0.013,0.007-0.027,0.014-0.042,0.021c-0.021-0.338-0.042-0.672-0.062-1.003
	c-0.051-0.84-0.1-1.634-0.165-2.439c-0.036-0.433-0.097-0.869-0.156-1.29c-0.032-0.223-0.063-0.446-0.091-0.669
	c-0.042-0.336-0.078-0.64-0.1-0.949c-0.035-0.481-0.154-0.582-0.607-0.729c-0.233-0.076-0.481-0.194-0.757-0.362
	c-1.083-0.654-2.183-1.33-3.271-2.009c-0.283-0.176-0.562-0.367-0.858-0.569c-0.141-0.096-0.287-0.196-0.442-0.3
	c-0.001-0.003-0.001-0.008,0.001-0.014c0.039-0.125,0.488-0.362,0.879-0.509c1.984-0.633,2.982-1.148,4.364-1.86l0.082-0.043
	c0.067-0.035,0.139-0.061,0.214-0.089c0.059-0.023,0.118-0.045,0.175-0.071C6.45,7.457,6.49,7.44,6.524,7.425
	c0.243-0.104,0.252-0.131,0.404-0.594c0.11-0.688,0.305-1.442,0.344-1.591C7.4,4.531,7.467,4.045,7.527,3.616
	c0.096-0.692,0.166-1.192,0.427-2.147C7.973,1.401,7.986,1.32,7.999,1.236c0.033-0.211,0.07-0.451,0.21-0.459
	c0.012,0,0.024-0.006,0.032-0.014C8.244,0.76,8.248,0.757,8.258,0.757c0.092,0.001,0.29,0.207,0.375,0.296l0.008,0.009
	C8.88,1.31,9.157,1.604,9.442,1.905c0.406,0.431,0.827,0.875,1.17,1.228c0.27,0.276,0.511,0.548,0.745,0.811
	c0.259,0.291,0.526,0.592,0.83,0.897c0.243,0.245,0.48,0.503,0.709,0.754l0.201,0.219c0.173,0.189,0.299,0.167,0.575,0.118
	c0.078-0.014,0.169-0.029,0.28-0.045l0.178-0.024c0.289-0.039,0.648-0.088,0.89-0.114c0.609-0.067,1.029-0.13,1.515-0.203
	c0.208-0.031,0.43-0.064,0.686-0.101c0.267-0.038,0.506-0.079,0.737-0.118c0.453-0.077,0.849-0.144,1.249-0.152
	c-0.891,2.009-2.731,5.312-2.919,5.587c-0.145,0.213,0.318,1.206,0.987,2.586c0.226,0.466,0.421,0.868,0.522,1.118
	c0.176,0.436,0.376,0.87,0.568,1.29c0.101,0.219,0.202,0.439,0.3,0.659c0.055,0.126,0.105,0.253,0.163,0.399
	c0.02,0.052,0.041,0.106,0.064,0.162c-1.053-0.122-2.091-0.32-3.095-0.51c-1.247-0.238-2.425-0.461-3.623-0.553
	c-0.015-0.002-0.029,0.005-0.039,0.015C12.045,16.021,11.963,16.11,11.885,16.194 M11.242,18.388L11.242,18.388z M19.576,5.851
	c0.12,0.438,0.12,1.183-0.025,1.626c-0.003-0.167-0.016-0.327-0.028-0.484C19.493,6.603,19.464,6.234,19.576,5.851 M19.125,7.369
	c-0.005-0.135-0.011-0.271-0.019-0.406c-0.011-0.204,0.013-0.363,0.161-0.505c0.007,0.051,0.015,0.103,0.022,0.154
	c0.068,0.46,0.132,0.897-0.004,1.4c-0.053-0.156-0.094-0.278-0.132-0.391l-0.022-0.064c0.001-0.003,0.001-0.006,0.001-0.008
	L19.125,7.369z M18.526,7.695l0.173,0.898c-0.006,0.011-0.007,0.024-0.004,0.036c0.08,0.302-0.045,0.516-0.27,0.729
	c0.001-0.163-0.021-0.328-0.042-0.487C18.331,8.493,18.279,8.103,18.526,7.695 M18.902,7.078l0.121,0.446
	c-0.001,0.004-0.001,0.008-0.001,0.013c0.003,0.08,0.009,0.16,0.014,0.241c0.013,0.178,0.026,0.362,0.007,0.537l-0.002,0.02
	c-0.01,0.091-0.023,0.217-0.09,0.256c-0.033,0.02-0.083,0.018-0.146-0.004c-0.004-0.091-0.008-0.182-0.011-0.272
	c-0.01-0.244-0.019-0.496-0.041-0.744C18.735,7.379,18.736,7.218,18.902,7.078 M0.693,11.775c-0.317-0.204-0.322-0.693-0.255-1.115
	c0.203,0.262,0.221,0.57,0.24,0.894C0.682,11.627,0.687,11.701,0.693,11.775 M1.633,12.389v-0.931
	c0.098,0.041,0.196,0.082,0.288,0.12v0.971c-0.073-0.109-0.075-0.229-0.076-0.355c-0.002-0.124-0.003-0.252-0.077-0.367
	c-0.009-0.015-0.025-0.023-0.042-0.023c-0.004,0-0.007,0-0.011,0.001c-0.021,0.005-0.036,0.023-0.038,0.044L1.633,12.389z
	 M1.349,12.038c-0.005,0.025-0.009,0.05-0.013,0.075l-0.042,0.003v-0.797C1.432,11.546,1.392,11.786,1.349,12.038 M1.082,12.026
	c-0.173-0.284-0.214-0.547-0.158-0.964c0.105,0.212,0.121,0.448,0.139,0.715C1.068,11.858,1.074,11.941,1.082,12.026 M4.592,14.091
	c0,0.018-0.001,0.034-0.001,0.051c-0.132-0.201-0.15-0.472-0.062-0.88C4.609,13.529,4.601,13.804,4.592,14.091 M3.967,13.394
	l-0.103,0.355c-0.119-0.066-0.238-0.132-0.355-0.197c-0.39-0.214-0.758-0.417-1.123-0.639c-0.105-0.064-0.205-0.215-0.219-0.329
	c-0.025-0.203-0.02-0.411-0.015-0.632c0.002-0.075,0.003-0.152,0.004-0.23c0.269,0.058,0.477,0.198,0.679,0.333
	c0.085,0.057,0.173,0.117,0.264,0.168c0.213,0.12,0.423,0.252,0.626,0.38c0.081,0.051,0.162,0.101,0.242,0.151v0.634
	C3.967,13.39,3.967,13.392,3.967,13.394 M4.076,13.363l0.141-0.487c0.109,0.258,0.1,0.498,0.09,0.731
	c-0.005,0.136-0.011,0.277,0.008,0.418c-0.282-0.096-0.266-0.279-0.248-0.489c0.005-0.055,0.01-0.112,0.009-0.167
	C4.076,13.367,4.076,13.365,4.076,13.363 M5.166,14.664L5.042,13.5c0.231,0.174,0.259,0.434,0.156,1.162
	C5.188,14.663,5.177,14.663,5.166,14.664 M4.842,13.706l0.035,0.573C4.813,14.092,4.813,13.901,4.842,13.706 M5.555,15.002
	c-0.1-0.316-0.092-0.605-0.083-0.91c0.003-0.132,0.007-0.268,0.002-0.408c0.028,0.017,0.055,0.032,0.08,0.046
	c0.049,0.028,0.117,0.066,0.124,0.082C5.708,14.166,5.724,14.549,5.555,15.002 M5.987,14.189l-0.072,0.86
	C5.853,14.76,5.879,14.45,5.987,14.189 M15.883,17.098c-0.006,0.181-0.018,0.364-0.031,0.557c-0.005,0.069-0.01,0.14-0.015,0.214
	l-0.57-0.11l-0.071-0.898c0.286,0.024,0.292,0.062,0.4,0.692c0.005,0.026,0.026,0.041,0.054,0.041
	c0.025-0.002,0.045-0.023,0.045-0.049v-0.593c0.069-0.013,0.12-0.01,0.148,0.012S15.885,17.031,15.883,17.098 M14.8,16.737
	c0.012,0.003,0.024,0.007,0.036,0.011c0.031,0.009,0.082,0.023,0.101,0.034c0.028,0.239,0.042,0.479,0.058,0.734l0.01,0.165
	C14.703,17.572,14.671,17.399,14.8,16.737"/>
</svg>
