<?xml version="1.0" encoding="utf-8"?>
<!-- Generator: Adobe Illustrator 23.0.1, SVG Export Plug-In . SVG Version: 6.00 Build 0)  -->
<svg version="1.1" id="Layer_1" xmlns="http://www.w3.org/2000/svg" xmlns:xlink="http://www.w3.org/1999/xlink" x="0px" y="0px"
	 viewBox="0 0 39.2 40" style="enable-background:new 0 0 39.2 40;" xml:space="preserve">
<g>
	<path d="M17.2,12.1c-3.4,0.9-5.4,4.2-5.5,7.5c-0.1,4.5,3.3,8.4,7.7,9.2c2.7,0.6,5.8-0.7,7.6-2.9c2.5-3.2,2.2-7.4-0.2-10.6
		C24.6,12.4,20.6,11.2,17.2,12.1z M25.5,14.8L25.5,14.8c0-0.1,0.1-0.2,0.1-0.2c0,0,0.1,0.1,0.4,0.4c0,0,0.1,0.1,0,0.2
		c0,0,0,0.1,0,0.1c0.1,0,0.1,0.1,0,0.2c-0.1,0.1-0.1,0.1-0.2-0.1c-0.1-0.1-0.2-0.2-0.2-0.2C25.4,15.1,25.4,15,25.5,14.8z M24.5,13.9
		c0-0.1,0-0.1,0.1-0.1c0.1,0,0.6,0.5,0.6,0.6c0,0.1-0.1,0.4-0.1,0.3c0,0-0.1-0.1-0.2-0.2c-0.1-0.1-0.2-0.2-0.2-0.2
		c-0.1,0-0.2-0.1-0.1-0.2C24.5,14.1,24.5,14,24.5,13.9z M21.8,12.7c0-0.1,0.1-0.1,0.5,0c0.3,0.1,0.7,0.2,0.9,0.3
		c0.4,0.2,1,0.5,1.1,0.6c0,0,0,0.1,0,0.3l0,0.2L24.1,14c-0.1-0.1-0.2-0.1-0.2-0.1c0,0-0.1-0.1-0.1-0.1c0,0-0.1-0.1-0.2-0.2
		c-0.1-0.1-0.3-0.2-0.5-0.3c-0.2-0.1-0.5-0.3-0.8-0.3c-0.2-0.1-0.4-0.1-0.4-0.2S21.8,12.8,21.8,12.7z M21.1,12.6
		c0.5,0.1,0.5,0.1,0.4,0.2c0,0.1-0.1,0.1-0.1,0.1c0,0-0.2,0-0.4-0.1c-0.3,0-0.3,0-0.3-0.1c0-0.1,0-0.1,0-0.1
		C20.7,12.5,20.9,12.5,21.1,12.6z M19.9,12.4L19.9,12.4c0.2,0,0.3,0,0.4,0c0,0,0.1,0,0.1,0.1c0,0.1,0,0.1-0.1,0.1
		c-0.2,0-0.5,0-0.6-0.2C19.5,12.4,19.5,12.4,19.9,12.4z M18.7,12.4c0.4,0,0.4,0,0.5,0.1c0,0.1,0.1,0.1,0.1,0.2c0,0-0.1,0-0.2,0
		c-0.1,0-0.3,0-0.4,0c-0.1,0-0.2,0-0.3-0.2c-0.1-0.1-0.1-0.2-0.1-0.2C18.3,12.4,18.5,12.4,18.7,12.4z M15.7,13.1
		C15.8,13,16,13,16,12.9c0-0.1,1.2-0.4,1.5-0.5h0c0.3,0,0.3,0,0.5,0.2c0.1,0.2,0.1,0.3,0,0.3c0,0-0.1,0-0.2,0
		c-0.1,0-0.2,0.1-0.4,0.1l-0.3,0.1L17,12.9c-0.2-0.2-0.3-0.2-0.3,0c0,0.1,0,0.2,0.1,0.2c0.1,0,0,0.1-0.3,0.2
		c-0.2,0.1-0.4,0.2-0.6,0.3c-0.1,0.1-0.3,0.1-0.3,0.1s-0.1-0.1-0.1-0.3l0-0.2L15.7,13.1z M14.7,13.7c0.1,0,0.2-0.1,0.3-0.2
		c0.2-0.1,0.2-0.1,0.2,0c0,0.1,0,0.2,0.1,0.3c0.1,0.2,0,0.2,0,0.3c-0.1,0.1-0.2,0.1-0.2,0c0,0-0.1-0.1-0.2-0.1
		C14.6,13.8,14.6,13.7,14.7,13.7z M14.1,14.1c0.1-0.1,0.2-0.1,0.2,0.1c0,0.2,0,0.2-0.1,0.2C13.9,14.4,13.9,14.3,14.1,14.1z
		 M20.2,28.5c-0.2,0-0.2,0,0-0.1c0.2-0.1,0.3-0.1,0.3,0C20.4,28.5,20.3,28.5,20.2,28.5z M20.3,27.9c0,0-0.1,0-0.2,0
		c-0.2,0.1-0.8,0.1-1,0.1c-0.1,0-0.3,0-0.3-0.1c-0.1-0.1-0.2-0.1-0.6-0.1c0,0-0.7,0-1.2-0.4c-0.2-0.1-0.4-0.2-0.5-0.3
		c-0.1-0.1-0.4-0.3-0.7-0.5c-0.2-0.1-0.6-0.5-1.1-0.9c-0.6-0.6-0.7-0.7-0.9-1c-0.1-0.2-0.3-0.5-0.4-0.6c-0.3-0.4-0.7-1.2-0.9-2
		c-0.1-0.4-0.2-1.3-0.1-2.2c0.1-1.5,0.2-2,0.8-3.1c0.4-0.7,0.6-0.9,1.2-1.5c0.6-0.6,1.5-1.2,2-1.4c0.4-0.2,0.5-0.2,0.8-0.3
		c0.2-0.1,0.5-0.1,0.6-0.2c0.1,0,0.3-0.1,0.3-0.1c0,0,0.1,0,0.1,0c0,0,0.5-0.1,0.9-0.2c1.2-0.1,2.4,0,3.3,0.3c0.4,0.2,1,0.5,1.9,1.1
		c0.2,0.2,0.5,0.3,0.5,0.4c0.1,0,0.2,0.1,0.2,0.2c0,0.1,0.1,0.2,0.2,0.2c0.2,0.1,0.5,0.5,0.5,0.6c0,0.1,0,0.2,0.1,0.2
		c0.1,0,0.2,0.1,0.3,0.3c0.1,0.2,0.2,0.3,0.2,0.4c0,0,0.1,0.2,0.2,0.3c0.1,0.3,0.2,0.4,0.4,1c0.4,1.3,0.5,2.8,0.2,3.9
		c-0.1,0.3-0.2,0.5-0.2,0.6c0,0-0.1,0.3-0.2,0.5c-0.2,0.6-0.9,1.6-1.2,1.9c-0.1,0.1-0.2,0.2-0.2,0.3c-0.1,0.2-1,0.8-1.6,1.2
		c-0.5,0.3-1,0.6-1.1,0.5c0,0,0,0-0.1,0c-0.1,0.1-0.6,0.3-1.1,0.5c-0.2,0-0.4,0.1-0.6,0.2C20.6,27.9,20.4,27.9,20.3,27.9z
		 M27.3,22.8c0.1-0.1,0.1-0.1,0.2-0.1c0.1,0,0.1,0.1,0,0.1c0,0-0.1,0-0.1,0.1c0,0.1-0.1,0.1-0.1,0C27.2,22.9,27.2,22.9,27.3,22.8z
		 M22,28.1c-0.1,0.3-0.3,0.4-0.5,0.4c-0.1,0-0.3,0-0.4,0.1l-0.2,0l0.1-0.1c0.1-0.1,0.1-0.2,0.2-0.2c0-0.1,0.1-0.1,0.1-0.1
		s0.2-0.1,0.5-0.1l0.4-0.1L22,28.1z M22.7,27.9c-0.1,0.3-0.2,0.3-0.3,0.4c-0.1,0-0.1,0-0.1-0.1c0-0.1,0.1-0.2,0.1-0.3
		c0.1-0.2,0.1-0.2,0.3-0.3c0.1,0,0.2-0.1,0.2,0C22.9,27.6,22.8,27.8,22.7,27.9z M23.6,27.4c0,0.2-0.1,0.3,0,0.4
		c0,0.1-0.1,0.2-0.3,0.3c-0.1,0-0.3,0.1-0.3,0.1c0,0,0.1-0.2,0.2-0.4c0.2-0.4,0.2-0.4,0.4-0.5l0.2-0.1L23.6,27.4z M24.4,27.2
		c0,0-0.1,0.1,0,0.2c0,0.1,0,0.2,0,0.2c0,0-0.1-0.1-0.1-0.2c0-0.1,0-0.3-0.1-0.4c0-0.1,0-0.1,0.1-0.2c0.1,0,0.1-0.1,0.2-0.1
		C24.5,26.7,24.5,27.2,24.4,27.2z M25,27.1c-0.1,0.1-0.2,0.1-0.2,0.1c0,0,0-0.1,0-0.2c0-0.1,0.1-0.3,0-0.5c0-0.2,0-0.2,0.1-0.3
		c0.1,0,0.1-0.1,0.1-0.1c0,0,0.1,0.2,0.1,0.4l0.1,0.4L25,27.1z M25.7,26.5c-0.1,0-0.1,0.1-0.1,0.1c0,0-0.1,0.1-0.1,0.1
		c0,0-0.1-0.2-0.2-0.5c-0.1-0.2-0.1-0.2,0.1-0.3c0.1-0.1,0.1-0.1,0.2-0.1c0,0,0.1,0.1,0.2,0.3C25.9,26.4,25.9,26.4,25.7,26.5z
		 M26.2,26.1c-0.1,0.1-0.2,0.1-0.4-0.2c-0.2-0.3-0.2-0.4,0-0.5c0.1,0,0.1,0,0.3,0.2C26.3,25.9,26.4,26,26.2,26.1z M26.7,25.5
		c-0.1,0.3-0.2,0.3-0.4-0.1c-0.2-0.3-0.2-0.3-0.2-0.4c0.1-0.2,0.3-0.1,0.5,0.2C26.7,25.3,26.8,25.4,26.7,25.5z M27.2,24.6
		c0,0-0.1,0.2-0.2,0.3l-0.1,0.2L26.8,25c-0.1-0.1-0.2-0.2-0.2-0.3c0-0.1-0.1-0.1-0.1-0.1c0,0,0-0.1,0-0.1c0,0,0.1-0.1,0.1-0.2h0
		c0.1-0.1,0.2-0.1,0.5,0.1C27.2,24.5,27.3,24.5,27.2,24.6z M27.7,23.5c-0.1,0.5-0.2,0.6-0.5,0.5c-0.3-0.1-0.4-0.1-0.2-0.5
		c0.1-0.3,0.2-0.4,0.2-0.3c0,0,0.2,0,0.3,0h0.2L27.7,23.5z M28.1,21.4c0,0,0,0.2,0,0.4c0,0.5-0.1,0.6-0.4,0.6c-0.1,0-0.3,0-0.3,0
		c0,0,0-0.1,0-0.2c0.1-0.2,0.2-0.6,0.2-1c0-0.4,0-0.5,0.2-0.4c0.1,0,0.2,0,0.2,0c0.1,0,0.1,0,0.1,0C28.2,20.9,28.2,21,28.1,21.4z
		 M28.1,19.5c0.1,0.2,0.1,1,0,1c0,0-0.5,0-0.5,0c0,0,0-0.2,0-0.5l0-0.4l0.2-0.1l0.2-0.1L28.1,19.5z M27.8,18.1c0,0,0,0.1,0.1,0.3
		c0,0.1,0.1,0.2,0,0.2c-0.1,0-0.1,0.1,0,0.1c0,0,0.1,0.1,0.1,0.1c0,0.1,0,0.1-0.2,0.3c-0.1,0.1-0.2,0.1-0.2,0.1c0,0-0.1-0.2-0.1-0.5
		l-0.1-0.5l0.2-0.2C27.7,18.1,27.8,18,27.8,18.1z M27.5,17.4C27.5,17.4,27.5,17.4,27.5,17.4c0,0.1-0.1,0.1-0.1,0.1
		C27.4,17.5,27.4,17.5,27.5,17.4C27.4,17.4,27.4,17.4,27.5,17.4z M27.4,17.9c-0.1,0.1-0.2,0-0.2,0c-0.1-0.1,0-0.3,0.1-0.3h0
		C27.6,17.6,27.7,17.8,27.4,17.9z M27.2,17.2c-0.1,0.2-0.2,0.2-0.3,0c-0.1-0.2-0.6-1.1-0.7-1.3c0-0.1,0-0.1,0-0.2
		c0-0.1,0.1-0.1,0.1-0.1c0.1,0.1,0.5,0.6,0.7,1C27.3,17,27.3,17,27.2,17.2z"/>
	<path d="M38.9,22.7c-0.3-0.5-0.9-1-1.4-1.4c-0.2-0.2-0.4-0.3-0.6-0.5c-0.8-0.7-1-0.9-0.9-2c0-0.9,0-1.8-0.3-2.7
		c-0.3-1.3-0.3-1.3,0.6-2.2l0.2-0.2c0.8-0.8,1-1.3,0.6-2.4c-0.4-1.4-1.5-2.9-2.5-3.8c-0.7-0.7-1.2-0.7-2-0.8c-0.2,0-0.5,0-0.7,0
		c-0.3,0-0.6,0-0.8,0.1c-0.3,0-0.6,0.1-0.9,0.3C29.7,7,29.3,7.2,29,7.2c0,0-0.1,0-0.1,0c-0.4,0-0.8-0.5-1.3-0.9
		C27.3,6,27,5.8,26.7,5.6c-0.6-0.3-1.2-0.6-1.9-0.9c-0.3-0.1-0.6-0.2-1-0.3c-0.5-0.1-1-0.2-1.3-0.4c-0.4-0.2-0.4-0.6-0.5-1.1
		c0-0.3-0.1-0.5-0.2-0.8c-0.4-0.9-1-1.6-1.8-1.8C19.6,0.1,19,0,18.2,0c-1.6,0-3.4,0.4-4.7,1.1c-1,0.5-1.3,1.8-1.5,2.9
		c0,0.3-0.1,0.5-0.2,0.8c-0.1,0.6-0.2,0.6-0.7,0.8L11,5.6c-0.4,0.2-0.8,0.5-1.2,0.7L9.6,6.5c-0.5,0.3-1,0.7-1.4,1
		C8.2,7.6,8.1,7.7,7.9,7.9C7.7,8.1,7.3,8.6,7.1,8.6c0,0,0,0,0,0C6.8,8.6,5.9,8.3,5.3,8c-0.7-0.3-1-0.4-1.2-0.4c0,0-0.1,0-0.1,0.1
		C3.9,7.8,3.7,7.8,3.5,7.9C3.2,8,3,8.1,2.8,8.3C2.4,8.6,2.2,9,2,9.3c-0.4,0.7-0.8,1.6-1.1,2.3l-0.1,0.1c-0.1,0.1-0.1,0.3-0.2,0.5
		c-0.3,0.7-0.7,1.5-0.6,2c0.2,0.6,0.9,1,1.7,1.3c0.5,0.2,1.1,0.5,1.3,0.8c0.2,0.4,0.1,1.1,0.1,1.8C3,18.4,3,18.7,3,18.9
		c0,0.8,0.1,1.7,0.3,2.9c0.1,0.8,0,0.9-0.7,1.1c-0.1,0.1-0.3,0.1-0.5,0.2c-0.1,0-0.3,0.1-0.4,0.1c-0.4,0.1-0.7,0.2-0.9,0.4
		c-0.1,0.1-0.1,0.1-0.2,0.2c-0.4,0.3-0.6,0.5-0.5,1.5c0.1,0.4,0.2,0.8,0.3,1.2c0.1,0.2,0.1,0.4,0.2,0.6c0.3,1,0.9,2,1.6,2.8
		c0,0,0.1,0.1,0.2,0.3c0.6,0.7,0.9,1.1,1.1,1.2c0.1,0,0.2,0.1,0.3,0.1c0.1,0,0.2-0.1,0.4-0.1c0.1,0,0.2-0.1,0.3-0.1
		c0.1,0,0.3-0.1,0.5-0.1c0.4-0.1,0.9-0.3,1.3-0.3c0,0,0.1,0,0.1,0c0.3,0,0.9,0.6,1.4,0.9c0.3,0.3,0.6,0.5,0.8,0.6c1,0.6,1,0.9,1,1.7
		c0,0.2,0,0.5,0.1,0.8l0,0.1c0.2,1.5,0.4,2.7,1.9,3.6l0.4,0.2c1,0.5,2.4,1.3,3.6,1.3c0.5,0,0.9-0.1,1.2-0.4c0.4-0.3,0.6-0.7,0.9-1
		c0.2-0.3,0.4-0.6,0.7-0.8c0.3-0.2,0.5-0.3,0.9-0.3c0.2,0,0.3,0,0.5,0c0.2,0,0.4,0,0.7,0c0,0,0.1,0,0.1,0c0.5,0,1-0.1,1.6-0.2
		c0.2,0,0.4-0.1,0.6-0.2c0.3-0.1,0.7-0.2,1-0.2c0,0,0.1,0,0.1,0c0.2,0.1,0.5,0.3,0.7,0.6c0.2,0.3,0.5,0.5,0.7,0.6
		c0.3,0.1,0.5,0.2,0.8,0.2l0.1,0c0.2,0,0.4,0.1,0.6,0.1c1.7,0,3.2-1.1,4.4-2.1c1-0.8,1.6-1.2,1.3-2.5c0-0.2-0.1-0.3-0.1-0.5
		c-0.2-0.9-0.4-1.6,0.1-2.3c0.6-0.8,1.3-1.3,1.9-1.4c0.1,0,0.3,0,0.4,0c0.1,0,0.3,0,0.4,0c0.1,0,0.3,0,0.4,0c0.2,0,0.5,0,0.9-0.2
		C38.3,28.4,39.9,24.4,38.9,22.7z M38.7,22.7c0.1,0.2,0.2,0.5,0.2,0.7C38.9,23.2,38.8,23,38.7,22.7c-0.2-0.3-0.5-0.7-0.9-1
		C38.2,22.1,38.5,22.4,38.7,22.7z M33.7,28.5C33.7,28.5,33.7,28.6,33.7,28.5c-0.1,0.1-0.2,0-0.1,0C33.6,28.4,33.7,28.4,33.7,28.5
		C33.7,28.4,33.7,28.5,33.7,28.5z M33.2,28c-0.2,0.2-0.3,0.4-0.4,0.7C32.9,28.4,33,28.2,33.2,28c0.1-0.1,0.3-0.2,0.5-0.3
		C33.5,27.8,33.3,27.9,33.2,28z M33,29.7c0.1,0,0,0.1,0,0.2C32.9,30,32.8,30,32.8,30c0,0,0-0.1,0-0.2C32.9,29.8,32.9,29.7,33,29.7z
		 M26,37.7c-0.1,0-0.1-0.1,0-0.1c0.1,0,0.2,0,0.2,0c0.1,0.1,0.1,0.1,0,0.1C26.2,37.8,26.1,37.7,26,37.7z M24.3,36.1
		c0.1-0.1,0.2-0.2,0.4-0.1c0.2,0.1,0.2,0.2,0.1,0.3C24.6,36.3,24.3,36.2,24.3,36.1z M7.1,29.9c-0.2,0.1-0.2,0-0.3-0.3
		c-0.1-0.3,0-0.3,0.2,0C7.2,29.8,7.2,29.9,7.1,29.9L7.1,29.9z M0.9,24.6c-0.1-0.2,0-0.2,0.1-0.3c0.2-0.2,0.2-0.1,0.1,0.4
		C1,24.9,0.9,25,0.9,24.9c0,0,0,0,0-0.1S0.9,24.7,0.9,24.6z M1.4,26.9c-0.1,0.1-0.1,0-0.2-0.4c-0.1-0.3-0.1-0.6,0-0.8
		c0-0.2,0.1-0.4,0.1-0.4c0,0,0,0.1,0.1,0.2c0,0.1,0.1,0.3,0.1,0.4C1.5,26,1.5,26.7,1.4,26.9L1.4,26.9z M1.1,13.4
		c-0.1,0,0-0.1,0.1-0.4c0.1-0.2,0.2-0.4,0.2-0.5c0.1-0.4,0.7-1.8,0.9-2.1c0.1-0.2,0.3-0.6,0.4-0.7c0.1-0.2,0.2-0.3,0.2-0.3
		c0,0,0,0.1,0,0.1C2.8,9.6,2.8,9.8,1.8,12C1.3,13.1,1.1,13.5,1.1,13.4z M1.5,14.3c0,0-0.1,0-0.3-0.1c-0.1-0.1-0.1-0.3,0-0.3
		C1.4,14,1.6,14.3,1.5,14.3z M3.1,9.2C3.1,9.1,3.1,9.1,3.1,9.2L3.1,9.2c0,0,0,0.1,0,0.1C3,9.3,3,9.3,3.1,9.2z M12.8,6.4
		c0.5-0.3,0.7-0.7,0.9-1.2C13.5,5.7,13.2,6.2,12.8,6.4c-1,0.6-2.1,1-3,1.7h0C10.6,7.4,11.8,7,12.8,6.4z M12.1,4.7
		c0.1-0.2,0.1-0.5,0.2-0.8C12.2,4.2,12.1,4.5,12.1,4.7L12.1,4.7z M13,3.8c0.1,0,0.1,0.3,0.1,0.4c0,0.1,0,0.1,0,0.2
		c0,0,0,0.1-0.1,0.2c0,0.1-0.2,0.1-0.3,0.1c-0.1,0-0.2,0-0.1,0c0,0,0.1-0.2,0.1-0.3C12.7,4.1,12.9,3.8,13,3.8z M13.1,2.8
		c0.1-0.1,0.2,0,0.1,0.1h0c0,0.1-0.1,0.2-0.2,0.2C13,3.2,13,3,13.1,2.8z M12.8,5.5c0.1-0.1,0.2-0.1,0.1,0c0,0-0.1,0.1-0.2,0.1
		c-0.1,0-0.2,0-0.1,0C12.6,5.6,12.7,5.5,12.8,5.5z M13.3,1.9c0-0.1,0.1-0.1,0.2-0.1c0.1,0,0.1,0.1,0,0.2C13.3,2.2,13.2,2.1,13.3,1.9
		z M15.2,1.2C15.2,1.2,15.2,1.2,15.2,1.2C15.2,1.2,15.2,1.2,15.2,1.2c-1.3,0.6-1.1,2.2-1.4,3.6C14.1,3.4,14,1.8,15.2,1.2z M14.5,0.8
		c0.1,0,0.2-0.1,0.3-0.1C14.7,0.8,14.6,0.8,14.5,0.8z M26.7,6.3c0.2,0.1,0.3,0.2,0.5,0.3C27,6.5,26.8,6.4,26.7,6.3
		c-0.5-0.3-1-0.5-1.6-0.8C25.6,5.8,26.2,6.1,26.7,6.3z M31.6,6.9c0,0,0.8-0.1,1.1-0.1c0.2,0-0.2,0.1-0.6,0.1C31.6,7,31.5,7,31.6,6.9
		z M37.8,26.5c-0.5,1.1-0.8,1.3-1.2,1.3c-0.2,0-0.5,0-0.9-0.1l-0.3,0c-0.1,0-0.2,0-0.4-0.1c-0.3-0.1-0.6-0.1-0.9-0.1
		c-0.4,0-0.8,0.1-1,0.4c-0.3,0.2-0.4,0.6-0.5,0.9c-0.1,0.2-0.2,0.4-0.3,0.6c-0.1,0.1-0.3,0.3-0.5,0.5c-0.4,0.3-0.7,0.6-0.8,0.9
		c0,0.3,0.1,0.7,0.3,1.1c0.1,0.2,0.2,0.5,0.2,0.6l0,0.2c0.1,0.5,0.2,1,0.2,1.4c0,0.6,0,0.6-0.6,1.1l-0.3,0.2c-0.6,0.5-1.2,1-1.8,1.3
		c-0.4,0.2-1.3,0.7-1.9,0.7c-0.1,0-0.1,0-0.2,0c-0.2,0-0.6-0.5-0.8-0.8c-0.1-0.1-0.2-0.2-0.3-0.3c-0.1-0.1-0.2-0.3-0.4-0.5
		c-0.4-0.6-0.7-0.9-0.9-1c0,0-0.1,0-0.2,0c-0.3,0-0.6,0.2-1,0.3c-0.3,0.1-0.5,0.2-0.7,0.3c-0.2,0-0.3,0.1-0.5,0.1
		c-0.7,0.2-1.4,0.3-2.1,0.3l-0.1,0c-0.2,0-0.3,0-0.4,0c-0.1,0-0.2,0-0.3,0c-0.3,0-0.5,0.1-0.8,0.3c-0.4,0.3-0.7,0.8-1,1.3
		c-0.4,0.7-0.9,1.5-1.6,1.7c0,0-0.1,0-0.1,0c-0.6,0-2.1-0.9-3-1.4c-0.2-0.1-0.3-0.2-0.4-0.3c-0.7-0.4-0.7-1.2-0.7-2
		c0-0.3,0-0.6,0-0.9c0-0.2,0-0.4,0-0.5c0-0.5,0-0.9-0.4-1.4c-0.2-0.2-0.4-0.4-0.7-0.6c-0.2-0.1-0.3-0.2-0.4-0.3
		c-0.4-0.4-0.8-0.9-1.1-1.3c-0.4-0.5-0.7-1-1.2-1.4c-0.2-0.2-0.5-0.3-0.9-0.3c-0.4,0-0.8,0.1-1.2,0.3C5.7,29,5.4,29,5.2,29.1l-0.2,0
		c-0.2,0-0.4,0.1-0.5,0.1c-0.1,0-0.1,0-0.3-0.2c-0.1-0.1-0.1-0.1-0.2-0.2c-0.4-0.4-0.7-0.8-1.1-1.3c-0.6-0.9-1.5-2.6-1.2-3.2
		C2,23.7,3.1,23.4,4,23.1c0.5-0.2,1-0.3,1.3-0.5c0,0,0.1,0,0.1-0.1c0,0,0,0,0-0.1c0.2,0,0.2-0.2,0.2-0.4c0-0.1-0.1-0.1-0.2-0.2
		c-0.1-0.1-0.2-0.2-0.2-0.2c-0.1-0.3-0.1-0.6-0.2-0.9l0-0.1c-0.1-1.2,0-2.5,0.1-3.7c0-0.2,0.1-0.4,0.1-0.6c0.1-0.9,0.2-1.6-0.9-2
		c-0.2-0.1-0.4-0.1-0.6-0.2c-0.5-0.1-1.2-0.3-1.4-0.6c-0.2-0.3-0.2-0.5,0-1l0-0.1c0.1-0.3,0.3-0.7,0.5-1C3,11.2,3.1,11,3.2,10.7
		c0.1-0.1,0.1-0.3,0.2-0.5c0.2-0.5,0.4-1.2,0.7-1.4c0.1-0.1,0.3-0.1,0.4-0.1c0.7,0,1.5,0.4,2.1,0.7l0.2,0.1C7,9.7,7.1,9.7,7.1,9.8
		C7.4,9.9,7.5,10,7.7,10c0.1,0,0.3,0,0.5-0.1c0.5-0.2,0.8-0.6,1.1-1c0.2-0.2,0.3-0.4,0.5-0.6c0.6-0.5,1.2-0.8,1.9-1.1
		c0.4-0.2,0.8-0.4,1.1-0.6c1-0.6,1.1-1.7,1.3-2.8c0.1-1,0.3-2,1.2-2.4c0.8-0.4,2.1-0.6,3.2-0.6c0.4,0,0.8,0,1.1,0.1
		c0.8,0.2,1.3,0.9,1.7,2.2l0,0.1c0.1,0.2,0.1,0.4,0.2,0.6c0,0.1-0.1,0.4-0.1,0.5c0,0,0,0.1,0,0.1c0.2,0.4,0.9,0.5,1.5,0.6
		c0.2,0,0.4,0.1,0.5,0.1c1,0.3,2.1,0.8,3.2,1.4C27,6.7,27.4,7,27.8,7.3c0.5,0.4,0.9,0.8,1.3,0.9c0.1,0,0.3,0.1,0.5,0.1
		c0.5,0,1.1-0.2,1.7-0.4c0.3-0.1,0.6-0.2,0.9-0.2l0.2,0c0.3,0,0.5-0.1,0.7-0.1c0.3,0,0.5,0.1,0.7,0.2c0.4,0.3,0.9,0.9,1.2,1.5
		c0.1,0.1,0.2,0.3,0.2,0.4c0.7,1,1.5,2.4,1.3,2.9c-0.1,0.5-0.5,0.7-1,1c-0.5,0.4-1.1,0.7-1,1.6c0,0.4,0.2,0.7,0.3,1.1
		c0.1,0.3,0.2,0.6,0.3,0.9c0.1,0.7,0.1,1.5,0.1,2.1l0,0.3c0,0.8,0,1,0.7,1.7l0.3,0.2c0.5,0.5,1,0.9,1.5,1.4
		C38.5,23.7,38.5,24.9,37.8,26.5z M31.2,30.8c0,0.1,0,0.3,0.1,0.5C31.2,31.1,31.1,30.9,31.2,30.8L31.2,30.8z M31.8,34.6
		c0,0.3-0.2,0.4-0.6,0.8c-0.5,0.4-1,0.8-1.6,1.2c0.6-0.4,1.1-0.8,1.6-1.2C31.6,35,31.8,34.9,31.8,34.6z M28.7,37.1
		c-0.1,0-0.1,0-0.2,0.1C28.6,37.2,28.7,37.1,28.7,37.1z M28.2,37.4c-0.1,0-0.1,0.1-0.2,0.1C28,37.4,28.1,37.4,28.2,37.4z M27.6,37.6
		c-0.1,0-0.1,0-0.2,0C27.5,37.6,27.6,37.6,27.6,37.6z M5.9,30c0,0.2-0.1,0.2-0.3,0c-0.2-0.2-0.2-0.4,0-0.4C5.8,29.6,5.9,29.8,5.9,30
		z M5.3,29.2c0.1,0,0.3-0.1,0.4-0.1C5.5,29.2,5.4,29.2,5.3,29.2z M5.1,29.3c-0.1,0-0.2,0-0.2,0.1C5,29.3,5.1,29.3,5.1,29.3z M4.3,16
		c0,0.1-0.2-0.1-0.3-0.4c-0.1-0.2-0.1-0.3,0-0.4c0,0,0.1-0.1,0.1-0.1C4.2,15.2,4.3,15.9,4.3,16z M3.8,17.5c0-0.2,0-0.6,0-0.6
		c0,0,0,0.1,0.1,0.3C3.9,17.6,3.9,17.8,3.8,17.5z M3.7,18.4c0-0.1,0-0.1,0.1,0c0,0.1,0.1,0.3,0.1,0.5c0,0.9,0.3,2.1,0.5,2.7l0.2,0.5
		l-0.2,0.1c-0.3,0.2-0.4,0.2-0.5-0.8C3.8,20.8,3.7,18.7,3.7,18.4z M5.1,16c0,0.1,0,0.2,0,0.2C5.1,16.2,5.1,16.1,5.1,16z M5,17.2
		c-0.1,1.1-0.2,2.3-0.1,3.4C4.8,19.5,4.9,18.3,5,17.2z M5.1,21.7c0,0.1,0.4,0.3,0.4,0.3C5.4,22,5.1,21.8,5.1,21.7
		C5,21.5,4.9,21.3,4.9,21C4.9,21.3,5,21.5,5.1,21.7z M2,13C2,13,2,13,2,13C2,13,2,13,2,13z M2,13.3C2,13.3,2,13.3,2,13.3
		C2,13.3,2,13.3,2,13.3z M2.1,12.8C2.1,12.7,2.1,12.7,2.1,12.8C2.1,12.7,2.1,12.7,2.1,12.8z M7.3,9.7c0.1,0,0.1,0.1,0.2,0.1
		C7.4,9.7,7.4,9.7,7.3,9.7z M7.5,9.8c0.1,0,0.1,0,0.2,0c0,0,0,0,0,0C7.7,9.8,7.6,9.8,7.5,9.8z M8.1,9.7C8.1,9.7,8.1,9.7,8.1,9.7
		C8.5,9.6,8.7,9.3,9,9C8.7,9.3,8.5,9.6,8.1,9.7C8.1,9.7,8.1,9.7,8.1,9.7z M35.2,19.1c0-0.7,0-1.4-0.1-2.1c-0.1-0.7-0.5-1.3-0.6-2
		c0-0.2,0-0.3,0-0.4c0,0.1,0,0.3,0,0.4c0.1,0.7,0.5,1.3,0.6,2C35.3,17.7,35.3,18.4,35.2,19.1c0,0.5-0.1,0.8,0,1
		C35.2,19.9,35.2,19.6,35.2,19.1z M35,14c-0.2,0.1-0.3,0.3-0.4,0.5C34.8,14.2,34.9,14.1,35,14c0.5-0.4,1.3-0.7,1.5-1.4
		c0-0.1,0-0.2,0-0.3c0,0.1,0,0.2,0,0.3C36.3,13.3,35.5,13.5,35,14z M36.1,11c0.2,0.4,0.4,0.8,0.4,1.1C36.5,11.8,36.3,11.4,36.1,11z
		 M35.5,10c0.1,0.1,0.1,0.2,0.2,0.3C35.6,10.2,35.6,10.1,35.5,10z M33.7,7.7c-0.1-0.1-0.3-0.2-0.4-0.2C33.4,7.5,33.6,7.6,33.7,7.7
		c0.1,0,0.1,0.1,0.2,0.2C33.8,7.8,33.8,7.7,33.7,7.7z M32.9,7.4c0.1,0,0.2,0,0.3,0C33.1,7.4,33,7.4,32.9,7.4z M32.8,6.9
		C32.8,6.9,32.7,6.9,32.8,6.9C32.8,6.9,32.8,6.8,32.8,6.9C32.9,6.8,33,6.8,33,6.8C33,6.9,32.9,6.9,32.8,6.9z M32,7.5
		c0.1,0,0.2,0,0.3-0.1C32.3,7.5,32.2,7.5,32,7.5C32,7.5,32,7.5,32,7.5C32,7.5,32,7.5,32,7.5z M32.7,7.4c-0.1,0-0.1,0-0.2,0
		C32.6,7.4,32.6,7.4,32.7,7.4z M30.8,7.9c0.2-0.1,0.4-0.1,0.6-0.2C31.2,7.8,31,7.8,30.8,7.9z M30,8.1C30.2,8,30.3,8,30.5,8
		C30.3,8,30.2,8,30,8.1z M29.6,8.1c-0.1,0-0.3,0-0.4-0.1c0.2,0.1,0.4,0.1,0.6,0C29.7,8.1,29.6,8.1,29.6,8.1z M27.8,7.2
		c0.1,0.1,0.2,0.1,0.3,0.2C28,7.3,27.9,7.2,27.8,7.2z M21.6,4.3L21.6,4.3c0.1,0.2,0.4,0.3,0.8,0.4C22,4.6,21.7,4.5,21.6,4.3z
		 M21.7,3.8C21.7,3.8,21.7,3.7,21.7,3.8c0-0.2,0-0.3-0.1-0.4c0-0.1-0.1-0.3-0.1-0.4c-0.3-1-0.8-2-1.9-2.3c-0.3-0.1-0.7-0.1-1.1-0.1
		c0.4,0,0.8,0,1.1,0.1C20.7,1,21.2,2,21.5,3c0,0.1,0.1,0.2,0.1,0.4C21.7,3.5,21.7,3.6,21.7,3.8C21.7,3.7,21.7,3.8,21.7,3.8z M19,0.2
		c0.1,0,0.2,0,0.3,0C19.2,0.2,19.1,0.2,19,0.2z M16.1,0.9c0.1,0,0.2,0,0.3-0.1C16.3,0.9,16.2,0.9,16.1,0.9z M17.2,0.7
		c0.1,0,0.2,0,0.3,0C17.4,0.7,17.3,0.7,17.2,0.7z M10.4,6.9c-0.1,0.1-0.2,0.2-0.3,0.2C9.6,7.3,8.2,8.6,8,8.8l0,0
		C7.9,8.9,7.8,9,7.7,9.1C7.7,9.1,7.7,9.1,8,8.6c0.1-0.2,0.4-0.5,0.8-0.7c0.7-0.5,0.9-0.7,1-0.7c0.1,0,0.1-0.1,0.1-0.1
		C9.9,7.1,10,7,10,7C10.1,7,10.3,6.9,10.4,6.9l0.1-0.1L10.4,6.9z M7.5,8.6C7.5,8.6,7.5,8.6,7.5,8.6C7.5,8.6,7.5,8.6,7.5,8.6z
		 M7.2,8.8L7.2,8.8c0.1,0,0.1-0.1,0.2-0.1C7.3,8.7,7.2,8.8,7.2,8.8z M6.9,8.8c0,0,0.1,0,0.1,0C6.9,8.8,6.9,8.8,6.9,8.8z M6.6,9.3
		c0.1,0,0.2,0.1,0.2,0.1C6.7,9.4,6.6,9.3,6.6,9.3z M4.6,8.7c0.2,0,0.3,0,0.5,0.1C4.9,8.7,4.7,8.7,4.6,8.7z M5.2,8.8
		c0.2,0,0.3,0.1,0.5,0.2C5.5,8.9,5.4,8.8,5.2,8.8z M5.8,9C6,9.1,6.2,9.1,6.3,9.2C6.2,9.1,6,9.1,5.8,9z M4.6,8C4.7,8,4.8,8,4.9,8.1
		C4.8,8,4.7,8,4.6,8z M4,8.8c0.1-0.1,0.3-0.1,0.5-0.1C4.3,8.7,4.1,8.7,4,8.8z M3.8,8.9C3.7,9,3.6,9.2,3.5,9.4
		C3.5,9.5,3.4,9.7,3.3,9.9c0.1-0.2,0.1-0.3,0.2-0.5C3.6,9.2,3.7,9,3.8,8.9z M2.4,11.9c0.1-0.2,0.2-0.4,0.3-0.7
		C2.6,11.5,2.5,11.7,2.4,11.9z M1.9,14.2c0,0,0.2,0,0.3,0.1c0.3,0.1,0.3,0.1,0.4,0.4c0.1,0.2,0.1,0.4,0.1,0.4c0,0.1-0.1,0.1-0.5-0.2
		c-0.2-0.2-0.3-0.3-0.3-0.4C1.9,14.3,1.9,14.2,1.9,14.2z M2.5,13.8c0.2,0.1,0.4,0.2,0.7,0.3C2.9,14,2.7,13.9,2.5,13.8z M3.2,14.7
		c0.1,0,0.2,0.1,0.3,0.1c0.1,0.1,0.2,0.7,0.2,0.8c0,0-0.1,0-0.1,0c-0.3-0.1-0.4-0.3-0.5-0.6L3,14.6L3.2,14.7z M3.9,23
		c0.6-0.2,1.1-0.3,1.4-0.5c0-0.1,0.1-0.1,0.1-0.1c0,0-0.1,0.1-0.1,0.1C4.9,22.7,4.4,22.8,3.9,23c-0.9,0.3-2,0.6-2.2,1.2
		c-0.1,0.2-0.1,0.5,0,0.8c0.2,0.7,0.6,1.6,1,2.2c-0.3-0.6-0.8-1.4-1-2.2c-0.1-0.3-0.1-0.6,0-0.8C1.9,23.6,2.9,23.3,3.9,23z
		 M2.8,28.8c0,0-0.1,0-0.1,0.1c-0.1,0.3-0.1,0.1-0.1-0.3c0.1-0.5,0.1-0.5,0.2-0.4c0.1,0.1,0.1,0.2,0.1,0.3c0,0.1,0,0.2,0,0.2
		c0,0,0,0.1,0,0.1c0,0.1,0,0.2,0,0.3c0,0.1,0,0.2,0,0.3c0,0.1,0,0.2-0.1,0.1c-0.2-0.1-0.2-0.3-0.1-0.5C2.8,29,2.8,28.8,2.8,28.8z
		 M2.4,27.9c0,0.1,0,0.3,0,0.4s0,0.4,0,0.5l0,0c0,0.1-0.1,0.2-0.1,0.2c0,0,0,0,0-0.1c0,0,0-0.1-0.1-0.2c-0.2-0.2-0.4-0.8-0.3-1
		c0-0.1,0.1-0.3,0.1-0.5C2,27.1,2,27.1,2,27.1s0.1,0.2,0.2,0.4C2.3,27.6,2.4,27.8,2.4,27.9z M3.3,30c0,0,0-0.1-0.1-0.1
		c-0.1,0-0.1-0.2-0.1-0.5c0-0.3,0-0.5,0.1-0.5c0,0,0.1,0.1,0.2,0.1c0.1,0.1,0.1,0.2,0.1,0.6c0,0.3,0,0.5,0,0.6c0,0-0.1,0.1-0.1,0.1
		C3.3,30.2,3.2,30.1,3.3,30z M4.3,29.2c0,0-0.1-0.1-0.1-0.1C4.2,29.2,4.3,29.2,4.3,29.2z M4.1,30.3C4.2,30,4.2,30,4.4,30.2
		c0.2,0.2,0.1,0.2-0.1,0.3C4.1,30.5,4.1,30.5,4.1,30.3z M4.3,29.3C4.4,29.3,4.4,29.3,4.3,29.3C4.4,29.3,4.4,29.3,4.3,29.3z
		 M4.5,29.3c0,0,0.1,0,0.1,0C4.5,29.4,4.5,29.4,4.5,29.3z M4.8,29.3c-0.1,0-0.2,0-0.2,0C4.6,29.4,4.7,29.3,4.8,29.3z M5.2,30.1
		c0.1,0.1,0.1,0.1,0,0.2h0c-0.1,0-0.2,0.1-0.2,0c-0.1,0-0.2-0.4-0.2-0.4C4.8,29.8,5,30,5.2,30.1z M5.5,30.7c-0.1,0-0.1,0-0.2,0.1
		C5.4,30.8,5.4,30.8,5.5,30.7z M6,30.6c-0.1,0-0.1,0-0.2,0C5.9,30.7,6,30.7,6,30.6z M6.1,30c0-0.1,0-0.2,0.1-0.1c0,0,0.1,0.1,0,0.1
		C6.2,30.2,6.1,30.1,6.1,30z M6,29c0.1,0,0.1,0,0.2-0.1C6.1,29,6.1,29,6,29z M6.7,28.8C6.7,28.8,6.7,28.8,6.7,28.8
		C6.7,28.8,6.7,28.8,6.7,28.8z M7.1,28.8C7.1,28.8,7.1,28.8,7.1,28.8c0.1,0,0.1,0,0.1,0C7.1,28.8,7.1,28.8,7.1,28.8z M7.6,28.9
		c0,0-0.1,0-0.1,0C7.5,28.9,7.5,28.9,7.6,28.9z M8.6,29.9c0-0.1-0.1-0.1-0.1-0.2C8.5,29.7,8.6,29.8,8.6,29.9z M11,33.4
		c-0.1,0-0.1-0.1-0.1-0.1c0-0.1,0.3,0,0.3,0.1C11.1,33.4,11.1,33.4,11,33.4z M11.2,34l0,0.2L11,34.2c-0.2-0.1-0.2-0.1-0.2-0.2
		c0-0.1,0-0.2,0-0.2c0-0.1,0-0.1,0.2,0C11.1,33.8,11.2,33.9,11.2,34z M11,34.6c0.2,0.1,0.2,0.1,0.2,0.3c0,0.1,0,0.2,0,0.2
		s-0.1,0-0.2-0.1c-0.2-0.1-0.2-0.1-0.2-0.3C10.8,34.4,10.8,34.4,11,34.6z M11.2,35.5c-0.2,0-0.3,0-0.3-0.1c0-0.1,0.1-0.1,0.3,0
		C11.3,35.5,11.3,35.5,11.2,35.5z M11,37C11,37,11,36.9,11,37c0-0.1,0-0.1,0.1-0.1C11.1,36.9,11.1,36.9,11,37C11.1,37,11.1,37,11,37
		z M11.1,36.6c-0.1,0-0.1-0.1-0.1-0.2c0-0.1,0.1-0.1,0.2,0.1c0,0.1,0,0.2,0,0.1C11.2,36.7,11.2,36.6,11.1,36.6z M11.1,35.9
		c-0.1-0.1-0.1-0.3,0.1-0.3c0.1,0,0.1,0,0.1,0.2c0,0.1,0,0.2,0,0.2C11.2,36.1,11.2,36.1,11.1,35.9z M11,32.4
		c0.1,0.1,0.3,0.2,0.4,0.3c0.1,0.1,0.2,0.2,0.2,0.3c-0.1-0.1-0.1-0.2-0.2-0.3C11.3,32.6,11.1,32.5,11,32.4z M12.5,37.6
		c0.1,0.1,0.4,0.2,0.7,0.4C12.9,37.8,12.6,37.7,12.5,37.6c-0.3-0.2-0.4-0.4-0.6-0.6C12,37.2,12.2,37.4,12.5,37.6z M13,38.3
		C12.9,38.3,12.9,38.3,13,38.3C13,38.3,13.1,38.3,13,38.3C13.1,38.4,13.1,38.4,13,38.3z M12.5,38.8c-0.1-0.1-0.2-0.1-0.3-0.2
		C12.3,38.7,12.4,38.8,12.5,38.8z M14.1,38.8C14.1,38.7,14,38.7,14.1,38.8C14.1,38.7,14.2,38.7,14.1,38.8c0.1-0.1,0.1,0,0.1,0
		C14.2,38.8,14.2,38.8,14.1,38.8z M13.5,39.3C13.5,39.3,13.5,39.3,13.5,39.3C13.5,39.3,13.5,39.3,13.5,39.3z M13.2,38
		c0.1,0,0.2,0.1,0.2,0.1C13.3,38.1,13.2,38.1,13.2,38z M13.7,38.3c0.1,0,0.2,0.1,0.2,0.1C13.8,38.4,13.7,38.4,13.7,38.3z M14.2,38.6
		c0.1,0,0.2,0.1,0.2,0.1C14.4,38.7,14.3,38.7,14.2,38.6z M15.8,39.3c-0.1,0-0.1,0-0.2,0C15.7,39.3,15.8,39.3,15.8,39.3z M15.4,39.2
		c-0.1,0-0.1,0-0.2-0.1C15.3,39.2,15.4,39.2,15.4,39.2z M15,39c-0.1,0-0.2-0.1-0.2-0.1C14.8,38.9,14.9,39,15,39z M16.1,39.3
		c0.8-0.2,1.3-1.2,1.8-2C17.4,38.1,16.9,39.1,16.1,39.3C16.1,39.3,16.1,39.3,16.1,39.3C16.1,39.3,16.1,39.3,16.1,39.3z M19.1,36.1
		c0,0,0.1,0,0.1,0C19.1,36,19.1,36,19.1,36.1z M19.1,37.3c-0.1,0-0.3,0-0.4,0.1C18.8,37.3,19,37.3,19.1,37.3z M19.4,36
		C19.4,36,19.4,36,19.4,36c0.1,0,0.1,0,0.2,0C19.5,36,19.4,36,19.4,36z M19.5,36.7c0,0-0.1,0-0.1,0c-0.1,0-0.1,0,0-0.1
		C19.4,36.6,19.5,36.6,19.5,36.7z M22.3,35.7c-0.1,0-0.2,0-0.3,0.1C22.1,35.7,22.2,35.7,22.3,35.7z M21.5,35.9c-0.1,0-0.1,0-0.2,0
		C21.4,35.9,21.4,35.9,21.5,35.9z M20.8,36c-0.1,0-0.2,0-0.3,0C20.7,36,20.8,36,20.8,36z M22.1,36.5c0.2-0.1,0.3-0.1,0.3-0.2
		c0-0.1,0.3-0.1,0.3,0c0,0.1-0.2,0.2-0.4,0.3c-0.2,0.1-0.6,0.2-0.6,0.1C21.8,36.6,21.9,36.6,22.1,36.5z M23.3,35.4
		c0.1-0.1,0.3-0.1,0.5-0.2C23.6,35.3,23.4,35.4,23.3,35.4z M23.5,36.9c-0.1,0-0.1,0-0.2,0C23.4,36.9,23.4,36.9,23.5,36.9z M23,37
		c-0.1,0-0.1,0-0.2,0.1C22.9,37,23,37,23,37z M24.8,36.7c0.3-0.1,0.6-0.1,0.7,0.1c0.2,0.2,0.2,0.2,0,0.3
		C25,37.1,24.4,36.9,24.8,36.7z M24.6,35c-0.1,0-0.2,0-0.3,0c0.1,0,0.1,0,0.2,0C24.6,35,24.6,35,24.6,35c0.1,0,0.2,0.1,0.3,0.2
		C24.8,35.1,24.7,35.1,24.6,35z M24.2,35.1c-0.1,0-0.2,0.1-0.3,0.1C24,35.2,24.1,35.1,24.2,35.1z M27.4,38.3c-0.1,0-0.3,0-0.4,0
		C27.1,38.4,27.3,38.4,27.4,38.3z M29.2,37.6c-0.1,0.1-0.2,0.1-0.3,0.2C29,37.7,29.1,37.7,29.2,37.6z M28.6,37.9
		c-0.1,0.1-0.2,0.1-0.3,0.2C28.4,38,28.5,38,28.6,37.9z M28,38.2c-0.1,0-0.2,0.1-0.4,0.1C27.8,38.2,27.9,38.2,28,38.2z M30.9,36.4
		c-0.1,0.1-0.2,0.2-0.3,0.2C30.7,36.6,30.8,36.5,30.9,36.4z M30.4,36.8c-0.1,0.1-0.2,0.2-0.4,0.3C30.1,37,30.3,36.9,30.4,36.8z
		 M29.8,37.2c-0.1,0.1-0.2,0.2-0.3,0.2C29.6,37.4,29.7,37.3,29.8,37.2z M34.1,27.7C34.1,27.7,34.1,27.7,34.1,27.7c0,0-0.2,0-0.3,0
		C33.9,27.7,34,27.7,34.1,27.7z M34.8,27.8c-0.1,0-0.1,0-0.2,0C34.7,27.7,34.7,27.7,34.8,27.8z M34.5,28.3c0.1,0,0.2,0,0.2,0
		c0,0-0.1,0.1-0.2,0.3c-0.2,0.2-0.3,0.2-0.3,0.1C34.2,28.5,34.3,28.4,34.5,28.3z M35.2,29.5c-0.1,0-0.2,0-0.2,0
		C35,29.5,35.1,29.5,35.2,29.5z M35.9,28c-0.1,0-0.3,0-0.4-0.1C35.6,27.9,35.8,27.9,35.9,28z M36.4,28c-0.1,0-0.2,0-0.3,0
		C36.2,28,36.3,28,36.4,28z M37.2,27.8c-0.1,0.1-0.2,0.2-0.3,0.2C37,27.9,37.1,27.8,37.2,27.8z M36.9,28c-0.1,0-0.2,0.1-0.3,0.1
		C36.7,28,36.8,28,36.9,28z M37.9,26.6c-0.1,0.2-0.2,0.4-0.3,0.6C37.7,27.1,37.8,26.9,37.9,26.6z M37.5,27.4
		c-0.1,0.1-0.1,0.2-0.2,0.3C37.4,27.6,37.4,27.5,37.5,27.4z M38.5,24.5c0-0.7-0.2-1.3-0.8-1.9c-0.1-0.1-0.3-0.3-0.4-0.4
		c0.1,0.1,0.3,0.3,0.4,0.4C38.2,23.2,38.5,23.8,38.5,24.5z M38.5,24.6c0,0.2,0,0.5-0.1,0.7C38.4,25.1,38.4,24.8,38.5,24.6z
		 M36.8,20.9c0.1,0.1,0.2,0.2,0.4,0.3C37,21.1,36.9,20.9,36.8,20.9c-0.2-0.2-0.4-0.3-0.5-0.5C36.4,20.5,36.6,20.7,36.8,20.9z
		 M35.5,16.1c0.1,0.4,0.2,0.9,0.2,1.3c0,0.4,0.1,0.9,0,1.4c0,0.3,0,0.5,0,0.7c0-0.2,0-0.4,0-0.7c0-0.5,0-0.9,0-1.4
		C35.7,16.9,35.6,16.5,35.5,16.1c-0.1-0.6-0.2-0.9-0.2-1.2C35.3,15.1,35.4,15.5,35.5,16.1z M36.9,11.2c0.1,0.3,0.1,0.5,0.1,0.7
		C37.1,11.7,37,11.5,36.9,11.2c-0.1-0.3-0.2-0.7-0.4-1C36.7,10.5,36.8,10.9,36.9,11.2z M34.5,7.5c0.1,0.1,0.2,0.3,0.4,0.4
		C34.7,7.7,34.6,7.6,34.5,7.5c-0.2-0.2-0.3-0.3-0.4-0.4C34.2,7.2,34.4,7.3,34.5,7.5z M32.6,6.7c0.2,0,0.3,0,0.4,0
		C32.9,6.8,32.7,6.7,32.6,6.7c-0.2,0-0.5,0-0.7,0c0,0,0,0,0,0C32.1,6.7,32.4,6.7,32.6,6.7z M31.1,6.7C31.1,6.7,31.2,6.7,31.1,6.7
		C31.2,6.7,31.1,6.7,31.1,6.7c-0.1,0-0.3,0.1-0.5,0.1C30.8,6.8,31,6.8,31.1,6.7z M30.2,7c-0.1,0-0.2,0.1-0.4,0.1
		C30,7.1,30.1,7.1,30.2,7z M29.3,7.3c0.1,0,0.1,0,0.2,0C29.4,7.3,29.3,7.3,29.3,7.3z M28.8,7.3c-0.2-0.1-0.5-0.2-0.8-0.4
		C28.3,7.1,28.6,7.3,28.8,7.3z M25.7,5.3c-0.3-0.2-0.6-0.3-0.9-0.5c-0.2-0.1-0.5-0.2-0.8-0.2c0.3,0.1,0.5,0.1,0.8,0.2
		C25.1,5,25.4,5.1,25.7,5.3z M21.7,2.1c0.2,0.6,0.2,1.2,0.4,1.6C21.9,3.3,22,2.7,21.7,2.1c-0.2-0.6-0.6-1.1-1-1.4
		C21.2,1.1,21.5,1.6,21.7,2.1z M18.4,0.2c-0.1,0-0.2,0-0.3,0c0.1,0,0.1,0,0.2,0C18.3,0.2,18.3,0.2,18.4,0.2z M15.6,0.5
		c0.1,0,0.2,0,0.2-0.1C15.8,0.5,15.7,0.5,15.6,0.5z M16.9,0.3c0.1,0,0.2,0,0.3,0C17.1,0.2,17,0.2,16.9,0.3z M13.6,1.2
		C13.6,1.2,13.6,1.2,13.6,1.2C13.6,1.2,13.6,1.2,13.6,1.2c-0.6,0.3-0.9,0.9-1.1,1.5C12.7,2.1,13,1.5,13.6,1.2z M9.7,6.6
		c0.4-0.3,0.9-0.6,1.4-0.8c0.7-0.3,0.8-0.3,0.9-1c-0.2,0.7-0.3,0.7-0.9,1C10.6,6,10.1,6.3,9.7,6.6C9.5,6.7,9.3,6.9,9.1,7.1
		C9.3,6.9,9.5,6.7,9.7,6.6z M5.4,8.3C5.2,8.2,5.1,8.2,5,8.1C5.1,8.2,5.2,8.2,5.4,8.3z M6.6,8.7c0,0-0.1,0-0.1,0
		C6.5,8.7,6.6,8.7,6.6,8.7z M6.1,8.5C6.1,8.5,6,8.5,6.1,8.5C6,8.5,6.1,8.5,6.1,8.5z M4.1,7.8C4.1,7.8,4.1,7.8,4.1,7.8
		c0,0,0.1,0,0.1,0C4.1,7.8,4.1,7.8,4.1,7.8C4,7.9,3.9,7.9,3.8,8C3.9,7.9,4,7.9,4.1,7.8z M4.5,7.9c-0.1,0-0.2-0.1-0.2-0.1
		C4.3,7.9,4.4,7.9,4.5,7.9z M2.9,8.4C3,8.3,3.3,8.2,3.5,8.1C3.3,8.2,3,8.3,2.9,8.4C2.8,8.5,2.7,8.6,2.6,8.7C2.7,8.6,2.8,8.5,2.9,8.4
		z M1,11.8c0.2-0.6,0.5-1.1,0.7-1.7C1.5,10.7,1.3,11.3,1,11.8c-0.1,0.3-0.5,0.9-0.6,1.5C0.6,12.8,0.9,12.2,1,11.8z M3.2,16.2
		c-0.5-0.8-2.6-1-2.9-2c0-0.1,0-0.3,0-0.5c0,0.2-0.1,0.4,0,0.5C0.6,15.2,2.6,15.4,3.2,16.2c0.3,0.4,0.2,1.2,0.1,1.9
		C3.3,17.4,3.4,16.6,3.2,16.2z M3.2,18.9c0-0.2,0-0.4,0-0.6C3.2,18.6,3.1,18.8,3.2,18.9c0,0.8,0.1,1.5,0.2,2.3
		C3.2,20.5,3.2,19.7,3.2,18.9z M0.2,25.3c-0.1-1.1,0.2-1.1,0.6-1.5c0.1-0.1,0.2-0.1,0.3-0.2c0.3-0.1,0.8-0.2,1-0.3
		c0.8-0.3,1.2-0.4,1.3-0.8c-0.1,0.5-0.5,0.5-1.3,0.8c-0.3,0.1-0.7,0.2-1,0.3c-0.1,0-0.2,0.1-0.3,0.2C0.4,24.2,0.1,24.1,0.2,25.3
		c0.1,0.4,0.2,0.8,0.3,1.3C0.4,26.1,0.2,25.7,0.2,25.3z M3.6,31.2c0,0-0.1,0-0.1-0.1C3.5,31.2,3.5,31.2,3.6,31.2
		c0.1,0,0.1,0.1,0.2,0.1c0,0,0,0,0,0C3.7,31.3,3.6,31.2,3.6,31.2z M4.4,31.1c-0.1,0-0.3,0.1-0.4,0.1C4.1,31.1,4.2,31.1,4.4,31.1
		c0.1,0,0.3-0.1,0.5-0.1C4.7,31,4.5,31,4.4,31.1z M6.4,30.6C6.4,30.6,6.4,30.6,6.4,30.6C6.4,30.6,6.4,30.6,6.4,30.6
		c0.1,0,0.3,0.1,0.5,0.2C6.7,30.7,6.5,30.7,6.4,30.6z M8.6,32.2c-0.2-0.1-0.5-0.3-0.8-0.6C8.1,31.8,8.4,32.1,8.6,32.2
		c0.3,0.2,0.6,0.4,0.7,0.5C9.2,32.6,8.9,32.4,8.6,32.2z M9.6,33.1c0.1,0.1,0.1,0.3,0.1,0.4C9.6,33.4,9.6,33.2,9.6,33.1z M9.7,33.6
		c0,0.2,0,0.4,0.1,0.7C9.7,34,9.7,33.8,9.7,33.6z M9.9,35.4c0.1,0.4,0.1,0.7,0.2,1C10,36.1,9.9,35.8,9.9,35.4z M11.1,38.1
		c0.1,0.1,0.3,0.2,0.5,0.3c0,0,0.1,0,0.1,0.1c0,0-0.1,0-0.1-0.1C11.5,38.3,11.3,38.2,11.1,38.1z M14.4,39.6c0.1,0,0.2,0,0.2,0.1
		C14.5,39.7,14.4,39.7,14.4,39.6z M15.5,39.8c0.1,0,0.3,0,0.4,0C15.7,39.8,15.6,39.8,15.5,39.8C15.5,39.8,15.5,39.8,15.5,39.8z
		 M18.2,37.7c-0.6,0.5-1,1.4-1.6,1.9c-0.2,0.1-0.3,0.2-0.5,0.3c0.2-0.1,0.4-0.1,0.5-0.3C17.2,39,17.6,38.2,18.2,37.7
		c0.2-0.1,0.3-0.2,0.4-0.3C18.5,37.5,18.3,37.5,18.2,37.7z M19.2,37.3c0.2,0,0.4,0,0.5,0C19.5,37.3,19.4,37.3,19.2,37.3z M22,37.3
		c-0.5,0.1-1,0.1-1.6,0.2c0,0-0.1,0-0.1,0c0,0,0,0-0.1,0c0.1,0,0.1,0,0.2,0C21,37.4,21.5,37.3,22,37.3c0.1,0,0.2-0.1,0.4-0.1
		C22.3,37.2,22.1,37.2,22,37.3z M24.6,37.5c0.2,0.3,0.5,0.5,0.7,0.6c0.2,0.1,0.4,0.1,0.6,0.2c-0.2,0-0.4-0.1-0.6-0.2
		C25,38,24.8,37.8,24.6,37.5z M26.1,38.4c0.2,0,0.4,0,0.6,0c0,0,0,0-0.1,0C26.5,38.4,26.3,38.4,26.1,38.4z M32.3,33.9
		c0,0,0,0.1,0,0.1C32.3,34,32.3,34,32.3,33.9c-0.1-0.3-0.1-0.5-0.2-0.8C32.2,33.4,32.2,33.6,32.3,33.9z M32.4,31
		c-0.3,0.4-0.4,0.9-0.4,1.4C31.9,31.9,32,31.4,32.4,31c0.5-0.7,1.3-1.3,2-1.5c0,0,0,0,0,0c0,0,0,0,0,0C33.6,29.7,32.9,30.3,32.4,31z
		 M35.5,29.5c0.1,0,0.2,0,0.3,0c-0.1,0-0.1,0-0.2,0C35.6,29.5,35.6,29.5,35.5,29.5z M36.4,29.3c-0.2,0.1-0.3,0.1-0.5,0.2
		C36.1,29.5,36.3,29.4,36.4,29.3c1.2-0.7,2.4-3.1,2.6-5C38.9,26.2,37.6,28.6,36.4,29.3z"/>
</g>
</svg>
