<?xml version="1.0" encoding="utf-8"?>
<!-- Generator: Adobe Illustrator 23.0.1, SVG Export Plug-In . SVG Version: 6.00 Build 0)  -->
<svg version="1.1" id="Layer_1" xmlns="http://www.w3.org/2000/svg" xmlns:xlink="http://www.w3.org/1999/xlink" x="0px" y="0px"
	 viewBox="0 0 32 31.1" style="enable-background:new 0 0 32 31.1;" xml:space="preserve">
<g>
	<path d="M31.1,2.7c-0.6-0.9-1.4-1.8-2.4-2.3c-1-0.5-2.1-0.6-3.2,0c-0.5,0.3-0.9,0.7-1.4,1.1c-0.3,0.3-0.6,0.6-0.8,1
		c-0.3,0-0.7,0.1-1,0.3c-0.5,0.3-1.1,0.8-1.1,1.4c0,0.1,0,0.3,0,0.4c0,0-0.1,0.1-0.1,0.1c0,0,0,0,0,0c0,0,0,0,0,0c0,0,0,0.1-0.1,0.1
		C21,5,20.8,5.2,20.7,5.4c-0.5,0.6-1.1,1.1-1.6,1.7c-1.6,1.6-3.2,3.2-4.8,4.8c-1.7,1.7-3.4,3.4-5.2,5.1C8,18,6.9,19.1,5.8,20.2
		c-0.1,0.1-0.3,0.3-0.4,0.4c-0.8,0.8-1.6,1.6-2.4,2.3c-0.4,0.4-0.7,0.7-1.1,1.1c-0.3,0.4-0.5,0.8-0.6,1.3c-0.2,1.1-0.5,2.3-0.8,3.4
		c-0.1,0.6-0.3,1.1-0.5,1.7c-0.1,0.4,0.3,0.8,0.7,0.7c2-0.6,4.2-0.6,6.3-1.3c0.5-0.2,1-0.4,1.5-0.7c0.2-0.2,0.5-0.4,0.7-0.6
		c1.5-1.3,2.9-2.6,4.2-3.9c1.9-1.9,3.9-3.8,5.8-5.7c1.8-1.8,3.5-3.5,5.2-5.4c0.3-0.4,0.7-0.7,1-1.1c0.1-0.2,0.3-0.3,0.4-0.5
		c0,0,0-0.1,0.1-0.1c0.1-0.2,0,0,0,0c0,0,0.1-0.1,0.1-0.1c0.1-0.1,0.1-0.1,0.2-0.2c0.2-0.2,0.4-0.4,0.5-0.7c0.1,0.1,0.2,0.2,0.3,0.2
		c1.1,0.2,2.1-0.6,2.5-1.6c0.1-0.3,0.1-0.5,0.1-0.8c0,0,0.1,0,0.1-0.1c0.8-0.8,1.7-1.5,2.2-2.6C32.3,4.9,31.8,3.7,31.1,2.7z
		 M30.9,4.9c0-0.2-0.1-0.4-0.1-0.6c0.1,0.2,0.1,0.5,0.2,0.7C30.9,4.9,30.9,4.9,30.9,4.9z M21.2,4.8C21.2,4.8,21.2,4.8,21.2,4.8
		C21.2,4.8,21.2,4.8,21.2,4.8C21.2,4.8,21.2,4.8,21.2,4.8z M3.1,29.5c-0.1,0-0.1,0-0.2,0c0-0.2,0-0.4,0-0.7c0-0.2,0-0.4,0-0.6
		C3,28.4,3,28.5,3.1,28.6C3.1,28.9,3,29.2,3.1,29.5z M2.6,29.6c-0.1,0-0.2,0-0.4,0.1c0-0.1,0-0.2,0-0.3c0-0.3,0-0.5,0-0.8
		c0-0.3,0-0.5,0-0.8c0.1,0.1,0.2,0.1,0.2,0.2c0,0,0.1,0.1,0.1,0.1c0,0.3,0,0.6,0,0.8C2.6,29.1,2.5,29.3,2.6,29.6z M2,27.6
		C2,27.6,2,27.6,2,27.6c0,0.3,0,0.6,0,0.9c0,0.3,0,0.5,0,0.8c0,0.1,0,0.3,0,0.4c-0.2,0-0.3,0.1-0.5,0.1C1.6,29.1,1.8,28.3,2,27.6z
		 M3.3,29.4c0-0.1,0-0.3,0-0.4c0,0.1,0,0.2,0.1,0.2c0,0,0,0.1,0,0.2C3.4,29.4,3.4,29.4,3.3,29.4z M5,29.2c-0.3,0.1-0.6,0.1-0.9,0.2
		c0-0.3,0-0.6,0-0.8c-0.1-0.5-0.5-0.9-0.8-1.2C3,27,2.6,26.7,2.2,26.6c0.1-0.3,0.2-0.6,0.2-1c0-0.2,0.1-0.4,0.1-0.5
		c0.1-0.2,0.3-0.4,0.4-0.5c0,0,0-0.1,0.1-0.1c0.2,0.1,0.4,0.2,0.5,0.2C3.8,24.7,4,24.8,4.2,25c0,0,0.1,0.1,0.1,0.1
		c0,0,0.2,0.1,0.2,0.1c0.1,0.1,0.2,0.1,0.3,0.2c0.6,0.4,1.2,0.9,1.6,1.6c0.2,0.3,0.5,0.7,0.6,1c0.1,0.2,0.1,0.4,0.2,0.5
		C6.6,28.8,5.8,29,5,29.2z M25.8,10.6c-0.1,0.1-0.1,0.1-0.2,0.2c-0.1-0.2-0.1-0.5-0.2-0.7c-0.1-0.6-0.2-1.2-0.4-1.9
		c0-0.2-0.3-0.1-0.3,0.1c0.1,0.6,0.2,1.2,0.3,1.8c0,0.3,0.1,0.5,0.2,0.8c0,0.1,0,0.2,0.1,0.3c-0.2,0.2-0.3,0.3-0.5,0.5
		c0,0,0-0.1,0-0.1c-0.1-0.3-0.1-0.6-0.2-0.9c-0.2-0.7-0.4-1.5-0.4-2.2c0-0.1-0.2-0.1-0.2,0c0,0.8,0.2,1.5,0.3,2.3
		c0.1,0.3,0.1,0.6,0.2,0.9c0,0.1,0,0.2,0.1,0.3c-0.1,0.1-0.3,0.3-0.4,0.4c0,0-0.1,0.1-0.1,0.1c0-0.1-0.1-0.2-0.2-0.3
		c-0.1-0.2-0.2-0.5-0.2-0.7c-0.2-0.6-0.3-1.2-0.3-1.9c0-0.2-0.3-0.2-0.3,0c0,0.7,0.1,1.4,0.3,2c0.1,0.3,0.2,0.9,0.5,1.1
		c-0.3,0.3-0.5,0.5-0.8,0.8c-0.2-0.3-0.3-0.7-0.4-1.1c-0.1-0.5-0.3-1.1-0.3-1.6c0-0.2-0.2-0.2-0.2,0c0,0.6,0.2,1.2,0.3,1.9
		c0.1,0.4,0.2,0.8,0.4,1.1c-0.2,0.2-0.3,0.3-0.5,0.5c-0.1-0.2-0.2-0.5-0.2-0.7c-0.2-0.7-0.5-1.3-0.5-2c0-0.1-0.2-0.1-0.2,0
		c0,0.7,0.2,1.3,0.4,1.9c0.1,0.3,0.2,0.6,0.3,0.9c0,0.1,0,0.1,0.1,0.2c-0.3,0.3-0.7,0.7-1,1c0-0.2-0.1-0.4-0.1-0.6
		c-0.1-0.3-0.1-0.5-0.2-0.8c-0.1-0.5-0.2-1.1-0.4-1.6c-0.1-0.2-0.3-0.1-0.3,0.1c0.1,0.5,0.2,1.1,0.3,1.6c0.1,0.5,0.1,1.1,0.4,1.5
		c-0.2,0.2-0.4,0.4-0.6,0.6c0,0,0-0.1,0-0.1c-0.1-0.3-0.2-0.6-0.3-0.9c-0.2-0.7-0.4-1.3-0.5-2c0-0.2-0.2-0.2-0.2,0
		c0,0.7,0.2,1.4,0.4,2.1c0.1,0.3,0.2,0.6,0.3,1c0,0.1,0.1,0.2,0.1,0.3c-0.2,0.2-0.5,0.5-0.7,0.7c0-0.2-0.1-0.3-0.1-0.4
		c-0.1-0.3-0.2-0.5-0.3-0.8c-0.1-0.5-0.2-1.1-0.4-1.7c0-0.2-0.3-0.1-0.3,0.1c0.1,0.6,0.2,1.1,0.3,1.7c0.1,0.3,0.1,0.5,0.2,0.7
		c0.1,0.2,0.2,0.4,0.3,0.6c0,0,0,0,0,0c-0.3,0.3-0.5,0.5-0.8,0.8c-0.1-0.3-0.2-0.6-0.3-0.9c-0.2-0.6-0.4-1.3-0.5-1.9
		c0-0.1-0.3-0.1-0.2,0.1c0.2,0.7,0.4,1.4,0.5,2.1c0.1,0.3,0.1,0.7,0.3,0.9c-0.2,0.2-0.4,0.4-0.6,0.6c0-0.1-0.1-0.2-0.1-0.3
		c-0.1-0.3-0.2-0.6-0.3-0.9c-0.2-0.6-0.3-1.2-0.5-1.7c0-0.1-0.2,0-0.2,0.1c0.2,0.6,0.3,1.2,0.4,1.8c0.1,0.3,0.2,0.6,0.3,0.9
		c0.1,0.2,0.1,0.3,0.2,0.5c-0.3,0.3-0.6,0.6-0.9,0.9c0-0.5-0.2-1-0.3-1.4c-0.1-0.5-0.3-1.1-0.5-1.6c-0.1-0.2-0.3-0.1-0.3,0.1
		c0.2,0.5,0.3,1.1,0.4,1.6c0.1,0.5,0.2,1.1,0.5,1.5c-0.2,0.2-0.4,0.4-0.6,0.6c0-0.1-0.1-0.2-0.1-0.4c-0.1-0.3-0.2-0.5-0.2-0.8
		c-0.2-0.6-0.3-1.1-0.4-1.7c0-0.2-0.3-0.1-0.3,0.1c0.1,0.6,0.3,1.2,0.4,1.8c0.1,0.3,0.1,0.5,0.2,0.7c0.1,0.1,0.1,0.3,0.2,0.4
		c-0.2,0.2-0.4,0.4-0.6,0.6c0-0.1-0.1-0.2-0.2-0.3c-0.1-0.2-0.1-0.5-0.2-0.7c-0.2-0.7-0.4-1.3-0.6-2c0-0.2-0.3-0.1-0.2,0.1
		c0.1,0.4,0.2,0.7,0.3,1.1c0.1,0.4,0.2,0.7,0.3,1c0,0.2,0.1,0.8,0.3,1c-0.3,0.2-0.5,0.5-0.8,0.7c0-0.4-0.2-0.8-0.3-1.2
		c-0.2-0.5-0.3-1.1-0.3-1.7c0-0.2-0.3-0.2-0.3,0c0,0.5,0.1,1.1,0.3,1.6c0.1,0.3,0.2,0.5,0.2,0.8c0.1,0.2,0.1,0.4,0.2,0.6
		c0,0,0,0-0.1,0.1c-0.2,0.2-0.4,0.4-0.6,0.6c0-0.1-0.1-0.2-0.1-0.3c-0.1-0.3-0.2-0.6-0.3-0.9c-0.2-0.5-0.4-1.1-0.4-1.7
		c0-0.1-0.2-0.1-0.2,0c-0.1,0.6,0.1,1.1,0.3,1.6c0.1,0.3,0.2,0.6,0.3,0.9c0.1,0.2,0.1,0.4,0.2,0.6c-0.3,0.3-0.6,0.6-0.9,0.9
		c-0.1-0.3-0.2-0.7-0.2-1c-0.1-0.3-0.1-0.6-0.2-0.9c-0.1-0.3-0.2-0.7-0.2-1c0-0.2-0.3-0.2-0.3,0c0,0.7,0.3,1.3,0.4,1.9
		c0.1,0.3,0.1,0.6,0.2,1c0,0.1,0,0.2,0.1,0.4c-0.2,0.1-0.3,0.3-0.5,0.4c0-0.1,0-0.1-0.1-0.2c-0.1-0.3-0.2-0.6-0.3-0.9
		c-0.2-0.6-0.4-1.2-0.6-1.8c0-0.1-0.2-0.1-0.2,0c0.1,0.6,0.3,1.2,0.4,1.7c0.1,0.3,0.2,0.6,0.3,0.8c0.1,0.2,0.1,0.3,0.1,0.5
		c-0.2,0.2-0.4,0.3-0.5,0.5c0-0.1,0-0.1-0.1-0.2c-0.1-0.3-0.2-0.5-0.3-0.8c-0.2-0.6-0.4-1.2-0.5-1.8c0-0.2-0.3-0.2-0.3,0
		c0,0.6,0.2,1.2,0.4,1.8c0.1,0.3,0.2,0.5,0.3,0.8c0.1,0.2,0.1,0.3,0.2,0.5c-0.2,0.2-0.5,0.4-0.7,0.6c-0.1-0.3-0.2-0.6-0.3-0.9
		c-0.2-0.7-0.4-1.3-0.4-2c0-0.1-0.2-0.2-0.2,0c0.1,0.7,0.2,1.4,0.4,2c0.1,0.3,0.2,0.6,0.2,0.9c0,0.1,0,0.1,0,0.2
		c-0.2,0.2-0.4,0.4-0.6,0.5C8,28,8,28,8,28c0,0,0-0.1,0-0.1c-0.1-0.4-0.1-0.7-0.2-1.1c-0.2-0.7-0.3-1.5-0.5-2.2c0-0.1-0.2-0.1-0.1,0
		c0.1,0.7,0.2,1.4,0.3,2.1C7.1,26,6.6,25.4,6,24.9c-0.5-0.4-0.9-0.7-1.5-1c-0.2-0.1-0.4-0.2-0.6-0.3c0.5-0.5,1-0.9,1.5-1.4
		c0.4-0.4,0.7-0.7,1.1-1.1c1-1,2-2,3-2.9c1.7-1.7,3.4-3.3,5.1-5c1.7-1.6,3.3-3.3,4.9-4.9c0.6-0.6,1.2-1.2,1.7-1.8
		c0.3-0.3,0.6-0.6,0.9-1c0,0,0.1-0.1,0.1-0.1c0.5,0.2,1,0.3,1.5,0.6C24.2,6.2,24.6,6.6,25,7c0.2,0.2,0.4,0.5,0.6,0.8
		c0,0.8,0.3,1.7,0.5,2.5c0,0,0,0,0,0C25.9,10.4,25.9,10.5,25.8,10.6z M26.3,9.5c0.1,0.2,0.1,0.3,0.1,0.5c0,0,0,0-0.1,0.1
		c-0.1-0.4-0.2-0.7-0.3-1C26,8.9,26,8.8,26,8.6C26.1,8.9,26.2,9.2,26.3,9.5z M28.6,9c0,0.3-0.2,0.6-0.4,0.9c0-0.1,0-0.1,0-0.2
		c0-0.2-0.2-0.2-0.3-0.1c0,0.2,0,0.3-0.1,0.5c-0.1,0.1-0.2,0.1-0.3,0.1c0-0.1,0-0.2,0-0.3c0.1-0.3,0.2-0.7,0.3-1
		c0.1-0.2-0.2-0.3-0.3-0.1c-0.1,0.3-0.2,0.5-0.3,0.8c0,0,0,0,0,0c0-0.2,0-0.4,0.1-0.5c0.1-0.3,0.1-0.6,0.2-0.9
		c0-0.2-0.2-0.2-0.3-0.1c-0.1,0.2-0.1,0.5-0.2,0.7c-0.1-0.2-0.1-0.3-0.2-0.5c0.1-0.3,0.1-0.5,0.2-0.8c0.1-0.1-0.2-0.2-0.2-0.1
		c-0.1,0.2-0.1,0.3-0.2,0.5c0-0.1-0.1-0.1-0.1-0.2c0-0.1,0-0.1,0-0.2c0-0.3,0.1-0.5,0.2-0.8c0.1-0.1-0.1-0.3-0.2-0.1
		c-0.1,0.2-0.2,0.4-0.2,0.6c0,0,0-0.1-0.1-0.1c0-0.1,0-0.2,0-0.4c0-0.2,0-0.4,0.1-0.7c0-0.1-0.2-0.2-0.2-0.1
		c-0.1,0.2-0.1,0.4-0.1,0.6c0,0,0,0,0,0c0-0.1-0.1-0.1-0.1-0.2c0-0.1,0-0.2,0-0.3c0-0.2,0-0.5,0-0.7c0-0.2-0.2-0.2-0.3,0
		c0,0.2-0.1,0.4-0.1,0.6c0,0-0.1-0.1-0.1-0.1c0-0.1,0-0.2,0-0.2c0-0.2,0.1-0.4,0-0.6c0-0.1-0.1-0.1-0.1,0c0,0.2-0.1,0.4-0.2,0.6
		c0,0-0.1-0.1-0.1-0.1c0-0.2,0.1-0.4,0.1-0.6c0-0.2-0.2-0.2-0.3-0.1C25.1,5.1,25,5.3,25,5.4c-0.1-0.1-0.2-0.2-0.3-0.3
		c0-0.2,0.1-0.3,0.1-0.4c0.1-0.1-0.1-0.3-0.2-0.1c-0.1,0.1-0.1,0.2-0.1,0.4c-0.1,0-0.1-0.1-0.2-0.1c0-0.2,0-0.4,0.1-0.6
		c0-0.1-0.2-0.2-0.2-0.1c0,0.1-0.1,0.3-0.1,0.5c-0.1,0-0.1-0.1-0.2-0.1c0-0.2,0-0.3,0.1-0.5C23.9,4,23.8,3.9,23.7,4
		c-0.1,0.1-0.1,0.3-0.2,0.5c0,0-0.1,0-0.1,0c0,0,0,0,0-0.1c0-0.2,0-0.3,0-0.5c0-0.1-0.2-0.1-0.2,0c0,0.2,0,0.3,0,0.5
		c-0.1,0-0.2-0.1-0.3-0.1c0-0.1,0-0.2,0-0.3c0-0.1-0.1-0.1-0.1,0c0,0.1,0,0.1-0.1,0.2c-0.1,0-0.3-0.1-0.4-0.1c-0.1,0-0.2,0-0.3,0
		c0-0.1,0.1-0.2,0.1-0.2c0.3-0.3,0.7-0.5,1.1-0.6c0.9-0.1,1.8,0.4,2.5,1c0.7,0.6,1.4,1.4,1.9,2.2c0.3,0.4,0.5,0.8,0.6,1.2
		C28.4,8.1,28.6,8.5,28.6,9z M29.6,7.2c-0.1-0.2-0.1-0.5-0.2-0.7c-0.2-0.7-0.4-1.4-0.4-2c0-0.1-0.2-0.1-0.2,0c0,0.7,0.2,1.4,0.3,2.1
		c0.1,0.3,0.2,0.6,0.2,0.9c0,0,0,0,0,0c0,0-0.1,0.1-0.1,0.1c-0.2-0.5-0.4-1-0.7-1.4c0,0,0,0,0,0c0-0.1-0.1-0.2-0.1-0.3
		C28.3,5.4,28.2,5,28,4.6c0,0,0,0-0.1,0c-0.1,0-0.1,0-0.1,0.1c0,0,0,0,0.1,0c0,0,0,0.1,0,0.1c0,0,0,0.1,0,0.1c0,0.1,0,0.2,0.1,0.3
		c0,0.1,0,0.2,0.1,0.3c-1-1.3-2.4-2.7-4-2.9c0.2-0.2,0.4-0.3,0.6-0.5c0.3-0.3,0.7-0.5,1-0.7c0.8-0.5,1.6-0.6,2.5-0.1
		C28.9,1.6,29.6,2.3,30,3c0.1,0.1,0.2,0.3,0.3,0.5c0,0.5,0.1,1,0.2,1.5c0.1,0.3,0.1,0.5,0.2,0.8c-0.1,0.2-0.2,0.4-0.3,0.5
		c-0.1-0.2-0.1-0.4-0.1-0.6c-0.1-0.8-0.4-1.5-0.6-2.3c0-0.1-0.2-0.1-0.2,0c0,0.7,0.3,1.4,0.4,2.1c0,0.3,0.1,0.7,0.2,1
		c0,0-0.1,0.1-0.1,0.1C29.9,6.9,29.8,7,29.6,7.2z"/>
</g>
</svg>
