<?xml version="1.0" encoding="utf-8"?>
<!-- Generator: Adobe Illustrator 23.0.1, SVG Export Plug-In . SVG Version: 6.00 Build 0)  -->
<svg version="1.1" id="Layer_1" xmlns="http://www.w3.org/2000/svg" xmlns:xlink="http://www.w3.org/1999/xlink" x="0px" y="0px"
	 viewBox="0 0 40 42.6" style="enable-background:new 0 0 40 42.6;" xml:space="preserve">
<g>
	<g>
		<path d="M21.3,9.5c-4.3-0.5-9.8,2.4-10.7,8.3c-0.2,1-0.2,2.1,0,3.1c0.4,3.2,1.9,5,3.3,6.7c1,1.2,2.3,2.8,2.6,4.6
			c0.1,0.5,0.1,1,0,1.4c-0.1,0.3,0.1,0.6,0.4,0.6c0.3,0.1,0.6-0.1,0.6-0.4c0.3-1.2,0.1-2.3-0.4-3.5c-0.6-1.3-1.5-2.5-2.4-3.5
			c-1.1-1.3-2.1-2.5-2.7-4.5c-0.8-2.8-0.2-5.7,1.1-7.7c1.3-1.9,3.3-3.1,5.4-3.4c1-0.2,1.6-0.1,2-0.1h0c0,0,0.3,0,0.5,0
			c2.2,0.3,4,1.5,5.3,3.3c1.6,2.2,2.1,4.9,1.1,8.1c-0.3,0.9-0.8,1.9-1.3,2.6c-1.2,1.8-2.9,2.6-3.8,4.4c-0.7,1.4-0.8,3.2-0.1,4.8
			c0.1,0.3,0.4,0.5,0.7,0.5c0.5,0,0.9-0.5,0.7-1c-0.1-0.3-0.2-0.7-0.3-0.9c-0.1-0.3-0.1-0.7-0.1-1.2c0.1-0.8,0.3-1.5,0.7-2.1
			c0.8-1.1,2-2,3-3.2C32.8,19.1,28.1,10.3,21.3,9.5z M27.9,17.6c0,0,0-0.1,0-0.1l0.2,0.1L27.9,17.6z"/>
		<path d="M16.6,35.5c-0.1,0-0.2,0.1-0.2,0.2c-0.1,0.1-0.1,0.2-0.1,0.3c0,0.2,0.1,0.4,0.3,0.4c0.1,0,0.3,0.1,0.4,0.1
			c3.8,0,6,0.2,6,0.2c0.1,0,0.1,0,0.2,0c0.1,0,0.2-0.1,0.2-0.1c0.1-0.1,0.1-0.2,0.1-0.3c0,0,0-0.1,0-0.1c0,0,0-0.1,0-0.1
			c0-0.1-0.1-0.2-0.2-0.2c-0.2-0.1-0.2-0.1-0.5-0.1c-2.9-0.2-4.6-0.2-5.8-0.2C16.9,35.4,16.8,35.5,16.6,35.5z"/>
		<polygon points="16.3,38 16.3,38 16.3,38 		"/>
		<polygon points="16.3,37.8 16.3,37.8 16.3,37.8 		"/>
		<path d="M23.5,37.3c-0.1,0-0.2,0-0.8,0c-0.4,0-3.2,0-4.6,0.1c-0.8,0-1.2,0.1-1.6,0.1c-0.1,0-0.2,0.1-0.3,0.3c0,0.1,0,0.1,0,0.2
			c0,0.1,0.2,0.3,0.3,0.3c0.2,0,0.5,0.1,0.7,0.1c1.4,0.1,5.2,0,5.4,0c0.9,0,0.8,0,1-0.1c0.1,0,0.1-0.1,0.1-0.1
			c0.1-0.1,0.1-0.2,0.1-0.3C23.9,37.6,23.8,37.4,23.5,37.3z"/>
		<path d="M20.8,39.3c-1.2,0-0.6,0-2.6,0c-0.3,0-0.7,0-1.1,0c-0.3,0-0.3,0-0.4,0c-0.2,0-0.3,0.2-0.3,0.4c0,0.1,0,0.2,0.1,0.3
			c0.1,0.1,0.2,0.1,0.4,0.2c0.6,0.1,0.7,0.1,2.4,0.1c0.5,0,3.4,0.1,3.7,0c0.4,0,0.4-0.1,0.5-0.1c0,0,0,0,0.1-0.1
			c0.2-0.1,0.2-0.4,0-0.5C23.4,39.3,22.9,39.4,20.8,39.3z"/>
		<path d="M23.4,40.9c-0.1-0.1-0.3-0.1-0.4-0.1c-1.4,0.1-2.9,0.1-4.3,0c-0.2,0-0.4,0-0.6,0c-0.3,0-0.4,0-0.7,0c-0.1,0-0.1,0-0.1,0.1
			c-0.1,0-0.1,0.1-0.1,0.2c-0.1-0.1-0.3,0.1-0.3,0.2c0.1,0.5,0.5,0.8,0.9,1c0.6,0.3,1.2,0.3,1.8,0.3c0.7,0.1,1.3,0.1,2.1,0
			c0.4,0,0.7,0,1.1-0.1c0.5-0.2,0.8-0.5,0.9-0.9c0-0.1,0.1-0.2,0-0.3C23.7,41.1,23.5,41,23.4,40.9z"/>
		<path d="M18.3,12.7L18.3,12.7c-1.2,0.1-2.3,0.8-3,1.7c-0.4,0.5-0.7,0.9-1,1.5c-0.3,0.6-0.5,1.2-0.7,2c-0.2,0.6-0.3,1.2-0.3,1.8
			c0,0.1,0,0.1,0,0.3c0,0.1,0,0.1,0.1,0.3c0,0,0,0,0,0.1c0.1,0.3,0.5,0.4,0.7,0.1c0-0.1,0.1-0.1,0.2-0.2c0.1-0.2,0.2-0.3,0.2-0.7
			c0.1-0.7,0.3-1.4,0.5-2.4c0.4-1.3,1-2.2,2-3.1c0.4-0.3,0.7-0.5,1.1-0.6h0h0c0.2-0.1,0.2-0.1,0.3-0.1l0,0c0,0,0,0,0.1,0l0,0
			c0,0,0.1,0,0.1-0.1h0c0,0,0,0,0,0c0.1-0.1,0.1-0.4-0.1-0.5c0,0-0.1,0-0.1-0.1l0,0C18.3,12.7,18.3,12.7,18.3,12.7z"/>
		<path d="M11.9,26.2c0,0-0.1,0-0.2,0c-0.1,0-0.1,0-0.1,0.1c0,0-0.1,0-0.1,0l0,0c-0.1,0-0.2,0.1-0.3,0.2c-0.3,0.2-0.1,0-0.4,0.3
			c-0.2,0.1-0.7,0.6-0.9,0.8c-2.7,2.4-2.8,2.7-3.3,3c-0.1,0.1-0.2,0.1-0.4,0.3c0,0-0.1,0-0.1,0.1c0,0,0,0-0.1,0.1
			c-0.1,0.1-0.1,0.1-0.1,0.1c-0.2,0.3-0.1,0.7,0.4,0.8l0,0c0.1,0,0.1,0,0.2,0c0.1,0,0.2,0,0.3,0c0.1,0,0.3,0,0.4-0.1
			c0.6-0.2,0.9-0.5,2.7-2.2c1.5-1.4,1.6-1.6,2-2c0.3-0.3,0.2-0.3,0.4-0.5l0,0c0,0,0-0.1,0.1-0.1c0-0.1,0.1-0.1,0.1-0.3
			c0-0.1,0-0.3-0.1-0.4C12.2,26.4,12.1,26.2,11.9,26.2z"/>
		<path d="M33.9,32.5c0-0.1-0.1-0.1-0.1-0.1c0-0.1,0-0.1-0.2-0.3c-0.1-0.1-0.1-0.2-0.2-0.4c-1.1-1.5-2.3-2.9-3.6-4.2
			c-0.3-0.3-0.5-0.5-0.7-0.6c-0.5-0.2-0.8,0.3-0.7,0.7c0.1,0.2,0.2,0.3,0.3,0.4h0c0.1,0.1,0.7,0.8,0.9,0.9c1.7,1.8,2.7,3.2,3.3,3.9
			c0.1,0.2,0.1,0.1,0.2,0.2c0,0,0.1,0.1,0.2,0.1c0.1,0.1,0.1,0.1,0.2,0.2c0,0,0.1,0.2,0.3,0.2c0.4,0,0.7-0.4,0.5-0.7
			C33.8,32.4,33.9,32.6,33.9,32.5z"/>
		<path d="M39.7,19.7c-0.1-0.1-0.2-0.1-0.4-0.2c-0.2-0.1-0.4-0.1-0.9-0.2c-0.4-0.1-3.7-0.5-5.9-0.7c-0.5,0-0.2,0-0.9,0
			c-0.3,0-0.5,0-0.7,0.3c-0.1,0.2-0.2,0.4-0.1,0.6c0.2,0.4,0.4,0.4,1,0.5c0.2,0.1,1.3,0.2,1.5,0.2c5.5,0.7,5.5,0.7,5.8,0.6
			c0.2,0,0.3-0.1,0.4-0.1C40.1,20.5,40.2,19.9,39.7,19.7z"/>
		<path d="M8.7,18.5c0.1,0,0.2,0,0.5,0c0.2,0,0.3,0,0.3-0.1c0.1,0,0.2-0.1,0.3-0.2C10,18,10,17.6,9.6,17.3c-0.2-0.1-0.2-0.1-0.4-0.2
			c-0.3-0.1-0.1-0.1-1.2-0.2l0,0c-0.2,0-0.4,0-0.6,0c-1.7-0.1-2.6-0.1-3.5-0.1c-0.9,0-1.9,0.1-2.8,0.3c-0.1,0-0.1,0-0.3,0.1
			c0,0-0.2,0.1-0.2,0.1c-0.1,0-0.1,0-0.2,0.1c-0.1,0-0.2,0.1-0.2,0.1C0.1,17.5,0,17.7,0,18c0,0.2,0.2,0.4,0.4,0.4c0.1,0,0.2,0,0.2,0
			c0.1,0,0.2,0,0.3,0.1c0.2,0,0.1,0,0.3,0c0.2,0,1.9-0.1,3.1-0.1c2.1,0,3.3,0.1,3.6,0.1C8.2,18.5,8.2,18.5,8.7,18.5z"/>
		<path d="M5.4,5.2c0.1,0.2,0.1,0.3,0.2,0.4c0.2,0.3,0.3,0.5,0.8,1.1c2,2.4,3.7,3.6,5.2,4.6c0.2,0.1,0.3,0.2,0.4,0.2
			c0.5,0,0.8-0.6,0.3-1c-0.6-0.4-0.7-0.6-1.1-0.9c-1.1-1-1.6-1.4-2.8-2.6C7.8,6.4,7.5,6,6.9,5.3C6.8,5.2,6.7,5.1,6.6,5
			C6.4,4.7,6.3,4.7,6.2,4.6C6.2,4.5,6.1,4.5,6.1,4.4C5.7,4.1,5,4.5,5.3,5C5.3,5.1,5.3,5.1,5.4,5.2z"/>
		<path d="M30.6,12.3c0.1,0,0.1,0,0.1,0c0.3,0,1.3-0.4,1.5-0.5c0.5-0.2,0.7-0.3,1.4-0.6c1.2-0.6,1.9-1,2.6-1.4
			c0.7-0.4,0.9-0.6,1-0.7c0.3-0.3,0.3-0.3,0.4-0.4c0.1-0.1,0.2-0.1,0.2-0.2c0.2-0.2,0.2-0.5,0-0.7c-0.1-0.2-0.4-0.2-0.6-0.1
			c-0.1,0-0.2,0.1-0.3,0.1c-0.2,0-0.2,0.1-0.7,0.4c-0.1,0.1-0.2,0.1-0.3,0.2c-2.7,1.6-3.1,1.7-5.2,2.7c-0.1,0-0.1,0.1-0.2,0.1
			c-0.2,0.1-0.2,0.1-0.2,0.2C29.9,11.7,30.1,12.3,30.6,12.3z"/>
		<path d="M20.6,7.8c0.2,0.3,0.8,0.3,1-0.3c0.1-0.1,0-0.2,0.1-0.3c0.1-0.9,0.1-3.5,0.1-4.4c0-0.4,0-0.9-0.1-1.3c0-0.2,0-0.4-0.1-0.6
			c0-0.1,0-0.2-0.1-0.3c0-0.1,0,0,0-0.2c0-0.2-0.4-0.5-0.7-0.3c-0.1,0-0.2,0.2-0.2,0.3c0,0.2,0,0.2,0,0.2c0,0.1,0,0.1-0.1,0.2
			c0,0.1,0,0.1-0.1,0.5c0,0.4-0.1,0.3-0.1,1.2c0,0,0,2,0,3.6C20.4,7.4,20.4,7.4,20.6,7.8z"/>
	</g>
</g>
</svg>
