<?xml version="1.0" encoding="utf-8"?>
<!-- Generator: Adobe Illustrator 23.0.1, SVG Export Plug-In . SVG Version: 6.00 Build 0)  -->
<svg version="1.1" id="Layer_1" xmlns="http://www.w3.org/2000/svg" xmlns:xlink="http://www.w3.org/1999/xlink" x="0px" y="0px"
	 viewBox="0 0 31.7 40" style="enable-background:new 0 0 31.7 40;" xml:space="preserve">
<g>
	<path d="M31.6,20.1c-0.1-6.3-0.1-12.8-0.1-19.2c0-0.2-0.1-0.3-0.2-0.5l0,0c0,0-0.1-0.1-0.1-0.1c-0.1-0.1-0.3-0.2-0.5-0.2
		c-3-0.1-6.2-0.2-9.8-0.2C20.7,0,20.5,0,20.3,0c-2.9,0-6,0.1-9.8,0.2c-0.1,0-0.2,0-0.3,0L6.1,0.4C4.3,0.4,2.6,0.5,0.8,0.5
		c-0.1,0-0.2,0-0.2,0c0,0-0.1,0-0.1,0C0.2,0.7,0,0.9,0,1.2v38.1c0,0.1,0,0.2,0.1,0.3C0.2,39.9,0.5,40,0.8,40c0,0,0,0,0,0
		c10-0.3,19.8-0.5,29.6-0.1c0.1,0,0.2,0,0.3,0c0.2,0,0.4,0,0.6-0.1c0.2-0.1,0.3-0.3,0.3-0.6C31.7,32.9,31.6,26.4,31.6,20.1z
		 M6.4,1.6l1.6,0C7.7,2.2,7.4,2.8,7.1,3.3c0,0,0,0,0,0.1L5.4,3.5L6.4,1.6z M3.9,1.7l1.1,0L4,3.4c0,0,0,0.1,0,0.1l-1.1,0L3.9,1.7z
		 M1.6,3.6V1.7l1,0C2.5,2,2.4,2.2,2.2,2.5C2.1,2.9,1.9,3.2,1.6,3.6C1.7,3.6,1.7,3.6,1.6,3.6z M9.5,38.4c-2.6,0.1-5.2,0.1-7.9,0.2
		V28.2c1.9-0.1,3.8-0.1,5.7-0.2L9.5,28V38.4z M9.5,26.6l-2.2,0.1c-1.9,0.1-3.8,0.1-5.7,0.2V16.5c1.8-0.1,3.6-0.1,5.4-0.2l2.4-0.1
		V26.6z M9.5,14.9L7.6,15c-2,0.1-4,0.1-6,0.2V4.8c2.1-0.1,4.2-0.1,6.2-0.2l1.6-0.1V14.9z M9.5,3.3l-1.3,0c0.4-0.6,0.6-1.2,0.9-1.8
		c0,0,0,0,0,0l0.3,0V3.3z M19.8,38.3c-2.7,0-5.5,0-8.6,0.1V27.9c3.3-0.1,6.1-0.2,8.6-0.2V38.3z M19.8,26.3c-2.5,0-5.3,0.1-8.6,0.2
		V16.2c3.4-0.1,6.1-0.2,8.6-0.2V26.3z M19.8,14.7c-2.5,0-5.2,0.1-8.6,0.2V4.5c3.4-0.1,6.1-0.2,8.6-0.2V14.7z M19.8,3.1
		c-2.6,0-5.1,0-8.6,0.2V1.4c3.5-0.1,6-0.1,8.6-0.1V3.1z M29.8,1.8c0,0.4,0,0.9,0,1.3c-0.2,0-0.5,0-0.7,0l-0.2,0
		C29.2,2.7,29.5,2.2,29.8,1.8z M29.9,16.1c0,3.4,0.1,6.9,0.1,10.3c-2.2-0.1-4.6-0.1-7.2-0.1c-0.4,0-0.9,0-1.4,0V16
		C24.6,16,27.3,16,29.9,16.1z M21.4,14.6V4.3c3.1,0,5.9,0,8.4,0.1c0,3.5,0,6.9,0.1,10.4c-2.2-0.1-4.6-0.1-7.1-0.1
		C22.3,14.6,21.9,14.6,21.4,14.6z M27.9,1.3c0.3,0,0.7,0,1,0c-0.5,0.6-0.9,1.2-1.2,1.7l-0.3,0c-0.2,0-0.4,0-0.6,0
		C27.1,2.5,27.5,1.9,27.9,1.3z M25.7,1.3l0.5,0c0.1,0,0.2,0,0.3,0c-0.4,0.6-0.8,1.1-1.2,1.7c0,0,0,0.1-0.1,0.1c-0.3,0-0.6,0-0.9,0
		C24.8,2.4,25.2,1.8,25.7,1.3z M23.5,1.3c0.2,0,0.4,0,0.6,0l0.1,0c-0.5,0.6-0.9,1.2-1.2,1.7c0,0,0,0,0,0c-0.2,0-0.5,0-0.7,0l-0.1,0
		C22.6,2.4,23.1,1.8,23.5,1.3z M21.5,1.3l0.3,0c0.1,0,0.3,0,0.4,0c-0.2,0.3-0.5,0.6-0.7,1V1.3z M21.4,38.3V27.7c3.2,0,6,0,8.6,0.1
		c0,3.6,0,7.1,0.1,10.7C27.4,38.4,24.6,38.4,21.4,38.3z"/>
</g>
</svg>
