<?xml version="1.0" encoding="utf-8"?>
<!-- Generator: Adobe Illustrator 23.0.1, SVG Export Plug-In . SVG Version: 6.00 Build 0)  -->
<svg width="24" height="21"  version="1.1" id="Layer_1" xmlns="http://www.w3.org/2000/svg" xmlns:xlink="http://www.w3.org/1999/xlink" x="0px" y="0px"
	 viewBox="0 0 45.3 40" style="enable-background:new 0 0 45.3 40;" xml:space="preserve">
<g>
	<g>
		<path fill="#333333" d="M2.6,7.8C2.6,7.8,2.6,7.8,2.6,7.8L2.6,7.8z"/>
		<path fill="#333333" d="M44.9,13.3c-0.3-0.9-0.9-1.6-1.6-2.2c-0.6-0.6-1.3-1.2-2-1.7C41,9.1,40.6,9,40.2,8.8c0-1.9,0-4-0.7-5.7
			c-0.6-1.5-1.7-2.9-3.4-3.1c-1-0.1-1.9,0.3-2.7,0.7c-0.9,0.4-1.8,0.9-2.7,1.3c-1,0.5-2,0.9-3.1,1.3c-1,0.4-1.9,0.9-2.9,1.4
			c-1.1,0.5-2.1,1-3.2,1.4c-0.6,0.2-1.1,0.5-1.7,0.7c-0.4,0.2-0.8,0.4-1.2,0.7c0,0,0,0,0,0c-0.2-0.1-0.5-0.1-0.8-0.1
			c-0.4,0-0.9,0-1.3,0c-1.3,0-2.5,0-3.8,0c-2.8,0-5.5-0.1-8.3,0.1c-0.5,0-1,0.1-1.5,0.1c-0.1,0-0.2,0-0.2,0c0,0,0,0,0,0c0,0,0,0,0,0
			c0.1,0,0,0-0.1,0c0,0,0,0-0.1,0C1.8,7.7,1.4,8.5,1.1,9c-0.4,0.6-0.7,1.3-0.8,2c-0.1,0.7-0.2,1.4-0.2,2.1c0,0.7-0.1,1.4-0.1,2.1
			c0,0.7,0.1,1.4,0.2,2.2c0.1,0.7,0.2,1.5,0.3,2.2c0.3,1.2,0.7,2.6,1.5,3.7c0.1,0.3,0.5,0.6,0.8,0.5c0.4,0.1,0.8,0.1,1.1,0.1
			c0,0.5,0.1,0.9,0.2,1.4c0.1,0.7,0.4,1.4,0.5,2.1c0.4,1.5,0.8,2.9,1.1,4.4c0.6,2.5,0.7,5.6,3,7.3c1.8,1.3,4.6,1.3,6.1-0.4
			c1.4-1.7,0.8-4.1,0.2-6c-0.9-2.9-1.8-5.9-2.8-8.7c1.1,0,2.2,0,3.4,0h1.2c0.4,0,0.9-0.1,1.3-0.1c0.1,0,0.2,0,0.3-0.1
			c0.4,0.3,1,0.5,1.4,0.8c1,0.5,1.9,1,2.9,1.5c1.9,1,3.8,1.9,5.8,2.7c1,0.4,1.9,0.8,2.9,1c1,0.3,2,0.5,3,0.8c0.9,0.3,1.8,0.4,2.7,0
			c0.9-0.4,1.4-1.2,1.7-2.1c0.2-0.5,0.3-1,0.4-1.4c0.1-0.5,0.3-1,0.4-1.6c0.1-0.6,0.2-1.2,0.2-1.7c0-0.3,0-0.7,0-1
			c0.6-0.2,1.2-0.4,1.8-0.7c1.5-0.8,2.4-2.3,2.9-3.8C45.3,16.8,45.5,14.8,44.9,13.3z M16.4,22.3h-0.3c0.1-0.2,0.1-0.3,0.2-0.5
			c0.1-0.3,0.3-0.6,0.4-0.8c0.2-0.3,0.4-0.6,0.5-0.9c0,0.2,0,0.3,0.1,0.5c-0.2,0.3-0.4,0.7-0.6,1C16.6,21.8,16.4,22,16.4,22.3z
			 M7.4,23.9C7,24.4,6.7,25,6.3,25.5C6.2,25.7,6.1,25.8,6,26c0-0.1-0.1-0.2-0.1-0.3C6,25.6,6,25.5,6,25.4c0.2-0.5,0.5-1,0.8-1.5
			C7,23.9,7.2,23.9,7.4,23.9z M5.8,25.1c0-0.1,0-0.1-0.1-0.2c-0.1-0.2-0.1-0.4-0.2-0.6c0.1-0.2,0.2-0.3,0.3-0.4c0,0,0,0,0,0
			c0.2,0,0.4,0,0.7,0C6.3,24.3,6,24.7,5.8,25.1z M5.4,23.9c0.1,0,0.1,0,0.2,0C5.5,24,5.5,24,5.4,24.1C5.4,24,5.4,24,5.4,23.9z
			 M13.5,32c0.5,1.5,1.4,3.5,0.7,5c-0.6,1.6-2.9,1.7-4.2,0.8c-0.8-0.5-1.3-1.4-1.6-2.3c-0.4-1.3-0.5-2.6-0.8-3.9
			c-0.3-1.5-0.8-3-1.2-4.5c-0.1-0.2-0.1-0.4-0.2-0.6c0.1-0.1,0.1-0.3,0.2-0.4c0.1-0.2,0.3-0.4,0.4-0.6c0.3-0.5,0.6-1,0.9-1.5
			c0-0.1,0-0.1,0-0.1c0.2,0,0.4,0,0.6,0c0,0,0,0,0.1,0c-0.2,0.4-0.4,0.8-0.6,1.3c-0.2,0.5-0.6,1.1-0.7,1.6c0,0.1,0.1,0.2,0.2,0.1
			c0.5-0.3,0.7-1,0.9-1.5c0.2-0.5,0.4-1,0.7-1.5c0.2,0,0.4,0,0.6,0c-0.3,0.4-0.5,0.9-0.7,1.3c-0.2,0.4-0.7,1.2-0.5,1.7
			c0,0.1,0.1,0.1,0.2,0.1c0.2-0.2,0.2-0.4,0.3-0.7c0.1-0.3,0.3-0.7,0.4-1c0.2-0.5,0.5-0.9,0.7-1.4c0.3,0,0.5,0,0.8,0
			c-0.2,0.6-0.5,1.1-0.9,1.6c-0.2,0.4-0.7,1-0.6,1.5c0,0.1,0.1,0.1,0.2,0.1c0.2-0.2,0.3-0.5,0.4-0.8c0.1-0.3,0.3-0.5,0.4-0.8
			c0.3-0.5,0.5-1,0.7-1.6c0.1,0.3,0.2,0.7,0.4,1c-0.1,0.1-0.1,0.3-0.2,0.4c-0.2,0.4-0.4,0.9-0.4,1.4c0,0.1,0.1,0.1,0.2,0.1
			c0.3-0.4,0.4-0.9,0.6-1.4C12.2,27.6,12.8,29.8,13.5,32z M12.3,22.3C12.3,22.3,12.3,22.3,12.3,22.3c0.1-0.4,0.2-0.7,0.4-1.1
			c0.3-0.6,0.6-1.2,0.9-1.9c0.1-0.2-0.2-0.4-0.3-0.2c-0.3,0.7-0.8,1.4-1.1,2.1c-0.1,0.3-0.3,0.7-0.4,1.1c-0.3,0-0.5,0-0.8,0
			c0,0,0,0,0,0c0.1-0.3,0.3-0.6,0.4-0.9c0.3-0.7,0.5-1.4,0.8-2c0.1-0.2-0.2-0.3-0.3-0.2c-0.4,0.7-0.6,1.4-1,2.1
			c-0.1,0.3-0.4,0.7-0.5,1.1c-0.2,0-0.5,0-0.7,0c0.1-0.2,0.2-0.5,0.2-0.7c0.3-0.8,0.8-1.5,0.9-2.3c0-0.2-0.3-0.4-0.4-0.1
			c-0.2,0.7-0.7,1.3-0.9,2c-0.1,0.3-0.3,0.7-0.3,1c0,0,0,0,0,0.1c-0.3,0-0.5,0-0.8,0c0.1-0.3,0.2-0.6,0.3-0.8c0.3-0.7,0.6-1.3,0.9-2
			c0.1-0.2-0.2-0.4-0.3-0.2c-0.3,0.7-0.7,1.4-1,2.1C8.1,21.7,8,22,7.9,22.3c-0.2,0-0.4,0-0.7,0c0-0.1,0-0.2,0.1-0.2
			c0.1-0.3,0.3-0.6,0.4-1c0.4-0.7,0.6-1.5,0.9-2.3c0.1-0.2-0.2-0.3-0.3-0.2c-0.4,0.8-0.8,1.6-1.2,2.4c-0.2,0.3-0.4,0.8-0.5,1.2
			c-0.3,0-0.6,0-1,0c0.1-0.2,0.1-0.4,0.2-0.6c0.2-0.3,0.3-0.7,0.5-1c0.3-0.7,0.6-1.4,1.1-2c0.1-0.1-0.1-0.3-0.3-0.2
			c-0.5,0.6-0.9,1.4-1.2,2.1c-0.2,0.4-0.4,0.7-0.5,1.1c-0.1,0.2-0.2,0.4-0.3,0.7c0,0,0,0,0,0c-0.2,0-0.4,0-0.6,0
			c0-0.1,0-0.2,0.1-0.3c0.1-0.4,0.2-0.7,0.4-1c0.3-0.7,0.6-1.4,0.8-2.1c0.1-0.2-0.3-0.3-0.3-0.1c-0.2,0.7-0.6,1.4-0.9,2.2
			c-0.1,0.3-0.4,0.9-0.5,1.4c-0.1,0-0.3,0-0.4,0c-0.1,0-0.2,0-0.3,0c0.1-0.2,0.1-0.5,0.1-0.7c0.1-0.4,0.3-0.7,0.4-1
			c0.3-0.7,0.4-1.4,0.9-2c0.1-0.1-0.1-0.3-0.2-0.2c-0.5,0.5-0.8,1.3-1,1.9c-0.1,0.4-0.3,0.7-0.4,1.1c0,0.1-0.1,0.2-0.1,0.3
			c-0.1-0.2-0.2-0.4-0.3-0.6c0-0.1-0.1-0.2-0.1-0.3c0-0.2,0.1-0.4,0.2-0.5c0.2-0.6,0.4-1.2,0.7-1.8c0.1-0.2-0.2-0.3-0.3-0.2
			c-0.3,0.6-0.6,1.2-0.8,1.8c0,0,0,0,0,0c-0.1-0.3-0.2-0.6-0.3-0.8c0-0.1,0-0.2-0.1-0.3c0.2-0.4,0.4-0.9,0.7-1.2
			c0.1-0.1-0.1-0.4-0.2-0.2c-0.3,0.3-0.5,0.5-0.6,0.9c-0.1-0.3-0.1-0.7-0.2-1c-0.1-0.7-0.2-1.3-0.2-2c0-0.6,0-1.3,0-1.9
			c0.1-0.6,0.1-1.2,0.1-1.9C1.8,11.2,2,10.6,2.2,10c0.2-0.4,0.4-0.7,0.5-1.1c0,0,0,0,0,0C3.2,9,3.6,9,4,9.1c1.2,0.1,2.4,0,3.6,0
			c2.8,0,5.6,0,8.4,0c0.5,0,1,0,1.5,0c0,0.1,0,0.2-0.1,0.2c-0.1,0.6-0.3,1.2-0.3,1.8C17.1,12.5,17,13.8,17,15
			c-0.1,1.4,0,2.9,0.2,4.3c-0.3,0.5-0.7,1-1,1.4c-0.2,0.3-0.7,1-0.6,1.5h-0.8c0.1-0.2,0.1-0.4,0.2-0.6c0.1-0.3,0.3-0.7,0.4-1
			c0.3-0.6,0.6-1.2,0.9-1.8c0.1-0.2-0.2-0.4-0.3-0.2c-0.4,0.6-0.8,1.3-1.1,1.9c-0.2,0.4-0.6,1.1-0.6,1.6h-0.3c0-0.1,0.1-0.2,0.1-0.3
			c0.1-0.3,0.3-0.7,0.4-1c0.3-0.6,0.6-1.2,0.8-1.8c0.1-0.3-0.3-0.3-0.4-0.1c-0.2,0.7-0.6,1.3-0.9,1.9c-0.2,0.3-0.5,0.9-0.6,1.3h-0.3
			C12.8,22.3,12.5,22.3,12.3,22.3z M17.4,22.3c-0.1,0-0.1,0-0.2,0H17c0.1-0.2,0.2-0.5,0.2-0.7c0.1-0.1,0.1-0.3,0.2-0.4
			c0.1,0.3,0.1,0.7,0.2,1C17.5,22.3,17.5,22.3,17.4,22.3z M38.6,8.7C38.6,8.7,38.5,8.7,38.6,8.7c-0.2,0-0.3,0-0.4,0
			c0.1-0.1,0.1-0.2,0.2-0.3c0.1-0.1,0.1-0.2,0.2-0.2C38.6,8.3,38.6,8.5,38.6,8.7z M38.5,24.3c0,0.2,0,0.3,0,0.5
			c-0.1,0.4-0.1,0.7-0.2,1.1c0,0,0,0,0,0c-0.1,0.1-0.1,0.3-0.2,0.4c0-0.1,0-0.3,0-0.4c0.1-0.3,0.2-0.6,0.3-0.9
			C38.4,24.8,38.5,24.5,38.5,24.3z M38.5,23.2c-0.3,0.5-0.4,1-0.6,1.5c0,0,0,0.1,0,0.1c0-0.3-0.1-0.6-0.1-0.9c0,0,0,0,0-0.1
			c0,0,0,0,0,0c0.1-0.2,0.2-0.5,0.3-0.7C38.2,23.1,38.4,23.1,38.5,23.2C38.5,23.1,38.5,23.1,38.5,23.2z M37.7,23.1
			C37.7,23.1,37.7,23.1,37.7,23.1C37.7,23.1,37.7,23.1,37.7,23.1C37.7,23.1,37.7,23.1,37.7,23.1z M37.5,6.6c0.1-0.4,0.3-0.7,0.5-1.1
			c0.1-0.2,0.2-0.4,0.4-0.7c0,0.2,0.1,0.4,0.1,0.6c-0.3,0.4-0.5,0.8-0.7,1.2c-0.2,0.3-0.4,0.7-0.5,1c0,0,0,0,0,0.1
			c0-0.1,0-0.2,0-0.3C37.4,7.2,37.4,6.9,37.5,6.6z M38.6,7.8c-0.1,0.1-0.3,0.3-0.4,0.4c-0.1,0.2-0.3,0.4-0.4,0.6c0,0,0,0-0.1,0
			c0.1-0.2,0.1-0.3,0.2-0.5c0.2-0.3,0.4-0.7,0.6-1C38.6,7.5,38.6,7.6,38.6,7.8z M38.6,6.7c-0.4,0.5-0.7,1-1,1.5
			c-0.1,0.2-0.3,0.4-0.4,0.7c0-0.1,0-0.1,0-0.2c0.2-0.2,0.3-0.5,0.5-0.8C37.8,7.6,38,7.3,38.2,7c0.1-0.3,0.2-0.5,0.4-0.8
			C38.5,6.4,38.5,6.6,38.6,6.7z M38.3,4.4c-0.2,0.4-0.5,0.8-0.7,1.2c-0.1,0.1-0.2,0.3-0.3,0.5c0-0.2,0-0.4,0-0.5
			c0.1-0.2,0.1-0.3,0.2-0.5c0.2-0.4,0.3-0.9,0.5-1.3c0,0,0-0.1,0-0.1C38.1,3.9,38.2,4.1,38.3,4.4z M38,3.5c-0.1-0.1-0.2-0.1-0.3,0
			c-0.2,0.4-0.4,0.8-0.5,1.2c0-0.4,0-0.7,0-1.1c0.1-0.3,0.3-0.5,0.4-0.8c0.1,0.2,0.2,0.3,0.3,0.5C37.9,3.4,37.9,3.5,38,3.5z
			 M37.4,2.5c-0.1,0.1-0.2,0.3-0.3,0.4c0-0.2,0-0.4,0-0.7c0,0,0-0.1,0-0.1C37.2,2.3,37.3,2.4,37.4,2.5z M36.9,29.1
			c-0.3,0.2-0.6,0.2-0.9,0.2c0,0,0,0,0,0c0.1-0.5,0.3-0.9,0.5-1.4c0.1-0.2-0.3-0.3-0.3-0.1c-0.1,0.4-0.3,0.8-0.5,1.2
			c0,0.1,0,0.1,0,0.2c-0.3-0.1-0.6-0.2-0.8-0.2c-0.1,0-0.3-0.1-0.4-0.1c0.1-0.3,0.2-0.6,0.3-0.8c0.2-0.4,0.4-0.8,0.6-1.2
			c0.1-0.2-0.2-0.4-0.3-0.2c-0.2,0.4-0.4,0.8-0.6,1.3c-0.1,0.3-0.2,0.6-0.3,0.8c-0.3-0.1-0.6-0.2-0.9-0.2c0-0.2,0.1-0.4,0.1-0.7
			c0.1-0.4,0.3-0.7,0.4-1.1c0.3-0.8,0.5-1.6,0.9-2.3c0.1-0.2-0.2-0.4-0.3-0.2c-0.4,0.8-0.7,1.6-1,2.4c-0.2,0.4-0.6,1.1-0.7,1.7
			c-0.2,0-0.3-0.1-0.5-0.1c-0.2-0.1-0.4-0.1-0.6-0.2c0-0.2,0.1-0.4,0.2-0.5c0.2-0.5,0.3-0.9,0.5-1.4c0.3-1,0.7-2,1.2-2.9
			c0.1-0.2-0.2-0.4-0.3-0.2c-0.5,0.9-0.9,1.9-1.2,2.9c-0.2,0.5-0.3,1-0.5,1.5c-0.1,0.2-0.1,0.3-0.2,0.5c-0.4-0.1-0.7-0.3-1.1-0.4
			c0-0.2,0.1-0.3,0.1-0.5c0.2-0.5,0.3-1,0.5-1.5c0.3-1.1,0.7-2.1,1.2-3.1c0.1-0.2-0.2-0.3-0.3-0.2c-0.6,1-1,2-1.3,3.1
			c-0.2,0.5-0.4,1.1-0.5,1.6c0,0.1-0.1,0.2-0.1,0.4c-0.1,0-0.1,0-0.2-0.1c-0.3-0.1-0.5-0.2-0.8-0.3c0-0.1,0.1-0.2,0.1-0.3
			c0.1-0.4,0.2-0.8,0.3-1.2c0.2-0.8,0.4-1.7,0.8-2.4c0.1-0.2-0.2-0.4-0.3-0.2c-0.4,0.7-0.6,1.5-0.8,2.3c-0.1,0.4-0.2,0.8-0.3,1.2
			c0,0.2-0.1,0.3-0.2,0.5c-0.4-0.2-0.7-0.3-1.1-0.5c0-0.2,0.1-0.3,0.1-0.4c0.1-0.4,0.2-0.8,0.4-1.2c0.3-0.8,0.5-1.7,1-2.4
			c0.1-0.2-0.2-0.3-0.3-0.2c-0.5,0.7-0.8,1.6-1,2.4c-0.1,0.4-0.3,0.9-0.4,1.3c0,0.1-0.1,0.2-0.1,0.4c-0.3-0.1-0.5-0.2-0.8-0.4
			c0-0.1,0-0.2,0-0.3c0.1-0.4,0.2-0.9,0.4-1.3c0.3-0.9,0.7-1.7,0.9-2.6c0.1-0.2-0.2-0.3-0.3-0.1c-0.3,0.9-0.8,1.8-1.1,2.8
			c-0.2,0.4-0.3,0.9-0.4,1.4c0,0,0,0,0,0c-0.4-0.2-0.7-0.4-1.1-0.5c0.2-0.4,0.2-0.9,0.4-1.2c0.3-0.9,0.7-1.8,1.1-2.7
			c0.1-0.2-0.2-0.3-0.3-0.2c-0.4,0.8-0.9,1.7-1.2,2.6c-0.2,0.4-0.3,0.9-0.4,1.4c-0.4-0.2-0.8-0.4-1.2-0.6c0,0,0-0.1,0-0.1
			c0.1-0.4,0.3-0.8,0.4-1.2c0.3-0.8,0.6-1.6,0.9-2.3c0.1-0.1-0.2-0.3-0.3-0.1c-0.3,0.8-0.7,1.5-1,2.3c-0.1,0.4-0.3,0.8-0.4,1.2
			c0,0.1,0,0.1-0.1,0.2c-0.3-0.1-0.6-0.3-0.9-0.4c0-0.2,0-0.3,0.1-0.5c0.1-0.3,0.1-0.6,0.2-0.9c0.2-0.6,0.5-1.2,0.7-1.8
			c0.1-0.1-0.2-0.2-0.2-0.1c-0.3,0.6-0.6,1.2-0.8,1.9c-0.1,0.4-0.3,0.9-0.4,1.3c0,0-0.1,0-0.1,0c-0.2-0.1-0.3-0.1-0.5-0.2
			c0-0.1,0-0.2,0-0.3c0.1-0.3,0.1-0.7,0.2-1c0.2-0.7,0.5-1.4,0.8-2c0.1-0.1-0.1-0.3-0.2-0.1c-0.4,0.6-0.8,1.3-1,2
			c-0.1,0.4-0.2,0.7-0.3,1.1c0,0,0,0.1,0,0.1c-0.3-0.1-0.5-0.2-0.8-0.3c0-0.1,0-0.2,0-0.3c0-0.3,0.1-0.5,0.2-0.7
			c0.2-0.5,0.4-1.1,0.7-1.6c0.1-0.1-0.1-0.2-0.2-0.1c-0.3,0.5-0.6,1-0.8,1.6c-0.1,0.3-0.2,0.6-0.3,1c0,0,0,0,0,0c0-0.1,0-0.1,0-0.2
			c-0.1-0.3-0.1-0.7-0.2-1c0-0.1,0-0.2,0.1-0.3c0.1-0.4,0.3-0.8,0.4-1.2c0-0.1-0.1-0.2-0.2-0.1c-0.1,0.3-0.2,0.6-0.4,1
			c-0.3-1.9-0.4-3.7-0.4-5.6c0-1.2,0.1-2.4,0.1-3.6c0-0.6,0.1-1.1,0.1-1.7c0-0.3,0.1-0.5,0.1-0.8c0-0.1,0-0.1,0-0.2
			C19,8.8,19,8.7,19.1,8.6c0.4-0.1,0.7-0.2,1.1-0.3C20.6,8.1,21,8,21.5,7.8c0.9-0.4,1.9-0.7,2.8-1.1c1.8-0.8,3.6-1.8,5.5-2.5
			c0.9-0.4,1.8-0.8,2.7-1.2c0.8-0.4,1.6-0.9,2.5-1.2c0.6-0.2,1.2-0.2,1.8,0.1c0,0,0.1,0.1,0.1,0.1c-0.1,0-0.2,0-0.3,0.1
			c-0.4,0.8-0.5,1.6-0.5,2.4c-0.1,0.9-0.1,1.7-0.3,2.6c-0.2,1.8-0.2,3.6-0.2,5.3c0,1.8,0.1,3.6,0.2,5.4c0.1,1.8,0.1,3.7,0.3,5.5
			c0.1,1,0.3,1.9,0.4,2.9c0.1,0.9,0.3,1.7,0.8,2.3C37.2,28.8,37.1,29,36.9,29.1z M43.1,17.6c-0.1,0.3-0.2,0.5-0.3,0.8
			c-0.1,0-0.2,0-0.3,0.1c-0.2,0.5-0.6,0.9-0.8,1.3c-0.1,0.1-0.2,0.3-0.3,0.5c-0.1,0.1-0.1,0.1-0.2,0.2c-0.2,0.1-0.3,0.2-0.5,0.3
			c0.2-0.7,0.8-1.3,1-2c0.1-0.3-0.3-0.4-0.4-0.1c-0.3,0.9-1.1,1.5-1.2,2.4c-0.3,0.1-0.5,0.2-0.8,0.3c0.1-0.4,0.3-0.9,0.5-1.2
			c0.3-0.6,0.5-1.2,0.9-1.6c0.2-0.2-0.1-0.5-0.3-0.3c-0.5,0.5-0.8,1.2-1.1,1.8c-0.2,0.4-0.5,1-0.6,1.5c-0.3,0-0.5,0.1-0.8,0.1
			c0-0.2,0.1-0.5,0.2-0.6c0.1-0.3,0.3-0.6,0.5-0.9c0.4-0.7,0.7-1.4,1.1-2.1c0.1-0.2-0.2-0.4-0.3-0.2c-0.5,0.9-1,1.8-1.5,2.7
			c-0.1,0.2-0.3,0.5-0.4,0.8c0-0.3,0-0.6,0-0.9c0-0.1,0-0.2,0.1-0.3c0.1-0.4,0.3-0.8,0.5-1.2c0.3-0.7,0.7-1.4,1.1-2
			c0.1-0.2-0.2-0.4-0.3-0.2c-0.4,0.7-0.9,1.5-1.3,2.2c0,0.1-0.1,0.1-0.1,0.2c0-0.2,0-0.3,0-0.5c0-0.1,0-0.1,0-0.2c0,0,0-0.1,0-0.1
			c0.3-0.7,0.6-1.3,0.9-2c0.1-0.2-0.2-0.4-0.3-0.2c-0.2,0.4-0.5,0.9-0.7,1.3c0-0.3,0-0.6,0-0.8c0.2-0.3,0.3-0.7,0.4-1.1
			c0-0.2-0.2-0.3-0.3-0.1c0,0.1-0.1,0.2-0.1,0.3c0-0.1,0-0.2,0-0.3c0-0.1,0.1-0.2,0.1-0.3c0.1-0.1-0.1-0.2-0.2-0.2
			c0-0.6,0-1.2-0.1-1.8c0-1-0.1-2-0.1-3c1.1-0.2,2.3-0.2,3.3,0.4c0.6,0.4,1,0.9,1.5,1.4c0.5,0.5,0.9,1.1,1.1,1.7
			C43.6,14.9,43.4,16.4,43.1,17.6z"/>
	</g>
</g>
</svg>
