<?xml version="1.0" encoding="utf-8"?>
<!-- Generator: Adobe Illustrator 16.0.0, SVG Export Plug-In . SVG Version: 6.00 Build 0)  -->
<!DOCTYPE svg PUBLIC "-//W3C//DTD SVG 1.1//EN" "http://www.w3.org/Graphics/SVG/1.1/DTD/svg11.dtd">
<svg version="1.1" id="Layer_1" xmlns="http://www.w3.org/2000/svg" xmlns:xlink="http://www.w3.org/1999/xlink" x="0px" y="0px"
	 width="20px" height="15.004px" viewBox="0 0 20 15.004" enable-background="new 0 0 20 15.004" xml:space="preserve">
<path fill="#808080" d="M19.639,10.154c-0.122-1.084-0.212-2.17-0.272-3.26C19.273,5.2,19.37,3.913,19.141,1.621
	c-0.086-0.516-0.117-0.962-0.315-1.118c-0.158-0.124-1.509-0.191-1.927-0.185c-0.816,0.009-1.626,0.006-2.442,0.002
	c-1.754-0.009-3.509-0.036-5.263-0.047C7.628,0.262,6.075,0.208,4.512,0.117C3.173,0.04,1.478-0.194,0.213,0.346
	C0.134,0.38,0.179,0.48,0.244,0.496C0.206,0.494,0.17,0.513,0.163,0.564C-0.167,2.87,0.07,5.319,0.295,7.625
	c0.117,1.201,0.269,2.402,0.458,3.594c0.18,1.136,0.298,2.396,0.768,3.453c0.059,0.134,0.233,0.116,0.316,0.022
	c2.938,0.437,5.947,0.341,8.901,0.147c1.489-0.098,2.975-0.24,4.46-0.385c1.486-0.145,3.081-0.275,4.51-0.716
	c0.075-0.023,0.089-0.15,0-0.166c-1.336-0.221-2.863,0.223-4.197,0.355c-1.482,0.147-2.965,0.288-4.45,0.398
	c-3.077,0.228-6.13,0.229-9.2-0.077c-0.08-0.956-0.369-1.918-0.535-2.857c-0.221-1.25-0.402-2.506-0.538-3.768
	c-0.254-2.34-0.206-4.7-0.438-7.036C0.346,0.544,0.309,0.511,0.269,0.5c0.684,0.068,1.387-0.043,2.075-0.052
	C3.067,0.439,3.79,0.483,4.512,0.524c1.564,0.087,3.116,0.151,4.682,0.161c2.823,0.019,5.642,0.017,8.459-0.011
	c0.514,0.03,0.983-0.039,0.901,0.436c-0.002,0.012,0.008,0.052,0.002,0.062c-0.05,0.082-2.485,3.402-3.679,4.761
	c-1.363,1.551-2.887,2.861-4.442,4.206c-0.004,0.004-0.006,0.009-0.01,0.013C9.626,9.53,8.976,8.89,8.256,8.287
	C7.318,7.502,6.419,6.673,5.563,5.8C4.642,4.86,3.773,3.868,2.86,2.921C2.223,2.259,1.564,1.237,0.681,0.9
	C0.593,0.866,0.521,0.996,0.59,1.057C1.308,1.69,1.883,2.54,2.536,3.245c0.894,0.966,1.769,1.951,2.67,2.911
	c0.788,0.838,1.653,1.6,2.534,2.339c-0.848,0.832-1.732,1.612-2.662,2.356c-0.998,0.799-2.079,1.501-2.954,2.441
	c-0.024,0.026,0.007,0.063,0.038,0.049c1.085-0.52,2.038-1.259,2.987-1.992c1.026-0.793,2.043-1.618,2.934-2.565
	c0.795,0.672,2.288,1.979,2.432,1.864c0.843-0.674,1.897-1.511,2.685-2.281c0.848,0.869,1.869,1.538,2.843,2.256
	c1.039,0.766,2.02,1.906,3.228,2.393c0.048,0.019,0.078-0.049,0.048-0.08c-1.767-1.839-3.977-3.138-5.89-4.796
	c0.615-0.616,1.201-1.258,1.765-1.89c1.269-1.419,2.669-3,3.517-4.732c0.004,0.02,0.008,0.041,0.012,0.061
	c0.051,1.88-0.065,3.762,0.038,5.642c0.111,1.991,0.15,4.375,0.973,6.222c0.061,0.135,0.265,0.06,0.266-0.072
	C20.006,12.3,19.759,11.216,19.639,10.154"/>
</svg>
