<?xml version="1.0" encoding="utf-8"?>
<!-- Generator: Adobe Illustrator 23.0.1, SVG Export Plug-In . SVG Version: 6.00 Build 0)  -->
<svg width="20" height="16" version="1.1" id="Layer_1" xmlns="http://www.w3.org/2000/svg" xmlns:xlink="http://www.w3.org/1999/xlink" x="0px" y="0px"
	 viewBox="0 0 40 30" style="enable-background:new 0 0 40 30;" xml:space="preserve">
<g>
	<path fill="#fff" d="M39.3,20.3c-0.2-2.2-0.4-4.3-0.5-6.5c-0.2-3.4,0-6-0.5-10.5c-0.2-1-0.2-1.9-0.6-2.2c-0.3-0.2-3-0.4-3.9-0.4
		c-1.6,0-3.3,0-4.9,0c-3.5,0-7-0.1-10.5-0.1c-3.1,0-6.2-0.1-9.4-0.3C6.3,0.1,3-0.4,0.4,0.7C0.3,0.8,0.4,1,0.5,1C0.4,1,0.3,1,0.3,1.1
		c-0.7,4.6-0.2,9.5,0.3,14.1c0.2,2.4,0.5,4.8,0.9,7.2c0.4,2.3,0.6,4.8,1.5,6.9c0.1,0.3,0.5,0.2,0.6,0c5.9,0.9,11.9,0.7,17.8,0.3
		c3-0.2,5.9-0.5,8.9-0.8c3-0.3,6.2-0.5,9-1.4c0.2,0,0.2-0.3,0-0.3c-2.7-0.4-5.7,0.4-8.4,0.7c-3,0.3-5.9,0.6-8.9,0.8
		C16,29.1,9.9,29.1,3.7,28.5c-0.2-1.9-0.7-3.8-1.1-5.7c-0.4-2.5-0.8-5-1.1-7.5C1.1,10.6,1.2,5.9,0.7,1.2C0.7,1.1,0.6,1,0.5,1
		c1.4,0.1,2.8-0.1,4.1-0.1C6.1,0.9,7.6,1,9,1c3.1,0.2,6.2,0.3,9.4,0.3c5.6,0,11.3,0,16.9,0c1,0.1,2-0.1,1.8,0.9c0,0,0,0.1,0,0.1
		c-0.1,0.2-5,6.8-7.4,9.5C27,15,24,17.6,20.9,20.3c0,0,0,0,0,0c-1.6-1.2-2.9-2.5-4.3-3.7c-1.9-1.6-3.7-3.2-5.4-5
		C9.3,9.7,7.5,7.7,5.7,5.8c-1.3-1.3-2.6-3.4-4.4-4C1.2,1.7,1,2,1.2,2.1c1.4,1.3,2.6,3,3.9,4.4c1.8,1.9,3.5,3.9,5.3,5.8
		c1.6,1.7,3.3,3.2,5.1,4.7c-1.7,1.7-3.5,3.2-5.3,4.7c-2,1.6-4.2,3-5.9,4.9c0,0.1,0,0.1,0.1,0.1c2.2-1,4.1-2.5,6-4
		c2.1-1.6,4.1-3.2,5.9-5.1c1.6,1.3,4.6,4,4.9,3.7c1.7-1.3,3.8-3,5.4-4.6c1.7,1.7,3.7,3.1,5.7,4.5c2.1,1.5,4,3.8,6.5,4.8
		c0.1,0,0.2-0.1,0.1-0.2c-3.5-3.7-8-6.3-11.8-9.6c1.2-1.2,2.4-2.5,3.5-3.8c2.5-2.8,5.3-6,7-9.5c0,0,0,0.1,0,0.1
		c0.1,3.8-0.1,7.5,0.1,11.3c0.2,4,0.3,8.7,1.9,12.4c0.1,0.3,0.5,0.1,0.5-0.1C40,24.6,39.5,22.4,39.3,20.3z"/>
</g>
</svg>
