<?xml version="1.0" encoding="utf-8"?>
<!-- Generator: Adobe Illustrator 23.0.3, SVG Export Plug-In . SVG Version: 6.00 Build 0)  -->
<svg version="1.1" id="Layer_1" xmlns="http://www.w3.org/2000/svg" xmlns:xlink="http://www.w3.org/1999/xlink" x="0px" y="0px"
	 viewBox="0 0 12 16" style="enable-background:new 0 0 12 16;" xml:space="preserve" width="12" height="16">
<style type="text/css">
	.st0{fill:#D41C5D;}
</style>
<path class="st0" d="M10.8,0.1C10.4,0,10.1,0,9.7,0H9.4C9,0,8.5,0,8.1,0c-0.5,0-1,0-1.5,0C6.2,0,5.7,0,5.2,0c-0.4,0-0.9,0-1.3,0
	c-0.6,0-1.1,0-1.7,0h-1C1.1,0.1,1,0.1,1,0.2c0,0-0.1,0-0.1,0C0.5,0.3,0.2,0.4,0.3,1c0,0.2,0,0.5,0.1,0.7c0,0.3,0.1,0.6,0.1,0.8
	c0,1,0,2,0,3c0,0.7,0,1.4,0,2.1c0,0.9,0,2.3-0.1,3.6c0,0.6-0.1,1.3-0.1,1.9c0,0.7-0.1,1.3-0.1,1.8c0,0.2,0,0.3,0.1,0.4
	c0,0,0,0.1,0,0.1c0,0.2,0.2,0.4,0.3,0.5h0c0.2,0,0.3-0.2,0.4-0.3c0.4-0.3,1.1-1,1.6-1.4C2.9,14.1,3,14,3.1,13.9l0.4-0.4
	c0.6-0.6,1.4-1.2,2-1.8c0.1-0.1,0.1-0.1,0.1-0.1s0,0,0.1,0c0,0,0.1,0,0.2,0.1c0.9,0.5,1.4,0.8,2.3,1.5c0.2,0.2,0.4,0.4,0.6,0.6
	C8.8,14,9,14.3,9.2,14.4s0.4,0.3,0.6,0.4c0.3,0.2,0.5,0.4,0.8,0.6c0.2,0.2,0.4,0.2,0.6,0.1c0.2-0.1,0.4-0.3,0.4-0.6c0,0,0-0.1,0-0.1
	c0-0.1,0-0.2,0-0.2c0-0.4,0-0.9,0-1.4c0-0.6,0-1.2,0-1.7s0-1,0-1.5c0-0.6,0-1.2,0-1.9c0-0.6,0-1.1,0-1.7s0-1.1,0-1.7s0-1.1,0-1.6
	c0-0.6,0-1.2,0-1.8C11.8,0.6,11.6,0.3,10.8,0.1z"/>
</svg>
