<?xml version="1.0" encoding="utf-8"?>
<!-- Generator: Adobe Illustrator 16.0.0, SVG Export Plug-In . SVG Version: 6.00 Build 0)  -->
<!DOCTYPE svg PUBLIC "-//W3C//DTD SVG 1.1//EN" "http://www.w3.org/Graphics/SVG/1.1/DTD/svg11.dtd">
<svg version="1.1" id="Layer_1" xmlns="http://www.w3.org/2000/svg" xmlns:xlink="http://www.w3.org/1999/xlink" x="0px" y="0px"
	 width="14.505px" height="20px" viewBox="0 0 14.505 20" enable-background="new 0 0 14.505 20" xml:space="preserve">
<path fill="#0071a5" d="M13.283,0.168c-0.549-0.096-0.972-0.091-1.462-0.087l-0.369,0.002c-0.544-0.001-1.083-0.022-1.618-0.042
	c-0.597-0.022-1.19-0.045-1.781-0.04c-0.581,0.004-1.159,0.022-1.738,0.04c-0.552,0.018-1.104,0.035-1.658,0.04
	C3.962,0.087,3.264,0.088,2.559,0.088L1.261,0.09C1.127,0.091,1.017,0.149,0.928,0.196c-0.042,0.022-0.085,0.045-0.111,0.05
	C0.42,0.326,0.022,0.507,0.081,1.255c0.024,0.297,0.068,0.594,0.112,0.89C0.248,2.509,0.3,2.853,0.313,3.201
	C0.36,4.429,0.364,5.713,0.367,6.956C0.37,7.839,0.372,8.72,0.39,9.584c0.023,1.128-0.01,2.919-0.083,4.562
	C0.271,14.96,0.2,15.789,0.137,16.52C0.062,17.401-0.005,18.162,0,18.738c0.001,0.183,0.054,0.35,0.101,0.498
	c0.018,0.054,0.035,0.108,0.048,0.16c0.062,0.25,0.186,0.558,0.424,0.6C0.591,19.998,0.609,20,0.626,20
	c0.199,0,0.39-0.185,0.489-0.335c0.45-0.372,1.339-1.198,1.992-1.807c0.237-0.22,0.437-0.407,0.563-0.522l0.476-0.433
	c0.801-0.727,1.709-1.552,2.441-2.281c0.086-0.084,0.125-0.113,0.122-0.122c0.023,0.01,0.069,0.04,0.107,0.063
	c0.051,0.033,0.11,0.071,0.184,0.112c1.146,0.645,1.797,1.047,2.872,1.861c0.235,0.178,0.481,0.481,0.718,0.773
	c0.243,0.299,0.494,0.609,0.759,0.82c0.242,0.192,0.488,0.376,0.735,0.56c0.329,0.247,0.659,0.493,0.978,0.761
	c0.223,0.189,0.485,0.242,0.717,0.144c0.261-0.109,0.444-0.384,0.502-0.754c0.006-0.038,0.014-0.075,0.022-0.112
	c0.02-0.091,0.042-0.194,0.042-0.312c0.001-0.525,0.005-1.161,0.01-1.804c0.004-0.735,0.01-1.479,0.01-2.079
	c0-0.593-0.012-1.206-0.025-1.832c-0.015-0.775-0.03-1.571-0.024-2.377c0.006-0.693,0.029-1.392,0.051-2.093
	c0.023-0.708,0.045-1.416,0.05-2.118c0.006-0.679,0.026-1.352,0.045-2.011c0.022-0.754,0.043-1.492,0.043-2.201
	C14.504,0.78,14.185,0.327,13.283,0.168 M1.438,13.853c0.087-1.907,0.133-3.811,0.121-4.969C1.55,8.122,1.57,7.323,1.589,6.55
	C1.614,5.559,1.64,4.533,1.607,3.551C1.6,3.316,1.557,3.093,1.516,2.877C1.483,2.709,1.451,2.54,1.438,2.37
	C1.429,2.251,1.427,2.128,1.426,2.001C1.425,1.95,1.424,1.899,1.423,1.848C1.462,1.85,1.5,1.852,1.535,1.852
	c0.609,0.003,1.206,0.035,1.796,0.067c0.595,0.033,1.21,0.066,1.811,0.066C5.771,1.99,6.358,1.956,6.949,1.927
	c0.589-0.03,1.197-0.054,1.798-0.059c0.55,0.002,1.141-0.028,1.72-0.057c0.574-0.029,1.166-0.059,1.761-0.059
	c0.135,0,0.279,0.029,0.453,0.106c0.058,0.025,0.117,0.052,0.178,0.075v0.35c0,1.425,0,3.023-0.011,4.713
	c-0.007,0.938-0.011,1.904-0.016,2.883l-0.023,3.972c-0.008,1.062-0.016,2.118-0.018,3.146c-0.265-0.243-0.528-0.512-0.785-0.775
	c-0.397-0.407-0.807-0.827-1.216-1.144c-0.369-0.285-0.602-0.444-0.854-0.615c-0.193-0.131-0.396-0.269-0.682-0.48
	c-0.284-0.209-0.576-0.405-0.871-0.591c-0.177-0.113-0.363-0.189-0.543-0.263c-0.181-0.073-0.352-0.143-0.501-0.244
	C6.943,12.617,6.534,12.34,6,12.878c-0.331,0.335-0.692,0.719-1.059,1.108c-0.483,0.513-0.982,1.043-1.425,1.472l-0.203,0.196
	c-0.518,0.498-1.314,1.263-1.956,2.064C1.362,16.607,1.375,15.236,1.438,13.853"/>
</svg>
