<?xml version="1.0" encoding="utf-8"?>
<!-- Generator: Adobe Illustrator 23.0.1, SVG Export Plug-In . SVG Version: 6.00 Build 0)  -->
<svg width="14" height="21"   version="1.1" id="Layer_1" xmlns="http://www.w3.org/2000/svg" xmlns:xlink="http://www.w3.org/1999/xlink" x="0px" y="0px"
	 viewBox="0 0 26.5 40" style="enable-background:new 0 0 26.5 40;" xml:space="preserve">
<g>
	<g>
		<path fill="#333333" d="M24.5,4.9c-1.3-1.7-2.8-3-4.7-3.9c-1.3-0.6-2.6-0.9-4.1-1c-2.6-0.2-4.7,0.1-6,0.5C7.5,1.3,5.4,2.4,3.8,4.1
			C2.6,5.1,0.8,7,0.2,8.2c-0.2,0.4-0.2,0.7,0.1,1c2.3,1.8,4.5,3.5,6.7,5.3c0.7,0.5,1.2,0.4,1.8-0.1c0.8-0.8,1.8-1.2,2.9-1.1
			c1.8,0,3,0.9,3.2,2.5c0.1,0.9,0.1,1.8-0.4,2.6c0,0,0,0,0,0c-0.3,0.3-0.6,0.6-0.9,1c0,0,0,0,0,0c-1.2,1.2-2.6,2.3-3.3,3.8
			c-1,1.9-1.1,4.1-0.7,5.3c0.2,0.6,0.4,0.8,0.9,0.8c0.5,0,1.7,0,1.8,0c0.2-0.1,2.1-2,2.4-2.4c0.2-0.1,0.3-0.4,0.3-0.7
			c0-0.4,0.3-0.9,0.4-1.3c0.2-0.8,0.6-1.4,1.1-1.9c-0.1,0.2-0.3,0.3-0.4,0.5c1.7-1.3,3.6-2.4,5.2-3.8c0.6-0.5,1.1-1,1.5-1.6
			c0,0,0,0,0,0c0.3-0.2,0.5-0.4,0.8-0.6c1.8-1.5,2.7-3.6,3-5.9C26.7,9.1,26,6.9,24.5,4.9z M8,13.8c-0.1,0.1-0.3,0.1-0.5,0
			c0-0.2,0.2-0.3,0.3-0.5c0.3-0.5,0.7-1,1-1.5C9,12,9.2,12.1,9.3,12.2c0,0,0.1,0,0.1,0.1c-0.1,0.2-0.3,0.4-0.3,0.4
			c-0.2,0.3-0.4,0.6-0.6,0.8C8.3,13.6,8.2,13.7,8,13.8z M7.6,13.3c0,0.1-0.3,0.3-0.3,0.4c-0.1-0.1-0.2-0.2-0.4-0.3
			c0.2-0.6,1-1.6,1.3-2.1c0,0,0,0,0,0c0.1,0.1,0.3,0.2,0.4,0.3C8.3,12.2,8,12.8,7.6,13.3z M8.1,11.2c-0.3,0.5-1.1,1.5-1.4,2
			c-0.2-0.2-0.4-0.3-0.6-0.5c0.4-0.6,1-1.5,1.4-2.1C7.6,10.9,7.9,11,8.1,11.2C8.1,11.2,8.1,11.2,8.1,11.2z M7,11
			c-0.4,0.6-0.7,1-1.2,1.6c-0.1-0.1-0.3-0.2-0.4-0.3c0-0.2,0.2-0.4,0.3-0.6c0.3-0.5,0.7-1,1-1.5c0.2,0.1,0.3,0.3,0.5,0.4
			C7.1,10.8,7,11,7,11z M5.5,11.7c0,0.1-0.3,0.3-0.4,0.4C5,12,4.9,11.9,4.8,11.8c0.2-0.6,1-1.6,1.3-2.1c0,0,0,0,0,0
			C6.3,9.8,6.4,9.9,6.5,10C6.2,10.5,5.9,11.1,5.5,11.7z M5.9,9.5c-0.5,0.7-0.2,0.1-0.6,0.8c0,0-0.5,0.8-0.8,1.3
			c-0.2-0.2-0.4-0.3-0.6-0.5C4.4,10.5,5,9.6,5.3,9C5.5,9.2,5.8,9.4,5.9,9.5C6,9.5,6,9.5,5.9,9.5z M4.8,9.5c-0.4,0.6-0.7,0.9-1.1,1.5
			c-0.2-0.1-0.3-0.2-0.5-0.4c0.1-0.1,0.2-0.3,0.3-0.5C4,9.6,4.3,9.1,4.7,8.5C4.9,8.7,5,8.8,5.2,8.9C5,9.2,4.8,9.4,4.8,9.5z
			 M3.4,10.1c0,0-0.2,0.2-0.3,0.3c-0.1-0.1-0.3-0.2-0.4-0.3c0.3-0.6,1-1.5,1.3-2C4,8.1,4,8.1,4,8c0.1,0.1,0.3,0.2,0.4,0.3
			C4.1,8.9,3.7,9.5,3.4,10.1z M3.8,8C3.4,8.6,2.6,9.5,2.4,9.9C2.2,9.7,2,9.6,1.8,9.4C2.3,8.9,3,8,3.4,7.5c0.2,0.1,0.3,0.3,0.5,0.4
			C3.9,7.9,3.8,8,3.8,8z M2.9,7.9C2.4,8.4,2.1,8.8,1.6,9.3C1.4,9.2,1.3,9,1.2,8.9c0-0.2,0.2-0.3,0.4-0.6C2,7.9,2.3,7.5,2.7,7
			c0.2,0.1,0.3,0.3,0.5,0.4C3.1,7.6,2.9,7.8,2.9,7.9z M2.5,6.8C2.5,6.8,2.5,6.8,2.5,6.8C2.5,6.8,2.5,6.8,2.5,6.8
			C2.1,7.3,1.7,7.9,1.4,8.4c0,0-0.2,0.2-0.3,0.3c-0.2-0.3,0-0.6,0.7-1.2C2,7.2,2.2,7,2.5,6.8z M2.3,6.5C2.3,6.5,2.3,6.5,2.3,6.5
			C2.3,6.5,2.3,6.5,2.3,6.5z M2.3,6.6C2.3,6.6,2.3,6.6,2.3,6.6C2.3,6.6,2.3,6.6,2.3,6.6z M2.4,6.7C2.4,6.7,2.4,6.7,2.4,6.7
			C2.4,6.7,2.4,6.7,2.4,6.7z M2.3,6.3C2.3,6.4,2.3,6.4,2.3,6.3C2.3,6.4,2.3,6.4,2.3,6.3z M2.4,5.9C2.4,6,2.4,6,2.4,6
			C2.4,6,2.4,6,2.4,5.9z M2.3,6.1C2.3,6.1,2.3,6.1,2.3,6.1C2.3,6.1,2.3,6.1,2.3,6.1z M2.3,6.2C2.3,6.3,2.3,6.3,2.3,6.2
			C2.3,6.3,2.3,6.3,2.3,6.2z M9,13.2c0.2-0.3,0.4-0.6,0.5-0.8c0.2,0.1,0.4,0.2,0.6,0.2h0C9.7,12.7,9.4,12.9,9,13.2z M13.9,13
			c0.1-0.1,0.2-0.3,0.3-0.5c0.3-0.5,0.6-0.9,0.9-1.4c0.2,0.1,0.4,0.1,0.6,0.2c-0.2,0.2-0.3,0.5-0.3,0.5c-0.4,0.6-0.7,0.9-1,1.4
			C14.2,13.2,14,13.1,13.9,13z M13.9,12.5c0,0-0.2,0.2-0.3,0.3c-0.1-0.1-0.3-0.1-0.4-0.2c0.2-0.5,0.6-1.2,0.9-1.7
			c0.2,0,0.5,0,0.7,0.1C14.5,11.6,14.2,12,13.9,12.5z M13.8,11.2c0,0-0.6,1-0.8,1.4c-0.2-0.1-0.5-0.1-0.7-0.2
			c0.3-0.4,0.6-0.9,0.8-1.3c0.3-0.1,0.6-0.1,0.9-0.1C13.9,11,13.8,11.1,13.8,11.2z M12.6,11.5c-0.3,0.5-0.4,0.6-0.6,0.9
			c-0.2,0-0.4,0-0.6,0c0,0,0-0.1,0.1-0.1c0.1-0.3,0.3-0.4,0.4-0.6c0.3-0.2,0.6-0.3,1-0.5C12.7,11.3,12.6,11.5,12.6,11.5z M11.2,12.3
			C11.1,12.3,11.1,12.3,11.2,12.3c-0.2,0.1-0.3,0.1-0.4,0.1c0.1-0.1,0.2-0.2,0.4-0.3c0.1-0.1,0.2-0.1,0.2-0.2
			C11.3,12,11.2,12.1,11.2,12.3z M10.6,12.4C10.6,12.4,10.6,12.4,10.6,12.4C10.6,12.4,10.6,12.4,10.6,12.4z M14.5,13.4
			c0.4-0.6,1-1.5,1.4-2c0.2,0.1,0.4,0.2,0.5,0.4c-0.4,0.6-0.8,1.2-1.2,1.9c0,0-0.1,0.2-0.2,0.4C14.9,13.8,14.7,13.6,14.5,13.4
			C14.5,13.5,14.5,13.5,14.5,13.4z M15.5,15.2c0-0.1,0.1-0.1,0.1-0.2c0.4-0.6,0.8-1.2,1.2-1.7c0.1-0.1,0.2-0.2,0.1-0.3
			c-0.1-0.1-0.3,0-0.3,0.1c-0.4,0.6-0.8,1.2-1.2,1.9c-0.1-0.2-0.2-0.5-0.3-0.7c0.1-0.3,0.3-0.6,0.5-0.9c0.3-0.4,0.6-0.9,0.9-1.3
			c0.3,0.4,0.6,0.9,0.6,1.4c0,0.1,0,0.2,0,0.4c-0.2,0.2-0.4,0.5-0.4,0.6c-0.4,0.6-0.8,1.1-1.2,1.7C15.6,15.8,15.6,15.5,15.5,15.2z
			 M15.6,17.2c0-0.2,0-0.5,0-0.8c0.1-0.1,0.1-0.2,0.2-0.2c0.3-0.5,1-1.5,1.4-2.1c0,0.8-0.1,1.6-0.8,2.4C16.2,16.7,15.9,17,15.6,17.2
			C15.6,17.2,15.6,17.2,15.6,17.2z M12.9,20.3c-0.1,0.2-0.2,0.4-0.3,0.5c-0.1,0.2-0.2,0.4-0.3,0.6c0.1-0.2,0.2-0.4,0.3-0.6
			C12.7,20.6,12.8,20.4,12.9,20.3z M13.2,19.8c-0.1,0.1-0.1,0.2-0.2,0.3C13.1,20,13.1,19.9,13.2,19.8z M10.5,28.6
			c-0.2-0.1-0.3-0.2-0.4-0.5c0.1-0.2,0.2-0.4,0.4-0.6c0.4-0.6,0.8-0.9,1.2-1.4c0.1-0.1,0.2-0.2,0.1-0.3c-0.1-0.1-0.3,0-0.3,0.1
			c-0.4,0.6-0.8,1-1.2,1.6c0,0.1-0.1,0.1-0.1,0.2c0-0.1-0.1-0.2-0.1-0.2c0-0.1,0-0.1,0-0.2c0-0.1,0-0.1,0-0.2c0-0.5,0.3-0.9,0.6-1.2
			c0.4-0.5,0.7-1.1,1.1-1.6c0.1-0.1,0.1-0.3,0-0.3c-0.1,0-0.2,0.1-0.2,0.2c-0.5,0.7-0.9,1.4-1.3,2.1c0,0.1-0.1,0.1-0.1,0.1
			c0-0.2,0-0.4,0.1-0.6c0.1-0.3,0.2-0.5,0.3-0.8c0.4-0.7,0.9-1.3,1.3-2c0,0,0.2-0.3,0.4-0.5c-0.4,1.4-0.4,2.7-0.1,3.6
			c0.1,0.2,0.1,0.3,0.2,0.5C11.6,27.2,10.9,28,10.5,28.6z M11.8,22.2c0.1-0.2,0.3-0.3,0.4-0.5c0,0.1-0.1,0.3-0.1,0.4
			c-0.2,0.3-0.7,0.8-0.7,0.9c-0.4,0.5-0.7,1-1,1.6C10.6,23.7,11.2,22.9,11.8,22.2z M10.7,28.7c0.4-0.5,1-1.3,1.4-1.9
			c0.1,0.2,0.3,0.2,0.6,0.2c0,0,0.1,0,0.1,0c-0.4,0.5-0.9,1.2-1.3,1.7C11.3,28.7,10.9,28.7,10.7,28.7z M11.9,28.6
			c0.4-0.5,0.9-1.2,1.2-1.6c0.2,0,0.3,0,0.5,0C13.3,27.4,12.4,28.3,11.9,28.6z M17.4,22c0.2-0.1,0.3-0.3,0.5-0.4
			C17.7,21.7,17.6,21.8,17.4,22z M16.4,23c0.1-0.2,0.3-0.3,0.4-0.5C16.7,22.6,16.6,22.8,16.4,23z M16.9,22.4
			c0.1-0.1,0.2-0.2,0.4-0.4C17.2,22.2,17.1,22.3,16.9,22.4z M20,20C20,20,20,20,20,20C20,20,20,20,20,20z M18.5,21
			c0.1-0.1,0.1-0.1,0.2-0.1C18.7,20.9,18.6,21,18.5,21z M19.2,20.5c0.1,0,0.1-0.1,0.2-0.1C19.3,20.4,19.3,20.5,19.2,20.5z
			 M25.6,11.5c-0.2,1.6-0.8,3.3-1.9,4.6c-1.5,1.9-3.6,2.9-5.6,4.3c-2.1,1.5-3,3.4-3.5,4.9c-0.1,0.4-0.1,0.9-0.6,1c-0.2,0-0.9,0-1,0
			c-0.5,0-0.6-0.2-0.7-0.8c-0.4-2.8,0.6-4.2,1.8-5.7c1-1.3,2.2-2.1,3.2-3.4c1.1-1.3,0.8-4.1-0.4-5.3c-0.9-0.9-2-1.1-3.4-1.1
			c-1.1,0-2.1,0.8-3.1,1.5c-0.2,0.1-0.6,0.1-0.7,0c-1.9-1.5-3.7-3-5.6-4.4C3,6.4,3,6.2,4,5.2c1.5-1.4,3-2.8,4.9-3.6
			c1.8-0.7,3.7-1.1,5.7-0.9c3.7,0.3,7.2,1.9,8.5,3.7C25.2,7.3,25.9,9.3,25.6,11.5z"/>
		<path fill="#333333" d="M13.5,30.3c-1.2,0-2.3,0.5-3,1.4c-0.5,0.3-1.6,1.6-2,2c-0.7,0.6-1.1,1.5-1.1,2.6c0,0.7,0.2,1.4,0.6,2l0,0c0,0,0,0,0,0
			c0.7,1,1.9,1.7,3,1.7c1,0,2-0.4,2.7-1c0.4-0.4,1.9-1.6,2.2-2.2c0.7-0.6,1.1-1.4,1.1-2.4C17,32.1,15.5,30.3,13.5,30.3z M8.2,36.2
			C8.2,36.2,8.2,36.2,8.2,36.2c0.5-0.8,1-1.5,1.5-2.1c0,0.3,0,0.6,0.1,0.9c0,0.1-0.1,0.1-0.1,0.2c-0.4,0.7-0.9,1.4-1.4,2.1
			C8.2,36.9,8.2,36.5,8.2,36.2z M8.9,34.2C9,34.1,9.4,33.5,9.8,33c-0.1,0.2-0.1,0.4-0.1,0.6c-0.2,0.2-0.4,0.4-0.5,0.7
			c-0.3,0.6-0.7,1.2-1,1.7C8.2,35.3,8.5,34.7,8.9,34.2z M8.4,37.4c0.1-0.1,0.2-0.3,0.3-0.4c0.3-0.5,0.7-1,1.1-1.5
			c0,0,0.1-0.1,0.1-0.1l0,0c0.1,0.2,0.2,0.4,0.3,0.5c-0.4,0.7-0.9,1.4-1.3,2.1c0,0,0,0,0,0.1C8.6,37.8,8.5,37.6,8.4,37.4z M8.9,38.1
			C8.9,38.1,9,38,9,37.9c0.4-0.7,0.9-1.3,1.3-1.9c0.3,0.4,0.7,0.8,1.2,1.1c0,0,0,0.1,0,0.1c-0.4,0.6-0.8,1.2-1.2,1.8c0,0,0,0,0,0
			C10,39,9.8,38.9,9.6,38.8c0.3-0.5,0.6-0.9,1-1.4c0.1-0.1,0.2-0.2,0.1-0.3c-0.1-0.1-0.3,0-0.3,0.1c-0.3,0.5-0.6,1-0.9,1.5
			C9.3,38.5,9.1,38.3,8.9,38.1z M10.9,39.3c-0.2,0-0.3-0.1-0.5-0.1c0.1-0.2,0.3-0.4,0.4-0.6l0-0.1c0.2-0.3,0.5-0.6,0.7-0.9
			c0,0,0.1-0.1,0.1-0.1l0-0.2c0.2,0.1,0.4,0.2,0.5,0.3c-0.4,0.6-0.7,1.1-1.1,1.7C10.9,39.2,10.9,39.2,10.9,39.3z M11,39.3
			c0.1-0.2,0.2-0.3,0.4-0.5c0.2-0.4,0.5-0.8,0.8-1.1c0,0,0,0,0.1-0.1c0.2,0.1,0.4,0.1,0.6,0.1c-0.3,0.5-0.7,1-1,1.5c0,0,0,0,0,0
			c-0.2,0-0.4,0.1-0.6,0.1C11.2,39.3,11.1,39.3,11,39.3z M12,39.2c0.1-0.1,0.2-0.2,0.3-0.4c0.2-0.4,0.5-0.7,0.8-1.1
			c0.1,0,0.2,0,0.3,0c0.1,0,0.2,0,0.2,0c-0.2,0.4-0.4,0.7-0.7,1.1C12.6,39,12.3,39.1,12,39.2z M13.3,38.4c-0.1,0.1-0.1,0.1-0.2,0.2
			c0.2-0.3,0.4-0.6,0.6-0.9c0.2,0,0.4-0.1,0.6-0.1C13.9,37.9,13.4,38.3,13.3,38.4z M16.5,34.4c-0.1,1.3-1.6,2.7-3,2.6
			c-1.6,0-3.1-1.6-3.1-3.1c0.1-1.7,1.3-3,2.9-3C15.2,31.1,16.6,32.6,16.5,34.4z"/>
	</g>
</g>
</svg>
